%FSLAX34Y34*%
%MOMM*%
%LNSILK_TOP*%
G71*
G01*
%ADD10C, 6.00*%
%ADD11C, 1.80*%
%ADD12C, 2.00*%
%ADD13C, 0.50*%
%ADD14C, 1.00*%
%ADD15C, 1.00*%
%ADD16C, 2.00*%
%LPD*%
X-50800Y-1644650D02*
G54D10*
D03*
X-50800Y-50800D02*
G54D10*
D03*
X-698500Y-1644650D02*
G54D10*
D03*
X-698500Y-50800D02*
G54D10*
D03*
X-222250Y-685800D02*
G54D11*
D03*
X-222250Y-660400D02*
G54D11*
D03*
X-222250Y-635000D02*
G54D11*
D03*
X-222250Y-609600D02*
G54D11*
D03*
X-374650Y-685800D02*
G54D11*
D03*
X-374650Y-660400D02*
G54D11*
D03*
X-374650Y-635000D02*
G54D11*
D03*
X-374650Y-609600D02*
G54D11*
D03*
X-222250Y-584200D02*
G54D11*
D03*
X-374650Y-584200D02*
G54D11*
D03*
X-222250Y-558800D02*
G54D11*
D03*
X-222250Y-533400D02*
G54D11*
D03*
X-374650Y-558800D02*
G54D11*
D03*
X-374650Y-533400D02*
G54D11*
D03*
X-222250Y-508000D02*
G54D11*
D03*
X-374650Y-508000D02*
G54D11*
D03*
X-222250Y-482600D02*
G54D11*
D03*
X-374650Y-482600D02*
G54D11*
D03*
X-222250Y-457200D02*
G54D11*
D03*
X-374650Y-457200D02*
G54D11*
D03*
X-374650Y-431800D02*
G54D11*
D03*
X-374650Y-406400D02*
G54D11*
D03*
X-222250Y-431800D02*
G54D11*
D03*
X-222250Y-406400D02*
G54D11*
D03*
X-222250Y-381000D02*
G54D11*
D03*
X-222250Y-355600D02*
G54D11*
D03*
X-374650Y-381000D02*
G54D11*
D03*
X-374650Y-355600D02*
G54D11*
D03*
X-374650Y-330200D02*
G54D11*
D03*
X-374650Y-304800D02*
G54D11*
D03*
X-374650Y-279400D02*
G54D11*
D03*
X-374650Y-254000D02*
G54D11*
D03*
X-374650Y-228600D02*
G54D11*
D03*
X-374650Y-203200D02*
G54D11*
D03*
X-222250Y-330200D02*
G54D11*
D03*
X-222250Y-304800D02*
G54D11*
D03*
X-222250Y-279400D02*
G54D11*
D03*
X-222250Y-254000D02*
G54D11*
D03*
X-222250Y-228600D02*
G54D11*
D03*
X-222250Y-203200D02*
G54D11*
D03*
X-558800Y-330200D02*
G54D11*
D03*
X-558800Y-355600D02*
G54D11*
D03*
X-558800Y-381000D02*
G54D11*
D03*
X-558800Y-406400D02*
G54D11*
D03*
X-406400Y-330200D02*
G54D11*
D03*
X-406400Y-355600D02*
G54D11*
D03*
X-406400Y-381000D02*
G54D11*
D03*
X-406400Y-406400D02*
G54D11*
D03*
X-558800Y-431800D02*
G54D11*
D03*
X-406400Y-431800D02*
G54D11*
D03*
X-558800Y-457200D02*
G54D11*
D03*
X-558800Y-482600D02*
G54D11*
D03*
X-406400Y-457200D02*
G54D11*
D03*
X-406400Y-482600D02*
G54D11*
D03*
X-558800Y-508000D02*
G54D11*
D03*
X-406400Y-508000D02*
G54D11*
D03*
X-558800Y-533400D02*
G54D11*
D03*
X-406400Y-533400D02*
G54D11*
D03*
X-558800Y-558800D02*
G54D11*
D03*
X-406400Y-558800D02*
G54D11*
D03*
X-406400Y-584200D02*
G54D11*
D03*
X-406400Y-609600D02*
G54D11*
D03*
X-558800Y-584200D02*
G54D11*
D03*
X-558800Y-609600D02*
G54D11*
D03*
X-558800Y-660400D02*
G54D11*
D03*
X-558800Y-685800D02*
G54D11*
D03*
X-558800Y-711200D02*
G54D11*
D03*
X-558800Y-736600D02*
G54D11*
D03*
X-406400Y-660400D02*
G54D11*
D03*
X-406400Y-685800D02*
G54D11*
D03*
X-406400Y-711200D02*
G54D11*
D03*
X-406400Y-736600D02*
G54D11*
D03*
X-558800Y-762000D02*
G54D11*
D03*
X-406400Y-762000D02*
G54D11*
D03*
X-558800Y-787400D02*
G54D11*
D03*
X-558800Y-812800D02*
G54D11*
D03*
X-406400Y-787400D02*
G54D11*
D03*
X-406400Y-812800D02*
G54D11*
D03*
X-558800Y-838200D02*
G54D11*
D03*
X-406400Y-838200D02*
G54D11*
D03*
X-558800Y-863600D02*
G54D11*
D03*
X-406400Y-863600D02*
G54D11*
D03*
X-558800Y-889000D02*
G54D11*
D03*
X-406400Y-889000D02*
G54D11*
D03*
X-406400Y-914400D02*
G54D11*
D03*
X-406400Y-939800D02*
G54D11*
D03*
X-558800Y-914400D02*
G54D11*
D03*
X-558800Y-939800D02*
G54D11*
D03*
X-666750Y-304800D02*
G54D11*
D03*
X-666750Y-330200D02*
G54D11*
D03*
X-666750Y-355600D02*
G54D11*
D03*
X-666750Y-381000D02*
G54D11*
D03*
X-590550Y-304800D02*
G54D11*
D03*
X-590550Y-330200D02*
G54D11*
D03*
X-590550Y-355600D02*
G54D11*
D03*
X-590550Y-381000D02*
G54D11*
D03*
X-666750Y-406400D02*
G54D11*
D03*
X-590550Y-406400D02*
G54D11*
D03*
X-666750Y-431800D02*
G54D11*
D03*
X-666750Y-457200D02*
G54D11*
D03*
X-590550Y-431800D02*
G54D11*
D03*
X-590550Y-457200D02*
G54D11*
D03*
X-666750Y-482600D02*
G54D11*
D03*
X-590550Y-482600D02*
G54D11*
D03*
X-666750Y-508000D02*
G54D11*
D03*
X-590550Y-508000D02*
G54D11*
D03*
X-666750Y-533400D02*
G54D11*
D03*
X-590550Y-533400D02*
G54D11*
D03*
X-171450Y-863600D02*
G54D11*
D03*
X-196850Y-863600D02*
G54D11*
D03*
X-222250Y-863600D02*
G54D11*
D03*
X-247650Y-863600D02*
G54D11*
D03*
X-171450Y-939800D02*
G54D11*
D03*
X-196850Y-939800D02*
G54D11*
D03*
X-222250Y-939800D02*
G54D11*
D03*
X-247650Y-939800D02*
G54D11*
D03*
X-273050Y-863600D02*
G54D11*
D03*
X-273050Y-939800D02*
G54D11*
D03*
X-298450Y-863600D02*
G54D11*
D03*
X-323850Y-863600D02*
G54D11*
D03*
X-298450Y-939800D02*
G54D11*
D03*
X-323850Y-939800D02*
G54D11*
D03*
X-400050Y-1333500D02*
G54D11*
D03*
X-425450Y-1333500D02*
G54D11*
D03*
X-450850Y-1333500D02*
G54D11*
D03*
X-476250Y-1333500D02*
G54D11*
D03*
X-400050Y-1409700D02*
G54D11*
D03*
X-425450Y-1409700D02*
G54D11*
D03*
X-450850Y-1409700D02*
G54D11*
D03*
X-476250Y-1409700D02*
G54D11*
D03*
X-501650Y-1333500D02*
G54D11*
D03*
X-501650Y-1409700D02*
G54D11*
D03*
X-527050Y-1333500D02*
G54D11*
D03*
X-552450Y-1333500D02*
G54D11*
D03*
X-527050Y-1409700D02*
G54D11*
D03*
X-552450Y-1409700D02*
G54D11*
D03*
X-590550Y-1422400D02*
G54D11*
D03*
X-590550Y-1397000D02*
G54D11*
D03*
X-590550Y-1371600D02*
G54D11*
D03*
X-590550Y-1346200D02*
G54D11*
D03*
X-666750Y-1422400D02*
G54D11*
D03*
X-666750Y-1397000D02*
G54D11*
D03*
X-666750Y-1371600D02*
G54D11*
D03*
X-666750Y-1346200D02*
G54D11*
D03*
X-590550Y-1320800D02*
G54D11*
D03*
X-666750Y-1320800D02*
G54D11*
D03*
X-590550Y-1295400D02*
G54D11*
D03*
X-590550Y-1270000D02*
G54D11*
D03*
X-666750Y-1295400D02*
G54D11*
D03*
X-666750Y-1270000D02*
G54D11*
D03*
X-323850Y-1041400D02*
G54D11*
D03*
X-298450Y-1041400D02*
G54D11*
D03*
X-273050Y-1041400D02*
G54D11*
D03*
X-247650Y-1041400D02*
G54D11*
D03*
X-323850Y-965200D02*
G54D11*
D03*
X-298450Y-965200D02*
G54D11*
D03*
X-273050Y-965200D02*
G54D11*
D03*
X-247650Y-965200D02*
G54D11*
D03*
X-222250Y-1041400D02*
G54D11*
D03*
X-222250Y-965200D02*
G54D11*
D03*
X-196850Y-1041400D02*
G54D11*
D03*
X-171450Y-1041400D02*
G54D11*
D03*
X-196850Y-965200D02*
G54D11*
D03*
X-171450Y-965200D02*
G54D11*
D03*
X-146050Y-1041400D02*
G54D11*
D03*
X-146050Y-965200D02*
G54D11*
D03*
X-323850Y-838200D02*
G54D11*
D03*
X-298450Y-838200D02*
G54D11*
D03*
X-273050Y-838200D02*
G54D11*
D03*
X-247650Y-838200D02*
G54D11*
D03*
X-323850Y-762000D02*
G54D11*
D03*
X-298450Y-762000D02*
G54D11*
D03*
X-273050Y-762000D02*
G54D11*
D03*
X-247650Y-762000D02*
G54D11*
D03*
X-222250Y-838200D02*
G54D11*
D03*
X-222250Y-762000D02*
G54D11*
D03*
X-196850Y-838200D02*
G54D11*
D03*
X-171450Y-838200D02*
G54D11*
D03*
X-196850Y-762000D02*
G54D11*
D03*
X-171450Y-762000D02*
G54D11*
D03*
X-146050Y-838200D02*
G54D11*
D03*
X-146050Y-762000D02*
G54D11*
D03*
X-114300Y-723900D02*
G54D11*
D03*
X-114300Y-698500D02*
G54D11*
D03*
X-114300Y-673100D02*
G54D11*
D03*
X-114300Y-647700D02*
G54D11*
D03*
X-190500Y-723900D02*
G54D11*
D03*
X-190500Y-698500D02*
G54D11*
D03*
X-190500Y-673100D02*
G54D11*
D03*
X-190500Y-647700D02*
G54D11*
D03*
X-114300Y-622300D02*
G54D11*
D03*
X-190500Y-622300D02*
G54D11*
D03*
X-114300Y-596900D02*
G54D11*
D03*
X-114300Y-571500D02*
G54D11*
D03*
X-190500Y-596900D02*
G54D11*
D03*
X-190500Y-571500D02*
G54D11*
D03*
X-114300Y-546100D02*
G54D11*
D03*
X-190500Y-546100D02*
G54D11*
D03*
X-666750Y-508000D02*
G54D11*
D03*
X-558800Y-533400D02*
G54D11*
D03*
X-558800Y-558800D02*
G54D11*
D03*
X-558800Y-584200D02*
G54D11*
D03*
X-82550Y-323850D02*
G54D12*
D03*
G54D13*
X-558800Y-787400D02*
X-555625Y-787400D01*
X-482600Y-714375D01*
X-482600Y-682625D01*
X-425450Y-625475D01*
X-390525Y-625475D01*
X-374650Y-609600D01*
G54D13*
X-374650Y-635000D02*
X-422275Y-635000D01*
X-473075Y-685800D01*
X-473075Y-723900D01*
X-473075Y-727075D01*
X-558800Y-812800D01*
G54D13*
X-558800Y-838200D02*
X-463550Y-742950D01*
X-463550Y-733425D01*
X-463550Y-688975D01*
X-419100Y-644525D01*
X-390525Y-644525D01*
X-374650Y-660400D01*
G54D13*
X-558800Y-762000D02*
X-549275Y-762000D01*
X-492125Y-704850D01*
X-492125Y-679450D01*
X-422275Y-609600D01*
X-406400Y-609600D01*
G54D13*
X-558800Y-736600D02*
X-542925Y-736600D01*
X-501650Y-695325D01*
X-501650Y-676275D01*
X-409575Y-584200D01*
X-406400Y-584200D01*
G54D13*
X-558800Y-711200D02*
X-536575Y-711200D01*
X-511175Y-685800D01*
X-511175Y-673100D01*
X-422275Y-584200D01*
X-422275Y-574675D01*
X-406400Y-558800D01*
G54D13*
X-558800Y-685800D02*
X-530225Y-685800D01*
X-520700Y-676275D01*
X-520700Y-669925D01*
X-431800Y-581025D01*
X-431800Y-558800D01*
X-406400Y-533400D01*
G54D13*
X-558800Y-660400D02*
X-546100Y-660400D01*
X-539750Y-666750D01*
X-530225Y-666750D01*
X-441325Y-577850D01*
X-441325Y-542925D01*
X-406400Y-508000D01*
X-450850Y-1308100D02*
G54D11*
D03*
X-400050Y-1308100D02*
G54D11*
D03*
X-406400Y-482600D02*
G54D11*
D03*
G54D13*
X-406400Y-457200D02*
X-390525Y-441325D01*
X-390525Y-269875D01*
X-374650Y-254000D01*
G54D14*
X-406400Y-406400D02*
X-425450Y-406400D01*
X-425450Y-336550D01*
X-419100Y-330200D01*
X-406400Y-330200D01*
X-374650Y-431800D02*
G54D11*
D03*
X-590550Y-749300D02*
G54D11*
D03*
X-590550Y-723900D02*
G54D11*
D03*
X-590550Y-698500D02*
G54D11*
D03*
X-590550Y-673100D02*
G54D11*
D03*
X-666750Y-749300D02*
G54D11*
D03*
X-666750Y-723900D02*
G54D11*
D03*
X-666750Y-698500D02*
G54D11*
D03*
X-666750Y-673100D02*
G54D11*
D03*
X-590550Y-647700D02*
G54D11*
D03*
X-666750Y-647700D02*
G54D11*
D03*
X-590550Y-622300D02*
G54D11*
D03*
X-590550Y-596900D02*
G54D11*
D03*
X-666750Y-622300D02*
G54D11*
D03*
X-666750Y-596900D02*
G54D11*
D03*
X-666750Y-787400D02*
G54D11*
D03*
X-666750Y-812800D02*
G54D11*
D03*
X-666750Y-838200D02*
G54D11*
D03*
X-666750Y-863600D02*
G54D11*
D03*
X-590550Y-787400D02*
G54D11*
D03*
X-590550Y-812800D02*
G54D11*
D03*
X-590550Y-838200D02*
G54D11*
D03*
X-590550Y-863600D02*
G54D11*
D03*
X-666750Y-889000D02*
G54D11*
D03*
X-590550Y-889000D02*
G54D11*
D03*
X-666750Y-914400D02*
G54D11*
D03*
X-666750Y-939800D02*
G54D11*
D03*
X-590550Y-914400D02*
G54D11*
D03*
X-590550Y-939800D02*
G54D11*
D03*
X-323850Y-1460500D02*
G54D11*
D03*
X-298450Y-1460500D02*
G54D11*
D03*
X-273050Y-1460500D02*
G54D11*
D03*
X-247650Y-1460500D02*
G54D11*
D03*
X-323850Y-1384300D02*
G54D11*
D03*
X-298450Y-1384300D02*
G54D11*
D03*
X-273050Y-1384300D02*
G54D11*
D03*
X-247650Y-1384300D02*
G54D11*
D03*
X-222250Y-1460500D02*
G54D11*
D03*
X-222250Y-1384300D02*
G54D11*
D03*
X-196850Y-1460500D02*
G54D11*
D03*
X-171450Y-1460500D02*
G54D11*
D03*
X-196850Y-1384300D02*
G54D11*
D03*
X-171450Y-1384300D02*
G54D11*
D03*
X-146050Y-1460500D02*
G54D11*
D03*
X-146050Y-1384300D02*
G54D11*
D03*
X-552450Y-1517650D02*
G54D11*
D03*
X-527050Y-1517650D02*
G54D11*
D03*
X-501650Y-1517650D02*
G54D11*
D03*
X-476250Y-1517650D02*
G54D11*
D03*
X-552450Y-1441450D02*
G54D11*
D03*
X-527050Y-1441450D02*
G54D11*
D03*
X-501650Y-1441450D02*
G54D11*
D03*
X-476250Y-1441450D02*
G54D11*
D03*
X-450850Y-1517650D02*
G54D11*
D03*
X-450850Y-1441450D02*
G54D11*
D03*
X-425450Y-1517650D02*
G54D11*
D03*
X-400050Y-1517650D02*
G54D11*
D03*
X-425450Y-1441450D02*
G54D11*
D03*
X-400050Y-1441450D02*
G54D11*
D03*
X-374650Y-1517650D02*
G54D11*
D03*
X-374650Y-1441450D02*
G54D11*
D03*
X-558800Y-990600D02*
G54D11*
D03*
X-558800Y-1016000D02*
G54D11*
D03*
X-558800Y-1041400D02*
G54D11*
D03*
X-558800Y-1066800D02*
G54D11*
D03*
X-406400Y-990600D02*
G54D11*
D03*
X-406400Y-1016000D02*
G54D11*
D03*
X-406400Y-1041400D02*
G54D11*
D03*
X-406400Y-1066800D02*
G54D11*
D03*
X-558800Y-1092200D02*
G54D11*
D03*
X-406400Y-1092200D02*
G54D11*
D03*
X-558800Y-1117600D02*
G54D11*
D03*
X-558800Y-1143000D02*
G54D11*
D03*
X-406400Y-1117600D02*
G54D11*
D03*
X-406400Y-1143000D02*
G54D11*
D03*
X-558800Y-1168400D02*
G54D11*
D03*
X-406400Y-1168400D02*
G54D11*
D03*
X-558800Y-1193800D02*
G54D11*
D03*
X-406400Y-1193800D02*
G54D11*
D03*
X-558800Y-1219200D02*
G54D11*
D03*
X-406400Y-1219200D02*
G54D11*
D03*
X-406400Y-1244600D02*
G54D11*
D03*
X-406400Y-1270000D02*
G54D11*
D03*
X-558800Y-1244600D02*
G54D11*
D03*
X-558800Y-1270000D02*
G54D11*
D03*
X-666750Y-698500D02*
G54D11*
D03*
X-558800Y-1193800D02*
G54D11*
D03*
X-558800Y-609600D02*
G54D11*
D03*
X-558800Y-990600D02*
G54D11*
D03*
X-558800Y-1016000D02*
G54D11*
D03*
X-558800Y-1041400D02*
G54D11*
D03*
X-558800Y-1066800D02*
G54D11*
D03*
X-558800Y-1092200D02*
G54D11*
D03*
X-558800Y-1117600D02*
G54D11*
D03*
X-558800Y-1143000D02*
G54D11*
D03*
X-558800Y-1168400D02*
G54D11*
D03*
X-454025Y-803275D02*
G54D15*
D03*
X-444500Y-793750D02*
G54D15*
D03*
G54D13*
X-444500Y-793750D02*
X-438150Y-793750D01*
X-406400Y-762000D01*
X-406400Y-762000D01*
G54D13*
X-454025Y-803275D02*
X-422275Y-803275D01*
X-406400Y-787400D01*
X-406400Y-1016000D02*
G54D11*
D03*
X-406400Y-1092200D02*
G54D11*
D03*
X-406400Y-1117600D02*
G54D11*
D03*
X-190500Y-330200D02*
G54D11*
D03*
G54D13*
X-590550Y-533400D02*
X-574675Y-549275D01*
X-574675Y-619125D01*
X-568325Y-625475D01*
X-527050Y-625475D01*
X-498475Y-596900D01*
X-498475Y-590550D01*
X-482600Y-574675D01*
X-469900Y-574675D01*
X-460375Y-565150D01*
X-450850Y-565150D01*
X-406400Y-685800D02*
G54D11*
D03*
G54D14*
X-406400Y-254000D02*
X-406400Y-323850D01*
X-530225Y-666750D02*
G54D15*
D03*
X-520700Y-676275D02*
G54D15*
D03*
X-511175Y-685800D02*
G54D15*
D03*
X-501650Y-695325D02*
G54D15*
D03*
X-492125Y-704850D02*
G54D15*
D03*
X-482600Y-714375D02*
G54D15*
D03*
X-473075Y-723900D02*
G54D15*
D03*
X-463550Y-733425D02*
G54D15*
D03*
X-558800Y-508000D02*
G54D11*
D03*
X-558800Y-482600D02*
G54D11*
D03*
X-666750Y-431800D02*
G54D11*
D03*
X-666750Y-406400D02*
G54D11*
D03*
X-666750Y-381000D02*
G54D11*
D03*
X-666750Y-355600D02*
G54D11*
D03*
X-666750Y-330200D02*
G54D11*
D03*
X-406400Y-609600D02*
G54D11*
D03*
X-406400Y-584200D02*
G54D11*
D03*
X-406400Y-558800D02*
G54D11*
D03*
X-406400Y-533400D02*
G54D11*
D03*
X-406400Y-508000D02*
G54D11*
D03*
X-641350Y-482600D02*
G54D15*
D03*
X-631825Y-473075D02*
G54D15*
D03*
G54D13*
X-666750Y-482600D02*
X-641350Y-482600D01*
G54D13*
X-666750Y-457200D02*
X-647700Y-457200D01*
X-631825Y-473075D01*
X-476250Y-596900D02*
G54D15*
D03*
X-406400Y-1066800D02*
G54D11*
D03*
X-266700Y-723900D02*
G54D11*
D03*
X-215900Y-723900D02*
G54D11*
D03*
X-558800Y-457200D02*
G54D11*
D03*
X-558800Y-431800D02*
G54D11*
D03*
X-406400Y-736600D02*
G54D11*
D03*
X-406400Y-1143000D02*
G54D11*
D03*
X-406400Y-1219200D02*
G54D11*
D03*
G54D13*
X-558800Y-863600D02*
X-546100Y-863600D01*
X-533400Y-850900D01*
X-463550Y-850900D01*
G54D13*
X-406400Y-889000D02*
X-463550Y-889000D01*
G54D13*
X-406400Y-812800D02*
X-463550Y-812800D01*
X-463550Y-889000D02*
G54D15*
D03*
X-641350Y-565150D02*
G54D11*
D03*
X-590550Y-565150D02*
G54D11*
D03*
X-590550Y-565150D02*
G54D11*
D03*
X-666750Y-533400D02*
G54D11*
D03*
G54D13*
X-590550Y-647700D02*
X-603250Y-647700D01*
X-606425Y-644525D01*
X-606425Y-511175D01*
X-603250Y-508000D01*
X-590550Y-508000D01*
G54D13*
X-590550Y-673100D02*
X-615950Y-647700D01*
X-615950Y-508000D01*
X-590550Y-482600D01*
G54D13*
X-590550Y-431800D02*
X-603250Y-431800D01*
X-606425Y-434975D01*
X-606425Y-485775D01*
X-625475Y-504825D01*
X-625475Y-650875D01*
X-606425Y-669925D01*
X-606425Y-733425D01*
X-590550Y-749300D01*
G54D14*
X-666750Y-749300D02*
X-641350Y-749300D01*
X-641350Y-565150D01*
X-590550Y-596900D02*
G54D11*
D03*
G54D13*
X-590550Y-723900D02*
X-574675Y-708025D01*
X-574675Y-650875D01*
X-568325Y-644525D01*
X-520700Y-644525D01*
X-476250Y-600075D01*
X-476250Y-596900D01*
X-552450Y-625475D02*
G54D15*
D03*
X-457200Y-577850D02*
G54D15*
D03*
X-574675Y-635000D02*
G54D15*
D03*
G54D13*
X-574675Y-635000D02*
X-523875Y-635000D01*
X-488950Y-600075D01*
X-488950Y-593725D01*
X-479425Y-584200D01*
X-463550Y-584200D01*
X-457200Y-577850D01*
X-666750Y-723900D02*
G54D11*
D03*
X-666750Y-673100D02*
G54D11*
D03*
X-590550Y-622300D02*
G54D11*
D03*
X-590550Y-698500D02*
G54D11*
D03*
X-590550Y-863600D02*
G54D11*
D03*
G54D13*
X-574675Y-863600D02*
X-558800Y-863600D01*
X-558800Y-914400D02*
G54D11*
D03*
X-666750Y-787400D02*
G54D11*
D03*
G54D13*
X-590550Y-914400D02*
X-574675Y-898525D01*
X-574675Y-854075D01*
X-590550Y-838200D01*
X-666750Y-838200D02*
G54D11*
D03*
X-666750Y-914400D02*
G54D11*
D03*
G54D13*
X-590550Y-508000D02*
X-558800Y-508000D01*
G54D13*
X-558800Y-482600D02*
X-590550Y-482600D01*
G54D13*
X-590550Y-457200D02*
X-558800Y-457200D01*
G54D13*
X-558800Y-431800D02*
X-590550Y-431800D01*
G54D13*
X-590550Y-406400D02*
X-558800Y-406400D01*
G54D13*
X-590550Y-381000D02*
X-558800Y-381000D01*
G54D13*
X-590550Y-355600D02*
X-558800Y-355600D01*
G54D13*
X-590550Y-330200D02*
X-558800Y-330200D01*
G54D14*
X-666750Y-939800D02*
X-590550Y-939800D01*
G54D14*
X-666750Y-889000D02*
X-666750Y-863600D01*
G54D14*
X-666750Y-939800D02*
X-679450Y-939800D01*
X-685800Y-933450D01*
X-685800Y-895350D01*
X-679450Y-889000D01*
X-666750Y-889000D01*
G54D14*
X-666750Y-647700D02*
X-666750Y-622300D01*
G54D14*
X-590550Y-939800D02*
X-558800Y-939800D01*
G54D14*
X-641350Y-749300D02*
X-628650Y-749300D01*
X-590550Y-787400D01*
X-666750Y-622300D02*
G54D11*
D03*
X-558800Y-292100D02*
G54D11*
D03*
X-508000Y-292100D02*
G54D11*
D03*
X-457200Y-292100D02*
G54D11*
D03*
X-406400Y-292100D02*
G54D11*
D03*
X-457200Y-552450D02*
G54D15*
D03*
X-457200Y-542925D02*
G54D15*
D03*
X-406400Y-660400D02*
G54D11*
D03*
G54D14*
X-457200Y-552450D02*
X-457200Y-539750D01*
X-425450Y-508000D01*
X-425450Y-406400D01*
G36*
X-558800Y-612775D02*
X-533400Y-612775D01*
X-511175Y-590550D01*
X-511175Y-584200D01*
X-488950Y-561975D01*
X-476250Y-561975D01*
X-473075Y-558800D01*
X-473075Y-533400D01*
X-441325Y-501650D01*
X-441325Y-295275D01*
X-447675Y-288925D01*
X-539750Y-288925D01*
X-539750Y-596900D01*
X-549275Y-606425D01*
X-558800Y-606425D01*
X-558800Y-612775D01*
G37*
G54D14*
X-558800Y-612775D02*
X-533400Y-612775D01*
X-511175Y-590550D01*
X-511175Y-584200D01*
X-488950Y-561975D01*
X-476250Y-561975D01*
X-473075Y-558800D01*
X-473075Y-533400D01*
X-441325Y-501650D01*
X-441325Y-295275D01*
X-447675Y-288925D01*
X-539750Y-288925D01*
X-539750Y-596900D01*
X-549275Y-606425D01*
X-558800Y-606425D01*
X-558800Y-612775D01*
G54D14*
X-590550Y-304800D02*
X-577850Y-292100D01*
X-558800Y-292100D01*
X-558800Y-292100D02*
G54D11*
D03*
X-463550Y-812800D02*
G54D15*
D03*
X-463550Y-850900D02*
G54D15*
D03*
G54D14*
X-450850Y-692150D02*
X-425450Y-666750D01*
X-425450Y-755650D01*
X-476250Y-806450D01*
X-476250Y-819150D01*
X-469900Y-825500D01*
X-428625Y-825500D01*
X-425450Y-828675D01*
X-425450Y-863600D01*
G36*
X-539750Y-1244600D02*
X-539750Y-873125D01*
X-530225Y-863600D01*
X-457200Y-863600D01*
X-450850Y-857250D01*
X-450850Y-844550D01*
X-457200Y-838200D01*
X-530225Y-838200D01*
X-533400Y-835025D01*
X-533400Y-828675D01*
X-450850Y-746125D01*
X-450850Y-692150D01*
X-425450Y-666750D01*
X-425450Y-765175D01*
X-441325Y-781050D01*
X-450850Y-781050D01*
X-476250Y-806450D01*
X-476250Y-819150D01*
X-469900Y-825500D01*
X-428625Y-825500D01*
X-425450Y-828675D01*
X-425450Y-869950D01*
X-431800Y-876300D01*
X-469900Y-876300D01*
X-476250Y-882650D01*
X-476250Y-895350D01*
X-469900Y-901700D01*
X-431800Y-901700D01*
X-425450Y-908050D01*
X-425450Y-1019175D01*
X-434975Y-1028700D01*
X-434975Y-1066800D01*
X-444500Y-1076325D01*
X-444500Y-1171575D01*
X-434975Y-1181100D01*
X-425450Y-1181100D01*
X-425450Y-1187450D01*
X-419100Y-1193800D01*
X-425450Y-1200150D01*
X-425450Y-1270000D01*
X-428625Y-1273175D01*
X-428625Y-1311275D01*
X-431800Y-1314450D01*
X-501650Y-1314450D01*
X-508000Y-1308100D01*
X-508000Y-1276350D01*
X-539750Y-1244600D01*
G37*
G54D14*
X-539750Y-1244600D02*
X-539750Y-873125D01*
X-530225Y-863600D01*
X-457200Y-863600D01*
X-450850Y-857250D01*
X-450850Y-844550D01*
X-457200Y-838200D01*
X-530225Y-838200D01*
X-533400Y-835025D01*
X-533400Y-828675D01*
X-450850Y-746125D01*
X-450850Y-692150D01*
X-425450Y-666750D01*
X-425450Y-765175D01*
X-441325Y-781050D01*
X-450850Y-781050D01*
X-476250Y-806450D01*
X-476250Y-819150D01*
X-469900Y-825500D01*
X-428625Y-825500D01*
X-425450Y-828675D01*
X-425450Y-869950D01*
X-431800Y-876300D01*
X-469900Y-876300D01*
X-476250Y-882650D01*
X-476250Y-895350D01*
X-469900Y-901700D01*
X-431800Y-901700D01*
X-425450Y-908050D01*
X-425450Y-1019175D01*
X-434975Y-1028700D01*
X-434975Y-1066800D01*
X-444500Y-1076325D01*
X-444500Y-1171575D01*
X-434975Y-1181100D01*
X-425450Y-1181100D01*
X-425450Y-1187450D01*
X-419100Y-1193800D01*
X-425450Y-1200150D01*
X-425450Y-1270000D01*
X-428625Y-1273175D01*
X-428625Y-1311275D01*
X-431800Y-1314450D01*
X-501650Y-1314450D01*
X-508000Y-1308100D01*
X-508000Y-1276350D01*
X-539750Y-1244600D01*
G54D14*
X-406400Y-711200D02*
X-425450Y-711200D01*
G54D14*
X-406400Y-914400D02*
X-425450Y-914400D01*
G36*
X-425450Y-908050D02*
X-419100Y-914400D01*
X-425450Y-920750D01*
X-425450Y-908050D01*
G37*
G54D14*
X-425450Y-908050D02*
X-419100Y-914400D01*
X-425450Y-920750D01*
X-425450Y-908050D01*
G36*
X-425450Y-857250D02*
X-419100Y-863600D01*
X-425450Y-869950D01*
X-425450Y-857250D01*
G37*
G54D14*
X-425450Y-857250D02*
X-419100Y-863600D01*
X-425450Y-869950D01*
X-425450Y-857250D01*
G36*
X-425450Y-704850D02*
X-419100Y-711200D01*
X-425450Y-717550D01*
X-425450Y-704850D01*
G37*
G54D14*
X-425450Y-704850D02*
X-419100Y-711200D01*
X-425450Y-717550D01*
X-425450Y-704850D01*
X-292100Y-723900D02*
G54D11*
D03*
X-342900Y-723900D02*
G54D11*
D03*
X-196850Y-127000D02*
G54D11*
D03*
X-196850Y-177800D02*
G54D11*
D03*
G54D14*
X-590550Y-565150D02*
X-590550Y-596900D01*
X-584200Y-971550D02*
G54D11*
D03*
X-635000Y-971550D02*
G54D11*
D03*
X-552450Y-1308100D02*
G54D11*
D03*
X-501650Y-1308100D02*
G54D11*
D03*
X-406400Y-69850D02*
G54D11*
D03*
X-431800Y-69850D02*
G54D11*
D03*
X-457200Y-69850D02*
G54D11*
D03*
X-482600Y-69850D02*
G54D11*
D03*
X-406400Y-146050D02*
G54D11*
D03*
X-431800Y-146050D02*
G54D11*
D03*
X-457200Y-146050D02*
G54D11*
D03*
X-482600Y-146050D02*
G54D11*
D03*
X-508000Y-69850D02*
G54D11*
D03*
X-508000Y-146050D02*
G54D11*
D03*
X-533400Y-69850D02*
G54D11*
D03*
X-558800Y-69850D02*
G54D11*
D03*
X-533400Y-146050D02*
G54D11*
D03*
X-558800Y-146050D02*
G54D11*
D03*
X-406400Y-177800D02*
G54D11*
D03*
X-431800Y-177800D02*
G54D11*
D03*
X-457200Y-177800D02*
G54D11*
D03*
X-482600Y-177800D02*
G54D11*
D03*
X-406400Y-254000D02*
G54D11*
D03*
X-431800Y-254000D02*
G54D11*
D03*
X-457200Y-254000D02*
G54D11*
D03*
X-482600Y-254000D02*
G54D11*
D03*
X-508000Y-177800D02*
G54D11*
D03*
X-508000Y-254000D02*
G54D11*
D03*
X-533400Y-177800D02*
G54D11*
D03*
X-558800Y-177800D02*
G54D11*
D03*
X-533400Y-254000D02*
G54D11*
D03*
X-558800Y-254000D02*
G54D11*
D03*
X-508000Y-177800D02*
G54D11*
D03*
X-457200Y-254000D02*
G54D11*
D03*
X-558800Y-889000D02*
G54D11*
D03*
G54D14*
X-431800Y-254000D02*
X-406400Y-254000D01*
G54D14*
X-508000Y-254000D02*
X-508000Y-266700D01*
X-501650Y-273050D01*
X-438150Y-273050D01*
X-431800Y-266702D01*
X-431800Y-254000D01*
X-482600Y-254000D02*
G54D11*
D03*
G54D14*
X-406400Y-146050D02*
X-431800Y-146050D01*
X-431800Y-177800D01*
G54D13*
X-558800Y-146050D02*
X-542925Y-161925D01*
X-473075Y-161925D01*
X-457200Y-146050D01*
X-508000Y-146050D02*
G54D11*
D03*
X-482600Y-177800D02*
G54D11*
D03*
X-508000Y-254000D02*
G54D11*
D03*
G54D14*
X-549275Y-273050D02*
X-590550Y-273050D01*
G36*
X-539750Y-288925D02*
X-539750Y-282575D01*
X-549275Y-273050D01*
X-523875Y-273050D01*
X-508000Y-288925D01*
X-539750Y-288925D01*
G37*
G54D14*
X-539750Y-288925D02*
X-539750Y-282575D01*
X-549275Y-273050D01*
X-523875Y-273050D01*
X-508000Y-288925D01*
X-539750Y-288925D01*
X-441325Y-460375D02*
G54D15*
D03*
X-441325Y-469900D02*
G54D15*
D03*
X-533400Y-146050D02*
G54D11*
D03*
X-457200Y-146050D02*
G54D11*
D03*
X-222250Y-406400D02*
G54D11*
D03*
X-222250Y-381000D02*
G54D11*
D03*
X-158750Y-355600D02*
G54D11*
D03*
X-158750Y-381000D02*
G54D11*
D03*
X-158750Y-406400D02*
G54D11*
D03*
X-158750Y-431800D02*
G54D11*
D03*
X-82550Y-355600D02*
G54D11*
D03*
X-82550Y-381000D02*
G54D11*
D03*
X-82550Y-406400D02*
G54D11*
D03*
X-82550Y-431800D02*
G54D11*
D03*
X-158750Y-457200D02*
G54D11*
D03*
X-82550Y-457200D02*
G54D11*
D03*
X-158750Y-482600D02*
G54D11*
D03*
X-158750Y-508000D02*
G54D11*
D03*
X-82550Y-482600D02*
G54D11*
D03*
X-82550Y-508000D02*
G54D11*
D03*
X-158750Y-215900D02*
G54D11*
D03*
X-133350Y-215900D02*
G54D11*
D03*
X-107950Y-215900D02*
G54D11*
D03*
X-82550Y-215900D02*
G54D11*
D03*
X-158750Y-139700D02*
G54D11*
D03*
X-133350Y-139700D02*
G54D11*
D03*
X-107950Y-139700D02*
G54D11*
D03*
X-82550Y-139700D02*
G54D11*
D03*
X-158750Y-323850D02*
G54D12*
D03*
X-82550Y-323850D02*
G54D12*
D03*
X-355600Y-762000D02*
G54D11*
D03*
X-355600Y-812800D02*
G54D11*
D03*
G54D13*
X-238125Y-596900D02*
X-238125Y-320675D01*
X-222250Y-304800D01*
X-238125Y-596900D02*
G54D15*
D03*
X-190500Y-431800D02*
G54D12*
D03*
X-190500Y-355600D02*
G54D12*
D03*
X-196850Y-203200D02*
G54D11*
D03*
X-196850Y-254000D02*
G54D11*
D03*
X-190500Y-457200D02*
G54D11*
D03*
X-190500Y-482600D02*
G54D11*
D03*
X-190500Y-508000D02*
G54D11*
D03*
X-158750Y-273050D02*
G54D11*
D03*
X-133350Y-273050D02*
G54D11*
D03*
X-107950Y-273050D02*
G54D11*
D03*
X-82550Y-381000D02*
G54D11*
D03*
X-190500Y-457200D02*
G54D11*
D03*
X-222250Y-139700D02*
G54D12*
D03*
X-222250Y-139700D02*
G54D12*
D03*
X-222250Y-91300D02*
G54D12*
D03*
G54D13*
X-222250Y-228600D02*
X-209550Y-228600D01*
X-196850Y-241300D01*
X-196850Y-254000D01*
X-355600Y-69850D02*
G54D15*
D03*
X-158750Y-457200D02*
G54D11*
D03*
G54D13*
X-222250Y-457200D02*
X-190500Y-457200D01*
X-190500Y-431800D01*
G54D13*
X-190500Y-482600D02*
X-174625Y-466725D01*
X-174625Y-371475D01*
X-158750Y-355600D01*
G54D14*
X-190500Y-508000D02*
X-158750Y-508000D01*
X-190500Y-279400D02*
G54D11*
D03*
X-190500Y-330200D02*
G54D11*
D03*
G54D14*
X-190500Y-330200D02*
X-190500Y-355600D01*
X-158750Y-431800D02*
G54D11*
D03*
X-158750Y-406400D02*
G54D11*
D03*
G54D13*
X-158750Y-323850D02*
X-142875Y-323850D01*
X-142875Y-365125D01*
X-158750Y-381000D01*
G54D14*
X-82550Y-323850D02*
X-82550Y-355600D01*
G54D13*
X-82550Y-482600D02*
X-82550Y-508000D01*
G54D13*
X-82550Y-431800D02*
X-82550Y-457200D01*
G54D13*
X-158750Y-273050D02*
X-142875Y-288925D01*
X-142875Y-323850D01*
X-222250Y-330200D02*
G54D11*
D03*
X-82550Y-355600D02*
G54D11*
D03*
X-133350Y-273050D02*
G54D11*
D03*
X-82550Y-508000D02*
G54D11*
D03*
X-82550Y-298450D02*
G54D12*
D03*
X-158750Y-298450D02*
G54D12*
D03*
X-82550Y-241300D02*
G54D11*
D03*
X-133350Y-241300D02*
G54D11*
D03*
G54D14*
X-222250Y-203200D02*
X-196850Y-203200D01*
X-196850Y-177800D01*
X-222250Y-254000D02*
G54D11*
D03*
X-222250Y-228600D02*
G54D11*
D03*
X-196850Y-127000D02*
G54D11*
D03*
G54D13*
X-196850Y-127000D02*
X-212725Y-111125D01*
X-212725Y-101600D01*
X-222250Y-92075D01*
X-368300Y-69850D02*
G54D15*
D03*
X-355600Y-57150D02*
G54D15*
D03*
X-368300Y-57150D02*
G54D15*
D03*
X-355600Y-82550D02*
G54D15*
D03*
X-368300Y-82550D02*
G54D15*
D03*
X-342900Y-82550D02*
G54D15*
D03*
X-342900Y-69850D02*
G54D15*
D03*
X-342900Y-57150D02*
G54D15*
D03*
X-247650Y-457200D02*
G54D15*
D03*
X-222250Y-482600D02*
G54D11*
D03*
X-238125Y-292100D02*
G54D15*
D03*
X-107950Y-215900D02*
G54D11*
D03*
X-222250Y-558800D02*
G54D11*
D03*
X-114300Y-723900D02*
G54D11*
D03*
X-82550Y-215900D02*
G54D11*
D03*
X-107950Y-139700D02*
G54D11*
D03*
X-196850Y-88900D02*
G54D11*
D03*
X-146050Y-88900D02*
G54D11*
D03*
X-355600Y-965200D02*
G54D11*
D03*
X-355600Y-1016000D02*
G54D11*
D03*
X-355600Y-863600D02*
G54D11*
D03*
X-355600Y-914400D02*
G54D11*
D03*
G54D13*
X-222250Y-508000D02*
X-206375Y-523875D01*
X-206375Y-530225D01*
X-190500Y-546100D01*
G54D13*
X-222250Y-533400D02*
X-206375Y-549275D01*
X-206375Y-555625D01*
X-190500Y-571500D01*
G36*
X-114300Y-282575D02*
X-114300Y-263525D01*
X-123825Y-254000D01*
X-165100Y-254000D01*
X-187325Y-276225D01*
X-187325Y-279400D01*
X-193675Y-279400D01*
X-193675Y-276225D01*
X-177800Y-260350D01*
X-177800Y-244475D01*
X-212725Y-209550D01*
X-231775Y-209550D01*
X-241300Y-219075D01*
X-241300Y-149225D01*
X-231775Y-158750D01*
X-212725Y-158750D01*
X-200025Y-146050D01*
X-187325Y-146050D01*
X-177800Y-136525D01*
X-177800Y-177800D01*
X-155575Y-200025D01*
X-155575Y-222250D01*
X-142875Y-234950D01*
X-133350Y-234950D01*
X-123825Y-244475D01*
X-107950Y-244475D01*
X-92075Y-260350D01*
X-73025Y-260350D01*
X-73025Y-279400D01*
X-92075Y-279400D01*
X-101600Y-288925D01*
X-114300Y-282575D01*
G37*
G54D14*
X-114300Y-282575D02*
X-114300Y-263525D01*
X-123825Y-254000D01*
X-165100Y-254000D01*
X-187325Y-276225D01*
X-187325Y-279400D01*
X-193675Y-279400D01*
X-193675Y-276225D01*
X-177800Y-260350D01*
X-177800Y-244475D01*
X-212725Y-209550D01*
X-231775Y-209550D01*
X-241300Y-219075D01*
X-241300Y-149225D01*
X-231775Y-158750D01*
X-212725Y-158750D01*
X-200025Y-146050D01*
X-187325Y-146050D01*
X-177800Y-136525D01*
X-177800Y-177800D01*
X-155575Y-200025D01*
X-155575Y-222250D01*
X-142875Y-234950D01*
X-133350Y-234950D01*
X-123825Y-244475D01*
X-107950Y-244475D01*
X-92075Y-260350D01*
X-73025Y-260350D01*
X-73025Y-279400D01*
X-92075Y-279400D01*
X-101600Y-288925D01*
X-114300Y-282575D01*
G36*
X-114300Y-282575D02*
X-130175Y-298450D01*
X-130175Y-422275D01*
X-139700Y-431800D01*
X-139700Y-495300D01*
X-149225Y-504825D01*
X-190500Y-504825D01*
X-193675Y-508000D01*
X-193675Y-514350D01*
X-171450Y-536575D01*
X-171450Y-552450D01*
X-101600Y-552450D01*
X-101600Y-288925D01*
X-114300Y-282575D01*
G37*
G54D14*
X-114300Y-282575D02*
X-130175Y-298450D01*
X-130175Y-422275D01*
X-139700Y-431800D01*
X-139700Y-495300D01*
X-149225Y-504825D01*
X-190500Y-504825D01*
X-193675Y-508000D01*
X-193675Y-514350D01*
X-171450Y-536575D01*
X-171450Y-552450D01*
X-101600Y-552450D01*
X-101600Y-288925D01*
X-114300Y-282575D01*
G54D13*
X-190500Y-622300D02*
X-190500Y-596900D01*
X-82550Y-406400D02*
G54D11*
D03*
G54D13*
X-403225Y-609600D02*
X-377825Y-584200D01*
G54D13*
X-403225Y-584200D02*
X-377825Y-558800D01*
G54D13*
X-403225Y-558800D02*
X-377825Y-533400D01*
G54D13*
X-403225Y-533400D02*
X-377825Y-508000D01*
G54D13*
X-403225Y-508000D02*
X-377825Y-482600D01*
X-406400Y-381000D02*
G54D11*
D03*
X-374650Y-228600D02*
G54D11*
D03*
X-406400Y-355600D02*
G54D11*
D03*
X-374650Y-203200D02*
G54D11*
D03*
X-114300Y-622300D02*
G54D11*
D03*
X-139700Y-889000D02*
G54D11*
D03*
X-139700Y-939800D02*
G54D11*
D03*
X-171450Y-863600D02*
G54D11*
D03*
X-196850Y-762000D02*
G54D11*
D03*
G54D13*
X-196850Y-933450D02*
X-196850Y-965200D01*
X-222250Y-863600D02*
G54D11*
D03*
X-247650Y-939800D02*
G54D11*
D03*
X-171450Y-1168400D02*
G54D11*
D03*
X-196850Y-1168400D02*
G54D11*
D03*
X-222250Y-1168400D02*
G54D11*
D03*
X-247650Y-1168400D02*
G54D11*
D03*
X-171450Y-1244600D02*
G54D11*
D03*
X-196850Y-1244600D02*
G54D11*
D03*
X-222250Y-1244600D02*
G54D11*
D03*
X-247650Y-1244600D02*
G54D11*
D03*
X-273050Y-1168400D02*
G54D11*
D03*
X-273050Y-1244600D02*
G54D11*
D03*
X-298450Y-1168400D02*
G54D11*
D03*
X-323850Y-1168400D02*
G54D11*
D03*
X-298450Y-1244600D02*
G54D11*
D03*
X-323850Y-1244600D02*
G54D11*
D03*
X-323850Y-1346200D02*
G54D11*
D03*
X-298450Y-1346200D02*
G54D11*
D03*
X-273050Y-1346200D02*
G54D11*
D03*
X-247650Y-1346200D02*
G54D11*
D03*
X-323850Y-1270000D02*
G54D11*
D03*
X-298450Y-1270000D02*
G54D11*
D03*
X-273050Y-1270000D02*
G54D11*
D03*
X-247650Y-1270000D02*
G54D11*
D03*
X-222250Y-1346200D02*
G54D11*
D03*
X-222250Y-1270000D02*
G54D11*
D03*
X-196850Y-1346200D02*
G54D11*
D03*
X-171450Y-1346200D02*
G54D11*
D03*
X-196850Y-1270000D02*
G54D11*
D03*
X-171450Y-1270000D02*
G54D11*
D03*
X-146050Y-1346200D02*
G54D11*
D03*
X-146050Y-1270000D02*
G54D11*
D03*
X-323850Y-1143000D02*
G54D11*
D03*
X-298450Y-1143000D02*
G54D11*
D03*
X-273050Y-1143000D02*
G54D11*
D03*
X-247650Y-1143000D02*
G54D11*
D03*
X-323850Y-1066800D02*
G54D11*
D03*
X-298450Y-1066800D02*
G54D11*
D03*
X-273050Y-1066800D02*
G54D11*
D03*
X-247650Y-1066800D02*
G54D11*
D03*
X-222250Y-1143000D02*
G54D11*
D03*
X-222250Y-1066800D02*
G54D11*
D03*
X-196850Y-1143000D02*
G54D11*
D03*
X-171450Y-1143000D02*
G54D11*
D03*
X-196850Y-1066800D02*
G54D11*
D03*
X-171450Y-1066800D02*
G54D11*
D03*
X-146050Y-1143000D02*
G54D11*
D03*
X-146050Y-1066800D02*
G54D11*
D03*
X-355600Y-1066800D02*
G54D11*
D03*
X-355600Y-1117600D02*
G54D11*
D03*
X-355600Y-1270000D02*
G54D11*
D03*
X-355600Y-1320800D02*
G54D11*
D03*
X-355600Y-1168400D02*
G54D11*
D03*
X-355600Y-1219200D02*
G54D11*
D03*
X-139700Y-1193800D02*
G54D11*
D03*
X-139700Y-1244600D02*
G54D11*
D03*
X-171450Y-1168400D02*
G54D11*
D03*
X-196850Y-1066800D02*
G54D11*
D03*
G54D13*
X-196850Y-1238250D02*
X-196850Y-1270000D01*
X-222250Y-1168400D02*
G54D11*
D03*
X-247650Y-1244600D02*
G54D11*
D03*
X-171450Y-762000D02*
G54D11*
D03*
X-171450Y-965200D02*
G54D11*
D03*
X-171450Y-1066800D02*
G54D11*
D03*
X-171450Y-1270000D02*
G54D11*
D03*
X-114300Y-647700D02*
G54D11*
D03*
G36*
X-127000Y-882650D02*
X-127000Y-923925D01*
X-130175Y-920750D01*
X-142875Y-920750D01*
X-171450Y-892175D01*
X-184150Y-892175D01*
X-196850Y-904875D01*
X-330200Y-904875D01*
X-339725Y-895350D01*
X-352425Y-895350D01*
X-358775Y-889000D01*
X-358775Y-863600D01*
X-358775Y-838200D01*
X-342900Y-838200D01*
X-342900Y-847725D01*
X-330200Y-860425D01*
X-323850Y-860425D01*
X-323850Y-876300D01*
X-317500Y-882650D01*
X-127000Y-882650D01*
G37*
G54D14*
X-127000Y-882650D02*
X-127000Y-923925D01*
X-130175Y-920750D01*
X-142875Y-920750D01*
X-171450Y-892175D01*
X-184150Y-892175D01*
X-196850Y-904875D01*
X-330200Y-904875D01*
X-339725Y-895350D01*
X-352425Y-895350D01*
X-358775Y-889000D01*
X-358775Y-863600D01*
X-358775Y-838200D01*
X-342900Y-838200D01*
X-342900Y-847725D01*
X-330200Y-860425D01*
X-323850Y-860425D01*
X-323850Y-876300D01*
X-317500Y-882650D01*
X-127000Y-882650D01*
G36*
X-254000Y-882650D02*
X-247650Y-876300D01*
X-241300Y-882650D01*
X-254000Y-882650D01*
G37*
G54D14*
X-254000Y-882650D02*
X-247650Y-876300D01*
X-241300Y-882650D01*
X-254000Y-882650D01*
G54D14*
X-247734Y-876470D02*
X-247734Y-863770D01*
G54D14*
X-171450Y-939800D02*
X-139700Y-939800D01*
X-273050Y-863600D02*
G54D11*
D03*
X-298450Y-939800D02*
G54D11*
D03*
X-222250Y-660400D02*
G54D11*
D03*
X-222250Y-685800D02*
G54D11*
D03*
X-298450Y-1244600D02*
G54D11*
D03*
X-273050Y-1168400D02*
G54D11*
D03*
X-222250Y-635000D02*
G54D11*
D03*
X-406400Y-838200D02*
G54D11*
D03*
X-406400Y-939800D02*
G54D11*
D03*
X-527050Y-1333500D02*
G54D11*
D03*
X-406400Y-1168400D02*
G54D11*
D03*
X-247650Y-863600D02*
G54D11*
D03*
X-273050Y-939800D02*
G54D11*
D03*
G54D14*
X-355600Y-762000D02*
X-323850Y-762000D01*
G54D14*
X-355600Y-965200D02*
X-323850Y-965200D01*
G54D14*
X-355600Y-1066800D02*
X-323850Y-1066800D01*
G54D14*
X-355600Y-1270000D02*
X-323850Y-1270000D01*
G36*
X-127000Y-771525D02*
X-127000Y-882650D01*
X-161925Y-882650D01*
X-149225Y-869950D01*
X-149225Y-831850D01*
X-161925Y-819150D01*
X-333375Y-819150D01*
X-342900Y-828675D01*
X-342900Y-838200D01*
X-358775Y-838200D01*
X-358775Y-787400D01*
X-352425Y-781050D01*
X-136525Y-781050D01*
X-127000Y-771525D01*
G37*
G54D14*
X-127000Y-771525D02*
X-127000Y-882650D01*
X-161925Y-882650D01*
X-149225Y-869950D01*
X-149225Y-831850D01*
X-161925Y-819150D01*
X-333375Y-819150D01*
X-342900Y-828675D01*
X-342900Y-838200D01*
X-358775Y-838200D01*
X-358775Y-787400D01*
X-352425Y-781050D01*
X-136525Y-781050D01*
X-127000Y-771525D01*
G36*
X-127000Y-974725D02*
X-127000Y-1057275D01*
X-139700Y-1044575D01*
X-146050Y-1044575D01*
X-149225Y-1041400D01*
X-149225Y-1031875D01*
X-158750Y-1022350D01*
X-352425Y-1022350D01*
X-358775Y-1016000D01*
X-358775Y-987425D01*
X-355600Y-984250D01*
X-136525Y-984250D01*
X-127000Y-974725D01*
G37*
G54D14*
X-127000Y-974725D02*
X-127000Y-1057275D01*
X-139700Y-1044575D01*
X-146050Y-1044575D01*
X-149225Y-1041400D01*
X-149225Y-1031875D01*
X-158750Y-1022350D01*
X-352425Y-1022350D01*
X-358775Y-1016000D01*
X-358775Y-987425D01*
X-355600Y-984250D01*
X-136525Y-984250D01*
X-127000Y-974725D01*
G36*
X-387350Y-1270000D02*
X-387350Y-762000D01*
X-355600Y-762000D01*
X-374650Y-781050D01*
X-374650Y-1273175D01*
X-384175Y-1273175D01*
X-387350Y-1270000D01*
G37*
G54D14*
X-387350Y-1270000D02*
X-387350Y-762000D01*
X-355600Y-762000D01*
X-374650Y-781050D01*
X-374650Y-1273175D01*
X-384175Y-1273175D01*
X-387350Y-1270000D01*
G54D14*
X-355600Y-914400D02*
X-342900Y-914400D01*
X-336550Y-920750D01*
X-177800Y-920750D01*
X-171450Y-927100D01*
X-171450Y-939800D01*
G54D14*
X-171450Y-1244600D02*
X-139700Y-1244600D01*
G36*
X-257175Y-742950D02*
X-190500Y-742950D01*
X-187325Y-739775D01*
X-187325Y-723900D01*
X-190500Y-720725D01*
X-196850Y-720725D01*
X-203200Y-714375D01*
X-228600Y-714375D01*
X-257175Y-742950D01*
G37*
G54D14*
X-257175Y-742950D02*
X-190500Y-742950D01*
X-187325Y-739775D01*
X-187325Y-723900D01*
X-190500Y-720725D01*
X-196850Y-720725D01*
X-203200Y-714375D01*
X-228600Y-714375D01*
X-257175Y-742950D01*
G36*
X-317500Y-742950D02*
X-323850Y-749300D01*
X-323850Y-762000D01*
X-387350Y-762000D01*
X-387350Y-676275D01*
X-384175Y-679450D01*
X-374650Y-679450D01*
X-371475Y-682625D01*
X-371475Y-688975D01*
X-317500Y-742950D01*
G37*
G54D14*
X-317500Y-742950D02*
X-323850Y-749300D01*
X-323850Y-762000D01*
X-387350Y-762000D01*
X-387350Y-676275D01*
X-384175Y-679450D01*
X-374650Y-679450D01*
X-371475Y-682625D01*
X-371475Y-688975D01*
X-317500Y-742950D01*
G54D14*
X-317500Y-742950D02*
X-257175Y-742950D01*
G36*
X-387350Y-717550D02*
X-393700Y-711200D01*
X-387350Y-704850D01*
X-387350Y-717550D01*
G37*
G54D14*
X-387350Y-717550D02*
X-393700Y-711200D01*
X-387350Y-704850D01*
X-387350Y-717550D01*
G54D14*
X-393530Y-711284D02*
X-406230Y-711284D01*
G36*
X-374650Y-981075D02*
X-361950Y-968375D01*
X-323850Y-968375D01*
X-323850Y-962025D01*
X-330200Y-962025D01*
X-342900Y-949325D01*
X-342900Y-930275D01*
X-333375Y-920750D01*
X-336550Y-920750D01*
X-346075Y-911225D01*
X-358775Y-911225D01*
X-374650Y-895350D01*
X-374650Y-981075D01*
G37*
G54D14*
X-374650Y-981075D02*
X-361950Y-968375D01*
X-323850Y-968375D01*
X-323850Y-962025D01*
X-330200Y-962025D01*
X-342900Y-949325D01*
X-342900Y-930275D01*
X-333375Y-920750D01*
X-336550Y-920750D01*
X-346075Y-911225D01*
X-358775Y-911225D01*
X-374650Y-895350D01*
X-374650Y-981075D01*
G36*
X-374650Y-1273175D02*
X-323850Y-1273175D01*
X-323850Y-1266825D01*
X-330200Y-1266825D01*
X-342900Y-1254125D01*
X-342900Y-1235075D01*
X-333375Y-1225550D01*
X-336550Y-1225550D01*
X-346075Y-1216025D01*
X-358775Y-1216025D01*
X-374650Y-1200150D01*
X-374650Y-1273175D01*
G37*
G54D14*
X-374650Y-1273175D02*
X-323850Y-1273175D01*
X-323850Y-1266825D01*
X-330200Y-1266825D01*
X-342900Y-1254125D01*
X-342900Y-1235075D01*
X-333375Y-1225550D01*
X-336550Y-1225550D01*
X-346075Y-1216025D01*
X-358775Y-1216025D01*
X-374650Y-1200150D01*
X-374650Y-1273175D01*
G36*
X-387350Y-869950D02*
X-393700Y-863600D01*
X-387350Y-857250D01*
X-387350Y-869950D01*
G37*
G54D14*
X-387350Y-869950D02*
X-393700Y-863600D01*
X-387350Y-857250D01*
X-387350Y-869950D01*
G54D14*
X-393530Y-863684D02*
X-406230Y-863684D01*
G54D14*
X-419100Y-863600D02*
X-406400Y-863600D01*
G36*
X-387350Y-920750D02*
X-393700Y-914400D01*
X-387350Y-908050D01*
X-387350Y-920750D01*
G37*
G54D14*
X-387350Y-920750D02*
X-393700Y-914400D01*
X-387350Y-908050D01*
X-387350Y-920750D01*
G54D14*
X-393530Y-914484D02*
X-406230Y-914484D01*
G36*
X-374650Y-1082675D02*
X-361950Y-1069975D01*
X-323850Y-1069975D01*
X-323850Y-1063625D01*
X-330200Y-1063625D01*
X-342900Y-1050925D01*
X-342900Y-1041400D01*
X-346075Y-1038225D01*
X-361950Y-1038225D01*
X-374650Y-1025525D01*
X-374650Y-1082675D01*
G37*
G54D14*
X-374650Y-1082675D02*
X-361950Y-1069975D01*
X-323850Y-1069975D01*
X-323850Y-1063625D01*
X-330200Y-1063625D01*
X-342900Y-1050925D01*
X-342900Y-1041400D01*
X-346075Y-1038225D01*
X-361950Y-1038225D01*
X-374650Y-1025525D01*
X-374650Y-1082675D01*
G36*
X-355600Y-193675D02*
X-355600Y-657225D01*
X-346075Y-666750D01*
X-346075Y-682625D01*
X-311150Y-717550D01*
X-301625Y-717550D01*
X-292100Y-727075D01*
X-263525Y-727075D01*
X-260350Y-723900D01*
X-260350Y-622300D01*
X-269875Y-612775D01*
X-269875Y-498475D01*
X-288925Y-479425D01*
X-288925Y-295275D01*
X-269875Y-276225D01*
X-257175Y-276225D01*
X-250825Y-269875D01*
X-250825Y-263525D01*
X-241300Y-254000D01*
X-241300Y-3175D01*
X-387350Y-3175D01*
X-387350Y-187325D01*
X-384175Y-184150D01*
X-365125Y-184150D01*
X-355600Y-193675D01*
G37*
G54D14*
X-355600Y-193675D02*
X-355600Y-657225D01*
X-346075Y-666750D01*
X-346075Y-682625D01*
X-311150Y-717550D01*
X-301625Y-717550D01*
X-292100Y-727075D01*
X-263525Y-727075D01*
X-260350Y-723900D01*
X-260350Y-622300D01*
X-269875Y-612775D01*
X-269875Y-498475D01*
X-288925Y-479425D01*
X-288925Y-295275D01*
X-269875Y-276225D01*
X-257175Y-276225D01*
X-250825Y-269875D01*
X-250825Y-263525D01*
X-241300Y-254000D01*
X-241300Y-3175D01*
X-387350Y-3175D01*
X-387350Y-187325D01*
X-384175Y-184150D01*
X-365125Y-184150D01*
X-355600Y-193675D01*
G36*
X-171450Y-552450D02*
X-171450Y-596900D01*
X-171450Y-647700D01*
X-171450Y-739775D01*
X-168275Y-742950D01*
X-136525Y-742950D01*
X-127000Y-752475D01*
X-123825Y-742950D01*
X-133350Y-733425D01*
X-133350Y-561975D01*
X-123825Y-552450D01*
X-171450Y-552450D01*
G37*
G54D14*
X-171450Y-552450D02*
X-171450Y-596900D01*
X-171450Y-647700D01*
X-171450Y-739775D01*
X-168275Y-742950D01*
X-136525Y-742950D01*
X-127000Y-752475D01*
X-123825Y-742950D01*
X-133350Y-733425D01*
X-133350Y-561975D01*
X-123825Y-552450D01*
X-171450Y-552450D01*
G36*
X-127000Y-742950D02*
X-3175Y-742950D01*
X-3175Y-1346200D01*
X-127000Y-1346200D01*
X-127000Y-1260475D01*
X-120650Y-1254125D01*
X-120650Y-1235075D01*
X-127000Y-1228725D01*
X-127000Y-955675D01*
X-120650Y-949325D01*
X-120650Y-930275D01*
X-127000Y-923925D01*
X-127000Y-742950D01*
G37*
G54D14*
X-127000Y-742950D02*
X-3175Y-742950D01*
X-3175Y-1346200D01*
X-127000Y-1346200D01*
X-127000Y-1260475D01*
X-120650Y-1254125D01*
X-120650Y-1235075D01*
X-127000Y-1228725D01*
X-127000Y-955675D01*
X-120650Y-949325D01*
X-120650Y-930275D01*
X-127000Y-923925D01*
X-127000Y-742950D01*
G36*
X-127000Y-1187450D02*
X-127000Y-1228725D01*
X-130175Y-1225550D01*
X-155575Y-1225550D01*
X-171450Y-1209675D01*
X-330200Y-1209675D01*
X-339725Y-1200150D01*
X-352425Y-1200150D01*
X-358775Y-1193800D01*
X-358775Y-1168400D01*
X-358775Y-1143000D01*
X-342900Y-1143000D01*
X-342900Y-1152525D01*
X-330200Y-1165225D01*
X-323850Y-1165225D01*
X-323850Y-1181100D01*
X-317500Y-1187450D01*
X-127000Y-1187450D01*
G37*
G54D14*
X-127000Y-1187450D02*
X-127000Y-1228725D01*
X-130175Y-1225550D01*
X-155575Y-1225550D01*
X-171450Y-1209675D01*
X-330200Y-1209675D01*
X-339725Y-1200150D01*
X-352425Y-1200150D01*
X-358775Y-1193800D01*
X-358775Y-1168400D01*
X-358775Y-1143000D01*
X-342900Y-1143000D01*
X-342900Y-1152525D01*
X-330200Y-1165225D01*
X-323850Y-1165225D01*
X-323850Y-1181100D01*
X-317500Y-1187450D01*
X-127000Y-1187450D01*
G36*
X-127000Y-1279525D02*
X-127000Y-1374775D01*
X-136525Y-1365250D01*
X-158750Y-1365250D01*
X-149225Y-1355725D01*
X-149225Y-1346200D01*
X-149225Y-1336675D01*
X-158750Y-1327150D01*
X-377825Y-1327150D01*
X-393700Y-1311275D01*
X-400050Y-1311275D01*
X-403225Y-1308100D01*
X-403225Y-1292225D01*
X-400050Y-1289050D01*
X-136525Y-1289050D01*
X-127000Y-1279525D01*
G37*
G54D14*
X-127000Y-1279525D02*
X-127000Y-1374775D01*
X-136525Y-1365250D01*
X-158750Y-1365250D01*
X-149225Y-1355725D01*
X-149225Y-1346200D01*
X-149225Y-1336675D01*
X-158750Y-1327150D01*
X-377825Y-1327150D01*
X-393700Y-1311275D01*
X-400050Y-1311275D01*
X-403225Y-1308100D01*
X-403225Y-1292225D01*
X-400050Y-1289050D01*
X-136525Y-1289050D01*
X-127000Y-1279525D01*
G36*
X-127000Y-1076325D02*
X-127000Y-1187450D01*
X-161925Y-1187450D01*
X-149225Y-1174750D01*
X-149225Y-1136650D01*
X-161925Y-1123950D01*
X-333375Y-1123950D01*
X-342900Y-1133475D01*
X-342900Y-1143000D01*
X-358775Y-1143000D01*
X-358775Y-1092200D01*
X-352425Y-1085850D01*
X-136525Y-1085850D01*
X-127000Y-1076325D01*
G37*
G54D14*
X-127000Y-1076325D02*
X-127000Y-1187450D01*
X-161925Y-1187450D01*
X-149225Y-1174750D01*
X-149225Y-1136650D01*
X-161925Y-1123950D01*
X-333375Y-1123950D01*
X-342900Y-1133475D01*
X-342900Y-1143000D01*
X-358775Y-1143000D01*
X-358775Y-1092200D01*
X-352425Y-1085850D01*
X-136525Y-1085850D01*
X-127000Y-1076325D01*
G36*
X-253916Y-1187280D02*
X-247566Y-1180930D01*
X-241216Y-1187280D01*
X-253916Y-1187280D01*
G37*
G54D14*
X-253916Y-1187280D02*
X-247566Y-1180930D01*
X-241216Y-1187280D01*
X-253916Y-1187280D01*
G54D14*
X-247650Y-1181100D02*
X-247650Y-1168400D01*
X-247650Y-1168400D02*
G54D11*
D03*
X-273050Y-1244600D02*
G54D11*
D03*
G54D14*
X-355600Y-1219200D02*
X-342900Y-1219200D01*
X-336550Y-1225550D01*
X-177800Y-1225550D01*
X-171450Y-1231900D01*
X-171450Y-1244600D01*
X-222250Y-609600D02*
G54D11*
D03*
G36*
X-387350Y-1047750D02*
X-393700Y-1041400D01*
X-387350Y-1035050D01*
X-387350Y-1047750D01*
G37*
G54D14*
X-387350Y-1047750D02*
X-393700Y-1041400D01*
X-387350Y-1035050D01*
X-387350Y-1047750D01*
G54D14*
X-393530Y-1041484D02*
X-406230Y-1041484D01*
G36*
X-387350Y-1200150D02*
X-393700Y-1193800D01*
X-387350Y-1187450D01*
X-387350Y-1200150D01*
G37*
G54D14*
X-387350Y-1200150D02*
X-393700Y-1193800D01*
X-387350Y-1187450D01*
X-387350Y-1200150D01*
G54D14*
X-393530Y-1193884D02*
X-406230Y-1193884D01*
G36*
X-387350Y-1250950D02*
X-393700Y-1244600D01*
X-387350Y-1238250D01*
X-387350Y-1250950D01*
G37*
G54D14*
X-387350Y-1250950D02*
X-393700Y-1244600D01*
X-387350Y-1238250D01*
X-387350Y-1250950D01*
G54D14*
X-393530Y-1244684D02*
X-406230Y-1244684D01*
X-358775Y-673100D02*
G54D15*
D03*
X-307975Y-730250D02*
G54D15*
D03*
G54D13*
X-358775Y-673100D02*
X-358775Y-685800D01*
X-314325Y-730250D01*
X-307975Y-730250D01*
G54D14*
X-403225Y-660400D02*
X-377825Y-685800D01*
X-196850Y-863600D02*
G54D11*
D03*
X-222250Y-939800D02*
G54D11*
D03*
X-177800Y-904875D02*
G54D15*
D03*
X-155575Y-927100D02*
G54D15*
D03*
G54D13*
X-174625Y-908050D02*
X-171450Y-911225D01*
X-155575Y-927100D01*
X-196850Y-1168400D02*
G54D11*
D03*
X-222250Y-1244600D02*
G54D11*
D03*
G36*
X-161925Y-139700D02*
X-161925Y-133350D01*
X-149225Y-120650D01*
X-149225Y-88900D01*
X-142875Y-88900D01*
X-142875Y-120650D01*
X-152400Y-130175D01*
X-152400Y-149225D01*
X-142875Y-158750D01*
X-82550Y-158750D01*
X-79375Y-161925D01*
X-79375Y-215900D01*
X-85725Y-215900D01*
X-85725Y-209550D01*
X-98425Y-196850D01*
X-136525Y-196850D01*
X-161925Y-171450D01*
X-161925Y-139700D01*
G37*
G54D14*
X-161925Y-139700D02*
X-161925Y-133350D01*
X-149225Y-120650D01*
X-149225Y-88900D01*
X-142875Y-88900D01*
X-142875Y-120650D01*
X-152400Y-130175D01*
X-152400Y-149225D01*
X-142875Y-158750D01*
X-82550Y-158750D01*
X-79375Y-161925D01*
X-79375Y-215900D01*
X-85725Y-215900D01*
X-85725Y-209550D01*
X-98425Y-196850D01*
X-136525Y-196850D01*
X-161925Y-171450D01*
X-161925Y-139700D01*
X-133350Y-215900D02*
G54D11*
D03*
G36*
X-355600Y-463550D02*
X-361950Y-457200D01*
X-355600Y-450850D01*
X-355600Y-463550D01*
G37*
G54D14*
X-355600Y-463550D02*
X-361950Y-457200D01*
X-355600Y-450850D01*
X-355600Y-463550D01*
G54D14*
X-361780Y-457284D02*
X-374480Y-457284D01*
G36*
X-425450Y-336550D02*
X-425450Y-288925D01*
X-441325Y-273050D01*
X-447675Y-273050D01*
X-434975Y-260350D01*
X-434975Y-254000D01*
X-431800Y-250825D01*
X-406400Y-250825D01*
X-403225Y-254000D01*
X-403225Y-330200D01*
X-419100Y-330200D01*
X-425450Y-336550D01*
G37*
G54D14*
X-425450Y-336550D02*
X-425450Y-288925D01*
X-441325Y-273050D01*
X-447675Y-273050D01*
X-434975Y-260350D01*
X-434975Y-254000D01*
X-431800Y-250825D01*
X-406400Y-250825D01*
X-403225Y-254000D01*
X-403225Y-330200D01*
X-419100Y-330200D01*
X-425450Y-336550D01*
G54D13*
X-133350Y-215900D02*
X-117475Y-231775D01*
X-92075Y-231775D01*
X-82550Y-241300D01*
X-666750Y-152400D02*
G54D11*
D03*
X-666750Y-177800D02*
G54D11*
D03*
X-666750Y-203200D02*
G54D11*
D03*
X-666750Y-228600D02*
G54D11*
D03*
X-590550Y-152400D02*
G54D11*
D03*
X-590550Y-177800D02*
G54D11*
D03*
X-590550Y-203200D02*
G54D11*
D03*
X-590550Y-228600D02*
G54D11*
D03*
X-666750Y-266700D02*
G54D11*
D03*
X-615950Y-266700D02*
G54D11*
D03*
X-641350Y-120650D02*
G54D11*
D03*
X-590550Y-120650D02*
G54D11*
D03*
G54D14*
X-590550Y-120650D02*
X-590550Y-152400D01*
X-666750Y-177800D02*
G54D11*
D03*
X-590550Y-203200D02*
G54D11*
D03*
X-666750Y-203200D02*
G54D11*
D03*
X-666750Y-304800D02*
G54D11*
D03*
X-615950Y-266700D02*
G54D11*
D03*
X-482600Y-146050D02*
G54D11*
D03*
X-457200Y-177800D02*
G54D11*
D03*
G54D14*
X-590550Y-127000D02*
X-508000Y-127000D01*
G36*
X-666750Y-155575D02*
X-657225Y-155575D01*
X-647700Y-165100D01*
X-647700Y-263525D01*
X-638175Y-273050D01*
X-568325Y-273050D01*
X-577850Y-263525D01*
X-577850Y-244475D01*
X-581025Y-247650D01*
X-600075Y-247650D01*
X-609600Y-238125D01*
X-609600Y-111125D01*
X-641350Y-111125D01*
X-666750Y-136525D01*
X-666750Y-155575D01*
G37*
G54D14*
X-666750Y-155575D02*
X-657225Y-155575D01*
X-647700Y-165100D01*
X-647700Y-263525D01*
X-638175Y-273050D01*
X-568325Y-273050D01*
X-577850Y-263525D01*
X-577850Y-244475D01*
X-581025Y-247650D01*
X-600075Y-247650D01*
X-609600Y-238125D01*
X-609600Y-111125D01*
X-641350Y-111125D01*
X-666750Y-136525D01*
X-666750Y-155575D01*
X-406400Y-69850D02*
G54D11*
D03*
X-406400Y-177800D02*
G54D11*
D03*
X-431800Y-177800D02*
G54D11*
D03*
X-533400Y-254000D02*
G54D11*
D03*
G36*
X-571500Y-177800D02*
X-568325Y-174625D01*
X-558800Y-174625D01*
X-555625Y-177800D01*
X-555625Y-184150D01*
X-542925Y-196850D01*
X-396875Y-196850D01*
X-393700Y-193675D01*
X-393700Y-231775D01*
X-396875Y-234950D01*
X-568325Y-234950D01*
X-571500Y-238125D01*
X-571500Y-177800D01*
G37*
G54D14*
X-571500Y-177800D02*
X-568325Y-174625D01*
X-558800Y-174625D01*
X-555625Y-177800D01*
X-555625Y-184150D01*
X-542925Y-196850D01*
X-396875Y-196850D01*
X-393700Y-193675D01*
X-393700Y-231775D01*
X-396875Y-234950D01*
X-568325Y-234950D01*
X-571500Y-238125D01*
X-571500Y-177800D01*
G54D14*
X-393700Y-193675D02*
X-387350Y-187325D01*
X-406400Y-292100D02*
G54D11*
D03*
G54D14*
X-577850Y-244475D02*
X-571500Y-238125D01*
G36*
X-619125Y-466725D02*
X-647700Y-438150D01*
X-647700Y-295275D01*
X-669925Y-273050D01*
X-669925Y-228600D01*
X-663575Y-228600D01*
X-663575Y-269875D01*
X-644525Y-288925D01*
X-590550Y-288925D01*
X-590550Y-311150D01*
X-600075Y-311150D01*
X-609600Y-320675D01*
X-609600Y-419100D01*
X-619125Y-428625D01*
X-619125Y-466725D01*
G37*
G54D14*
X-619125Y-466725D02*
X-647700Y-438150D01*
X-647700Y-295275D01*
X-669925Y-273050D01*
X-669925Y-228600D01*
X-663575Y-228600D01*
X-663575Y-269875D01*
X-644525Y-288925D01*
X-590550Y-288925D01*
X-590550Y-311150D01*
X-600075Y-311150D01*
X-609600Y-320675D01*
X-609600Y-419100D01*
X-619125Y-428625D01*
X-619125Y-466725D01*
G36*
X-590550Y-288925D02*
X-558800Y-288925D01*
X-555625Y-292100D01*
X-555625Y-307975D01*
X-558800Y-311150D01*
X-590550Y-311150D01*
X-590550Y-288925D01*
G37*
G54D14*
X-590550Y-288925D02*
X-558800Y-288925D01*
X-555625Y-292100D01*
X-555625Y-307975D01*
X-558800Y-311150D01*
X-590550Y-311150D01*
X-590550Y-288925D01*
G54D14*
X-619125Y-466725D02*
X-619125Y-479425D01*
X-638175Y-498475D01*
X-638175Y-565150D01*
G36*
X-647700Y-733425D02*
X-647700Y-508000D01*
X-638175Y-498475D01*
X-638175Y-657225D01*
X-619125Y-676275D01*
X-619125Y-749300D01*
X-587375Y-781050D01*
X-587375Y-787400D01*
X-590550Y-790575D01*
X-600075Y-790575D01*
X-609600Y-800100D01*
X-609600Y-857250D01*
X-644525Y-892175D01*
X-644525Y-904875D01*
X-638175Y-911225D01*
X-625475Y-911225D01*
X-625475Y-920750D01*
X-635000Y-920750D01*
X-647700Y-908050D01*
X-647700Y-777875D01*
X-666750Y-758825D01*
X-666750Y-746125D01*
X-660400Y-746125D01*
X-647700Y-733425D01*
G37*
G54D14*
X-647700Y-733425D02*
X-647700Y-508000D01*
X-638175Y-498475D01*
X-638175Y-657225D01*
X-619125Y-676275D01*
X-619125Y-749300D01*
X-587375Y-781050D01*
X-587375Y-787400D01*
X-590550Y-790575D01*
X-600075Y-790575D01*
X-609600Y-800100D01*
X-609600Y-857250D01*
X-644525Y-892175D01*
X-644525Y-904875D01*
X-638175Y-911225D01*
X-625475Y-911225D01*
X-625475Y-920750D01*
X-635000Y-920750D01*
X-647700Y-908050D01*
X-647700Y-777875D01*
X-666750Y-758825D01*
X-666750Y-746125D01*
X-660400Y-746125D01*
X-647700Y-733425D01*
G36*
X-425450Y-400050D02*
X-419100Y-406400D01*
X-425450Y-412750D01*
X-425450Y-400050D01*
G37*
G54D14*
X-425450Y-400050D02*
X-419100Y-406400D01*
X-425450Y-412750D01*
X-425450Y-400050D01*
G54D14*
X-419270Y-406316D02*
X-406570Y-406316D01*
X-158750Y-298450D02*
G54D12*
D03*
X-82550Y-298450D02*
G54D12*
D03*
X-82550Y-241300D02*
G54D11*
D03*
G36*
X-177800Y-127000D02*
X-177800Y-117475D01*
X-187325Y-107950D01*
X-196850Y-107950D01*
X-200025Y-104775D01*
X-200025Y-85725D01*
X-212725Y-73025D01*
X-231775Y-73025D01*
X-241300Y-82550D01*
X-241300Y-3175D01*
X-3175Y-3175D01*
X-3175Y-95250D01*
X-104775Y-95250D01*
X-114300Y-104775D01*
X-114300Y-117475D01*
X-117475Y-120650D01*
X-123825Y-120650D01*
X-127000Y-117475D01*
X-127000Y-79375D01*
X-136525Y-69850D01*
X-155575Y-69850D01*
X-165100Y-79375D01*
X-165100Y-114300D01*
X-177800Y-127000D01*
G37*
G54D14*
X-177800Y-127000D02*
X-177800Y-117475D01*
X-187325Y-107950D01*
X-196850Y-107950D01*
X-200025Y-104775D01*
X-200025Y-85725D01*
X-212725Y-73025D01*
X-231775Y-73025D01*
X-241300Y-82550D01*
X-241300Y-3175D01*
X-3175Y-3175D01*
X-3175Y-95250D01*
X-104775Y-95250D01*
X-114300Y-104775D01*
X-114300Y-117475D01*
X-117475Y-120650D01*
X-123825Y-120650D01*
X-127000Y-117475D01*
X-127000Y-79375D01*
X-136525Y-69850D01*
X-155575Y-69850D01*
X-165100Y-79375D01*
X-165100Y-114300D01*
X-177800Y-127000D01*
G54D14*
X-177800Y-136525D02*
X-177800Y-127000D01*
G36*
X-171450Y-679450D02*
X-177800Y-673100D01*
X-171450Y-666750D01*
X-171450Y-679450D01*
G37*
G54D14*
X-171450Y-679450D02*
X-177800Y-673100D01*
X-171450Y-666750D01*
X-171450Y-679450D01*
G54D14*
X-177630Y-673184D02*
X-190330Y-673184D01*
X-666750Y-647700D02*
G54D11*
D03*
G36*
X-425450Y-666750D02*
X-415925Y-657225D01*
X-396875Y-657225D01*
X-393700Y-660400D01*
X-393700Y-669925D01*
X-396875Y-666750D01*
X-415925Y-666750D01*
X-425450Y-676275D01*
X-425450Y-666750D01*
G37*
G54D14*
X-425450Y-666750D02*
X-415925Y-657225D01*
X-396875Y-657225D01*
X-393700Y-660400D01*
X-393700Y-669925D01*
X-396875Y-666750D01*
X-415925Y-666750D01*
X-425450Y-676275D01*
X-425450Y-666750D01*
G54D14*
X-609600Y-939800D02*
X-609600Y-895350D01*
X-603250Y-889000D01*
X-590550Y-889000D01*
X-625475Y-920750D02*
G54D15*
D03*
X-625475Y-911225D02*
G54D15*
D03*
X-584200Y-971550D02*
G54D11*
D03*
G36*
X-584200Y-971550D02*
X-549275Y-971550D01*
X-539750Y-981075D01*
X-539750Y-949325D01*
X-549275Y-958850D01*
X-574675Y-958850D01*
X-584200Y-968375D01*
X-584200Y-971550D01*
G37*
G54D14*
X-584200Y-971550D02*
X-549275Y-971550D01*
X-539750Y-981075D01*
X-539750Y-949325D01*
X-549275Y-958850D01*
X-574675Y-958850D01*
X-584200Y-968375D01*
X-584200Y-971550D01*
G36*
X-666750Y-968375D02*
X-647700Y-968375D01*
X-641350Y-974725D01*
X-628650Y-974725D01*
X-609600Y-955675D01*
X-593725Y-955675D01*
X-581025Y-942975D01*
X-558800Y-942975D01*
X-558800Y-936625D01*
X-600075Y-936625D01*
X-609600Y-927100D01*
X-619125Y-936625D01*
X-666750Y-936625D01*
X-666750Y-968375D01*
G37*
G54D14*
X-666750Y-968375D02*
X-647700Y-968375D01*
X-641350Y-974725D01*
X-628650Y-974725D01*
X-609600Y-955675D01*
X-593725Y-955675D01*
X-581025Y-942975D01*
X-558800Y-942975D01*
X-558800Y-936625D01*
X-600075Y-936625D01*
X-609600Y-927100D01*
X-619125Y-936625D01*
X-666750Y-936625D01*
X-666750Y-968375D01*
G36*
X-73025Y-260350D02*
X-63500Y-250825D01*
X-63500Y-130175D01*
X-76200Y-117475D01*
X-76200Y-104775D01*
X-85725Y-95250D01*
X-3175Y-95250D01*
X-3175Y-279400D01*
X-73025Y-279400D01*
X-73025Y-260350D01*
G37*
G54D14*
X-73025Y-260350D02*
X-63500Y-250825D01*
X-63500Y-130175D01*
X-76200Y-117475D01*
X-76200Y-104775D01*
X-85725Y-95250D01*
X-3175Y-95250D01*
X-3175Y-279400D01*
X-73025Y-279400D01*
X-73025Y-260350D01*
G36*
X-101600Y-552450D02*
X-101600Y-517525D01*
X-92075Y-527050D01*
X-73025Y-527050D01*
X-63500Y-517525D01*
X-63500Y-288925D01*
X-73025Y-279400D01*
X-3175Y-279400D01*
X-3175Y-552450D01*
X-101600Y-552450D01*
G37*
G54D14*
X-101600Y-552450D02*
X-101600Y-517525D01*
X-92075Y-527050D01*
X-73025Y-527050D01*
X-63500Y-517525D01*
X-63500Y-288925D01*
X-73025Y-279400D01*
X-3175Y-279400D01*
X-3175Y-552450D01*
X-101600Y-552450D01*
G36*
X-104775Y-742950D02*
X-95250Y-733425D01*
X-95250Y-561975D01*
X-104775Y-552450D01*
X-3175Y-552450D01*
X-3175Y-742950D01*
X-104775Y-742950D01*
G37*
G54D14*
X-104775Y-742950D02*
X-95250Y-733425D01*
X-95250Y-561975D01*
X-104775Y-552450D01*
X-3175Y-552450D01*
X-3175Y-742950D01*
X-104775Y-742950D01*
G36*
X-666750Y-155575D02*
X-746125Y-155575D01*
X-746125Y-3175D01*
X-555625Y-3175D01*
X-555625Y-69850D01*
X-584200Y-98425D01*
X-596900Y-98425D01*
X-609600Y-111125D01*
X-641350Y-111125D01*
X-666750Y-136525D01*
X-666750Y-155575D01*
G37*
G54D14*
X-666750Y-155575D02*
X-746125Y-155575D01*
X-746125Y-3175D01*
X-555625Y-3175D01*
X-555625Y-69850D01*
X-584200Y-98425D01*
X-596900Y-98425D01*
X-609600Y-111125D01*
X-641350Y-111125D01*
X-666750Y-136525D01*
X-666750Y-155575D01*
G36*
X-593725Y-152400D02*
X-593725Y-120650D01*
X-590550Y-117475D01*
X-581025Y-117475D01*
X-552450Y-88900D01*
X-495300Y-88900D01*
X-485775Y-79375D01*
X-485775Y-69850D01*
X-479425Y-69850D01*
X-479425Y-79375D01*
X-469900Y-88900D01*
X-419100Y-88900D01*
X-409575Y-79375D01*
X-409575Y-69850D01*
X-403225Y-69850D01*
X-403225Y-146050D01*
X-434975Y-146050D01*
X-434975Y-139700D01*
X-447675Y-127000D01*
X-568325Y-127000D01*
X-577850Y-136525D01*
X-577850Y-142875D01*
X-590550Y-155575D01*
X-593725Y-152400D01*
G37*
G54D14*
X-593725Y-152400D02*
X-593725Y-120650D01*
X-590550Y-117475D01*
X-581025Y-117475D01*
X-552450Y-88900D01*
X-495300Y-88900D01*
X-485775Y-79375D01*
X-485775Y-69850D01*
X-479425Y-69850D01*
X-479425Y-79375D01*
X-469900Y-88900D01*
X-419100Y-88900D01*
X-409575Y-79375D01*
X-409575Y-69850D01*
X-403225Y-69850D01*
X-403225Y-146050D01*
X-434975Y-146050D01*
X-434975Y-139700D01*
X-447675Y-127000D01*
X-568325Y-127000D01*
X-577850Y-136525D01*
X-577850Y-142875D01*
X-590550Y-155575D01*
X-593725Y-152400D01*
G54D14*
X-406400Y-82550D02*
X-406400Y-69850D01*
G36*
X-555625Y-60325D02*
X-546100Y-50800D01*
X-533400Y-50800D01*
X-523875Y-41275D01*
X-441325Y-41275D01*
X-431800Y-50800D01*
X-396875Y-50800D01*
X-387350Y-60325D01*
X-387350Y-3175D01*
X-555625Y-3175D01*
X-555625Y-60325D01*
G37*
G54D14*
X-555625Y-60325D02*
X-546100Y-50800D01*
X-533400Y-50800D01*
X-523875Y-41275D01*
X-441325Y-41275D01*
X-431800Y-50800D01*
X-396875Y-50800D01*
X-387350Y-60325D01*
X-387350Y-3175D01*
X-555625Y-3175D01*
X-555625Y-60325D01*
G36*
X-501650Y-127000D02*
X-508000Y-133350D01*
X-514350Y-127000D01*
X-501650Y-127000D01*
G37*
G54D14*
X-501650Y-127000D02*
X-508000Y-133350D01*
X-514350Y-127000D01*
X-501650Y-127000D01*
G54D14*
X-507916Y-133180D02*
X-507916Y-145880D01*
G36*
X-746125Y-155575D02*
X-676275Y-155575D01*
X-685800Y-165100D01*
X-685800Y-282575D01*
X-666750Y-301625D01*
X-666750Y-307975D01*
X-676275Y-307975D01*
X-685800Y-317500D01*
X-685800Y-520700D01*
X-676275Y-530225D01*
X-666750Y-530225D01*
X-663575Y-533400D01*
X-663575Y-574675D01*
X-666750Y-577850D01*
X-676275Y-577850D01*
X-685800Y-587375D01*
X-685800Y-609600D01*
X-676275Y-619125D01*
X-666750Y-619125D01*
X-663575Y-622300D01*
X-663575Y-647700D01*
X-666750Y-650875D01*
X-676275Y-650875D01*
X-685800Y-660400D01*
X-685800Y-850900D01*
X-676275Y-860425D01*
X-666750Y-860425D01*
X-663575Y-863600D01*
X-663575Y-889000D01*
X-666750Y-892175D01*
X-676275Y-892175D01*
X-685800Y-901700D01*
X-685800Y-927100D01*
X-676275Y-936625D01*
X-666750Y-936625D01*
X-666750Y-942975D01*
X-746125Y-942975D01*
X-746125Y-155575D01*
G37*
G54D14*
X-746125Y-155575D02*
X-676275Y-155575D01*
X-685800Y-165100D01*
X-685800Y-282575D01*
X-666750Y-301625D01*
X-666750Y-307975D01*
X-676275Y-307975D01*
X-685800Y-317500D01*
X-685800Y-520700D01*
X-676275Y-530225D01*
X-666750Y-530225D01*
X-663575Y-533400D01*
X-663575Y-574675D01*
X-666750Y-577850D01*
X-676275Y-577850D01*
X-685800Y-587375D01*
X-685800Y-609600D01*
X-676275Y-619125D01*
X-666750Y-619125D01*
X-663575Y-622300D01*
X-663575Y-647700D01*
X-666750Y-650875D01*
X-676275Y-650875D01*
X-685800Y-660400D01*
X-685800Y-850900D01*
X-676275Y-860425D01*
X-666750Y-860425D01*
X-663575Y-863600D01*
X-663575Y-889000D01*
X-666750Y-892175D01*
X-676275Y-892175D01*
X-685800Y-901700D01*
X-685800Y-927100D01*
X-676275Y-936625D01*
X-666750Y-936625D01*
X-666750Y-942975D01*
X-746125Y-942975D01*
X-746125Y-155575D01*
G36*
X-425450Y-1238250D02*
X-419100Y-1244600D01*
X-425450Y-1250950D01*
X-425450Y-1238250D01*
G37*
G54D14*
X-425450Y-1238250D02*
X-419100Y-1244600D01*
X-425450Y-1250950D01*
X-425450Y-1238250D01*
G54D14*
X-419270Y-1244516D02*
X-406570Y-1244516D01*
G36*
X-425450Y-1000125D02*
X-419100Y-993775D01*
X-393700Y-993775D01*
X-387350Y-1000125D01*
X-387350Y-949325D01*
X-396875Y-958850D01*
X-415925Y-958850D01*
X-425450Y-949325D01*
X-425450Y-1000125D01*
G37*
G54D14*
X-425450Y-1000125D02*
X-419100Y-993775D01*
X-393700Y-993775D01*
X-387350Y-1000125D01*
X-387350Y-949325D01*
X-396875Y-958850D01*
X-415925Y-958850D01*
X-425450Y-949325D01*
X-425450Y-1000125D01*
G36*
X-555625Y-1266825D02*
X-533400Y-1289050D01*
X-533400Y-1311275D01*
X-546100Y-1323975D01*
X-546100Y-1343025D01*
X-536575Y-1352550D01*
X-571500Y-1352550D01*
X-571500Y-1266825D01*
X-555625Y-1266825D01*
G37*
G54D14*
X-555625Y-1266825D02*
X-533400Y-1289050D01*
X-533400Y-1311275D01*
X-546100Y-1323975D01*
X-546100Y-1343025D01*
X-536575Y-1352550D01*
X-571500Y-1352550D01*
X-571500Y-1266825D01*
X-555625Y-1266825D01*
G36*
X-539750Y-1244600D02*
X-546100Y-1244600D01*
X-539750Y-1238250D01*
X-539750Y-1244600D01*
G37*
G54D14*
X-539750Y-1244600D02*
X-546100Y-1244600D01*
X-539750Y-1238250D01*
X-539750Y-1244600D01*
G54D14*
X-546100Y-1244600D02*
X-558800Y-1244600D01*
X-146050Y-88900D02*
G54D11*
D03*
X-590550Y-1231900D02*
G54D11*
D03*
X-590550Y-1206500D02*
G54D11*
D03*
X-590550Y-1181100D02*
G54D11*
D03*
X-590550Y-1155700D02*
G54D11*
D03*
X-666750Y-1231900D02*
G54D11*
D03*
X-666750Y-1206500D02*
G54D11*
D03*
X-666750Y-1181100D02*
G54D11*
D03*
X-666750Y-1155700D02*
G54D11*
D03*
X-590550Y-1130300D02*
G54D11*
D03*
X-666750Y-1130300D02*
G54D11*
D03*
X-590550Y-1104900D02*
G54D11*
D03*
X-590550Y-1079500D02*
G54D11*
D03*
X-666750Y-1104900D02*
G54D11*
D03*
X-666750Y-1079500D02*
G54D11*
D03*
X-590550Y-1054100D02*
G54D11*
D03*
X-666750Y-1054100D02*
G54D11*
D03*
X-590550Y-1028700D02*
G54D11*
D03*
X-666750Y-1028700D02*
G54D11*
D03*
X-590550Y-1003300D02*
G54D11*
D03*
X-666750Y-1003300D02*
G54D11*
D03*
G54D13*
X-590550Y-1028700D02*
X-574675Y-1012825D01*
X-574675Y-1006475D01*
X-558800Y-990600D01*
G54D13*
X-590550Y-1054100D02*
X-574675Y-1038225D01*
X-574675Y-1031875D01*
X-558800Y-1016000D01*
G54D13*
X-590550Y-1079500D02*
X-574675Y-1063625D01*
X-574675Y-1057275D01*
X-558800Y-1041400D01*
G54D13*
X-590550Y-1104900D02*
X-574675Y-1089025D01*
X-574675Y-1082675D01*
X-558800Y-1066800D01*
G54D13*
X-590550Y-1130300D02*
X-574675Y-1114425D01*
X-574675Y-1108075D01*
X-558800Y-1092200D01*
G54D13*
X-590550Y-1155700D02*
X-574675Y-1139825D01*
X-574675Y-1133475D01*
X-558800Y-1117600D01*
G54D13*
X-590550Y-1181100D02*
X-574675Y-1165225D01*
X-574675Y-1158875D01*
X-558800Y-1143000D01*
G54D13*
X-590550Y-1206500D02*
X-574675Y-1190625D01*
X-574675Y-1184275D01*
X-558800Y-1168400D01*
X-590550Y-749300D02*
G54D11*
D03*
X-615950Y-882650D02*
G54D15*
D03*
X-631825Y-898525D02*
G54D15*
D03*
G54D13*
X-631825Y-898525D02*
X-615950Y-882650D01*
G54D14*
X-685800Y-1231900D02*
X-685800Y-1416050D01*
X-679450Y-1422400D01*
X-666750Y-1422400D01*
G54D13*
X-666750Y-1270000D02*
X-650875Y-1254125D01*
X-650875Y-1019175D01*
X-666750Y-1003300D01*
G54D13*
X-666750Y-1295400D02*
X-666750Y-1371600D01*
G54D13*
X-666750Y-1397000D02*
X-628650Y-1358900D01*
X-628650Y-1333500D01*
X-590550Y-1295400D01*
G54D13*
X-590550Y-1371600D02*
X-590550Y-1320800D01*
X-590550Y-1422400D02*
G54D11*
D03*
G54D14*
X-419100Y-1193800D02*
X-409575Y-1193800D01*
X-406400Y-1193800D01*
G54D13*
X-406400Y-1066800D02*
X-422275Y-1082675D01*
X-422275Y-1155700D01*
G54D13*
X-406400Y-1016000D02*
X-422275Y-1031875D01*
X-422275Y-1069975D01*
X-431800Y-1079500D01*
X-431800Y-1165225D01*
X-428625Y-1168400D01*
X-422275Y-1155700D02*
G54D15*
D03*
X-428625Y-1168400D02*
G54D15*
D03*
X-590550Y-1320800D02*
G54D11*
D03*
X-590550Y-1397000D02*
G54D11*
D03*
X-425450Y-1409700D02*
G54D11*
D03*
X-476250Y-1333500D02*
G54D11*
D03*
X-450850Y-1333500D02*
G54D11*
D03*
X-450850Y-1409700D02*
G54D11*
D03*
X-425450Y-1333500D02*
G54D11*
D03*
G54D13*
X-501650Y-1333500D02*
X-485775Y-1349375D01*
X-441325Y-1349375D01*
X-425450Y-1333500D01*
G54D13*
X-527050Y-1409700D02*
X-511175Y-1393825D01*
X-466725Y-1393825D01*
X-450850Y-1409700D01*
G54D13*
X-542925Y-1260475D02*
X-520700Y-1282700D01*
X-520700Y-1314450D01*
X-501650Y-1333500D01*
X-158750Y-1603375D02*
G54D15*
D03*
X-539750Y-1600200D02*
G54D15*
D03*
X-146050Y-1603375D02*
G54D15*
D03*
G54D13*
X-400050Y-1333500D02*
X-415925Y-1317625D01*
X-415925Y-1279525D01*
X-406400Y-1270000D01*
G54D13*
X-476250Y-1409700D02*
X-460375Y-1425575D01*
X-415925Y-1425575D01*
X-400050Y-1441450D01*
G54D13*
X-552450Y-1412875D02*
X-527050Y-1438275D01*
X-501650Y-1409700D02*
G54D11*
D03*
G36*
X-571500Y-1400175D02*
X-571500Y-1352550D01*
X-501650Y-1352550D01*
X-492125Y-1362075D01*
X-434975Y-1362075D01*
X-425450Y-1352550D01*
X-390525Y-1352550D01*
X-381000Y-1343025D01*
X-381000Y-1323975D01*
X-330200Y-1323975D01*
X-342900Y-1336675D01*
X-342900Y-1355725D01*
X-333375Y-1365250D01*
X-358775Y-1390650D01*
X-450850Y-1390650D01*
X-460375Y-1381125D01*
X-517525Y-1381125D01*
X-527050Y-1390650D01*
X-561975Y-1390650D01*
X-571500Y-1400175D01*
G37*
G54D14*
X-571500Y-1400175D02*
X-571500Y-1352550D01*
X-501650Y-1352550D01*
X-492125Y-1362075D01*
X-434975Y-1362075D01*
X-425450Y-1352550D01*
X-390525Y-1352550D01*
X-381000Y-1343025D01*
X-381000Y-1323975D01*
X-330200Y-1323975D01*
X-342900Y-1336675D01*
X-342900Y-1355725D01*
X-333375Y-1365250D01*
X-358775Y-1390650D01*
X-450850Y-1390650D01*
X-460375Y-1381125D01*
X-517525Y-1381125D01*
X-527050Y-1390650D01*
X-561975Y-1390650D01*
X-571500Y-1400175D01*
G36*
X-254000Y-1460500D02*
X-254000Y-1450975D01*
X-263525Y-1441450D01*
X-304800Y-1441450D01*
X-304800Y-1403350D01*
X-263525Y-1403350D01*
X-254000Y-1393825D01*
X-254000Y-1374775D01*
X-263525Y-1365250D01*
X-206375Y-1365250D01*
X-215900Y-1374775D01*
X-215900Y-1393825D01*
X-206375Y-1403350D01*
X-149225Y-1403350D01*
X-127000Y-1425575D01*
X-127000Y-1450975D01*
X-136525Y-1441450D01*
X-206375Y-1441450D01*
X-215900Y-1450975D01*
X-215900Y-1460500D01*
X-219075Y-1463675D01*
X-250825Y-1463675D01*
X-254000Y-1460500D01*
G37*
G54D14*
X-254000Y-1460500D02*
X-254000Y-1450975D01*
X-263525Y-1441450D01*
X-304800Y-1441450D01*
X-304800Y-1403350D01*
X-263525Y-1403350D01*
X-254000Y-1393825D01*
X-254000Y-1374775D01*
X-263525Y-1365250D01*
X-206375Y-1365250D01*
X-215900Y-1374775D01*
X-215900Y-1393825D01*
X-206375Y-1403350D01*
X-149225Y-1403350D01*
X-127000Y-1425575D01*
X-127000Y-1450975D01*
X-136525Y-1441450D01*
X-206375Y-1441450D01*
X-215900Y-1450975D01*
X-215900Y-1460500D01*
X-219075Y-1463675D01*
X-250825Y-1463675D01*
X-254000Y-1460500D01*
X-368300Y-1358900D02*
G54D11*
D03*
X-368300Y-1409700D02*
G54D11*
D03*
X-298450Y-1384300D02*
G54D11*
D03*
X-171450Y-1384300D02*
G54D11*
D03*
X-298450Y-1460500D02*
G54D11*
D03*
X-171450Y-1460500D02*
G54D11*
D03*
X-323850Y-1460500D02*
G54D11*
D03*
X-146050Y-1384300D02*
G54D11*
D03*
X-273050Y-1384300D02*
G54D11*
D03*
X-196850Y-1384300D02*
G54D11*
D03*
G36*
X-377825Y-1447800D02*
X-361950Y-1463675D01*
X-323850Y-1463675D01*
X-320675Y-1460500D01*
X-320675Y-1384300D01*
X-327025Y-1384300D01*
X-349250Y-1406525D01*
X-400050Y-1406525D01*
X-400050Y-1412875D01*
X-377825Y-1435100D01*
X-377825Y-1447800D01*
G37*
G54D14*
X-377825Y-1447800D02*
X-361950Y-1463675D01*
X-323850Y-1463675D01*
X-320675Y-1460500D01*
X-320675Y-1384300D01*
X-327025Y-1384300D01*
X-349250Y-1406525D01*
X-400050Y-1406525D01*
X-400050Y-1412875D01*
X-377825Y-1435100D01*
X-377825Y-1447800D01*
X-139700Y-1244600D02*
G54D11*
D03*
X-400050Y-1517650D02*
G54D11*
D03*
X-527050Y-1517650D02*
G54D11*
D03*
X-501650Y-1441450D02*
G54D11*
D03*
X-425450Y-1441450D02*
G54D11*
D03*
X-501650Y-1517650D02*
G54D11*
D03*
X-425450Y-1517650D02*
G54D11*
D03*
X-273050Y-1460500D02*
G54D11*
D03*
X-196850Y-1460500D02*
G54D11*
D03*
G54D14*
X-158750Y-1365250D02*
X-333375Y-1365250D01*
G36*
X-444500Y-1441450D02*
X-444500Y-1450975D01*
X-434975Y-1460500D01*
X-387350Y-1460500D01*
X-371475Y-1476375D01*
X-393700Y-1498600D01*
X-434975Y-1498600D01*
X-444500Y-1508125D01*
X-444500Y-1527175D01*
X-434975Y-1536700D01*
X-492125Y-1536700D01*
X-482600Y-1527175D01*
X-482600Y-1508125D01*
X-492125Y-1498600D01*
X-533400Y-1498600D01*
X-533400Y-1460500D01*
X-492125Y-1460500D01*
X-482600Y-1450975D01*
X-482600Y-1441450D01*
X-479425Y-1438275D01*
X-447675Y-1438275D01*
X-444500Y-1441450D01*
G37*
G54D14*
X-444500Y-1441450D02*
X-444500Y-1450975D01*
X-434975Y-1460500D01*
X-387350Y-1460500D01*
X-371475Y-1476375D01*
X-393700Y-1498600D01*
X-434975Y-1498600D01*
X-444500Y-1508125D01*
X-444500Y-1527175D01*
X-434975Y-1536700D01*
X-492125Y-1536700D01*
X-482600Y-1527175D01*
X-482600Y-1508125D01*
X-492125Y-1498600D01*
X-533400Y-1498600D01*
X-533400Y-1460500D01*
X-492125Y-1460500D01*
X-482600Y-1450975D01*
X-482600Y-1441450D01*
X-479425Y-1438275D01*
X-447675Y-1438275D01*
X-444500Y-1441450D01*
X-165100Y-1485900D02*
G54D11*
D03*
X-114300Y-1485900D02*
G54D11*
D03*
X-114300Y-1409700D02*
G54D11*
D03*
X-114300Y-1460500D02*
G54D11*
D03*
X-476250Y-1619250D02*
G54D16*
D03*
X-476250Y-1644650D02*
G54D16*
D03*
X-501650Y-1644650D02*
G54D16*
D03*
X-501650Y-1619250D02*
G54D16*
D03*
X-527050Y-1619250D02*
G54D16*
D03*
X-527050Y-1644650D02*
G54D16*
D03*
X-552450Y-1644650D02*
G54D16*
D03*
X-552450Y-1619250D02*
G54D16*
D03*
X-577850Y-1619250D02*
G54D16*
D03*
G36*
X-573700Y-1634650D02*
X-567850Y-1640500D01*
X-567850Y-1648800D01*
X-573700Y-1654650D01*
X-582000Y-1654650D01*
X-587850Y-1648800D01*
X-587850Y-1640500D01*
X-582000Y-1634650D01*
X-573700Y-1634650D01*
G37*
X-374650Y-1619250D02*
G54D16*
D03*
X-374650Y-1644650D02*
G54D16*
D03*
X-400050Y-1644650D02*
G54D16*
D03*
X-400050Y-1619250D02*
G54D16*
D03*
X-425450Y-1619250D02*
G54D16*
D03*
X-425450Y-1644650D02*
G54D16*
D03*
X-450850Y-1644650D02*
G54D16*
D03*
X-450850Y-1619250D02*
G54D16*
D03*
X-273050Y-1619250D02*
G54D16*
D03*
X-273050Y-1644650D02*
G54D16*
D03*
X-298450Y-1644650D02*
G54D16*
D03*
X-298450Y-1619250D02*
G54D16*
D03*
X-323850Y-1619250D02*
G54D16*
D03*
X-323850Y-1644650D02*
G54D16*
D03*
X-349250Y-1644650D02*
G54D16*
D03*
X-349250Y-1619250D02*
G54D16*
D03*
X-171450Y-1619250D02*
G54D16*
D03*
X-171450Y-1644650D02*
G54D16*
D03*
X-196850Y-1644650D02*
G54D16*
D03*
X-196850Y-1619250D02*
G54D16*
D03*
X-222250Y-1619250D02*
G54D16*
D03*
X-222250Y-1644650D02*
G54D16*
D03*
X-247650Y-1644650D02*
G54D16*
D03*
X-247650Y-1619250D02*
G54D16*
D03*
X-584200Y-1454150D02*
G54D11*
D03*
X-584200Y-1504950D02*
G54D11*
D03*
X-660400Y-1454150D02*
G54D11*
D03*
X-609600Y-1454150D02*
G54D11*
D03*
G54D14*
X-400050Y-1543050D02*
X-387350Y-1543050D01*
X-374650Y-1530350D01*
X-374650Y-1517650D01*
X-374650Y-1501775D01*
X-352425Y-1479550D01*
X-152400Y-1479550D01*
X-146050Y-1473200D01*
X-146050Y-1460500D01*
G36*
X-95250Y-1419225D02*
X-95250Y-1400175D01*
X-104775Y-1390650D01*
X-111125Y-1390650D01*
X-127000Y-1374775D01*
X-127000Y-1346200D01*
X-3175Y-1346200D01*
X-3175Y-1419225D01*
X-95250Y-1419225D01*
G37*
G54D14*
X-95250Y-1419225D02*
X-95250Y-1400175D01*
X-104775Y-1390650D01*
X-111125Y-1390650D01*
X-127000Y-1374775D01*
X-127000Y-1346200D01*
X-3175Y-1346200D01*
X-3175Y-1419225D01*
X-95250Y-1419225D01*
X-165100Y-1485900D02*
G54D11*
D03*
G36*
X-555625Y-1517650D02*
X-565150Y-1508125D01*
X-584200Y-1508125D01*
X-587375Y-1504950D01*
X-587375Y-1498600D01*
X-555625Y-1466850D01*
X-555625Y-1441450D01*
X-549275Y-1441450D01*
X-549275Y-1517650D01*
X-555625Y-1517650D01*
G37*
G54D14*
X-555625Y-1517650D02*
X-565150Y-1508125D01*
X-584200Y-1508125D01*
X-587375Y-1504950D01*
X-587375Y-1498600D01*
X-555625Y-1466850D01*
X-555625Y-1441450D01*
X-549275Y-1441450D01*
X-549275Y-1517650D01*
X-555625Y-1517650D01*
G54D14*
X-571500Y-1390650D02*
X-571500Y-1431925D01*
X-584200Y-1444625D01*
X-584200Y-1454150D01*
X-609600Y-1454150D02*
G54D11*
D03*
X-584200Y-1504950D02*
G54D11*
D03*
G54D14*
X-666750Y-1422400D02*
X-641350Y-1422400D01*
X-609600Y-1454150D01*
X-400050Y-1543050D02*
G54D11*
D03*
X-450850Y-1543050D02*
G54D11*
D03*
X-666750Y-1206500D02*
G54D11*
D03*
X-666750Y-1181100D02*
G54D11*
D03*
X-666750Y-1155700D02*
G54D11*
D03*
X-666750Y-1130300D02*
G54D11*
D03*
X-666750Y-1104900D02*
G54D11*
D03*
X-666750Y-1079500D02*
G54D11*
D03*
G36*
X-746125Y-1600200D02*
X-587375Y-1600200D01*
X-596900Y-1609725D01*
X-596900Y-1654175D01*
X-587375Y-1663700D01*
X-387350Y-1663700D01*
X-377825Y-1654175D01*
X-377825Y-1641475D01*
X-285750Y-1641475D01*
X-276225Y-1631950D01*
X-276225Y-1619250D01*
X-269875Y-1619250D01*
X-269875Y-1654175D01*
X-260350Y-1663700D01*
X-219075Y-1663700D01*
X-200025Y-1682750D01*
X-155575Y-1682750D01*
X-130175Y-1657350D01*
X-130175Y-1600200D01*
X-139700Y-1590675D01*
X-3175Y-1590675D01*
X-3175Y-1692275D01*
X-746125Y-1692275D01*
X-746125Y-1600200D01*
G37*
G54D14*
X-746125Y-1600200D02*
X-587375Y-1600200D01*
X-596900Y-1609725D01*
X-596900Y-1654175D01*
X-587375Y-1663700D01*
X-387350Y-1663700D01*
X-377825Y-1654175D01*
X-377825Y-1641475D01*
X-285750Y-1641475D01*
X-276225Y-1631950D01*
X-276225Y-1619250D01*
X-269875Y-1619250D01*
X-269875Y-1654175D01*
X-260350Y-1663700D01*
X-219075Y-1663700D01*
X-200025Y-1682750D01*
X-155575Y-1682750D01*
X-130175Y-1657350D01*
X-130175Y-1600200D01*
X-139700Y-1590675D01*
X-3175Y-1590675D01*
X-3175Y-1692275D01*
X-746125Y-1692275D01*
X-746125Y-1600200D01*
G36*
X-746125Y-1422400D02*
X-701675Y-1422400D01*
X-682625Y-1441450D01*
X-650875Y-1441450D01*
X-619125Y-1473200D01*
X-603250Y-1473200D01*
X-603250Y-1514475D01*
X-593725Y-1524000D01*
X-574675Y-1524000D01*
X-561975Y-1536700D01*
X-422275Y-1536700D01*
X-419100Y-1539875D01*
X-419100Y-1552575D01*
X-409575Y-1562100D01*
X-384175Y-1562100D01*
X-355600Y-1533525D01*
X-355600Y-1504950D01*
X-346075Y-1495425D01*
X-184150Y-1495425D01*
X-174625Y-1504950D01*
X-155575Y-1504950D01*
X-127000Y-1476375D01*
X-127000Y-1425575D01*
X-123825Y-1428750D01*
X-104775Y-1428750D01*
X-95250Y-1419225D01*
X-3175Y-1419225D01*
X-3175Y-1590675D01*
X-165100Y-1590675D01*
X-171450Y-1597025D01*
X-171450Y-1600200D01*
X-222250Y-1600200D01*
X-234950Y-1587500D01*
X-546100Y-1587500D01*
X-558800Y-1600200D01*
X-746125Y-1600200D01*
X-746125Y-1422400D01*
G37*
G54D14*
X-746125Y-1422400D02*
X-701675Y-1422400D01*
X-682625Y-1441450D01*
X-650875Y-1441450D01*
X-619125Y-1473200D01*
X-603250Y-1473200D01*
X-603250Y-1514475D01*
X-593725Y-1524000D01*
X-574675Y-1524000D01*
X-561975Y-1536700D01*
X-422275Y-1536700D01*
X-419100Y-1539875D01*
X-419100Y-1552575D01*
X-409575Y-1562100D01*
X-384175Y-1562100D01*
X-355600Y-1533525D01*
X-355600Y-1504950D01*
X-346075Y-1495425D01*
X-184150Y-1495425D01*
X-174625Y-1504950D01*
X-155575Y-1504950D01*
X-127000Y-1476375D01*
X-127000Y-1425575D01*
X-123825Y-1428750D01*
X-104775Y-1428750D01*
X-95250Y-1419225D01*
X-3175Y-1419225D01*
X-3175Y-1590675D01*
X-165100Y-1590675D01*
X-171450Y-1597025D01*
X-171450Y-1600200D01*
X-222250Y-1600200D01*
X-234950Y-1587500D01*
X-546100Y-1587500D01*
X-558800Y-1600200D01*
X-746125Y-1600200D01*
X-746125Y-1422400D01*
G36*
X-603250Y-1473200D02*
X-600075Y-1473200D01*
X-590550Y-1463675D01*
X-590550Y-1450975D01*
X-571500Y-1431925D01*
X-571500Y-1460500D01*
X-603250Y-1492250D01*
X-603250Y-1473200D01*
G37*
G54D14*
X-603250Y-1473200D02*
X-600075Y-1473200D01*
X-590550Y-1463675D01*
X-590550Y-1450975D01*
X-571500Y-1431925D01*
X-571500Y-1460500D01*
X-603250Y-1492250D01*
X-603250Y-1473200D01*
X-355600Y-1270000D02*
G54D11*
D03*
X-323850Y-1384300D02*
G54D11*
D03*
G36*
X-701675Y-1422400D02*
X-701675Y-987425D01*
X-682625Y-968375D01*
X-666750Y-968375D01*
X-666750Y-942975D01*
X-746125Y-942975D01*
X-746125Y-1422400D01*
X-701675Y-1422400D01*
G37*
G54D14*
X-701675Y-1422400D02*
X-701675Y-987425D01*
X-682625Y-968375D01*
X-666750Y-968375D01*
X-666750Y-942975D01*
X-746125Y-942975D01*
X-746125Y-1422400D01*
X-701675Y-1422400D01*
X-666750Y-1028700D02*
G54D11*
D03*
G54D13*
X-539750Y-1600200D02*
X-241300Y-1600200D01*
X-222250Y-1619250D01*
G36*
X-476250Y-1647825D02*
X-476250Y-1641475D01*
X-400050Y-1641475D01*
X-400050Y-1647825D01*
X-476250Y-1647825D01*
G37*
G54D14*
X-476250Y-1647825D02*
X-476250Y-1641475D01*
X-400050Y-1641475D01*
X-400050Y-1647825D01*
X-476250Y-1647825D01*
G54D14*
X-250825Y-1644650D02*
X-250825Y-1619250D01*
X-244475Y-1619250D01*
X-244475Y-1644650D01*
X-250825Y-1644650D01*
G54D13*
X-196850Y-1644650D02*
X-180975Y-1660525D01*
X-161925Y-1660525D01*
X-152400Y-1651000D01*
X-152400Y-1612900D01*
X-158750Y-1606550D01*
X-158750Y-1603375D01*
G54D13*
X-222250Y-1644650D02*
X-196850Y-1670050D01*
X-158750Y-1670050D01*
X-142875Y-1654175D01*
X-142875Y-1606550D01*
X-146050Y-1603375D01*
X-635000Y-971550D02*
G54D11*
D03*
X-590550Y-1003300D02*
G54D11*
D03*
G54D14*
X-685800Y-1231900D02*
X-685800Y-993775D01*
X-676275Y-984250D01*
X-654050Y-984250D01*
X-647700Y-990600D01*
X-622300Y-990600D01*
X-603250Y-971550D01*
X-584200Y-971550D01*
G36*
X-590550Y-1273175D02*
X-631825Y-1273175D01*
X-638175Y-1266825D01*
X-638175Y-1009650D01*
X-635000Y-1006475D01*
X-615950Y-1006475D01*
X-609600Y-1000125D01*
X-590550Y-1000125D01*
X-590550Y-1006475D01*
X-600075Y-1006475D01*
X-609600Y-1016000D01*
X-609600Y-1219200D01*
X-600075Y-1228725D01*
X-581025Y-1228725D01*
X-577850Y-1231900D01*
X-577850Y-1257300D01*
X-568325Y-1266825D01*
X-568325Y-1285875D01*
X-581025Y-1273175D01*
X-590550Y-1273175D01*
G37*
G54D14*
X-590550Y-1273175D02*
X-631825Y-1273175D01*
X-638175Y-1266825D01*
X-638175Y-1009650D01*
X-635000Y-1006475D01*
X-615950Y-1006475D01*
X-609600Y-1000125D01*
X-590550Y-1000125D01*
X-590550Y-1006475D01*
X-600075Y-1006475D01*
X-609600Y-1016000D01*
X-609600Y-1219200D01*
X-600075Y-1228725D01*
X-581025Y-1228725D01*
X-577850Y-1231900D01*
X-577850Y-1257300D01*
X-568325Y-1266825D01*
X-568325Y-1285875D01*
X-581025Y-1273175D01*
X-590550Y-1273175D01*
G54D14*
X-142875Y-1384300D02*
X-117475Y-1409700D01*
G36*
X-152400Y-1479550D02*
X-161925Y-1489075D01*
X-168275Y-1489075D01*
X-177800Y-1479550D01*
X-152400Y-1479550D01*
G37*
G54D14*
X-152400Y-1479550D02*
X-161925Y-1489075D01*
X-168275Y-1489075D01*
X-177800Y-1479550D01*
X-152400Y-1479550D01*
X-114300Y-1409700D02*
G54D11*
D03*
G54D13*
X-222250Y-355600D02*
X-206375Y-339725D01*
X-206375Y-320675D01*
X-200025Y-314325D01*
X-180975Y-314325D01*
X-171450Y-323850D01*
X-158750Y-323850D01*
X-222250Y-431800D02*
G54D11*
D03*
G54D13*
X-158750Y-457200D02*
X-158750Y-482600D01*
G54D13*
X-247650Y-457200D02*
X-247650Y-317500D01*
X-238125Y-307975D01*
X-238125Y-292100D01*
X-406400Y-431800D02*
G54D11*
D03*
X-374650Y-406400D02*
G54D11*
D03*
G54D14*
X-403225Y-482600D02*
X-377825Y-457200D01*
X-450850Y-565150D02*
G54D15*
D03*
G36*
X-457200Y-539750D02*
X-457200Y-552450D01*
X-454025Y-549275D01*
X-454025Y-536575D01*
X-457200Y-539750D01*
G37*
G54D14*
X-457200Y-539750D02*
X-457200Y-552450D01*
X-454025Y-549275D01*
X-454025Y-536575D01*
X-457200Y-539750D01*
X-171450Y-114300D02*
G54D12*
D03*
X-95250Y-114300D02*
G54D12*
D03*
G54D13*
X-95250Y-114300D02*
X-82550Y-139700D01*
X-222250Y-584200D02*
G54D11*
D03*
X-190500Y-698500D02*
G54D11*
D03*
G54D13*
X-190500Y-622300D02*
X-206375Y-638175D01*
X-206375Y-695325D01*
X-212725Y-701675D01*
X-231775Y-701675D01*
X-238125Y-695325D01*
X-238125Y-612775D01*
X-247650Y-603250D01*
X-247650Y-473075D01*
X-257175Y-463550D01*
X-257175Y-314325D01*
X-247650Y-304800D01*
X-247650Y-301625D01*
X-247650Y-301625D02*
G54D15*
D03*
X-260350Y-301625D02*
G54D15*
D03*
X-508000Y-69850D02*
G54D11*
D03*
X-457200Y-69850D02*
G54D11*
D03*
G54D13*
X-260350Y-301625D02*
X-263525Y-304800D01*
X-266700Y-307975D01*
X-266700Y-466725D01*
X-257175Y-476250D01*
X-257175Y-606425D01*
X-247650Y-615950D01*
X-247650Y-701675D01*
X-241300Y-708025D01*
X-241300Y-708025D02*
G54D15*
D03*
G54D13*
X-533400Y-69850D02*
X-517525Y-53975D01*
X-447675Y-53975D01*
X-431800Y-69850D01*
G54D13*
X-222250Y-254000D02*
X-238125Y-269875D01*
X-238125Y-276225D01*
X-250825Y-288925D01*
X-263525Y-288925D01*
X-276225Y-301625D01*
X-276225Y-473075D01*
X-266700Y-482600D01*
X-266700Y-482600D02*
G54D15*
D03*
X-190500Y-723900D02*
G54D11*
D03*
G36*
X-685800Y-1225550D02*
X-679450Y-1231900D01*
X-685800Y-1238250D01*
X-685800Y-1225550D01*
G37*
G54D14*
X-685800Y-1225550D02*
X-679450Y-1231900D01*
X-685800Y-1238250D01*
X-685800Y-1225550D01*
G54D14*
X-679620Y-1231816D02*
X-666920Y-1231816D01*
X-323850Y-1346200D02*
G54D11*
D03*
X-323850Y-1244600D02*
G54D11*
D03*
G54D13*
X-323850Y-1143000D02*
X-298450Y-1168400D01*
X-323850Y-1041400D02*
G54D11*
D03*
X-323850Y-939800D02*
G54D11*
D03*
G54D13*
X-323850Y-838200D02*
X-298450Y-863600D01*
X-542925Y-1260475D02*
G54D15*
D03*
X-558800Y-1219200D02*
G54D11*
D03*
M02*
