; Drill file
; Format: 2.4 (00.0000)
M48
INCH
T01C0.0197
T02C0.0236
T03C0.0315
T04C0.1299
%
G05
G90
T01
X-021250Y-063000
X-021380Y-049630
X-016880Y-046000
X-016630Y-045500
X-018250Y-035000
X-018250Y-033500
X-018250Y-032000
X-017880Y-031630
X-017500Y-031250
X-018250Y-028880
X-018630Y-028500
X-019000Y-028120
X-019380Y-027750
X-019750Y-027370
X-020130Y-027000
X-020500Y-026630
X-020870Y-026250
X-021750Y-024620
X-022630Y-025000
X-018750Y-023500
X-018000Y-022750
X-017750Y-022250
X-018000Y-021750
X-018000Y-021380
X-017380Y-018500
X-017380Y-018120
X-010500Y-019000
X-009750Y-018000
X-009380Y-023500
X-009500Y-027880
X-012120Y-028750
X-014130Y-026500
X-007000Y-035620
X-006130Y-036500
X-024250Y-034750
X-024870Y-035380
X-024620Y-035870
X-024620Y-036250
X-025250Y-019000
X-024870Y-018630
X-010250Y-011880
X-009750Y-011880
X-009380Y-011500
X-013500Y-003250
X-014000Y-003250
X-014000Y-002750
X-014500Y-002750
X-014500Y-002250
X-014000Y-002250
X-013500Y-002250
X-013500Y-002750
X-014500Y-003250
X-006250Y-063120
X-005750Y-063120
T02
X-026000Y-057250
X-026250Y-056000
X-026250Y-055000
X-026250Y-054000
X-026250Y-053000
X-026250Y-052000
X-026250Y-051000
X-026250Y-050000
X-026250Y-048500
X-026250Y-047500
X-026250Y-046500
X-026250Y-045500
X-026250Y-044500
X-026250Y-043500
X-026250Y-042500
X-026250Y-041500
X-026250Y-040500
X-026250Y-039500
X-025000Y-038250
X-026250Y-037000
X-026250Y-036000
X-026250Y-035000
X-026250Y-034000
X-026250Y-033000
X-026250Y-032000
X-026250Y-031000
X-026250Y-029500
X-026250Y-028500
X-026250Y-027500
X-026250Y-026500
X-026250Y-025500
X-026250Y-024500
X-026250Y-023500
X-025250Y-022250
X-026250Y-021000
X-026250Y-020000
X-026250Y-019000
X-026250Y-018000
X-026250Y-017000
X-026250Y-016000
X-026250Y-015000
X-026250Y-014000
X-026250Y-013000
X-026250Y-012000
X-026250Y-010500
X-026250Y-009000
X-026250Y-008000
X-026250Y-007000
X-026250Y-006000
X-025250Y-004750
X-023250Y-004750
X-023250Y-006000
X-023250Y-007000
X-023250Y-008000
X-023250Y-009000
X-022000Y-010000
X-021000Y-010000
X-020000Y-010000
X-019000Y-010000
X-018000Y-010000
X-017000Y-010000
X-016000Y-010000
X-014750Y-010000
X-014750Y-011000
X-014750Y-012000
X-014750Y-013000
X-014750Y-014000
X-014750Y-015000
X-014750Y-016000
X-014750Y-017000
X-014750Y-018000
X-014750Y-019000
X-014750Y-020000
X-014750Y-021000
X-014750Y-022000
X-014750Y-023000
X-014750Y-024000
X-014750Y-025000
X-014750Y-026000
X-014750Y-027000
X-016000Y-027000
X-016000Y-028000
X-016000Y-029000
X-016000Y-030000
X-016000Y-031000
X-016000Y-032000
X-016000Y-033000
X-016000Y-034000
X-016000Y-035000
X-016000Y-036000
X-016000Y-037000
X-016000Y-039000
X-016000Y-040000
X-016000Y-041000
X-016000Y-042000
X-016000Y-043000
X-016000Y-044000
X-016000Y-045000
X-016000Y-046000
X-016000Y-047000
X-016000Y-048000
X-016000Y-049000
X-016000Y-050000
X-015750Y-051500
X-015750Y-052500
X-016750Y-052500
X-017750Y-052500
X-017750Y-051500
X-018750Y-052500
X-019750Y-052500
X-019750Y-051500
X-020750Y-052500
X-021750Y-052500
X-021750Y-051500
X-022000Y-050000
X-022000Y-049000
X-022000Y-048000
X-022000Y-047000
X-022000Y-046000
X-022000Y-045000
X-022000Y-044000
X-022000Y-043000
X-022000Y-042000
X-022000Y-041000
X-022000Y-040000
X-022000Y-039000
X-023000Y-038250
X-023250Y-037000
X-023250Y-036000
X-023250Y-035000
X-023250Y-034000
X-023250Y-033000
X-023250Y-032000
X-023250Y-031000
X-022000Y-031000
X-022000Y-030000
X-022000Y-029000
X-022000Y-028000
X-022000Y-027000
X-022000Y-026000
X-023250Y-026500
X-023250Y-025500
X-023250Y-024500
X-023250Y-023500
X-023250Y-022250
X-023250Y-021000
X-023250Y-020000
X-023250Y-019000
X-023250Y-018000
X-023250Y-017000
X-023250Y-016000
X-023250Y-015000
X-023250Y-014000
X-023250Y-013000
X-023250Y-012000
X-022000Y-011500
X-022000Y-013000
X-022000Y-014000
X-022000Y-015000
X-022000Y-016000
X-022000Y-017000
X-022000Y-018000
X-022000Y-019000
X-022000Y-020000
X-022000Y-021000
X-022000Y-022000
X-022000Y-023000
X-022000Y-024000
X-023250Y-027500
X-023250Y-028500
X-023250Y-029500
X-022000Y-032000
X-022000Y-033000
X-022000Y-034000
X-022000Y-035000
X-022000Y-036000
X-022000Y-037000
X-023250Y-039500
X-023250Y-040500
X-023250Y-041500
X-023250Y-042500
X-023250Y-043500
X-023250Y-044500
X-023250Y-045500
X-023250Y-046500
X-023250Y-047500
X-023250Y-048500
X-023250Y-050000
X-023250Y-051000
X-023250Y-052000
X-023250Y-053000
X-023250Y-054000
X-023250Y-055000
X-023250Y-056000
X-023000Y-057250
X-024000Y-057250
X-023000Y-059250
X-021750Y-059750
X-020750Y-059750
X-019750Y-059750
X-018750Y-059750
X-017750Y-059750
X-016750Y-059750
X-015750Y-059750
X-014750Y-059750
X-015750Y-060750
X-017750Y-060750
X-017750Y-056750
X-018750Y-056750
X-019750Y-056750
X-020750Y-056750
X-021750Y-056750
X-021750Y-055500
X-020750Y-055500
X-019750Y-055500
X-018750Y-055500
X-017750Y-055500
X-016750Y-055500
X-015750Y-055500
X-015750Y-056750
X-014750Y-056750
X-014500Y-055500
X-014500Y-053500
X-014000Y-052000
X-012750Y-053000
X-011750Y-053000
X-010750Y-053000
X-009750Y-053000
X-008750Y-053000
X-007750Y-053000
X-006750Y-053000
X-005750Y-053000
X-005750Y-054500
X-006750Y-054500
X-007750Y-054500
X-008750Y-054500
X-009750Y-054500
X-010750Y-054500
X-011750Y-054500
X-012750Y-054500
X-012750Y-057500
X-011750Y-057500
X-010750Y-057500
X-009750Y-057500
X-008750Y-057500
X-007750Y-057500
X-006750Y-057500
X-005750Y-057500
X-004500Y-057500
X-004500Y-058500
X-006500Y-058500
X-004500Y-055500
X-005750Y-050000
X-006750Y-050000
X-006750Y-049000
X-007750Y-049000
X-007750Y-050000
X-008750Y-050000
X-009750Y-050000
X-010750Y-050000
X-011750Y-050000
X-012750Y-050000
X-012750Y-049000
X-011750Y-049000
X-010750Y-049000
X-009750Y-049000
X-008750Y-049000
X-008750Y-046000
X-008750Y-045000
X-009750Y-045000
X-010750Y-045000
X-011750Y-045000
X-011750Y-046000
X-012750Y-046000
X-012750Y-045000
X-014000Y-044000
X-014000Y-042000
X-012750Y-042000
X-011750Y-042000
X-011750Y-041000
X-010750Y-041000
X-009750Y-041000
X-008750Y-041000
X-007750Y-041000
X-006750Y-041000
X-005750Y-041000
X-005750Y-042000
X-006750Y-042000
X-007750Y-042000
X-008750Y-042000
X-009750Y-042000
X-010750Y-042000
X-012750Y-041000
X-014000Y-040000
X-014000Y-038000
X-012750Y-038000
X-011750Y-038000
X-010750Y-038000
X-009750Y-038000
X-008750Y-038000
X-007750Y-038000
X-007750Y-037000
X-006750Y-037000
X-006750Y-038000
X-005750Y-038000
X-005500Y-037000
X-005500Y-035000
X-006750Y-034000
X-006750Y-033000
X-007750Y-033000
X-008750Y-033000
X-009750Y-033000
X-010750Y-033000
X-011750Y-033000
X-011750Y-034000
X-012750Y-034000
X-012750Y-033000
X-014000Y-032000
X-014000Y-030000
X-012750Y-030000
X-011750Y-030000
X-010750Y-030000
X-009750Y-030000
X-008750Y-030000
X-007750Y-030000
X-006750Y-030000
X-005750Y-030000
X-004500Y-028500
X-004500Y-027500
X-004500Y-026500
X-004500Y-025500
X-004500Y-024500
X-004500Y-023500
X-004500Y-022500
X-004500Y-021500
X-003250Y-020000
X-003250Y-019000
X-003250Y-018000
X-003250Y-017000
X-003250Y-016000
X-003250Y-015000
X-003250Y-014000
X-003250Y-012750
X-003250Y-011750
X-004250Y-010750
X-005250Y-010750
X-006250Y-010750
X-006250Y-011750
X-006250Y-012750
X-006250Y-014000
X-006250Y-015000
X-006250Y-016000
X-006250Y-017000
X-006250Y-018000
X-006250Y-019000
X-006250Y-020000
X-007500Y-020000
X-007500Y-019000
X-007500Y-018000
X-007500Y-017000
X-008750Y-017000
X-008750Y-018000
X-008750Y-019000
X-008750Y-020000
X-008750Y-021000
X-008750Y-022000
X-008750Y-023000
X-008750Y-024000
X-008750Y-025000
X-008750Y-026000
X-008750Y-027000
X-007500Y-026500
X-007500Y-025500
X-007500Y-024500
X-007500Y-023500
X-007500Y-022500
X-007500Y-021500
X-008750Y-016000
X-008750Y-015000
X-008750Y-014000
X-008750Y-013000
X-008750Y-012000
X-008750Y-011000
X-008750Y-010000
X-007750Y-010000
X-007500Y-011000
X-007500Y-013000
X-007500Y-014000
X-005250Y-009500
X-005250Y-008500
X-006250Y-008500
X-007750Y-008000
X-008750Y-008000
X-008750Y-009000
X-007750Y-007000
X-008750Y-005500
X-007750Y-005000
X-006750Y-004500
X-006250Y-005500
X-005250Y-005500
X-004250Y-005500
X-003250Y-005500
X-003750Y-004500
X-005750Y-003500
X-007750Y-003500
X-008750Y-003590
X-004250Y-008500
X-003250Y-008500
X-003250Y-009500
X-014750Y-009000
X-014750Y-008000
X-016000Y-007000
X-017000Y-007000
X-018000Y-007000
X-019000Y-007000
X-020000Y-007000
X-021000Y-007000
X-022000Y-007000
X-022000Y-005750
X-021000Y-005750
X-020000Y-005750
X-019000Y-005750
X-018000Y-005750
X-017000Y-005750
X-016000Y-005750
X-016000Y-002750
X-017000Y-002750
X-018000Y-002750
X-019000Y-002750
X-020000Y-002750
X-021000Y-002750
X-022000Y-002750
X-024250Y-010500
X-020000Y-011500
X-018000Y-011500
X-016000Y-011500
X-016000Y-013000
X-016000Y-014000
X-016000Y-015000
X-016000Y-016000
X-016000Y-017000
X-016000Y-018000
X-016000Y-019000
X-016000Y-020000
X-016000Y-021000
X-016000Y-022000
X-016000Y-023000
X-016000Y-024000
X-016000Y-026000
X-013500Y-028500
X-011500Y-028500
X-010500Y-028500
X-008500Y-028500
X-007500Y-028500
X-007500Y-027500
X-005750Y-033000
X-007750Y-034000
X-008750Y-034000
X-009750Y-034000
X-010750Y-034000
X-010750Y-037000
X-009750Y-037000
X-008750Y-037000
X-011750Y-037000
X-012750Y-037000
X-014000Y-036000
X-014000Y-034000
X-014000Y-046000
X-014000Y-048000
X-014000Y-050000
X-010750Y-046000
X-009750Y-046000
X-007750Y-046000
X-007750Y-045000
X-006750Y-045000
X-005750Y-045000
X-006750Y-046000
X-005500Y-047000
X-005500Y-049000
X-016750Y-056750
T03
X-022750Y-064750
X-021750Y-064750
X-020750Y-064750
X-019750Y-064750
X-018750Y-064750
X-018750Y-063750
X-019750Y-063750
X-020750Y-063750
X-021750Y-063750
X-022750Y-063750
X-017750Y-063750
X-016750Y-063750
X-015750Y-063750
X-014750Y-063750
X-014750Y-064750
X-015750Y-064750
X-016750Y-064750
X-017750Y-064750
X-013750Y-064750
X-012750Y-064750
X-011750Y-064750
X-010750Y-064750
X-010750Y-063750
X-011750Y-063750
X-012750Y-063750
X-013750Y-063750
X-009750Y-063750
X-008750Y-063750
X-007750Y-063750
X-006750Y-063750
X-006750Y-064750
X-007750Y-064750
X-008750Y-064750
X-009750Y-064750
T04
X-027500Y-064750
X-002000Y-064750
X-002000Y-002000
X-027500Y-002000
M30
