%FSLAX34Y34*%
%MOMM*%
%LNCOPPER_TOP*%
G71*
G01*
%ADD10C, 1.80*%
%ADD11C, 2.00*%
%ADD12C, 1.00*%
%ADD13C, 0.50*%
%ADD14C, 1.00*%
%ADD15C, 1.80*%
%ADD16C, 0.90*%
%ADD17C, 2.00*%
%LPD*%
X-666750Y-508000D02*
G54D10*
D03*
X-558800Y-533400D02*
G54D10*
D03*
X-558800Y-558800D02*
G54D10*
D03*
X-558800Y-584200D02*
G54D10*
D03*
X-82550Y-323850D02*
G54D11*
D03*
G54D12*
X-441325Y-469900D02*
X-431800Y-469900D01*
X-419100Y-482600D01*
X-406400Y-482600D01*
X-406400Y-482600D02*
G54D10*
D03*
G54D13*
X-406400Y-355600D02*
X-390525Y-339725D01*
X-390525Y-219075D01*
X-374650Y-203200D01*
G54D13*
X-374650Y-228600D02*
X-358775Y-244475D01*
X-358775Y-361950D01*
X-365125Y-368300D01*
X-393700Y-368300D01*
X-406400Y-381000D01*
X-374650Y-431800D02*
G54D10*
D03*
X-666750Y-698500D02*
G54D10*
D03*
X-558800Y-1193800D02*
G54D10*
D03*
X-558800Y-609600D02*
G54D10*
D03*
X-558800Y-990600D02*
G54D10*
D03*
X-558800Y-1016000D02*
G54D10*
D03*
X-558800Y-1041400D02*
G54D10*
D03*
X-558800Y-1066800D02*
G54D10*
D03*
X-558800Y-1092200D02*
G54D10*
D03*
X-558800Y-1117600D02*
G54D10*
D03*
X-558800Y-1143000D02*
G54D10*
D03*
X-558800Y-1168400D02*
G54D10*
D03*
X-454025Y-803275D02*
G54D14*
D03*
X-444500Y-793750D02*
G54D14*
D03*
X-406400Y-1016000D02*
G54D10*
D03*
X-406400Y-1092200D02*
G54D10*
D03*
X-406400Y-1117600D02*
G54D10*
D03*
X-190500Y-330200D02*
G54D10*
D03*
G54D13*
X-390525Y-701675D02*
X-368300Y-701674D01*
X-339724Y-673100D01*
X-285750Y-673100D01*
X-247650Y-635000D01*
X-247650Y-622300D01*
X-238124Y-612774D01*
X-238124Y-596900D01*
G54D13*
X-454025Y-758825D02*
X-454025Y-688975D01*
X-514350Y-628650D01*
X-514350Y-552450D01*
X-558800Y-508000D01*
G54D13*
X-558800Y-482600D02*
X-504825Y-536575D01*
X-504825Y-625475D01*
X-444500Y-685800D01*
X-444500Y-746125D01*
X-406400Y-685800D02*
G54D10*
D03*
X-530225Y-666750D02*
G54D14*
D03*
X-520700Y-676275D02*
G54D14*
D03*
X-511175Y-685800D02*
G54D14*
D03*
X-501650Y-695325D02*
G54D14*
D03*
X-492125Y-704850D02*
G54D14*
D03*
X-482600Y-714375D02*
G54D14*
D03*
X-473075Y-723900D02*
G54D14*
D03*
X-463550Y-733425D02*
G54D14*
D03*
G54D13*
X-558800Y-584200D02*
X-542925Y-600075D01*
X-542925Y-638175D01*
X-482600Y-698500D01*
X-482600Y-714375D01*
G54D13*
X-558800Y-558800D02*
X-533400Y-584200D01*
X-533400Y-635000D01*
X-473075Y-695325D01*
X-473075Y-723900D01*
G54D13*
X-463550Y-733425D02*
X-463550Y-692150D01*
X-523875Y-631825D01*
X-523875Y-568325D01*
X-558800Y-533400D01*
X-558800Y-508000D02*
G54D10*
D03*
X-558800Y-482600D02*
G54D10*
D03*
X-666750Y-431800D02*
G54D10*
D03*
X-666750Y-406400D02*
G54D10*
D03*
X-666750Y-381000D02*
G54D10*
D03*
X-666750Y-355600D02*
G54D10*
D03*
X-666750Y-330200D02*
G54D10*
D03*
G54D13*
X-666750Y-431800D02*
X-638175Y-431800D01*
X-600075Y-393700D01*
X-549275Y-393700D01*
X-542925Y-400050D01*
X-542925Y-434975D01*
X-441325Y-536575D01*
X-441325Y-549275D01*
X-431800Y-558800D01*
X-431800Y-584200D01*
X-406400Y-609600D01*
G54D13*
X-406400Y-584200D02*
X-422275Y-568325D01*
X-422275Y-555625D01*
X-431800Y-546100D01*
X-431800Y-533400D01*
X-533400Y-431800D01*
X-533400Y-384175D01*
X-549275Y-368300D01*
X-600075Y-368300D01*
X-638175Y-406400D01*
X-666750Y-406400D01*
G54D13*
X-666750Y-381000D02*
X-638175Y-381000D01*
X-600075Y-342900D01*
X-549275Y-342900D01*
X-523875Y-368300D01*
X-523875Y-428625D01*
X-422275Y-530225D01*
X-422275Y-542925D01*
X-406400Y-558800D01*
G54D13*
X-406400Y-533400D02*
X-406400Y-533400D01*
X-514350Y-425450D01*
X-514350Y-352425D01*
X-549275Y-317500D01*
X-600075Y-317500D01*
X-638175Y-355600D01*
X-666750Y-355600D01*
G54D13*
X-666750Y-330200D02*
X-638175Y-330200D01*
X-600075Y-292100D01*
X-581025Y-292100D01*
X-565150Y-307975D01*
X-546100Y-307975D01*
X-504825Y-349250D01*
X-504825Y-422275D01*
X-419100Y-508000D01*
X-406400Y-508000D01*
X-406400Y-609600D02*
G54D10*
D03*
X-406400Y-584200D02*
G54D10*
D03*
X-406400Y-558800D02*
G54D10*
D03*
X-406400Y-533400D02*
G54D10*
D03*
X-406400Y-508000D02*
G54D10*
D03*
G54D13*
X-558800Y-533400D02*
X-574675Y-517525D01*
X-574675Y-504825D01*
X-584200Y-495300D01*
X-600075Y-495300D01*
X-612775Y-482600D01*
X-612775Y-463550D01*
X-622300Y-454025D01*
X-641350Y-454025D01*
X-650875Y-463550D01*
X-650875Y-492125D01*
X-666750Y-508000D01*
G54D13*
X-631825Y-473075D02*
X-631825Y-517525D01*
X-600075Y-549275D01*
X-581025Y-549275D01*
X-574675Y-555625D01*
X-574675Y-568325D01*
X-558800Y-584200D01*
X-641350Y-482600D02*
G54D14*
D03*
X-631825Y-473075D02*
G54D14*
D03*
X-476250Y-596900D02*
G54D14*
D03*
G54D13*
X-558800Y-457200D02*
X-495300Y-520700D01*
X-495300Y-622300D01*
X-434975Y-682625D01*
G54D13*
X-558800Y-558800D02*
X-574675Y-542925D01*
X-574675Y-530225D01*
X-584200Y-520700D01*
X-600075Y-520700D01*
X-622300Y-498475D01*
X-622300Y-466725D01*
X-625475Y-463550D01*
X-638175Y-463550D01*
X-641350Y-466725D01*
X-641350Y-482600D01*
G54D13*
X-530225Y-666750D02*
X-530225Y-768350D01*
X-539750Y-777875D01*
X-539750Y-971550D01*
X-558800Y-990600D01*
G54D13*
X-558800Y-1016000D02*
X-530225Y-987425D01*
X-530225Y-781050D01*
X-520700Y-771525D01*
X-520700Y-676275D01*
G54D13*
X-511175Y-685800D02*
X-511175Y-774700D01*
X-520700Y-784225D01*
X-520700Y-1003300D01*
X-558800Y-1041400D01*
G54D13*
X-501650Y-695325D02*
X-501650Y-777875D01*
X-511175Y-787400D01*
X-511175Y-1019175D01*
X-558800Y-1066800D01*
G54D13*
X-558800Y-1092200D02*
X-501650Y-1035050D01*
X-501650Y-790575D01*
X-492125Y-781050D01*
X-492125Y-704850D01*
G54D13*
X-482600Y-714375D02*
X-482600Y-784225D01*
X-492125Y-793750D01*
X-492125Y-1050925D01*
X-558800Y-1117600D01*
G54D13*
X-473075Y-723900D02*
X-473075Y-787400D01*
X-482600Y-796925D01*
X-482600Y-1066800D01*
X-558800Y-1143000D01*
G54D13*
X-463550Y-733425D02*
X-463550Y-790575D01*
X-473075Y-800100D01*
X-473075Y-1082675D01*
X-558800Y-1168400D01*
G54D13*
X-454025Y-758825D02*
X-454025Y-1069975D01*
X-406400Y-1117600D01*
G54D13*
X-444500Y-746125D02*
X-444500Y-1054100D01*
X-406400Y-1092200D01*
G54D13*
X-406400Y-1066800D02*
X-434975Y-1038225D01*
X-434975Y-682625D01*
G54D13*
X-406400Y-1016000D02*
X-425450Y-996950D01*
X-425450Y-784225D01*
X-415925Y-774700D01*
X-396875Y-774700D01*
X-390525Y-768350D01*
X-390525Y-701675D01*
X-406400Y-685800D01*
X-406400Y-1066800D02*
G54D10*
D03*
X-558800Y-457200D02*
G54D10*
D03*
X-558800Y-431800D02*
G54D10*
D03*
G54D13*
X-406400Y-736600D02*
X-425450Y-717550D01*
X-425450Y-679450D01*
X-485775Y-619125D01*
X-485775Y-504825D01*
X-558800Y-431800D01*
X-406400Y-736600D02*
G54D10*
D03*
G54D13*
X-406400Y-1143000D02*
X-463550Y-1143000D01*
X-463550Y-1073150D01*
X-463550Y-812800D01*
G54D13*
X-406400Y-1219200D02*
X-390525Y-1203325D01*
X-390525Y-1158875D01*
X-406400Y-1143000D01*
X-406400Y-1143000D02*
G54D10*
D03*
X-406400Y-1219200D02*
G54D10*
D03*
X-463550Y-889000D02*
G54D14*
D03*
X-590550Y-565150D02*
G54D10*
D03*
X-666750Y-533400D02*
G54D10*
D03*
X-590550Y-596900D02*
G54D10*
D03*
G54D13*
X-476250Y-596900D02*
X-476250Y-615950D01*
X-406400Y-685800D01*
X-552450Y-625475D02*
G54D14*
D03*
X-457200Y-577850D02*
G54D14*
D03*
X-574675Y-635000D02*
G54D14*
D03*
X-666750Y-723900D02*
G54D10*
D03*
X-666750Y-673100D02*
G54D10*
D03*
X-590550Y-622300D02*
G54D10*
D03*
X-590550Y-698500D02*
G54D10*
D03*
G54D13*
X-666750Y-723900D02*
X-641350Y-723900D01*
X-615950Y-698500D01*
X-590550Y-698500D01*
G54D13*
X-666750Y-698500D02*
X-590550Y-622300D01*
X-590550Y-863600D02*
G54D10*
D03*
X-558800Y-914400D02*
G54D10*
D03*
X-666750Y-787400D02*
G54D10*
D03*
G54D13*
X-666750Y-838200D02*
X-682625Y-822325D01*
X-682625Y-688975D01*
X-666750Y-673100D01*
X-666750Y-838200D02*
G54D10*
D03*
G54D13*
X-552450Y-625475D02*
X-552450Y-641350D01*
X-539750Y-654050D01*
X-539750Y-765175D01*
X-549275Y-774700D01*
X-568325Y-774700D01*
X-574675Y-781050D01*
X-574675Y-847725D01*
X-590550Y-863600D01*
X-666750Y-914400D02*
G54D10*
D03*
G54D13*
X-558800Y-889000D02*
X-571500Y-901700D01*
X-600075Y-901700D01*
X-606425Y-895350D01*
X-606425Y-777875D01*
X-596900Y-768350D01*
X-584200Y-768350D01*
X-574675Y-758825D01*
X-574675Y-635000D01*
G54D13*
X-558800Y-914400D02*
X-571500Y-927100D01*
X-600075Y-927100D01*
X-606425Y-920750D01*
X-606425Y-908050D01*
X-631825Y-882650D01*
X-631825Y-822325D01*
X-666750Y-787400D01*
X-666750Y-622300D02*
G54D10*
D03*
X-457200Y-552450D02*
G54D14*
D03*
X-457200Y-542925D02*
G54D14*
D03*
X-406400Y-660400D02*
G54D10*
D03*
G54D12*
X-406400Y-660400D02*
X-415925Y-660400D01*
X-463550Y-612775D01*
X-463550Y-590550D01*
X-469900Y-584200D01*
X-469900Y-565150D01*
X-457200Y-552450D01*
X-457200Y-542925D01*
X-558800Y-292100D02*
G54D10*
D03*
G54D15*
X-558800Y-292100D02*
X-536575Y-292100D01*
X-517525Y-311150D01*
X-444500Y-311150D01*
X-425450Y-292100D01*
X-406400Y-292100D01*
X-463550Y-812800D02*
G54D14*
D03*
X-463550Y-850900D02*
G54D14*
D03*
X-508000Y-177800D02*
G54D10*
D03*
X-457200Y-254000D02*
G54D10*
D03*
X-558800Y-889000D02*
G54D10*
D03*
X-482600Y-254000D02*
G54D10*
D03*
G54D13*
X-533400Y-254000D02*
X-457200Y-177800D01*
X-457200Y-177800D01*
G54D13*
X-457200Y-174625D02*
X-482600Y-149225D01*
X-508000Y-146050D02*
G54D10*
D03*
X-482600Y-177800D02*
G54D10*
D03*
G54D12*
X-482600Y-174625D02*
X-508000Y-149225D01*
G54D13*
X-666750Y-914400D02*
X-692150Y-889000D01*
X-692150Y-838200D01*
X-701675Y-828675D01*
X-701675Y-682625D01*
X-692150Y-673100D01*
X-692150Y-190500D01*
X-682624Y-180976D01*
X-682624Y-146050D01*
X-673100Y-136525D01*
X-587374Y-136526D01*
X-561975Y-161925D01*
X-523874Y-161926D01*
X-508000Y-177800D01*
X-508000Y-254000D02*
G54D10*
D03*
X-441325Y-460375D02*
G54D14*
D03*
X-441325Y-469900D02*
G54D14*
D03*
G36*
X-441325Y-460375D02*
X-441325Y-469900D01*
X-431800Y-469900D01*
X-441325Y-460375D01*
G37*
G54D12*
X-441325Y-460375D02*
X-441325Y-469900D01*
X-431800Y-469900D01*
X-441325Y-460375D01*
G54D13*
X-457200Y-146050D02*
X-441325Y-161925D01*
X-377825Y-161925D01*
X-339725Y-200025D01*
X-339725Y-288925D01*
X-222250Y-406400D01*
G54D13*
X-222250Y-381000D02*
X-234950Y-381000D01*
X-330200Y-285750D01*
X-330200Y-196850D01*
X-396875Y-130175D01*
X-517525Y-130175D01*
X-533400Y-146050D01*
X-533400Y-146050D02*
G54D10*
D03*
X-457200Y-146050D02*
G54D10*
D03*
X-222250Y-406400D02*
G54D10*
D03*
X-222250Y-381000D02*
G54D10*
D03*
X-238125Y-596900D02*
G54D14*
D03*
X-82550Y-381000D02*
G54D10*
D03*
X-190500Y-457200D02*
G54D10*
D03*
X-222250Y-139700D02*
G54D11*
D03*
X-355600Y-69850D02*
G54D14*
D03*
X-158750Y-457200D02*
G54D10*
D03*
X-158750Y-431800D02*
G54D10*
D03*
X-158750Y-406400D02*
G54D10*
D03*
G54D13*
X-133350Y-273050D02*
X-133350Y-298450D01*
X-92075Y-339725D01*
X-76200Y-339725D01*
X-66675Y-349250D01*
X-66675Y-365125D01*
X-82550Y-381000D01*
X-222250Y-330200D02*
G54D10*
D03*
G54D12*
X-190500Y-330200D02*
X-177800Y-330200D01*
X-168275Y-339725D01*
X-111125Y-339725D01*
X-95250Y-355600D01*
X-82550Y-355600D01*
X-82550Y-355600D02*
G54D10*
D03*
G54D13*
X-222250Y-330200D02*
X-206375Y-330200D01*
X-206375Y-361950D01*
X-200025Y-368300D01*
X-149225Y-368300D01*
X-142875Y-374650D01*
X-142875Y-409575D01*
X-123825Y-428625D01*
X-133350Y-273050D02*
G54D10*
D03*
X-82550Y-508000D02*
G54D10*
D03*
G54D13*
X-107950Y-139700D02*
X-107950Y-165100D01*
X-133350Y-190500D01*
X-133350Y-215900D01*
X-222250Y-254000D02*
G54D10*
D03*
X-222250Y-228600D02*
G54D10*
D03*
X-196850Y-127000D02*
G54D10*
D03*
G54D13*
X-222250Y-228600D02*
X-238125Y-212725D01*
X-238125Y-193675D01*
X-222250Y-177800D01*
X-222250Y-139700D01*
G54D13*
X-222250Y-254000D02*
X-180975Y-212725D01*
X-180975Y-168275D01*
X-196850Y-152400D01*
X-196850Y-127000D01*
X-368300Y-69850D02*
G54D14*
D03*
X-355600Y-57150D02*
G54D14*
D03*
X-368300Y-57150D02*
G54D14*
D03*
X-355600Y-82550D02*
G54D14*
D03*
X-368300Y-82550D02*
G54D14*
D03*
X-342900Y-82550D02*
G54D14*
D03*
X-342900Y-69850D02*
G54D14*
D03*
X-342900Y-57150D02*
G54D14*
D03*
G36*
X-368300Y-82550D02*
X-368300Y-57150D01*
X-342900Y-57150D01*
X-342900Y-82550D01*
X-368300Y-82550D01*
G37*
G54D12*
X-368300Y-82550D02*
X-368300Y-57150D01*
X-342900Y-57150D01*
X-342900Y-82550D01*
X-368300Y-82550D01*
X-247650Y-457200D02*
G54D14*
D03*
X-222250Y-482600D02*
G54D10*
D03*
X-238125Y-292100D02*
G54D14*
D03*
X-107950Y-215900D02*
G54D10*
D03*
G54D13*
X-238125Y-292100D02*
X-184150Y-292100D01*
X-174625Y-282575D01*
X-174625Y-266700D01*
X-165100Y-257175D01*
X-127000Y-257175D01*
X-107950Y-238125D01*
X-107950Y-215900D01*
G54D13*
X-190500Y-698500D02*
X-206375Y-682625D01*
X-206375Y-600075D01*
X-222250Y-584200D01*
G54D13*
X-222250Y-558800D02*
X-196850Y-584200D01*
X-180975Y-584200D01*
X-130175Y-635000D01*
X-130175Y-708025D01*
X-114300Y-723900D01*
X-222250Y-558800D02*
G54D10*
D03*
X-114300Y-723900D02*
G54D10*
D03*
X-82550Y-215900D02*
G54D10*
D03*
X-107950Y-139700D02*
G54D10*
D03*
X-82550Y-406400D02*
G54D10*
D03*
G54D13*
X-158750Y-406400D02*
X-133350Y-431800D01*
X-133350Y-479425D01*
X-79375Y-533400D01*
G54D13*
X-158750Y-431800D02*
X-142875Y-447675D01*
X-142875Y-482600D01*
X-88900Y-536575D01*
G54D13*
X-190500Y-457200D02*
X-174625Y-473075D01*
X-174625Y-514350D01*
X-161925Y-527050D01*
X-111125Y-527050D01*
X-98425Y-539750D01*
X-406400Y-381000D02*
G54D10*
D03*
X-374650Y-228600D02*
G54D10*
D03*
X-406400Y-355600D02*
G54D10*
D03*
X-374650Y-203200D02*
G54D10*
D03*
G54D13*
X-266700Y-482600D02*
X-228600Y-520700D01*
X-212725Y-520700D01*
X-206375Y-527050D01*
X-206375Y-552450D01*
X-200025Y-558800D01*
X-177800Y-558800D01*
X-114300Y-622300D01*
X-114300Y-622300D02*
G54D10*
D03*
X-171450Y-863600D02*
G54D10*
D03*
X-196850Y-762000D02*
G54D10*
D03*
G54D13*
X-171450Y-863600D02*
X-184150Y-850900D01*
X-184150Y-774700D01*
X-196850Y-762000D01*
X-222250Y-863600D02*
G54D10*
D03*
X-247650Y-939800D02*
G54D10*
D03*
G54D13*
X-247650Y-939800D02*
X-247650Y-914400D01*
X-222250Y-889000D01*
X-222250Y-863600D01*
G54D13*
X-222250Y-1168400D02*
X-234950Y-1155700D01*
X-234950Y-952500D01*
X-247650Y-939800D01*
X-171450Y-1168400D02*
G54D10*
D03*
X-196850Y-1066800D02*
G54D10*
D03*
G54D13*
X-171450Y-1168400D02*
X-184150Y-1155700D01*
X-184150Y-1079500D01*
X-196850Y-1066800D01*
X-222250Y-1168400D02*
G54D10*
D03*
X-247650Y-1244600D02*
G54D10*
D03*
G54D13*
X-247650Y-1244600D02*
X-247650Y-1219200D01*
X-222250Y-1193800D01*
X-222250Y-1168400D01*
X-171450Y-762000D02*
G54D10*
D03*
X-171450Y-965200D02*
G54D10*
D03*
X-171450Y-1066800D02*
G54D10*
D03*
X-171450Y-1270000D02*
G54D10*
D03*
G54D12*
X-82550Y-323850D02*
X-69850Y-323850D01*
X-63500Y-317500D01*
X-63500Y-222250D01*
X-69850Y-215900D01*
X-82550Y-215900D01*
X-114300Y-647700D02*
G54D10*
D03*
X-273050Y-863600D02*
G54D10*
D03*
X-298450Y-939800D02*
G54D10*
D03*
G54D13*
X-298450Y-939800D02*
X-298450Y-927100D01*
X-339725Y-885825D01*
X-339725Y-755650D01*
X-327025Y-742950D01*
X-327025Y-720725D01*
X-307975Y-701675D01*
X-276225Y-701675D01*
X-234950Y-660400D01*
X-222250Y-660400D01*
G54D13*
X-273050Y-863600D02*
X-260350Y-850900D01*
X-260350Y-755650D01*
X-269875Y-746125D01*
X-307975Y-746125D01*
X-317500Y-736600D01*
X-317500Y-723900D01*
X-304800Y-711200D01*
X-273050Y-711200D01*
X-247650Y-685800D01*
X-222250Y-685800D01*
X-222250Y-660400D02*
G54D10*
D03*
X-222250Y-685800D02*
G54D10*
D03*
X-298450Y-1244600D02*
G54D10*
D03*
X-273050Y-1168400D02*
G54D10*
D03*
G54D13*
X-273050Y-1168400D02*
X-285750Y-1155700D01*
X-285750Y-1130300D01*
X-339725Y-1076325D01*
X-339725Y-955675D01*
X-371475Y-923925D01*
X-371475Y-730250D01*
X-333375Y-692150D01*
X-279400Y-692150D01*
X-222250Y-635000D01*
X-222250Y-635000D02*
G54D10*
D03*
G54D13*
X-298450Y-1244600D02*
X-298450Y-1219200D01*
X-339725Y-1177925D01*
X-339725Y-1158875D01*
X-371475Y-1127125D01*
X-371475Y-949325D01*
X-381000Y-939800D01*
X-381000Y-727075D01*
X-336550Y-682625D01*
X-282575Y-682625D01*
X-238125Y-638175D01*
X-238125Y-625475D01*
X-222250Y-609600D01*
G54D13*
X-406400Y-838200D02*
X-390525Y-854075D01*
X-390525Y-942975D01*
X-381000Y-952500D01*
X-381000Y-1143000D01*
X-371475Y-1152525D01*
X-371475Y-1339850D01*
G54D13*
X-406400Y-939800D02*
X-390525Y-955675D01*
X-390525Y-1146175D01*
X-381000Y-1155700D01*
X-381000Y-1336675D01*
X-406400Y-838200D02*
G54D10*
D03*
X-406400Y-939800D02*
G54D10*
D03*
X-527050Y-1333500D02*
G54D10*
D03*
X-406400Y-1168400D02*
G54D10*
D03*
X-247650Y-863600D02*
G54D10*
D03*
X-273050Y-939800D02*
G54D10*
D03*
G54D12*
X-273050Y-939800D02*
X-273050Y-914400D01*
X-247650Y-889000D01*
X-247650Y-863600D01*
X-247650Y-1168400D02*
G54D10*
D03*
X-273050Y-1244600D02*
G54D10*
D03*
G54D12*
X-273050Y-1244600D02*
X-273050Y-1219200D01*
X-247650Y-1193800D01*
X-247650Y-1168400D01*
X-222250Y-609600D02*
G54D10*
D03*
G54D13*
X-482600Y-254000D02*
X-406400Y-177800D01*
G54D13*
X-457200Y-577850D02*
X-450850Y-584200D01*
X-450850Y-609600D01*
X-415925Y-644525D01*
X-396875Y-644525D01*
X-390525Y-650875D01*
X-390525Y-666750D01*
X-384175Y-673100D01*
X-358775Y-673100D01*
X-358775Y-673100D02*
G54D14*
D03*
X-307975Y-730250D02*
G54D14*
D03*
G54D13*
X-307975Y-730250D02*
X-301625Y-736600D01*
X-254000Y-736600D01*
X-234950Y-755650D01*
X-234950Y-850900D01*
X-222250Y-863600D01*
X-196850Y-863600D02*
G54D10*
D03*
X-222250Y-939800D02*
G54D10*
D03*
X-177800Y-904875D02*
G54D14*
D03*
X-155575Y-927100D02*
G54D14*
D03*
G54D13*
X-222250Y-939800D02*
X-206375Y-923925D01*
X-168275Y-923925D01*
X-158750Y-914400D01*
X-142875Y-914400D01*
G54D13*
X-196850Y-863600D02*
X-196850Y-901700D01*
X-184150Y-914400D01*
X-171450Y-914400D01*
X-161925Y-904875D01*
X-139700Y-904875D01*
G54D13*
X-171450Y-1270000D02*
X-155575Y-1254125D01*
X-155575Y-1177925D01*
X-133350Y-1155700D01*
X-133350Y-1130300D01*
X-171450Y-1092200D01*
X-171450Y-1066800D01*
X-158750Y-1054100D01*
X-158750Y-1031875D01*
X-171450Y-1019175D01*
X-171450Y-965200D01*
X-155575Y-949325D01*
X-155575Y-927100D01*
G54D13*
X-177800Y-904875D02*
X-177800Y-895350D01*
X-133350Y-850900D01*
X-133350Y-825500D01*
X-171450Y-787400D01*
X-171450Y-762000D01*
G54D13*
X-142875Y-914400D02*
X-117475Y-939800D01*
X-117475Y-1377950D01*
G54D13*
X-107950Y-1381125D02*
X-107950Y-936625D01*
X-139700Y-904875D01*
X-196850Y-1168400D02*
G54D10*
D03*
X-222250Y-1244600D02*
G54D10*
D03*
G54D13*
X-222250Y-1244600D02*
X-234950Y-1257300D01*
X-234950Y-1282700D01*
X-285750Y-1333500D01*
X-285750Y-1355725D01*
X-298450Y-1368425D01*
X-298450Y-1384300D01*
G54D13*
X-196850Y-1168400D02*
X-184150Y-1181100D01*
X-184150Y-1250950D01*
X-190500Y-1257300D01*
X-203200Y-1257300D01*
X-209550Y-1263650D01*
X-209550Y-1295400D01*
X-184150Y-1320800D01*
X-184150Y-1355725D01*
X-171450Y-1368425D01*
X-171450Y-1384300D01*
X-133350Y-215900D02*
G54D10*
D03*
X-666750Y-177800D02*
G54D10*
D03*
X-590550Y-203200D02*
G54D10*
D03*
G54D13*
X-666750Y-177800D02*
X-641350Y-177800D01*
X-615950Y-203200D01*
X-590550Y-203200D01*
X-666750Y-203200D02*
G54D10*
D03*
G54D13*
X-457200Y-254000D02*
X-473075Y-269875D01*
X-571500Y-269875D01*
X-638175Y-203200D01*
X-666750Y-203200D01*
X-666750Y-304800D02*
G54D10*
D03*
X-615950Y-266700D02*
G54D10*
D03*
G54D15*
X-666750Y-304800D02*
X-654050Y-304800D01*
X-615950Y-266700D01*
X-482600Y-146050D02*
G54D10*
D03*
X-457200Y-177800D02*
G54D10*
D03*
X-406400Y-69850D02*
G54D10*
D03*
X-406400Y-177800D02*
G54D10*
D03*
X-431800Y-177800D02*
G54D10*
D03*
X-533400Y-254000D02*
G54D10*
D03*
G54D12*
X-508000Y-254000D02*
X-431800Y-177800D01*
X-406400Y-292100D02*
G54D10*
D03*
G54D13*
X-374650Y-431800D02*
X-358775Y-415925D01*
X-358775Y-374650D01*
X-349250Y-365125D01*
X-349250Y-203200D01*
X-374650Y-177800D01*
X-406400Y-177800D01*
X-158750Y-298450D02*
G54D11*
D03*
G54D13*
X-206375Y-330200D02*
X-206375Y-320675D01*
X-200025Y-314325D01*
X-174625Y-314325D01*
X-158750Y-298450D01*
X-82550Y-298450D02*
G54D11*
D03*
X-82550Y-241300D02*
G54D10*
D03*
G54D13*
X-82550Y-241300D02*
X-82550Y-298450D01*
G54D13*
X-666750Y-177800D02*
X-682625Y-193675D01*
X-682625Y-676275D01*
X-692150Y-685800D01*
X-692150Y-825500D01*
X-682625Y-835025D01*
X-682625Y-869950D01*
X-676275Y-876300D01*
X-657225Y-876300D01*
X-650875Y-882650D01*
X-650875Y-974725D01*
G54D13*
X-123825Y-428625D02*
X-123825Y-466725D01*
X-69850Y-520700D01*
X-69850Y-542925D01*
X-666750Y-647700D02*
G54D10*
D03*
G36*
X-666750Y-650875D02*
X-669925Y-647700D01*
X-669925Y-622300D01*
X-666750Y-619125D01*
X-657225Y-619125D01*
X-647700Y-609600D01*
X-647700Y-581025D01*
X-635000Y-581025D01*
X-625475Y-571500D01*
X-625475Y-558800D01*
X-635000Y-549275D01*
X-647700Y-549275D01*
X-657225Y-558800D01*
X-657225Y-571500D01*
X-647700Y-581025D01*
X-647700Y-587375D01*
X-657225Y-577850D01*
X-666750Y-577850D01*
X-669925Y-574675D01*
X-669925Y-533400D01*
X-666750Y-530225D01*
X-638175Y-530225D01*
X-606425Y-561975D01*
X-590550Y-561975D01*
X-587375Y-565150D01*
X-587375Y-574675D01*
X-577850Y-584200D01*
X-577850Y-596900D01*
X-568325Y-606425D01*
X-558800Y-606425D01*
X-558800Y-612775D01*
X-571500Y-612775D01*
X-581025Y-603250D01*
X-600075Y-603250D01*
X-647700Y-650875D01*
X-666750Y-650875D01*
G37*
G54D12*
X-666750Y-650875D02*
X-669925Y-647700D01*
X-669925Y-622300D01*
X-666750Y-619125D01*
X-657225Y-619125D01*
X-647700Y-609600D01*
X-647700Y-581025D01*
X-635000Y-581025D01*
X-625475Y-571500D01*
X-625475Y-558800D01*
X-635000Y-549275D01*
X-647700Y-549275D01*
X-657225Y-558800D01*
X-657225Y-571500D01*
X-647700Y-581025D01*
X-647700Y-587375D01*
X-657225Y-577850D01*
X-666750Y-577850D01*
X-669925Y-574675D01*
X-669925Y-533400D01*
X-666750Y-530225D01*
X-638175Y-530225D01*
X-606425Y-561975D01*
X-590550Y-561975D01*
X-587375Y-565150D01*
X-587375Y-574675D01*
X-577850Y-584200D01*
X-577850Y-596900D01*
X-568325Y-606425D01*
X-558800Y-606425D01*
X-558800Y-612775D01*
X-571500Y-612775D01*
X-581025Y-603250D01*
X-600075Y-603250D01*
X-647700Y-650875D01*
X-666750Y-650875D01*
X-625475Y-920750D02*
G54D14*
D03*
X-625475Y-911225D02*
G54D14*
D03*
X-584200Y-971550D02*
G54D10*
D03*
G54D13*
X-558800Y-1193800D02*
X-514350Y-1193800D01*
X-463550Y-1143000D01*
G54D12*
X-406400Y-69850D02*
X-368300Y-107950D01*
X-190500Y-107950D01*
X-171450Y-88900D01*
X-146050Y-88900D01*
X-146050Y-88900D02*
G54D10*
D03*
G36*
X-584200Y-974725D02*
X-584200Y-968375D01*
X-590550Y-968375D01*
X-622300Y-936625D01*
X-622300Y-914400D01*
X-625475Y-911225D01*
X-628650Y-914400D01*
X-628650Y-936625D01*
X-590550Y-974725D01*
X-584200Y-974725D01*
G37*
G54D12*
X-584200Y-974725D02*
X-584200Y-968375D01*
X-590550Y-968375D01*
X-622300Y-936625D01*
X-622300Y-914400D01*
X-625475Y-911225D01*
X-628650Y-914400D01*
X-628650Y-936625D01*
X-590550Y-974725D01*
X-584200Y-974725D01*
X-590550Y-749300D02*
G54D10*
D03*
X-615950Y-882650D02*
G54D14*
D03*
X-631825Y-898525D02*
G54D14*
D03*
G54D13*
X-615950Y-882650D02*
X-615950Y-774700D01*
X-590550Y-749300D01*
G54D13*
X-631825Y-898525D02*
X-641350Y-908050D01*
X-641350Y-942975D01*
X-596900Y-987425D01*
X-581025Y-987425D01*
X-574675Y-993775D01*
G54D13*
X-574675Y-993775D02*
X-574675Y-1238250D01*
X-584200Y-1247775D01*
X-603250Y-1247775D01*
X-615950Y-1260475D01*
X-615950Y-1397000D01*
X-590550Y-1422400D01*
X-590550Y-1422400D02*
G54D10*
D03*
X-422275Y-1155700D02*
G54D14*
D03*
X-428625Y-1168400D02*
G54D14*
D03*
X-590550Y-1320800D02*
G54D10*
D03*
X-590550Y-1397000D02*
G54D10*
D03*
G54D13*
X-422275Y-1155700D02*
X-434975Y-1155700D01*
X-441325Y-1162050D01*
X-441325Y-1177925D01*
X-546100Y-1282700D01*
X-600075Y-1282700D01*
X-606425Y-1289050D01*
X-606425Y-1381125D01*
X-590550Y-1397000D01*
G54D13*
X-428625Y-1168400D02*
X-428625Y-1177925D01*
X-542925Y-1292225D01*
X-561975Y-1292225D01*
X-590550Y-1320800D01*
X-425450Y-1409700D02*
G54D10*
D03*
X-476250Y-1333500D02*
G54D10*
D03*
X-450850Y-1333500D02*
G54D10*
D03*
X-450850Y-1409700D02*
G54D10*
D03*
X-425450Y-1333500D02*
G54D10*
D03*
G54D13*
X-450850Y-1409700D02*
X-450850Y-1384300D01*
X-425450Y-1358900D01*
X-425450Y-1333500D01*
X-158750Y-1603375D02*
G54D14*
D03*
X-539750Y-1600200D02*
G54D14*
D03*
X-146050Y-1603375D02*
G54D14*
D03*
G54D13*
X-476250Y-1333500D02*
X-476250Y-1238250D01*
X-406400Y-1168400D01*
X-501650Y-1409700D02*
G54D10*
D03*
G54D13*
X-425450Y-1409700D02*
X-425450Y-1381125D01*
X-381000Y-1336675D01*
X-298450Y-1384300D02*
G54D10*
D03*
X-171450Y-1384300D02*
G54D10*
D03*
X-298450Y-1460500D02*
G54D10*
D03*
X-171450Y-1460500D02*
G54D10*
D03*
G54D13*
X-298450Y-1460500D02*
X-282575Y-1444625D01*
X-184150Y-1444625D01*
X-117475Y-1377950D01*
G54D13*
X-171450Y-1460500D02*
X-171450Y-1444625D01*
X-107950Y-1381125D01*
G54D12*
X-146050Y-1384300D02*
X-193675Y-1431925D01*
X-295275Y-1431925D01*
X-323850Y-1460500D01*
X-323850Y-1460500D02*
G54D10*
D03*
X-146050Y-1384300D02*
G54D10*
D03*
X-273050Y-1384300D02*
G54D10*
D03*
X-196850Y-1384300D02*
G54D10*
D03*
X-139700Y-1244600D02*
G54D10*
D03*
G54D12*
X-139700Y-1244600D02*
X-130175Y-1254125D01*
X-130175Y-1368425D01*
X-146050Y-1384300D01*
G54D13*
X-501650Y-1409700D02*
X-485775Y-1425575D01*
X-393700Y-1425575D01*
X-384175Y-1416050D01*
X-384175Y-1352550D01*
X-371475Y-1339850D01*
G54D13*
X-450850Y-1333500D02*
X-511175Y-1393825D01*
X-533400Y-1393825D01*
X-539750Y-1400175D01*
X-539750Y-1450975D01*
X-517525Y-1473200D01*
X-444500Y-1473200D01*
X-400050Y-1517650D01*
X-400050Y-1517650D02*
G54D10*
D03*
X-527050Y-1517650D02*
G54D10*
D03*
G54D13*
X-527050Y-1333500D02*
X-568325Y-1374775D01*
X-568325Y-1447800D01*
X-527050Y-1489075D01*
X-527050Y-1517650D01*
X-501650Y-1441450D02*
G54D10*
D03*
X-425450Y-1441450D02*
G54D10*
D03*
G54D16*
X-501650Y-1517650D02*
X-501650Y-1619250D01*
G54D16*
X-476250Y-1619250D02*
X-476250Y-1593850D01*
X-425450Y-1543050D01*
X-425450Y-1517650D01*
G54D16*
X-501650Y-1441450D02*
X-501650Y-1454150D01*
X-495300Y-1460500D01*
X-438150Y-1460500D01*
X-400050Y-1498600D01*
X-368300Y-1498600D01*
X-358775Y-1508125D01*
X-358775Y-1527175D01*
X-450850Y-1619250D01*
G54D16*
X-425450Y-1441450D02*
X-425450Y-1454150D01*
X-393700Y-1485900D01*
X-361950Y-1485900D01*
X-346075Y-1501775D01*
X-346075Y-1533525D01*
X-425450Y-1612900D01*
X-425450Y-1619250D01*
X-501650Y-1517650D02*
G54D10*
D03*
X-425450Y-1517650D02*
G54D10*
D03*
G54D16*
X-400050Y-1619250D02*
X-400050Y-1606550D01*
X-333375Y-1539875D01*
X-333375Y-1495425D01*
X-355600Y-1473200D01*
X-355600Y-1447800D01*
X-314325Y-1406525D01*
X-295275Y-1406525D01*
X-273050Y-1384300D01*
G54D16*
X-196850Y-1384300D02*
X-231775Y-1419225D01*
X-307975Y-1419225D01*
X-342900Y-1454150D01*
X-342900Y-1466850D01*
X-320675Y-1489075D01*
X-320675Y-1546225D01*
X-374650Y-1600200D01*
X-374650Y-1619250D01*
G54D16*
X-273050Y-1460500D02*
X-273050Y-1517650D01*
X-349250Y-1593850D01*
X-349250Y-1619250D01*
G54D16*
X-323850Y-1619250D02*
X-323850Y-1587500D01*
X-196850Y-1460500D01*
X-273050Y-1460500D02*
G54D10*
D03*
X-196850Y-1460500D02*
G54D10*
D03*
X-476250Y-1619250D02*
G54D17*
D03*
X-476250Y-1644650D02*
G54D17*
D03*
X-501650Y-1644650D02*
G54D17*
D03*
X-501650Y-1619250D02*
G54D17*
D03*
X-527050Y-1619250D02*
G54D17*
D03*
X-527050Y-1644650D02*
G54D17*
D03*
X-552450Y-1644650D02*
G54D17*
D03*
X-552450Y-1619250D02*
G54D17*
D03*
X-577850Y-1619250D02*
G54D17*
D03*
G36*
X-573700Y-1634650D02*
X-567850Y-1640500D01*
X-567850Y-1648800D01*
X-573700Y-1654650D01*
X-582000Y-1654650D01*
X-587850Y-1648800D01*
X-587850Y-1640500D01*
X-582000Y-1634650D01*
X-573700Y-1634650D01*
G37*
X-374650Y-1619250D02*
G54D17*
D03*
X-374650Y-1644650D02*
G54D17*
D03*
X-400050Y-1644650D02*
G54D17*
D03*
X-400050Y-1619250D02*
G54D17*
D03*
X-425450Y-1619250D02*
G54D17*
D03*
X-425450Y-1644650D02*
G54D17*
D03*
X-450850Y-1644650D02*
G54D17*
D03*
X-450850Y-1619250D02*
G54D17*
D03*
X-273050Y-1619250D02*
G54D17*
D03*
X-273050Y-1644650D02*
G54D17*
D03*
X-298450Y-1644650D02*
G54D17*
D03*
X-298450Y-1619250D02*
G54D17*
D03*
X-323850Y-1619250D02*
G54D17*
D03*
X-323850Y-1644650D02*
G54D17*
D03*
X-349250Y-1644650D02*
G54D17*
D03*
X-349250Y-1619250D02*
G54D17*
D03*
X-171450Y-1619250D02*
G54D17*
D03*
X-171450Y-1644650D02*
G54D17*
D03*
X-196850Y-1644650D02*
G54D17*
D03*
X-196850Y-1619250D02*
G54D17*
D03*
X-222250Y-1619250D02*
G54D17*
D03*
X-222250Y-1644650D02*
G54D17*
D03*
X-247650Y-1644650D02*
G54D17*
D03*
X-247650Y-1619250D02*
G54D17*
D03*
G54D12*
X-298450Y-1619250D02*
X-298450Y-1581150D01*
X-203200Y-1485900D01*
X-165100Y-1485900D01*
X-165100Y-1485900D02*
G54D10*
D03*
X-609600Y-1454150D02*
G54D10*
D03*
X-584200Y-1504950D02*
G54D10*
D03*
G54D12*
X-609600Y-1454150D02*
X-609600Y-1466850D01*
X-584200Y-1492250D01*
X-584200Y-1504950D01*
G54D13*
X-650875Y-974725D02*
X-650875Y-1031875D01*
X-641350Y-1041400D01*
X-641350Y-1181100D01*
X-625475Y-1196975D01*
X-625475Y-1489075D01*
X-527050Y-1587500D01*
X-527050Y-1619250D01*
G54D13*
X-552450Y-1619250D02*
X-552450Y-1587500D01*
X-644525Y-1495425D01*
X-644525Y-1203325D01*
X-666750Y-1181100D01*
G54D13*
X-666750Y-1206500D02*
X-682625Y-1222375D01*
X-682625Y-1470025D01*
X-577850Y-1574800D01*
X-577850Y-1619250D01*
X-666750Y-1206500D02*
G54D10*
D03*
X-666750Y-1181100D02*
G54D10*
D03*
G54D13*
X-577850Y-1644650D02*
X-593725Y-1628775D01*
X-593725Y-1571625D01*
X-692150Y-1473200D01*
X-692150Y-1219200D01*
X-682625Y-1209675D01*
X-682625Y-1171575D01*
X-666750Y-1155700D01*
G54D13*
X-552450Y-1644650D02*
X-568325Y-1660525D01*
X-587375Y-1660525D01*
X-603250Y-1644650D01*
X-603250Y-1574800D01*
X-701675Y-1476375D01*
X-701675Y-1216025D01*
X-692150Y-1206500D01*
X-692150Y-1155700D01*
X-666750Y-1130300D01*
G54D13*
X-527050Y-1644650D02*
X-552450Y-1670050D01*
X-590550Y-1670050D01*
X-612775Y-1647825D01*
X-612775Y-1577975D01*
X-711200Y-1479550D01*
X-711200Y-1212850D01*
X-701675Y-1203325D01*
X-701675Y-1139825D01*
X-666750Y-1104900D01*
G54D13*
X-501650Y-1644650D02*
X-536575Y-1679575D01*
X-593725Y-1679575D01*
X-622300Y-1651000D01*
X-622300Y-1581150D01*
X-720725Y-1482725D01*
X-720725Y-1209675D01*
X-711200Y-1200150D01*
X-711200Y-1123950D01*
X-666750Y-1079500D01*
X-666750Y-1155700D02*
G54D10*
D03*
X-666750Y-1130300D02*
G54D10*
D03*
X-666750Y-1104900D02*
G54D10*
D03*
X-666750Y-1079500D02*
G54D10*
D03*
G54D12*
X-400050Y-1644650D02*
X-400050Y-1657350D01*
X-393700Y-1663700D01*
X-254000Y-1663700D01*
X-247650Y-1657350D01*
X-247650Y-1644650D01*
X-355600Y-1270000D02*
G54D10*
D03*
X-323850Y-1384300D02*
G54D10*
D03*
G54D12*
X-323850Y-1384300D02*
X-342900Y-1365250D01*
X-342900Y-1336675D01*
X-336550Y-1330325D01*
X-336550Y-1289050D01*
X-355600Y-1270000D01*
G54D13*
X-539750Y-1600200D02*
X-539750Y-1587500D01*
X-635000Y-1492250D01*
X-635000Y-1200150D01*
X-650875Y-1184275D01*
X-650875Y-1044575D01*
X-666750Y-1028700D01*
X-666750Y-1028700D02*
G54D10*
D03*
G54D12*
X-476250Y-1644650D02*
X-400050Y-1644650D01*
G36*
X-476250Y-1641475D02*
X-396875Y-1641475D01*
X-396875Y-1654175D01*
X-387350Y-1663700D01*
X-260350Y-1663700D01*
X-250825Y-1654175D01*
X-250825Y-1619250D01*
X-244475Y-1619250D01*
X-244475Y-1657350D01*
X-257175Y-1670050D01*
X-390525Y-1670050D01*
X-412750Y-1647825D01*
X-476250Y-1647825D01*
X-476250Y-1641475D01*
G37*
G54D12*
X-476250Y-1641475D02*
X-396875Y-1641475D01*
X-396875Y-1654175D01*
X-387350Y-1663700D01*
X-260350Y-1663700D01*
X-250825Y-1654175D01*
X-250825Y-1619250D01*
X-244475Y-1619250D01*
X-244475Y-1657350D01*
X-257175Y-1670050D01*
X-390525Y-1670050D01*
X-412750Y-1647825D01*
X-476250Y-1647825D01*
X-476250Y-1641475D01*
G54D13*
X-98425Y-539750D02*
X-98425Y-650875D01*
X-88900Y-660400D01*
X-88900Y-736600D01*
X-98425Y-746125D01*
X-98425Y-1460500D01*
G54D13*
X-88900Y-1460500D02*
X-88900Y-749300D01*
X-79375Y-739775D01*
X-79375Y-657225D01*
X-88900Y-647700D01*
X-88900Y-536575D01*
G54D13*
X-79375Y-533400D02*
X-79375Y-644525D01*
X-69850Y-654050D01*
X-69850Y-742950D01*
X-79375Y-752475D01*
X-79375Y-1460500D01*
G54D13*
X-69850Y-1460500D02*
X-69850Y-755650D01*
X-60325Y-746125D01*
X-60325Y-650875D01*
X-69850Y-641350D01*
X-69850Y-542925D01*
G54D13*
X-82550Y-406400D02*
X-60325Y-428625D01*
X-60325Y-638175D01*
X-50800Y-647700D01*
X-50800Y-749300D01*
X-60325Y-758825D01*
X-60325Y-1460500D01*
G54D13*
X-196850Y-1619250D02*
X-98425Y-1520825D01*
X-98425Y-1460500D01*
G54D13*
X-171450Y-1644650D02*
X-158750Y-1644650D01*
X-123825Y-1609725D01*
X-123825Y-1597025D01*
X-60325Y-1533525D01*
X-60325Y-1460500D01*
G54D13*
X-171450Y-1619250D02*
X-146050Y-1619250D01*
X-133350Y-1606550D01*
X-133350Y-1593850D01*
X-69850Y-1530350D01*
X-69850Y-1460500D01*
G54D13*
X-158750Y-1603375D02*
X-158750Y-1593850D01*
X-88900Y-1524000D01*
X-88900Y-1460500D01*
G54D13*
X-146050Y-1603375D02*
X-146050Y-1593850D01*
X-79375Y-1527175D01*
X-79375Y-1460500D01*
X-635000Y-971550D02*
G54D10*
D03*
X-590550Y-1003300D02*
G54D10*
D03*
G36*
X-631825Y-971550D02*
X-603250Y-1000125D01*
X-590550Y-1000125D01*
X-590550Y-1006475D01*
X-603250Y-1006475D01*
X-638175Y-971550D01*
X-631825Y-971550D01*
G37*
G54D12*
X-631825Y-971550D02*
X-603250Y-1000125D01*
X-590550Y-1000125D01*
X-590550Y-1006475D01*
X-603250Y-1006475D01*
X-638175Y-971550D01*
X-631825Y-971550D01*
X-114300Y-1409700D02*
G54D10*
D03*
G54D12*
X-247650Y-1619250D02*
X-247650Y-1597025D01*
X-130175Y-1479550D01*
X-130175Y-1425575D01*
X-114300Y-1409700D01*
X-222250Y-431800D02*
G54D10*
D03*
G54D13*
X-222250Y-431800D02*
X-206375Y-415925D01*
X-180975Y-415925D01*
X-174625Y-422275D01*
X-174625Y-441325D01*
X-158750Y-457200D01*
G54D13*
X-247650Y-457200D02*
X-222250Y-482600D01*
X-406400Y-431800D02*
G54D10*
D03*
X-374650Y-406400D02*
G54D10*
D03*
G54D13*
X-403225Y-431800D02*
X-377825Y-406400D01*
X-450850Y-565150D02*
G54D14*
D03*
G54D13*
X-450850Y-565150D02*
X-441325Y-574675D01*
X-441325Y-606425D01*
X-422275Y-625475D01*
X-396875Y-625475D01*
X-390525Y-619125D01*
X-390525Y-447675D01*
X-374650Y-431800D01*
G36*
X-457200Y-552450D02*
X-457200Y-542925D01*
X-460375Y-546100D01*
X-460375Y-555625D01*
X-457200Y-552450D01*
G37*
G54D12*
X-457200Y-552450D02*
X-457200Y-542925D01*
X-460375Y-546100D01*
X-460375Y-555625D01*
X-457200Y-552450D01*
X-222250Y-584200D02*
G54D10*
D03*
X-190500Y-698500D02*
G54D10*
D03*
X-247650Y-301625D02*
G54D14*
D03*
X-260350Y-301625D02*
G54D14*
D03*
G54D13*
X-260350Y-301625D02*
X-320675Y-241300D01*
X-320675Y-193675D01*
X-419100Y-95250D01*
X-482600Y-95250D01*
X-508000Y-69850D01*
X-508000Y-69850D02*
G54D10*
D03*
G54D13*
X-247650Y-301625D02*
X-247650Y-295275D01*
X-250825Y-292100D01*
X-257175Y-292100D01*
X-311150Y-238125D01*
X-311150Y-190500D01*
X-415925Y-85725D01*
X-441325Y-85725D01*
X-457200Y-69850D01*
X-457200Y-69850D02*
G54D10*
D03*
X-241300Y-708025D02*
G54D14*
D03*
G54D13*
X-241300Y-708025D02*
X-241300Y-723900D01*
X-222250Y-742950D01*
X-190500Y-742950D01*
X-171450Y-762000D01*
X-266700Y-482600D02*
G54D14*
D03*
G54D13*
X-190500Y-723900D02*
X-139700Y-723900D01*
X-123825Y-739775D01*
X-104775Y-739775D01*
X-98425Y-733425D01*
X-98425Y-663575D01*
X-114300Y-647700D01*
X-190500Y-723900D02*
G54D10*
D03*
X-323850Y-1346200D02*
G54D10*
D03*
X-323850Y-1244600D02*
G54D10*
D03*
G54D13*
X-323850Y-1346200D02*
X-323850Y-1295400D01*
X-311150Y-1282700D01*
X-311150Y-1257300D01*
X-323850Y-1244600D01*
X-323850Y-1041400D02*
G54D10*
D03*
X-323850Y-939800D02*
G54D10*
D03*
G54D13*
X-323850Y-1041400D02*
X-323850Y-990600D01*
X-311150Y-977900D01*
X-311150Y-952500D01*
X-323850Y-939800D01*
X-542925Y-1260475D02*
G54D14*
D03*
G54D13*
X-542925Y-1260475D02*
X-542925Y-1235075D01*
X-558800Y-1219200D01*
X-558800Y-1219200D02*
G54D10*
D03*
M02*
