%FSLAX34Y34*%
%MOMM*%
%LNCOPPER_BOTTOM*%
G71*
G01*
%ADD10C, 0.10*%
%ADD11C, 0.00*%
%ADD12C, 0.11*%
%ADD13C, 0.50*%
%ADD14C, 0.22*%
%ADD15C, 0.33*%
%ADD16C, 0.39*%
%LPD*%
G54D10*
X-365150Y-698500D02*
X-309550Y-698500D01*
X-309550Y-682600D01*
X-287350Y-682600D01*
X-287350Y-698500D01*
X-231750Y-698500D01*
X-231750Y-190500D01*
X-365150Y-190500D01*
X-365150Y-698500D01*
G36*
X-231750Y-698600D02*
X-244450Y-698600D01*
X-231750Y-685800D01*
X-231750Y-698600D01*
G37*
G54D11*
X-231750Y-698600D02*
X-244450Y-698600D01*
X-231750Y-685800D01*
X-231750Y-698600D01*
G54D10*
X-415900Y-317500D02*
X-471500Y-317500D01*
X-471500Y-333400D01*
X-493700Y-333400D01*
X-493700Y-317500D01*
X-549300Y-317500D01*
X-549300Y-622300D01*
X-415900Y-622300D01*
X-415900Y-317500D01*
G36*
X-549300Y-317400D02*
X-536600Y-317400D01*
X-549300Y-330200D01*
X-549300Y-317400D01*
G37*
G54D11*
X-549300Y-317400D02*
X-536600Y-317400D01*
X-549300Y-330200D01*
X-549300Y-317400D01*
G54D10*
X-415900Y-647700D02*
X-471500Y-647700D01*
X-471500Y-663600D01*
X-493700Y-663600D01*
X-493700Y-647700D01*
X-549300Y-647700D01*
X-549300Y-952500D01*
X-415900Y-952500D01*
X-415900Y-647700D01*
G36*
X-549300Y-647600D02*
X-536600Y-647600D01*
X-549300Y-660400D01*
X-549300Y-647600D01*
G37*
G54D11*
X-549300Y-647600D02*
X-536600Y-647600D01*
X-549300Y-660400D01*
X-549300Y-647600D01*
G54D10*
X-600050Y-292100D02*
X-623950Y-292100D01*
X-623950Y-301600D01*
X-633350Y-301600D01*
X-633350Y-292100D01*
X-657250Y-292100D01*
X-657250Y-546100D01*
X-600050Y-546100D01*
X-600050Y-292100D01*
G36*
X-657250Y-292000D02*
X-644550Y-292000D01*
X-657250Y-304800D01*
X-657250Y-292000D01*
G37*
G54D11*
X-657250Y-292000D02*
X-644550Y-292000D01*
X-657250Y-304800D01*
X-657250Y-292000D01*
G54D10*
X-158750Y-930300D02*
X-158750Y-906400D01*
X-168250Y-906400D01*
X-168250Y-897000D01*
X-158750Y-897000D01*
X-158750Y-873100D01*
X-336550Y-873100D01*
X-336550Y-930300D01*
X-158750Y-930300D01*
G36*
X-158650Y-873100D02*
X-158650Y-885800D01*
X-171450Y-873100D01*
X-158650Y-873100D01*
G37*
G54D11*
X-158650Y-873100D02*
X-158650Y-885800D01*
X-171450Y-873100D01*
X-158650Y-873100D01*
G54D10*
X-387350Y-1400200D02*
X-387350Y-1376300D01*
X-396850Y-1376300D01*
X-396850Y-1366900D01*
X-387350Y-1366900D01*
X-387350Y-1343000D01*
X-565150Y-1343000D01*
X-565150Y-1400200D01*
X-387350Y-1400200D01*
G36*
X-387250Y-1343000D02*
X-387250Y-1355700D01*
X-400050Y-1343000D01*
X-387250Y-1343000D01*
G37*
G54D11*
X-387250Y-1343000D02*
X-387250Y-1355700D01*
X-400050Y-1343000D01*
X-387250Y-1343000D01*
G54D10*
X-657250Y-1435100D02*
X-633350Y-1435100D01*
X-633350Y-1425600D01*
X-623950Y-1425600D01*
X-623950Y-1435100D01*
X-600050Y-1435100D01*
X-600050Y-1257300D01*
X-657250Y-1257300D01*
X-657250Y-1435100D01*
G36*
X-600050Y-1435200D02*
X-612750Y-1435200D01*
X-600050Y-1422400D01*
X-600050Y-1435200D01*
G37*
G54D11*
X-600050Y-1435200D02*
X-612750Y-1435200D01*
X-600050Y-1422400D01*
X-600050Y-1435200D01*
G54D10*
X-336550Y-974700D02*
X-336550Y-998600D01*
X-327050Y-998600D01*
X-327050Y-1008000D01*
X-336550Y-1008000D01*
X-336550Y-1031900D01*
X-133350Y-1031900D01*
X-133350Y-974700D01*
X-336550Y-974700D01*
G36*
X-336650Y-1031900D02*
X-336650Y-1019200D01*
X-323850Y-1031900D01*
X-336650Y-1031900D01*
G37*
G54D11*
X-336650Y-1031900D02*
X-336650Y-1019200D01*
X-323850Y-1031900D01*
X-336650Y-1031900D01*
G54D10*
X-336550Y-771500D02*
X-336550Y-795400D01*
X-327050Y-795400D01*
X-327050Y-804800D01*
X-336550Y-804800D01*
X-336550Y-828700D01*
X-133350Y-828700D01*
X-133350Y-771500D01*
X-336550Y-771500D01*
G36*
X-336650Y-828700D02*
X-336650Y-816000D01*
X-323850Y-828700D01*
X-336650Y-828700D01*
G37*
G54D11*
X-336650Y-828700D02*
X-336650Y-816000D01*
X-323850Y-828700D01*
X-336650Y-828700D01*
G54D10*
X-181000Y-736600D02*
X-157100Y-736600D01*
X-157100Y-727100D01*
X-147700Y-727100D01*
X-147700Y-736600D01*
X-123800Y-736600D01*
X-123800Y-533400D01*
X-181000Y-533400D01*
X-181000Y-736600D01*
G36*
X-123800Y-736700D02*
X-136500Y-736700D01*
X-123800Y-723900D01*
X-123800Y-736700D01*
G37*
G54D11*
X-123800Y-736700D02*
X-136500Y-736700D01*
X-123800Y-723900D01*
X-123800Y-736700D01*
G54D10*
X-461250Y-1295400D02*
X-461250Y-1320800D01*
X-389650Y-1320800D01*
X-389650Y-1295400D01*
X-461250Y-1295400D01*
G54D10*
X-427050Y-1300100D02*
X-427050Y-1316100D01*
G54D10*
X-423850Y-1300100D02*
X-423850Y-1316100D01*
G54D10*
X-439750Y-1308100D02*
X-427050Y-1308100D01*
G54D10*
X-423850Y-1308100D02*
X-411150Y-1308100D01*
G54D10*
X-657250Y-762000D02*
X-633350Y-762000D01*
X-633350Y-752500D01*
X-623950Y-752500D01*
X-623950Y-762000D01*
X-600050Y-762000D01*
X-600050Y-584200D01*
X-657250Y-584200D01*
X-657250Y-762000D01*
G36*
X-600050Y-762100D02*
X-612750Y-762100D01*
X-600050Y-749300D01*
X-600050Y-762100D01*
G37*
G54D11*
X-600050Y-762100D02*
X-612750Y-762100D01*
X-600050Y-749300D01*
X-600050Y-762100D01*
G54D10*
X-600050Y-774700D02*
X-623950Y-774700D01*
X-623950Y-784200D01*
X-633350Y-784200D01*
X-633350Y-774700D01*
X-657250Y-774700D01*
X-657250Y-952500D01*
X-600050Y-952500D01*
X-600050Y-774700D01*
G36*
X-657250Y-774600D02*
X-644550Y-774600D01*
X-657250Y-787400D01*
X-657250Y-774600D01*
G37*
G54D11*
X-657250Y-774600D02*
X-644550Y-774600D01*
X-657250Y-787400D01*
X-657250Y-774600D01*
G54D10*
X-336550Y-1393800D02*
X-336550Y-1417700D01*
X-327050Y-1417700D01*
X-327050Y-1427100D01*
X-336550Y-1427100D01*
X-336550Y-1451000D01*
X-133350Y-1451000D01*
X-133350Y-1393800D01*
X-336550Y-1393800D01*
G36*
X-336650Y-1451000D02*
X-336650Y-1438300D01*
X-323850Y-1451000D01*
X-336650Y-1451000D01*
G37*
G54D11*
X-336650Y-1451000D02*
X-336650Y-1438300D01*
X-323850Y-1451000D01*
X-336650Y-1451000D01*
G54D10*
X-565150Y-1450950D02*
X-565150Y-1474850D01*
X-555650Y-1474850D01*
X-555650Y-1484250D01*
X-565150Y-1484250D01*
X-565150Y-1508150D01*
X-361950Y-1508150D01*
X-361950Y-1450950D01*
X-565150Y-1450950D01*
G36*
X-565250Y-1508150D02*
X-565250Y-1495450D01*
X-552450Y-1508150D01*
X-565250Y-1508150D01*
G37*
G54D11*
X-565250Y-1508150D02*
X-565250Y-1495450D01*
X-552450Y-1508150D01*
X-565250Y-1508150D01*
G54D10*
X-415900Y-977900D02*
X-471500Y-977900D01*
X-471500Y-993800D01*
X-493700Y-993800D01*
X-493700Y-977900D01*
X-549300Y-977900D01*
X-549300Y-1282700D01*
X-415900Y-1282700D01*
X-415900Y-977900D01*
G36*
X-549300Y-977800D02*
X-536600Y-977800D01*
X-549300Y-990600D01*
X-549300Y-977800D01*
G37*
G54D11*
X-549300Y-977800D02*
X-536600Y-977800D01*
X-549300Y-990600D01*
X-549300Y-977800D01*
G54D10*
X-277100Y-711200D02*
X-277100Y-736600D01*
X-205500Y-736600D01*
X-205500Y-711200D01*
X-277100Y-711200D01*
G54D10*
X-242900Y-715900D02*
X-242900Y-731900D01*
G54D10*
X-239700Y-715900D02*
X-239700Y-731900D01*
G54D10*
X-255600Y-723900D02*
X-242900Y-723900D01*
G54D10*
X-239700Y-723900D02*
X-227000Y-723900D01*
G54D10*
X-651750Y-552450D02*
X-651750Y-577850D01*
X-580150Y-577850D01*
X-580150Y-552450D01*
X-651750Y-552450D01*
G54D10*
X-617550Y-557150D02*
X-617550Y-573150D01*
G54D10*
X-614350Y-557150D02*
X-614350Y-573150D01*
G54D10*
X-630250Y-565150D02*
X-617550Y-565150D01*
G54D10*
X-614350Y-565150D02*
X-601650Y-565150D01*
G54D10*
X-569200Y-279400D02*
X-569200Y-304800D01*
X-497600Y-304800D01*
X-497600Y-279400D01*
X-569200Y-279400D01*
G54D10*
X-535000Y-284100D02*
X-535000Y-300100D01*
G54D10*
X-531800Y-284100D02*
X-531800Y-300100D01*
G54D10*
X-547700Y-292100D02*
X-535000Y-292100D01*
G54D10*
X-531800Y-292100D02*
X-519100Y-292100D01*
G54D10*
X-467600Y-279400D02*
X-467600Y-304800D01*
X-396000Y-304800D01*
X-396000Y-279400D01*
X-467600Y-279400D01*
G54D10*
X-433400Y-284100D02*
X-433400Y-300100D01*
G54D10*
X-430200Y-284100D02*
X-430200Y-300100D01*
G54D10*
X-446100Y-292100D02*
X-433400Y-292100D01*
G54D10*
X-430200Y-292100D02*
X-417500Y-292100D01*
G54D10*
X-281700Y-736600D02*
X-281700Y-711200D01*
X-353300Y-711200D01*
X-353300Y-736600D01*
X-281700Y-736600D01*
G54D10*
X-315900Y-731900D02*
X-315900Y-715900D01*
G54D10*
X-319100Y-731900D02*
X-319100Y-715900D01*
G54D10*
X-303200Y-723900D02*
X-315900Y-723900D01*
G54D10*
X-319100Y-723900D02*
X-331800Y-723900D01*
G54D10*
X-184150Y-116600D02*
X-209550Y-116600D01*
X-209550Y-188200D01*
X-184150Y-188200D01*
X-184150Y-116600D01*
G54D10*
X-188850Y-150800D02*
X-204850Y-150800D01*
G54D10*
X-188850Y-154000D02*
X-204850Y-154000D01*
G54D10*
X-196850Y-138100D02*
X-196850Y-150800D01*
G54D10*
X-196850Y-154000D02*
X-196850Y-166700D01*
G54D10*
X-573800Y-984250D02*
X-573800Y-958850D01*
X-645400Y-958850D01*
X-645400Y-984250D01*
X-573800Y-984250D01*
G54D10*
X-608000Y-979550D02*
X-608000Y-963550D01*
G54D10*
X-611200Y-979550D02*
X-611200Y-963550D01*
G54D10*
X-595300Y-971550D02*
X-608000Y-971550D01*
G54D10*
X-611200Y-971550D02*
X-623900Y-971550D01*
G54D10*
X-562850Y-1295400D02*
X-562850Y-1320800D01*
X-491250Y-1320800D01*
X-491250Y-1295400D01*
X-562850Y-1295400D01*
G54D10*
X-528650Y-1300100D02*
X-528650Y-1316100D01*
G54D10*
X-525450Y-1300100D02*
X-525450Y-1316100D01*
G54D10*
X-541350Y-1308100D02*
X-528650Y-1308100D01*
G54D10*
X-525450Y-1308100D02*
X-512750Y-1308100D01*
G54D10*
X-393700Y-136550D02*
X-393700Y-112650D01*
X-403200Y-112650D01*
X-403200Y-103250D01*
X-393700Y-103250D01*
X-393700Y-79350D01*
X-571500Y-79350D01*
X-571500Y-136550D01*
X-393700Y-136550D01*
G36*
X-393600Y-79350D02*
X-393600Y-92050D01*
X-406400Y-79350D01*
X-393600Y-79350D01*
G37*
G54D11*
X-393600Y-79350D02*
X-393600Y-92050D01*
X-406400Y-79350D01*
X-393600Y-79350D01*
G54D10*
X-393700Y-244500D02*
X-393700Y-220600D01*
X-403200Y-220600D01*
X-403200Y-211200D01*
X-393700Y-211200D01*
X-393700Y-187300D01*
X-571500Y-187300D01*
X-571500Y-244500D01*
X-393700Y-244500D01*
G36*
X-393600Y-187300D02*
X-393600Y-200000D01*
X-406400Y-187300D01*
X-393600Y-187300D01*
G37*
G54D11*
X-393600Y-187300D02*
X-393600Y-200000D01*
X-406400Y-187300D01*
X-393600Y-187300D01*
G54D10*
X-92050Y-342900D02*
X-115950Y-342900D01*
X-115950Y-352400D01*
X-125350Y-352400D01*
X-125350Y-342900D01*
X-149250Y-342900D01*
X-149250Y-520700D01*
X-92050Y-520700D01*
X-92050Y-342900D01*
G36*
X-149250Y-342800D02*
X-136550Y-342800D01*
X-149250Y-355600D01*
X-149250Y-342800D01*
G37*
G54D11*
X-149250Y-342800D02*
X-136550Y-342800D01*
X-149250Y-355600D01*
X-149250Y-342800D01*
G54D10*
X-171450Y-149200D02*
X-171450Y-173100D01*
X-161950Y-173100D01*
X-161950Y-182500D01*
X-171450Y-182500D01*
X-171450Y-206400D01*
X-69850Y-206400D01*
X-69850Y-149200D01*
X-171450Y-149200D01*
G36*
X-171550Y-206400D02*
X-171550Y-193700D01*
X-158750Y-206400D01*
X-171550Y-206400D01*
G37*
G54D11*
X-171550Y-206400D02*
X-171550Y-193700D01*
X-158750Y-206400D01*
X-171550Y-206400D01*
G54D10*
X-139650Y-333350D02*
X-139650Y-314350D01*
X-101650Y-314350D01*
X-101650Y-333350D01*
X-139650Y-333350D01*
G54D10*
X-139750Y-323850D02*
X-147650Y-323850D01*
G54D10*
X-101650Y-323850D02*
X-93750Y-323850D01*
G54D10*
X-342900Y-751600D02*
X-368300Y-751600D01*
X-368300Y-823200D01*
X-342900Y-823200D01*
X-342900Y-751600D01*
G54D10*
X-347600Y-785800D02*
X-363600Y-785800D01*
G54D10*
X-347600Y-789000D02*
X-363600Y-789000D01*
G54D10*
X-355600Y-773100D02*
X-355600Y-785800D01*
G54D10*
X-355600Y-789000D02*
X-355600Y-801700D01*
G54D10*
X-181000Y-412700D02*
X-200000Y-412700D01*
X-200000Y-374700D01*
X-181000Y-374700D01*
X-181000Y-412700D01*
G54D10*
X-190500Y-412800D02*
X-190500Y-420700D01*
G54D10*
X-190500Y-374700D02*
X-190500Y-366800D01*
G54D10*
X-184150Y-192800D02*
X-209550Y-192800D01*
X-209550Y-264400D01*
X-184150Y-264400D01*
X-184150Y-192800D01*
G54D10*
X-188850Y-227000D02*
X-204850Y-227000D01*
G54D10*
X-188850Y-230200D02*
X-204850Y-230200D01*
G54D10*
X-196850Y-214300D02*
X-196850Y-227000D01*
G54D10*
X-196850Y-230200D02*
X-196850Y-242900D01*
G54D10*
X-177800Y-444500D02*
X-203000Y-444500D01*
X-203000Y-520700D01*
X-177800Y-520700D01*
X-177800Y-444500D01*
G54D12*
X-214500Y-455400D02*
X-205600Y-455400D01*
X-205600Y-458700D01*
X-206200Y-460100D01*
X-207300Y-460700D01*
X-212800Y-460700D01*
X-213900Y-460100D01*
X-214500Y-458700D01*
X-214500Y-455400D01*
G54D12*
X-210100Y-483500D02*
X-210100Y-486100D01*
X-212800Y-486100D01*
X-213900Y-485500D01*
X-214500Y-484100D01*
X-214500Y-482800D01*
X-213900Y-481500D01*
X-212800Y-480800D01*
X-207300Y-480800D01*
X-206200Y-481500D01*
X-205600Y-482800D01*
X-205600Y-484100D01*
X-206200Y-485500D01*
X-207300Y-486100D01*
G54D12*
X-212800Y-506200D02*
X-213900Y-506900D01*
X-214500Y-508200D01*
X-214500Y-509500D01*
X-213900Y-510900D01*
X-212800Y-511500D01*
X-211700Y-511500D01*
X-210600Y-510900D01*
X-210100Y-509500D01*
X-210100Y-508200D01*
X-209500Y-506900D01*
X-208400Y-506200D01*
X-207300Y-506200D01*
X-206200Y-506900D01*
X-205600Y-508200D01*
X-205600Y-509500D01*
X-206200Y-510900D01*
X-207300Y-511500D01*
G54D10*
X-171450Y-260350D02*
X-171450Y-285550D01*
X-95250Y-285550D01*
X-95250Y-260350D01*
X-171450Y-260350D01*
G54D12*
X-160550Y-297050D02*
X-160550Y-288150D01*
X-157250Y-288150D01*
X-155850Y-288750D01*
X-155250Y-289850D01*
X-155250Y-295350D01*
X-155850Y-296450D01*
X-157250Y-297050D01*
X-160550Y-297050D01*
G54D12*
X-132450Y-292650D02*
X-129850Y-292650D01*
X-129850Y-295350D01*
X-130450Y-296450D01*
X-131850Y-297050D01*
X-133150Y-297050D01*
X-134450Y-296450D01*
X-135150Y-295350D01*
X-135150Y-289850D01*
X-134450Y-288750D01*
X-133150Y-288150D01*
X-131850Y-288150D01*
X-130450Y-288750D01*
X-129850Y-289850D01*
G54D12*
X-109750Y-295350D02*
X-109050Y-296450D01*
X-107750Y-297050D01*
X-106450Y-297050D01*
X-105050Y-296450D01*
X-104450Y-295350D01*
X-104450Y-294250D01*
X-105050Y-293150D01*
X-106450Y-292650D01*
X-107750Y-292650D01*
X-109050Y-292050D01*
X-109750Y-290950D01*
X-109750Y-289850D01*
X-109050Y-288750D01*
X-107750Y-288150D01*
X-106450Y-288150D01*
X-105050Y-288750D01*
X-104450Y-289850D01*
G54D10*
X-241450Y-68300D02*
X-241450Y-163500D01*
X-362050Y-163500D01*
X-362050Y-68300D01*
X-241450Y-68300D01*
G54D10*
X-241350Y-168300D02*
X-236550Y-168300D01*
X-236550Y-63500D01*
X-241350Y-63500D01*
X-241350Y-168300D01*
G54D10*
X-236550Y-139700D02*
X-230150Y-139700D01*
G54D10*
X-236550Y-91200D02*
X-230150Y-91200D01*
G54D10*
X-177800Y-269000D02*
X-203200Y-269000D01*
X-203200Y-340600D01*
X-177800Y-340600D01*
X-177800Y-269000D01*
G54D10*
X-182500Y-303200D02*
X-198500Y-303200D01*
G54D10*
X-182500Y-306400D02*
X-198500Y-306400D01*
G54D10*
X-190500Y-290500D02*
X-190500Y-303200D01*
G54D10*
X-190500Y-306400D02*
X-190500Y-319100D01*
G54D10*
X-101650Y-288950D02*
X-101650Y-307950D01*
X-139650Y-307950D01*
X-139650Y-288950D01*
X-101650Y-288950D01*
G54D10*
X-101550Y-298450D02*
X-93650Y-298450D01*
G54D10*
X-139650Y-298450D02*
X-147550Y-298450D01*
G54D10*
X-72150Y-254000D02*
X-72150Y-228600D01*
X-143750Y-228600D01*
X-143750Y-254000D01*
X-72150Y-254000D01*
G54D10*
X-106350Y-249300D02*
X-106350Y-233300D01*
G54D10*
X-109550Y-249300D02*
X-109550Y-233300D01*
G54D10*
X-93650Y-241300D02*
X-106350Y-241300D01*
G54D10*
X-109550Y-241300D02*
X-122250Y-241300D01*
G54D10*
X-207250Y-76200D02*
X-207250Y-101600D01*
X-135650Y-101600D01*
X-135650Y-76200D01*
X-207250Y-76200D01*
G54D10*
X-173050Y-80900D02*
X-173050Y-96900D01*
G54D10*
X-169850Y-80900D02*
X-169850Y-96900D01*
G54D10*
X-185750Y-88900D02*
X-173050Y-88900D01*
G54D10*
X-169850Y-88900D02*
X-157150Y-88900D01*
G54D10*
X-342900Y-954800D02*
X-368300Y-954800D01*
X-368300Y-1026400D01*
X-342900Y-1026400D01*
X-342900Y-954800D01*
G54D10*
X-347600Y-989000D02*
X-363600Y-989000D01*
G54D10*
X-347600Y-992200D02*
X-363600Y-992200D01*
G54D10*
X-355600Y-976300D02*
X-355600Y-989000D01*
G54D10*
X-355600Y-992200D02*
X-355600Y-1004900D01*
G54D10*
X-342900Y-853200D02*
X-368300Y-853200D01*
X-368300Y-924800D01*
X-342900Y-924800D01*
X-342900Y-853200D01*
G54D10*
X-347600Y-887400D02*
X-363600Y-887400D01*
G54D10*
X-347600Y-890600D02*
X-363600Y-890600D01*
G54D10*
X-355600Y-874700D02*
X-355600Y-887400D01*
G54D10*
X-355600Y-890600D02*
X-355600Y-903300D01*
G54D10*
X-127000Y-878600D02*
X-152400Y-878600D01*
X-152400Y-950200D01*
X-127000Y-950200D01*
X-127000Y-878600D01*
G54D10*
X-131700Y-912800D02*
X-147700Y-912800D01*
G54D10*
X-131700Y-916000D02*
X-147700Y-916000D01*
G54D10*
X-139700Y-900100D02*
X-139700Y-912800D01*
G54D10*
X-139700Y-916000D02*
X-139700Y-928700D01*
G54D10*
X-158750Y-1235100D02*
X-158750Y-1211200D01*
X-168250Y-1211200D01*
X-168250Y-1201800D01*
X-158750Y-1201800D01*
X-158750Y-1177900D01*
X-336550Y-1177900D01*
X-336550Y-1235100D01*
X-158750Y-1235100D01*
G36*
X-158650Y-1177900D02*
X-158650Y-1190600D01*
X-171450Y-1177900D01*
X-158650Y-1177900D01*
G37*
G54D11*
X-158650Y-1177900D02*
X-158650Y-1190600D01*
X-171450Y-1177900D01*
X-158650Y-1177900D01*
G54D10*
X-336550Y-1279500D02*
X-336550Y-1303400D01*
X-327050Y-1303400D01*
X-327050Y-1312800D01*
X-336550Y-1312800D01*
X-336550Y-1336700D01*
X-133350Y-1336700D01*
X-133350Y-1279500D01*
X-336550Y-1279500D01*
G36*
X-336650Y-1336700D02*
X-336650Y-1324000D01*
X-323850Y-1336700D01*
X-336650Y-1336700D01*
G37*
G54D11*
X-336650Y-1336700D02*
X-336650Y-1324000D01*
X-323850Y-1336700D01*
X-336650Y-1336700D01*
G54D10*
X-336550Y-1076300D02*
X-336550Y-1100200D01*
X-327050Y-1100200D01*
X-327050Y-1109600D01*
X-336550Y-1109600D01*
X-336550Y-1133500D01*
X-133350Y-1133500D01*
X-133350Y-1076300D01*
X-336550Y-1076300D01*
G36*
X-336650Y-1133500D02*
X-336650Y-1120800D01*
X-323850Y-1133500D01*
X-336650Y-1133500D01*
G37*
G54D11*
X-336650Y-1133500D02*
X-336650Y-1120800D01*
X-323850Y-1133500D01*
X-336650Y-1133500D01*
G54D10*
X-342900Y-1056400D02*
X-368300Y-1056400D01*
X-368300Y-1128000D01*
X-342900Y-1128000D01*
X-342900Y-1056400D01*
G54D10*
X-347600Y-1090600D02*
X-363600Y-1090600D01*
G54D10*
X-347600Y-1093800D02*
X-363600Y-1093800D01*
G54D10*
X-355600Y-1077900D02*
X-355600Y-1090600D01*
G54D10*
X-355600Y-1093800D02*
X-355600Y-1106500D01*
G54D10*
X-342900Y-1259600D02*
X-368300Y-1259600D01*
X-368300Y-1331200D01*
X-342900Y-1331200D01*
X-342900Y-1259600D01*
G54D10*
X-347600Y-1293800D02*
X-363600Y-1293800D01*
G54D10*
X-347600Y-1297000D02*
X-363600Y-1297000D01*
G54D10*
X-355600Y-1281100D02*
X-355600Y-1293800D01*
G54D10*
X-355600Y-1297000D02*
X-355600Y-1309700D01*
G54D10*
X-342900Y-1158000D02*
X-368300Y-1158000D01*
X-368300Y-1229600D01*
X-342900Y-1229600D01*
X-342900Y-1158000D01*
G54D10*
X-347600Y-1192200D02*
X-363600Y-1192200D01*
G54D10*
X-347600Y-1195400D02*
X-363600Y-1195400D01*
G54D10*
X-355600Y-1179500D02*
X-355600Y-1192200D01*
G54D10*
X-355600Y-1195400D02*
X-355600Y-1208100D01*
G54D10*
X-127000Y-1183400D02*
X-152400Y-1183400D01*
X-152400Y-1255000D01*
X-127000Y-1255000D01*
X-127000Y-1183400D01*
G54D10*
X-131700Y-1217600D02*
X-147700Y-1217600D01*
G54D10*
X-131700Y-1220800D02*
X-147700Y-1220800D01*
G54D10*
X-139700Y-1204900D02*
X-139700Y-1217600D01*
G54D10*
X-139700Y-1220800D02*
X-139700Y-1233500D01*
G54D10*
X-600050Y-139700D02*
X-623950Y-139700D01*
X-623950Y-149200D01*
X-633350Y-149200D01*
X-633350Y-139700D01*
X-657250Y-139700D01*
X-657250Y-241300D01*
X-600050Y-241300D01*
X-600050Y-139700D01*
G36*
X-657250Y-139600D02*
X-644550Y-139600D01*
X-657250Y-152400D01*
X-657250Y-139600D01*
G37*
G54D11*
X-657250Y-139600D02*
X-644550Y-139600D01*
X-657250Y-152400D01*
X-657250Y-139600D01*
G54D10*
X-677150Y-254000D02*
X-677150Y-279400D01*
X-605550Y-279400D01*
X-605550Y-254000D01*
X-677150Y-254000D01*
G54D10*
X-642950Y-258700D02*
X-642950Y-274700D01*
G54D10*
X-639750Y-258700D02*
X-639750Y-274700D01*
G54D10*
X-655650Y-266700D02*
X-642950Y-266700D01*
G54D10*
X-639750Y-266700D02*
X-627050Y-266700D01*
G54D10*
X-651750Y-107950D02*
X-651750Y-133350D01*
X-580150Y-133350D01*
X-580150Y-107950D01*
X-651750Y-107950D01*
G54D10*
X-617550Y-112650D02*
X-617550Y-128650D01*
G54D10*
X-614350Y-112650D02*
X-614350Y-128650D01*
G54D10*
X-630250Y-120650D02*
X-617550Y-120650D01*
G54D10*
X-614350Y-120650D02*
X-601650Y-120650D01*
G54D10*
X-657250Y-1244600D02*
X-633350Y-1244600D01*
X-633350Y-1235100D01*
X-623950Y-1235100D01*
X-623950Y-1244600D01*
X-600050Y-1244600D01*
X-600050Y-990600D01*
X-657250Y-990600D01*
X-657250Y-1244600D01*
G36*
X-600050Y-1244700D02*
X-612750Y-1244700D01*
X-600050Y-1231900D01*
X-600050Y-1244700D01*
G37*
G54D11*
X-600050Y-1244700D02*
X-612750Y-1244700D01*
X-600050Y-1231900D01*
X-600050Y-1244700D01*
G54D10*
X-355600Y-1348500D02*
X-381000Y-1348500D01*
X-381000Y-1420100D01*
X-355600Y-1420100D01*
X-355600Y-1348500D01*
G54D10*
X-360300Y-1382700D02*
X-376300Y-1382700D01*
G54D10*
X-360300Y-1385900D02*
X-376300Y-1385900D01*
G54D10*
X-368300Y-1370000D02*
X-368300Y-1382700D01*
G54D10*
X-368300Y-1385900D02*
X-368300Y-1398600D01*
G54D10*
X-175500Y-1473200D02*
X-175500Y-1498600D01*
X-103900Y-1498600D01*
X-103900Y-1473200D01*
X-175500Y-1473200D01*
G54D10*
X-141300Y-1477900D02*
X-141300Y-1493900D01*
G54D10*
X-138100Y-1477900D02*
X-138100Y-1493900D01*
G54D10*
X-154000Y-1485900D02*
X-141300Y-1485900D01*
G54D10*
X-138100Y-1485900D02*
X-125400Y-1485900D01*
G54D10*
X-101600Y-1399300D02*
X-127000Y-1399300D01*
X-127000Y-1470900D01*
X-101600Y-1470900D01*
X-101600Y-1399300D01*
G54D10*
X-106300Y-1433500D02*
X-122300Y-1433500D01*
G54D10*
X-106300Y-1436700D02*
X-122300Y-1436700D01*
G54D10*
X-114300Y-1420800D02*
X-114300Y-1433500D01*
G54D10*
X-114300Y-1436700D02*
X-114300Y-1449400D01*
G54D13*
X-120650Y-1587500D02*
X-120650Y-1676400D01*
G54D13*
X-120650Y-1587500D02*
X-628650Y-1587500D01*
X-628650Y-1676400D01*
X-120650Y-1676400D01*
G36*
X-628650Y-1663700D02*
X-615950Y-1676400D01*
X-628650Y-1676400D01*
X-628650Y-1663700D01*
G37*
G54D13*
X-628650Y-1663700D02*
X-615950Y-1676400D01*
X-628650Y-1676400D01*
X-628650Y-1663700D01*
G54D10*
X-571500Y-1443750D02*
X-596900Y-1443750D01*
X-596900Y-1515350D01*
X-571500Y-1515350D01*
X-571500Y-1443750D01*
G54D10*
X-576200Y-1477950D02*
X-592200Y-1477950D01*
G54D10*
X-576200Y-1481150D02*
X-592200Y-1481150D01*
G54D10*
X-584200Y-1465250D02*
X-584200Y-1477950D01*
G54D10*
X-584200Y-1481150D02*
X-584200Y-1493850D01*
G54D10*
X-670800Y-1441450D02*
X-670800Y-1466850D01*
X-599200Y-1466850D01*
X-599200Y-1441450D01*
X-670800Y-1441450D01*
G54D10*
X-636600Y-1446150D02*
X-636600Y-1462150D01*
G54D10*
X-633400Y-1446150D02*
X-633400Y-1462150D01*
G54D10*
X-649300Y-1454150D02*
X-636600Y-1454150D01*
G54D10*
X-633400Y-1454150D02*
X-620700Y-1454150D01*
G54D10*
X-389650Y-1555750D02*
X-389650Y-1530350D01*
X-461250Y-1530350D01*
X-461250Y-1555750D01*
X-389650Y-1555750D01*
G54D10*
X-423850Y-1551050D02*
X-423850Y-1535050D01*
G54D10*
X-427050Y-1551050D02*
X-427050Y-1535050D01*
G54D10*
X-411150Y-1543050D02*
X-423850Y-1543050D01*
G54D10*
X-427050Y-1543050D02*
X-439750Y-1543050D01*
G54D14*
X-504825Y-1468122D02*
X-504825Y-1485900D01*
X-495492Y-1485900D01*
G54D14*
X-479936Y-1485900D02*
X-490603Y-1485900D01*
X-490603Y-1484789D01*
X-489270Y-1482566D01*
X-481270Y-1475900D01*
X-479936Y-1473678D01*
X-479936Y-1471456D01*
X-481270Y-1469234D01*
X-483936Y-1468122D01*
X-486603Y-1468122D01*
X-489270Y-1469234D01*
X-490603Y-1471456D01*
G54D14*
X-475047Y-1482566D02*
X-473714Y-1484789D01*
X-471047Y-1485900D01*
X-468380Y-1485900D01*
X-465714Y-1484789D01*
X-464380Y-1482566D01*
X-464380Y-1477011D01*
X-464380Y-1475900D01*
X-468380Y-1478122D01*
X-471047Y-1478122D01*
X-473714Y-1477011D01*
X-475047Y-1474789D01*
X-475047Y-1471456D01*
X-473714Y-1469234D01*
X-471047Y-1468122D01*
X-468380Y-1468122D01*
X-465714Y-1469234D01*
X-464380Y-1471456D01*
X-464380Y-1477011D01*
G54D14*
X-459491Y-1471456D02*
X-458158Y-1469234D01*
X-455491Y-1468122D01*
X-452824Y-1468122D01*
X-450158Y-1469234D01*
X-448824Y-1471456D01*
X-448824Y-1473678D01*
X-450158Y-1475900D01*
X-452824Y-1477011D01*
X-450158Y-1478122D01*
X-448824Y-1480344D01*
X-448824Y-1482566D01*
X-450158Y-1484789D01*
X-452824Y-1485900D01*
X-455491Y-1485900D01*
X-458158Y-1484789D01*
X-459491Y-1482566D01*
G54D14*
X-443935Y-1485900D02*
X-443935Y-1468122D01*
X-437268Y-1468122D01*
X-434602Y-1469234D01*
X-433268Y-1471456D01*
X-433268Y-1482566D01*
X-434602Y-1484789D01*
X-437268Y-1485900D01*
X-443935Y-1485900D01*
G54D14*
X-269875Y-1414147D02*
X-269875Y-1431925D01*
X-260542Y-1431925D01*
G54D14*
X-244986Y-1431925D02*
X-255653Y-1431925D01*
X-255653Y-1430814D01*
X-254320Y-1428592D01*
X-246320Y-1421925D01*
X-244986Y-1419703D01*
X-244986Y-1417480D01*
X-246320Y-1415258D01*
X-248986Y-1414147D01*
X-251653Y-1414147D01*
X-254320Y-1415258D01*
X-255653Y-1417480D01*
G54D14*
X-240097Y-1428592D02*
X-238764Y-1430814D01*
X-236097Y-1431925D01*
X-233430Y-1431925D01*
X-230764Y-1430814D01*
X-229430Y-1428592D01*
X-229430Y-1423036D01*
X-229430Y-1421925D01*
X-233430Y-1424147D01*
X-236097Y-1424147D01*
X-238764Y-1423036D01*
X-240097Y-1420814D01*
X-240097Y-1417480D01*
X-238764Y-1415258D01*
X-236097Y-1414147D01*
X-233430Y-1414147D01*
X-230764Y-1415258D01*
X-229430Y-1417480D01*
X-229430Y-1423036D01*
G54D14*
X-224541Y-1417480D02*
X-223208Y-1415258D01*
X-220541Y-1414147D01*
X-217874Y-1414147D01*
X-215208Y-1415258D01*
X-213874Y-1417480D01*
X-213874Y-1419703D01*
X-215208Y-1421925D01*
X-217874Y-1423036D01*
X-215208Y-1424147D01*
X-213874Y-1426370D01*
X-213874Y-1428592D01*
X-215208Y-1430814D01*
X-217874Y-1431925D01*
X-220541Y-1431925D01*
X-223208Y-1430814D01*
X-224541Y-1428592D01*
G54D14*
X-208985Y-1431925D02*
X-208985Y-1414147D01*
X-202318Y-1414147D01*
X-199652Y-1415258D01*
X-198318Y-1417480D01*
X-198318Y-1428592D01*
X-199652Y-1430814D01*
X-202318Y-1431925D01*
X-208985Y-1431925D01*
G54D14*
X-275908Y-1308292D02*
X-278575Y-1307625D01*
X-281242Y-1308292D01*
X-282575Y-1310514D01*
X-282575Y-1314958D01*
X-281242Y-1317180D01*
X-278575Y-1317625D01*
X-275908Y-1317180D01*
G54D14*
X-263019Y-1317625D02*
X-263019Y-1299847D01*
G54D14*
X-263019Y-1310514D02*
X-264352Y-1308292D01*
X-267019Y-1307625D01*
X-269686Y-1308292D01*
X-271019Y-1310514D01*
X-271019Y-1314958D01*
X-269686Y-1317180D01*
X-267019Y-1317625D01*
X-264352Y-1317180D01*
X-263019Y-1314958D01*
G54D14*
X-250130Y-1317625D02*
X-250130Y-1299847D01*
X-258130Y-1310958D01*
X-258130Y-1313180D01*
X-247463Y-1313180D01*
G54D14*
X-231907Y-1303180D02*
X-231907Y-1314292D01*
X-233241Y-1316514D01*
X-235907Y-1317625D01*
X-238574Y-1317625D01*
X-241241Y-1316514D01*
X-242574Y-1314292D01*
X-242574Y-1303180D01*
X-241241Y-1300958D01*
X-238574Y-1299847D01*
X-235907Y-1299847D01*
X-233241Y-1300958D01*
X-231907Y-1303180D01*
G54D14*
X-219018Y-1317625D02*
X-219018Y-1299847D01*
X-227018Y-1310958D01*
X-227018Y-1313180D01*
X-216351Y-1313180D01*
G54D14*
X-200795Y-1303180D02*
X-200795Y-1314292D01*
X-202129Y-1316514D01*
X-204795Y-1317625D01*
X-207462Y-1317625D01*
X-210129Y-1316514D01*
X-211462Y-1314292D01*
X-211462Y-1303180D01*
X-210129Y-1300958D01*
X-207462Y-1299847D01*
X-204795Y-1299847D01*
X-202129Y-1300958D01*
X-200795Y-1303180D01*
G54D14*
X-275908Y-1105092D02*
X-278575Y-1104425D01*
X-281242Y-1105092D01*
X-282575Y-1107314D01*
X-282575Y-1111758D01*
X-281242Y-1113980D01*
X-278575Y-1114425D01*
X-275908Y-1113980D01*
G54D14*
X-263019Y-1114425D02*
X-263019Y-1096647D01*
G54D14*
X-263019Y-1107314D02*
X-264352Y-1105092D01*
X-267019Y-1104425D01*
X-269686Y-1105092D01*
X-271019Y-1107314D01*
X-271019Y-1111758D01*
X-269686Y-1113980D01*
X-267019Y-1114425D01*
X-264352Y-1113980D01*
X-263019Y-1111758D01*
G54D14*
X-250130Y-1114425D02*
X-250130Y-1096647D01*
X-258130Y-1107758D01*
X-258130Y-1109980D01*
X-247463Y-1109980D01*
G54D14*
X-231907Y-1099980D02*
X-231907Y-1111092D01*
X-233241Y-1113314D01*
X-235907Y-1114425D01*
X-238574Y-1114425D01*
X-241241Y-1113314D01*
X-242574Y-1111092D01*
X-242574Y-1099980D01*
X-241241Y-1097758D01*
X-238574Y-1096647D01*
X-235907Y-1096647D01*
X-233241Y-1097758D01*
X-231907Y-1099980D01*
G54D14*
X-219018Y-1114425D02*
X-219018Y-1096647D01*
X-227018Y-1107758D01*
X-227018Y-1109980D01*
X-216351Y-1109980D01*
G54D14*
X-200795Y-1099980D02*
X-200795Y-1111092D01*
X-202129Y-1113314D01*
X-204795Y-1114425D01*
X-207462Y-1114425D01*
X-210129Y-1113314D01*
X-211462Y-1111092D01*
X-211462Y-1099980D01*
X-210129Y-1097758D01*
X-207462Y-1096647D01*
X-204795Y-1096647D01*
X-202129Y-1097758D01*
X-200795Y-1099980D01*
G54D14*
X-275908Y-1003492D02*
X-278575Y-1002825D01*
X-281242Y-1003492D01*
X-282575Y-1005714D01*
X-282575Y-1010158D01*
X-281242Y-1012380D01*
X-278575Y-1012825D01*
X-275908Y-1012380D01*
G54D14*
X-263019Y-1012825D02*
X-263019Y-995047D01*
G54D14*
X-263019Y-1005714D02*
X-264352Y-1003492D01*
X-267019Y-1002825D01*
X-269686Y-1003492D01*
X-271019Y-1005714D01*
X-271019Y-1010158D01*
X-269686Y-1012380D01*
X-267019Y-1012825D01*
X-264352Y-1012380D01*
X-263019Y-1010158D01*
G54D14*
X-250130Y-1012825D02*
X-250130Y-995047D01*
X-258130Y-1006158D01*
X-258130Y-1008380D01*
X-247463Y-1008380D01*
G54D14*
X-231907Y-998380D02*
X-231907Y-1009492D01*
X-233241Y-1011714D01*
X-235907Y-1012825D01*
X-238574Y-1012825D01*
X-241241Y-1011714D01*
X-242574Y-1009492D01*
X-242574Y-998380D01*
X-241241Y-996158D01*
X-238574Y-995047D01*
X-235907Y-995047D01*
X-233241Y-996158D01*
X-231907Y-998380D01*
G54D14*
X-219018Y-1012825D02*
X-219018Y-995047D01*
X-227018Y-1006158D01*
X-227018Y-1008380D01*
X-216351Y-1008380D01*
G54D14*
X-200795Y-998380D02*
X-200795Y-1009492D01*
X-202129Y-1011714D01*
X-204795Y-1012825D01*
X-207462Y-1012825D01*
X-210129Y-1011714D01*
X-211462Y-1009492D01*
X-211462Y-998380D01*
X-210129Y-996158D01*
X-207462Y-995047D01*
X-204795Y-995047D01*
X-202129Y-996158D01*
X-200795Y-998380D01*
G54D14*
X-275908Y-800292D02*
X-278575Y-799625D01*
X-281242Y-800292D01*
X-282575Y-802514D01*
X-282575Y-806958D01*
X-281242Y-809180D01*
X-278575Y-809625D01*
X-275908Y-809180D01*
G54D14*
X-263019Y-809625D02*
X-263019Y-791847D01*
G54D14*
X-263019Y-802514D02*
X-264352Y-800292D01*
X-267019Y-799625D01*
X-269686Y-800292D01*
X-271019Y-802514D01*
X-271019Y-806958D01*
X-269686Y-809180D01*
X-267019Y-809625D01*
X-264352Y-809180D01*
X-263019Y-806958D01*
G54D14*
X-250130Y-809625D02*
X-250130Y-791847D01*
X-258130Y-802958D01*
X-258130Y-805180D01*
X-247463Y-805180D01*
G54D14*
X-231907Y-795180D02*
X-231907Y-806292D01*
X-233241Y-808514D01*
X-235907Y-809625D01*
X-238574Y-809625D01*
X-241241Y-808514D01*
X-242574Y-806292D01*
X-242574Y-795180D01*
X-241241Y-792958D01*
X-238574Y-791847D01*
X-235907Y-791847D01*
X-233241Y-792958D01*
X-231907Y-795180D01*
G54D14*
X-219018Y-809625D02*
X-219018Y-791847D01*
X-227018Y-802958D01*
X-227018Y-805180D01*
X-216351Y-805180D01*
G54D14*
X-200795Y-795180D02*
X-200795Y-806292D01*
X-202129Y-808514D01*
X-204795Y-809625D01*
X-207462Y-809625D01*
X-210129Y-808514D01*
X-211462Y-806292D01*
X-211462Y-795180D01*
X-210129Y-792958D01*
X-207462Y-791847D01*
X-204795Y-791847D01*
X-202129Y-792958D01*
X-200795Y-795180D01*
G54D14*
X-275908Y-901892D02*
X-278575Y-901225D01*
X-281242Y-901892D01*
X-282575Y-904114D01*
X-282575Y-908558D01*
X-281242Y-910780D01*
X-278575Y-911225D01*
X-275908Y-910780D01*
G54D14*
X-263019Y-911225D02*
X-263019Y-893447D01*
G54D14*
X-263019Y-904114D02*
X-264352Y-901892D01*
X-267019Y-901225D01*
X-269686Y-901892D01*
X-271019Y-904114D01*
X-271019Y-908558D01*
X-269686Y-910780D01*
X-267019Y-911225D01*
X-264352Y-910780D01*
X-263019Y-908558D01*
G54D14*
X-250130Y-911225D02*
X-250130Y-893447D01*
X-258130Y-904558D01*
X-258130Y-906780D01*
X-247463Y-906780D01*
G54D14*
X-231907Y-896780D02*
X-231907Y-907892D01*
X-233241Y-910114D01*
X-235907Y-911225D01*
X-238574Y-911225D01*
X-241241Y-910114D01*
X-242574Y-907892D01*
X-242574Y-896780D01*
X-241241Y-894558D01*
X-238574Y-893447D01*
X-235907Y-893447D01*
X-233241Y-894558D01*
X-231907Y-896780D01*
G54D14*
X-227018Y-900114D02*
X-220351Y-893447D01*
X-220351Y-911225D01*
G54D14*
X-215462Y-896780D02*
X-214129Y-894558D01*
X-211462Y-893447D01*
X-208795Y-893447D01*
X-206129Y-894558D01*
X-204795Y-896780D01*
X-204795Y-899003D01*
X-206129Y-901225D01*
X-208795Y-902336D01*
X-206129Y-903447D01*
X-204795Y-905670D01*
X-204795Y-907892D01*
X-206129Y-910114D01*
X-208795Y-911225D01*
X-211462Y-911225D01*
X-214129Y-910114D01*
X-215462Y-907892D01*
G54D14*
X-275908Y-1206692D02*
X-278575Y-1206025D01*
X-281242Y-1206692D01*
X-282575Y-1208914D01*
X-282575Y-1213358D01*
X-281242Y-1215580D01*
X-278575Y-1216025D01*
X-275908Y-1215580D01*
G54D14*
X-263019Y-1216025D02*
X-263019Y-1198247D01*
G54D14*
X-263019Y-1208914D02*
X-264352Y-1206692D01*
X-267019Y-1206025D01*
X-269686Y-1206692D01*
X-271019Y-1208914D01*
X-271019Y-1213358D01*
X-269686Y-1215580D01*
X-267019Y-1216025D01*
X-264352Y-1215580D01*
X-263019Y-1213358D01*
G54D14*
X-250130Y-1216025D02*
X-250130Y-1198247D01*
X-258130Y-1209358D01*
X-258130Y-1211580D01*
X-247463Y-1211580D01*
G54D14*
X-231907Y-1201580D02*
X-231907Y-1212692D01*
X-233241Y-1214914D01*
X-235907Y-1216025D01*
X-238574Y-1216025D01*
X-241241Y-1214914D01*
X-242574Y-1212692D01*
X-242574Y-1201580D01*
X-241241Y-1199358D01*
X-238574Y-1198247D01*
X-235907Y-1198247D01*
X-233241Y-1199358D01*
X-231907Y-1201580D01*
G54D14*
X-227018Y-1204914D02*
X-220351Y-1198247D01*
X-220351Y-1216025D01*
G54D14*
X-215462Y-1201580D02*
X-214129Y-1199358D01*
X-211462Y-1198247D01*
X-208795Y-1198247D01*
X-206129Y-1199358D01*
X-204795Y-1201580D01*
X-204795Y-1203803D01*
X-206129Y-1206025D01*
X-208795Y-1207136D01*
X-206129Y-1208247D01*
X-204795Y-1210470D01*
X-204795Y-1212692D01*
X-206129Y-1214914D01*
X-208795Y-1216025D01*
X-211462Y-1216025D01*
X-214129Y-1214914D01*
X-215462Y-1212692D01*
G54D14*
X-517525Y-1363347D02*
X-506858Y-1363347D01*
X-508192Y-1365570D01*
X-510858Y-1368903D01*
X-513525Y-1373347D01*
X-514858Y-1376680D01*
X-514858Y-1381125D01*
G54D14*
X-493969Y-1381125D02*
X-493969Y-1363347D01*
X-501969Y-1374458D01*
X-501969Y-1376680D01*
X-491302Y-1376680D01*
G54D14*
X-486413Y-1372236D02*
X-483746Y-1371125D01*
X-480546Y-1371125D01*
X-478413Y-1373347D01*
X-478413Y-1381125D01*
G54D14*
X-478413Y-1377792D02*
X-479746Y-1375570D01*
X-482413Y-1375125D01*
X-485080Y-1375570D01*
X-486413Y-1377792D01*
X-485880Y-1380014D01*
X-483746Y-1381125D01*
X-482413Y-1381125D01*
X-481880Y-1381125D01*
X-479746Y-1380014D01*
X-478413Y-1377792D01*
G54D14*
X-473524Y-1381125D02*
X-473524Y-1363347D01*
G54D14*
X-468635Y-1380014D02*
X-465968Y-1381125D01*
X-463302Y-1381125D01*
X-460635Y-1380014D01*
X-460635Y-1377792D01*
X-461968Y-1376680D01*
X-467302Y-1375570D01*
X-468635Y-1374458D01*
X-468635Y-1372236D01*
X-465968Y-1371125D01*
X-463302Y-1371125D01*
X-460635Y-1372236D01*
G54D14*
X-445079Y-1366680D02*
X-445079Y-1377792D01*
X-446413Y-1380014D01*
X-449079Y-1381125D01*
X-451746Y-1381125D01*
X-454413Y-1380014D01*
X-455746Y-1377792D01*
X-455746Y-1366680D01*
X-454413Y-1364458D01*
X-451746Y-1363347D01*
X-449079Y-1363347D01*
X-446413Y-1364458D01*
X-445079Y-1366680D01*
G54D14*
X-429523Y-1366680D02*
X-429523Y-1377792D01*
X-430857Y-1380014D01*
X-433523Y-1381125D01*
X-436190Y-1381125D01*
X-438857Y-1380014D01*
X-440190Y-1377792D01*
X-440190Y-1366680D01*
X-438857Y-1364458D01*
X-436190Y-1363347D01*
X-433523Y-1363347D01*
X-430857Y-1364458D01*
X-429523Y-1366680D01*
G54D14*
X-132208Y-169547D02*
X-142875Y-169547D01*
X-142875Y-177325D01*
X-141542Y-177325D01*
X-138875Y-176214D01*
X-136208Y-176214D01*
X-133542Y-177325D01*
X-132208Y-179547D01*
X-132208Y-183992D01*
X-133542Y-186214D01*
X-136208Y-187325D01*
X-138875Y-187325D01*
X-141542Y-186214D01*
X-142875Y-183992D01*
G54D14*
X-116652Y-169547D02*
X-127319Y-169547D01*
X-127319Y-177325D01*
X-125986Y-177325D01*
X-123319Y-176214D01*
X-120652Y-176214D01*
X-117986Y-177325D01*
X-116652Y-179547D01*
X-116652Y-183992D01*
X-117986Y-186214D01*
X-120652Y-187325D01*
X-123319Y-187325D01*
X-125986Y-186214D01*
X-127319Y-183992D01*
G54D14*
X-101096Y-169547D02*
X-111763Y-169547D01*
X-111763Y-177325D01*
X-110430Y-177325D01*
X-107763Y-176214D01*
X-105096Y-176214D01*
X-102430Y-177325D01*
X-101096Y-179547D01*
X-101096Y-183992D01*
X-102430Y-186214D01*
X-105096Y-187325D01*
X-107763Y-187325D01*
X-110430Y-186214D01*
X-111763Y-183992D01*
G54D14*
X-636903Y-202058D02*
X-636903Y-212725D01*
X-629125Y-212725D01*
X-629125Y-211392D01*
X-630236Y-208725D01*
X-630236Y-206058D01*
X-629125Y-203392D01*
X-626903Y-202058D01*
X-622458Y-202058D01*
X-620236Y-203392D01*
X-619125Y-206058D01*
X-619125Y-208725D01*
X-620236Y-211392D01*
X-622458Y-212725D01*
G54D14*
X-636903Y-186502D02*
X-636903Y-197169D01*
X-629125Y-197169D01*
X-629125Y-195836D01*
X-630236Y-193169D01*
X-630236Y-190502D01*
X-629125Y-187836D01*
X-626903Y-186502D01*
X-622458Y-186502D01*
X-620236Y-187836D01*
X-619125Y-190502D01*
X-619125Y-193169D01*
X-620236Y-195836D01*
X-622458Y-197169D01*
G54D14*
X-636903Y-170946D02*
X-636903Y-181613D01*
X-629125Y-181613D01*
X-629125Y-180280D01*
X-630236Y-177613D01*
X-630236Y-174946D01*
X-629125Y-172280D01*
X-626903Y-170946D01*
X-622458Y-170946D01*
X-620236Y-172280D01*
X-619125Y-174946D01*
X-619125Y-177613D01*
X-620236Y-180280D01*
X-622458Y-181613D01*
G54D14*
X-527050Y-207647D02*
X-516383Y-207647D01*
X-517717Y-209870D01*
X-520383Y-213203D01*
X-523050Y-217647D01*
X-524383Y-220980D01*
X-524383Y-225425D01*
G54D14*
X-503494Y-225425D02*
X-503494Y-207647D01*
X-511494Y-218758D01*
X-511494Y-220980D01*
X-500827Y-220980D01*
G54D14*
X-495938Y-216536D02*
X-493271Y-215425D01*
X-490071Y-215425D01*
X-487938Y-217647D01*
X-487938Y-225425D01*
G54D14*
X-487938Y-222092D02*
X-489271Y-219870D01*
X-491938Y-219425D01*
X-494605Y-219870D01*
X-495938Y-222092D01*
X-495405Y-224314D01*
X-493271Y-225425D01*
X-491938Y-225425D01*
X-491405Y-225425D01*
X-489271Y-224314D01*
X-487938Y-222092D01*
G54D14*
X-483049Y-225425D02*
X-483049Y-207647D01*
G54D14*
X-478160Y-224314D02*
X-475493Y-225425D01*
X-472827Y-225425D01*
X-470160Y-224314D01*
X-470160Y-222092D01*
X-471493Y-220980D01*
X-476827Y-219870D01*
X-478160Y-218758D01*
X-478160Y-216536D01*
X-475493Y-215425D01*
X-472827Y-215425D01*
X-470160Y-216536D01*
G54D14*
X-465271Y-207647D02*
X-454604Y-207647D01*
X-455938Y-209870D01*
X-458604Y-213203D01*
X-461271Y-217647D01*
X-462604Y-220980D01*
X-462604Y-225425D01*
G54D14*
X-441715Y-225425D02*
X-441715Y-207647D01*
X-449715Y-218758D01*
X-449715Y-220980D01*
X-439048Y-220980D01*
G54D14*
X-527050Y-99697D02*
X-516383Y-99697D01*
X-517717Y-101920D01*
X-520383Y-105253D01*
X-523050Y-109697D01*
X-524383Y-113030D01*
X-524383Y-117475D01*
G54D14*
X-503494Y-117475D02*
X-503494Y-99697D01*
X-511494Y-110808D01*
X-511494Y-113030D01*
X-500827Y-113030D01*
G54D14*
X-495938Y-108586D02*
X-493271Y-107475D01*
X-490071Y-107475D01*
X-487938Y-109697D01*
X-487938Y-117475D01*
G54D14*
X-487938Y-114142D02*
X-489271Y-111920D01*
X-491938Y-111475D01*
X-494605Y-111920D01*
X-495938Y-114142D01*
X-495405Y-116364D01*
X-493271Y-117475D01*
X-491938Y-117475D01*
X-491405Y-117475D01*
X-489271Y-116364D01*
X-487938Y-114142D01*
G54D14*
X-483049Y-117475D02*
X-483049Y-99697D01*
G54D14*
X-478160Y-116364D02*
X-475493Y-117475D01*
X-472827Y-117475D01*
X-470160Y-116364D01*
X-470160Y-114142D01*
X-471493Y-113030D01*
X-476827Y-111920D01*
X-478160Y-110808D01*
X-478160Y-108586D01*
X-475493Y-107475D01*
X-472827Y-107475D01*
X-470160Y-108586D01*
G54D14*
X-465271Y-99697D02*
X-454604Y-99697D01*
X-455938Y-101920D01*
X-458604Y-105253D01*
X-461271Y-109697D01*
X-462604Y-113030D01*
X-462604Y-117475D01*
G54D14*
X-441715Y-117475D02*
X-441715Y-99697D01*
X-449715Y-110808D01*
X-449715Y-113030D01*
X-439048Y-113030D01*
G54D14*
X-636903Y-463550D02*
X-636903Y-452884D01*
X-634680Y-454216D01*
X-631347Y-456884D01*
X-626903Y-459550D01*
X-623570Y-460884D01*
X-619125Y-460884D01*
G54D14*
X-619125Y-439994D02*
X-636903Y-439994D01*
X-625792Y-447994D01*
X-623570Y-447994D01*
X-623570Y-437328D01*
G54D14*
X-628014Y-432438D02*
X-629125Y-429772D01*
X-629125Y-426572D01*
X-626903Y-424438D01*
X-619125Y-424438D01*
G54D14*
X-622458Y-424438D02*
X-624680Y-425772D01*
X-625125Y-428438D01*
X-624680Y-431104D01*
X-622458Y-432438D01*
X-620236Y-431904D01*
X-619125Y-429772D01*
X-619125Y-428438D01*
X-619125Y-427904D01*
X-620236Y-425772D01*
X-622458Y-424438D01*
G54D14*
X-619125Y-419549D02*
X-636903Y-419549D01*
G54D14*
X-620236Y-414660D02*
X-619125Y-411994D01*
X-619125Y-409326D01*
X-620236Y-406660D01*
X-622458Y-406660D01*
X-623570Y-407994D01*
X-624680Y-413326D01*
X-625792Y-414660D01*
X-628014Y-414660D01*
X-629125Y-411994D01*
X-629125Y-409326D01*
X-628014Y-406660D01*
G54D14*
X-636903Y-391104D02*
X-636903Y-401771D01*
X-629125Y-401771D01*
X-629125Y-400438D01*
X-630236Y-397771D01*
X-630236Y-395104D01*
X-629125Y-392438D01*
X-626903Y-391104D01*
X-622458Y-391104D01*
X-620236Y-392438D01*
X-619125Y-395104D01*
X-619125Y-397771D01*
X-620236Y-400438D01*
X-622458Y-401771D01*
G54D14*
X-636903Y-386215D02*
X-636903Y-375548D01*
X-634680Y-376882D01*
X-631347Y-379548D01*
X-626903Y-382215D01*
X-623570Y-383548D01*
X-619125Y-383548D01*
G54D14*
X-633570Y-370659D02*
X-635792Y-369326D01*
X-636903Y-366659D01*
X-636903Y-363992D01*
X-635792Y-361326D01*
X-633570Y-359992D01*
X-631347Y-359992D01*
X-629125Y-361326D01*
X-628014Y-363992D01*
X-626903Y-361326D01*
X-624680Y-359992D01*
X-622458Y-359992D01*
X-620236Y-361326D01*
X-619125Y-363992D01*
X-619125Y-366659D01*
X-620236Y-369326D01*
X-622458Y-370659D01*
G54D14*
X-636903Y-1171575D02*
X-636903Y-1160908D01*
X-634680Y-1162242D01*
X-631347Y-1164908D01*
X-626903Y-1167575D01*
X-623570Y-1168908D01*
X-619125Y-1168908D01*
G54D14*
X-619125Y-1148019D02*
X-636903Y-1148019D01*
X-625792Y-1156019D01*
X-623570Y-1156019D01*
X-623570Y-1145352D01*
G54D14*
X-628014Y-1140463D02*
X-629125Y-1137796D01*
X-629125Y-1134596D01*
X-626903Y-1132463D01*
X-619125Y-1132463D01*
G54D14*
X-622458Y-1132463D02*
X-624680Y-1133796D01*
X-625125Y-1136463D01*
X-624680Y-1139130D01*
X-622458Y-1140463D01*
X-620236Y-1139930D01*
X-619125Y-1137796D01*
X-619125Y-1136463D01*
X-619125Y-1135930D01*
X-620236Y-1133796D01*
X-622458Y-1132463D01*
G54D14*
X-619125Y-1127574D02*
X-636903Y-1127574D01*
G54D14*
X-620236Y-1122685D02*
X-619125Y-1120018D01*
X-619125Y-1117352D01*
X-620236Y-1114685D01*
X-622458Y-1114685D01*
X-623570Y-1116018D01*
X-624680Y-1121352D01*
X-625792Y-1122685D01*
X-628014Y-1122685D01*
X-629125Y-1120018D01*
X-629125Y-1117352D01*
X-628014Y-1114685D01*
G54D14*
X-636903Y-1099129D02*
X-636903Y-1109796D01*
X-629125Y-1109796D01*
X-629125Y-1108463D01*
X-630236Y-1105796D01*
X-630236Y-1103129D01*
X-629125Y-1100463D01*
X-626903Y-1099129D01*
X-622458Y-1099129D01*
X-620236Y-1100463D01*
X-619125Y-1103129D01*
X-619125Y-1105796D01*
X-620236Y-1108463D01*
X-622458Y-1109796D01*
G54D14*
X-636903Y-1094240D02*
X-636903Y-1083573D01*
X-634680Y-1084907D01*
X-631347Y-1087573D01*
X-626903Y-1090240D01*
X-623570Y-1091573D01*
X-619125Y-1091573D01*
G54D14*
X-633570Y-1078684D02*
X-635792Y-1077351D01*
X-636903Y-1074684D01*
X-636903Y-1072017D01*
X-635792Y-1069351D01*
X-633570Y-1068017D01*
X-631347Y-1068017D01*
X-629125Y-1069351D01*
X-628014Y-1072017D01*
X-626903Y-1069351D01*
X-624680Y-1068017D01*
X-622458Y-1068017D01*
X-620236Y-1069351D01*
X-619125Y-1072017D01*
X-619125Y-1074684D01*
X-620236Y-1077351D01*
X-622458Y-1078684D01*
G54D14*
X-634808Y-872808D02*
X-635475Y-875475D01*
X-634808Y-878142D01*
X-632586Y-879475D01*
X-628142Y-879475D01*
X-625920Y-878142D01*
X-625475Y-875475D01*
X-625920Y-872808D01*
G54D14*
X-625475Y-859919D02*
X-643253Y-859919D01*
G54D14*
X-632586Y-859919D02*
X-634808Y-861252D01*
X-635475Y-863919D01*
X-634808Y-866586D01*
X-632586Y-867919D01*
X-628142Y-867919D01*
X-625920Y-866586D01*
X-625475Y-863919D01*
X-625920Y-861252D01*
X-628142Y-859919D01*
G54D14*
X-625475Y-847030D02*
X-643253Y-847030D01*
X-632142Y-855030D01*
X-629920Y-855030D01*
X-629920Y-844363D01*
G54D14*
X-639920Y-828807D02*
X-628808Y-828807D01*
X-626586Y-830141D01*
X-625475Y-832807D01*
X-625475Y-835474D01*
X-626586Y-838141D01*
X-628808Y-839474D01*
X-639920Y-839474D01*
X-642142Y-838141D01*
X-643253Y-835474D01*
X-643253Y-832807D01*
X-642142Y-830141D01*
X-639920Y-828807D01*
G54D14*
X-636586Y-823918D02*
X-643253Y-817251D01*
X-625475Y-817251D01*
G54D14*
X-639920Y-812362D02*
X-642142Y-811029D01*
X-643253Y-808362D01*
X-643253Y-805695D01*
X-642142Y-803029D01*
X-639920Y-801695D01*
X-637697Y-801695D01*
X-635475Y-803029D01*
X-634364Y-805695D01*
X-633253Y-803029D01*
X-631030Y-801695D01*
X-628808Y-801695D01*
X-626586Y-803029D01*
X-625475Y-805695D01*
X-625475Y-808362D01*
X-626586Y-811029D01*
X-628808Y-812362D01*
G54D14*
X-160653Y-688975D02*
X-160653Y-678308D01*
X-158430Y-679642D01*
X-155097Y-682308D01*
X-150653Y-684975D01*
X-147320Y-686308D01*
X-142875Y-686308D01*
G54D14*
X-142875Y-665419D02*
X-160653Y-665419D01*
X-149542Y-673419D01*
X-147320Y-673419D01*
X-147320Y-662752D01*
G54D14*
X-151764Y-657863D02*
X-152875Y-655196D01*
X-152875Y-651996D01*
X-150653Y-649863D01*
X-142875Y-649863D01*
G54D14*
X-146208Y-649863D02*
X-148430Y-651196D01*
X-148875Y-653863D01*
X-148430Y-656530D01*
X-146208Y-657863D01*
X-143986Y-657330D01*
X-142875Y-655196D01*
X-142875Y-653863D01*
X-142875Y-653330D01*
X-143986Y-651196D01*
X-146208Y-649863D01*
G54D14*
X-142875Y-644974D02*
X-160653Y-644974D01*
G54D14*
X-143986Y-640085D02*
X-142875Y-637418D01*
X-142875Y-634752D01*
X-143986Y-632085D01*
X-146208Y-632085D01*
X-147320Y-633418D01*
X-148430Y-638752D01*
X-149542Y-640085D01*
X-151764Y-640085D01*
X-152875Y-637418D01*
X-152875Y-634752D01*
X-151764Y-632085D01*
G54D14*
X-153986Y-627196D02*
X-160653Y-620529D01*
X-142875Y-620529D01*
G54D14*
X-146208Y-615640D02*
X-143986Y-614307D01*
X-142875Y-611640D01*
X-142875Y-608973D01*
X-143986Y-606307D01*
X-146208Y-604973D01*
X-151764Y-604973D01*
X-152875Y-604973D01*
X-150653Y-608973D01*
X-150653Y-611640D01*
X-151764Y-614307D01*
X-153986Y-615640D01*
X-157320Y-615640D01*
X-159542Y-614307D01*
X-160653Y-611640D01*
X-160653Y-608973D01*
X-159542Y-606307D01*
X-157320Y-604973D01*
X-151764Y-604973D01*
G54D14*
X-157320Y-600084D02*
X-159542Y-598751D01*
X-160653Y-596084D01*
X-160653Y-593417D01*
X-159542Y-590751D01*
X-157320Y-589417D01*
X-155097Y-589417D01*
X-152875Y-590751D01*
X-151764Y-593417D01*
X-150653Y-590751D01*
X-148430Y-589417D01*
X-146208Y-589417D01*
X-143986Y-590751D01*
X-142875Y-593417D01*
X-142875Y-596084D01*
X-143986Y-598751D01*
X-146208Y-600084D01*
G54D14*
X-128903Y-479425D02*
X-128903Y-468758D01*
X-126680Y-470092D01*
X-123347Y-472758D01*
X-118903Y-475425D01*
X-115570Y-476758D01*
X-111125Y-476758D01*
G54D14*
X-111125Y-455869D02*
X-128903Y-455869D01*
X-117792Y-463869D01*
X-115570Y-463869D01*
X-115570Y-453202D01*
G54D14*
X-120014Y-448313D02*
X-121125Y-445646D01*
X-121125Y-442446D01*
X-118903Y-440313D01*
X-111125Y-440313D01*
G54D14*
X-114458Y-440313D02*
X-116680Y-441646D01*
X-117125Y-444313D01*
X-116680Y-446980D01*
X-114458Y-448313D01*
X-112236Y-447780D01*
X-111125Y-445646D01*
X-111125Y-444313D01*
X-111125Y-443780D01*
X-112236Y-441646D01*
X-114458Y-440313D01*
G54D14*
X-111125Y-435424D02*
X-128903Y-435424D01*
G54D14*
X-112236Y-430535D02*
X-111125Y-427868D01*
X-111125Y-425202D01*
X-112236Y-422535D01*
X-114458Y-422535D01*
X-115570Y-423868D01*
X-116680Y-429202D01*
X-117792Y-430535D01*
X-120014Y-430535D01*
X-121125Y-427868D01*
X-121125Y-425202D01*
X-120014Y-422535D01*
G54D14*
X-125570Y-406979D02*
X-114458Y-406979D01*
X-112236Y-408313D01*
X-111125Y-410979D01*
X-111125Y-413646D01*
X-112236Y-416313D01*
X-114458Y-417646D01*
X-125570Y-417646D01*
X-127792Y-416313D01*
X-128903Y-413646D01*
X-128903Y-410979D01*
X-127792Y-408313D01*
X-125570Y-406979D01*
G54D14*
X-111125Y-391423D02*
X-111125Y-402090D01*
X-112236Y-402090D01*
X-114458Y-400757D01*
X-121125Y-392757D01*
X-123347Y-391423D01*
X-125570Y-391423D01*
X-127792Y-392757D01*
X-128903Y-395423D01*
X-128903Y-398090D01*
X-127792Y-400757D01*
X-125570Y-402090D01*
G54D14*
X-636903Y-1387475D02*
X-636903Y-1376808D01*
X-634680Y-1378142D01*
X-631347Y-1380808D01*
X-626903Y-1383475D01*
X-623570Y-1384808D01*
X-619125Y-1384808D01*
G54D14*
X-619125Y-1363919D02*
X-636903Y-1363919D01*
X-625792Y-1371919D01*
X-623570Y-1371919D01*
X-623570Y-1361252D01*
G54D14*
X-628014Y-1356363D02*
X-629125Y-1353696D01*
X-629125Y-1350496D01*
X-626903Y-1348363D01*
X-619125Y-1348363D01*
G54D14*
X-622458Y-1348363D02*
X-624680Y-1349696D01*
X-625125Y-1352363D01*
X-624680Y-1355030D01*
X-622458Y-1356363D01*
X-620236Y-1355830D01*
X-619125Y-1353696D01*
X-619125Y-1352363D01*
X-619125Y-1351830D01*
X-620236Y-1349696D01*
X-622458Y-1348363D01*
G54D14*
X-619125Y-1343474D02*
X-636903Y-1343474D01*
G54D14*
X-620236Y-1338585D02*
X-619125Y-1335918D01*
X-619125Y-1333252D01*
X-620236Y-1330585D01*
X-622458Y-1330585D01*
X-623570Y-1331918D01*
X-624680Y-1337252D01*
X-625792Y-1338585D01*
X-628014Y-1338585D01*
X-629125Y-1335918D01*
X-629125Y-1333252D01*
X-628014Y-1330585D01*
G54D14*
X-630236Y-1325696D02*
X-636903Y-1319030D01*
X-619125Y-1319030D01*
G54D14*
X-633570Y-1303474D02*
X-622458Y-1303474D01*
X-620236Y-1304806D01*
X-619125Y-1307474D01*
X-619125Y-1310140D01*
X-620236Y-1312806D01*
X-622458Y-1314140D01*
X-633570Y-1314140D01*
X-635792Y-1312806D01*
X-636903Y-1310140D01*
X-636903Y-1307474D01*
X-635792Y-1304806D01*
X-633570Y-1303474D01*
G54D14*
X-636903Y-717550D02*
X-636903Y-706883D01*
X-634680Y-708217D01*
X-631347Y-710883D01*
X-626903Y-713550D01*
X-623570Y-714883D01*
X-619125Y-714883D01*
G54D14*
X-619125Y-693994D02*
X-636903Y-693994D01*
X-625792Y-701994D01*
X-623570Y-701994D01*
X-623570Y-691327D01*
G54D14*
X-628014Y-686438D02*
X-629125Y-683771D01*
X-629125Y-680571D01*
X-626903Y-678438D01*
X-619125Y-678438D01*
G54D14*
X-622458Y-678438D02*
X-624680Y-679771D01*
X-625125Y-682438D01*
X-624680Y-685105D01*
X-622458Y-686438D01*
X-620236Y-685905D01*
X-619125Y-683771D01*
X-619125Y-682438D01*
X-619125Y-681905D01*
X-620236Y-679771D01*
X-622458Y-678438D01*
G54D14*
X-619125Y-673549D02*
X-636903Y-673549D01*
G54D14*
X-620236Y-668660D02*
X-619125Y-665993D01*
X-619125Y-663327D01*
X-620236Y-660660D01*
X-622458Y-660660D01*
X-623570Y-661993D01*
X-624680Y-667327D01*
X-625792Y-668660D01*
X-628014Y-668660D01*
X-629125Y-665993D01*
X-629125Y-663327D01*
X-628014Y-660660D01*
G54D14*
X-633570Y-655771D02*
X-635792Y-654438D01*
X-636903Y-651771D01*
X-636903Y-649104D01*
X-635792Y-646438D01*
X-633570Y-645104D01*
X-631347Y-645104D01*
X-629125Y-646438D01*
X-628014Y-649104D01*
X-626903Y-646438D01*
X-624680Y-645104D01*
X-622458Y-645104D01*
X-620236Y-646438D01*
X-619125Y-649104D01*
X-619125Y-651771D01*
X-620236Y-654438D01*
X-622458Y-655771D01*
G54D14*
X-619125Y-629548D02*
X-619125Y-640215D01*
X-620236Y-640215D01*
X-622458Y-638882D01*
X-629125Y-630882D01*
X-631347Y-629548D01*
X-633570Y-629548D01*
X-635792Y-630882D01*
X-636903Y-633548D01*
X-636903Y-636215D01*
X-635792Y-638882D01*
X-633570Y-640215D01*
G54D15*
X-282575Y-488950D02*
X-297575Y-488950D01*
G54D15*
X-302575Y-488950D02*
X-302575Y-488950D01*
G54D15*
X-295908Y-471617D02*
X-295908Y-475617D01*
X-297575Y-479617D01*
X-300908Y-481617D01*
X-304242Y-481617D01*
X-307575Y-479617D01*
X-309242Y-475617D01*
X-309242Y-471617D01*
X-307575Y-467617D01*
X-304242Y-465617D01*
X-300908Y-465617D01*
X-297575Y-467617D01*
X-295908Y-471617D01*
X-294242Y-467617D01*
X-290908Y-465617D01*
X-287575Y-465617D01*
X-284242Y-467617D01*
X-282575Y-471617D01*
X-282575Y-475617D01*
X-284242Y-479617D01*
X-287575Y-481617D01*
X-290908Y-481617D01*
X-294242Y-479617D01*
X-295908Y-475617D01*
G54D15*
X-304242Y-442284D02*
X-287575Y-442284D01*
X-284242Y-444284D01*
X-282575Y-448284D01*
X-282575Y-452284D01*
X-284242Y-456284D01*
X-287575Y-458284D01*
X-304242Y-458284D01*
X-307575Y-456284D01*
X-309242Y-452284D01*
X-309242Y-448284D01*
X-307575Y-444284D01*
X-304242Y-442284D01*
G54D15*
X-304242Y-434951D02*
X-307575Y-432951D01*
X-309242Y-428951D01*
X-309242Y-424951D01*
X-307575Y-420951D01*
X-304242Y-418951D01*
X-300908Y-418951D01*
X-297575Y-420951D01*
X-295908Y-424951D01*
X-294242Y-420951D01*
X-290908Y-418951D01*
X-287575Y-418951D01*
X-284242Y-420951D01*
X-282575Y-424951D01*
X-282575Y-428951D01*
X-284242Y-432951D01*
X-287575Y-434951D01*
G54D15*
X-299242Y-411618D02*
X-309242Y-401618D01*
X-282575Y-401618D01*
G54D15*
X-488950Y-847725D02*
X-503950Y-847725D01*
G54D15*
X-508950Y-847725D02*
X-508950Y-847725D01*
G54D15*
X-502284Y-830392D02*
X-502284Y-834392D01*
X-503950Y-838392D01*
X-507284Y-840392D01*
X-510616Y-840392D01*
X-513950Y-838392D01*
X-515616Y-834392D01*
X-515616Y-830392D01*
X-513950Y-826392D01*
X-510616Y-824392D01*
X-507284Y-824392D01*
X-503950Y-826392D01*
X-502284Y-830392D01*
X-500616Y-826392D01*
X-497284Y-824392D01*
X-493950Y-824392D01*
X-490616Y-826392D01*
X-488950Y-830392D01*
X-488950Y-834392D01*
X-490616Y-838392D01*
X-493950Y-840392D01*
X-497284Y-840392D01*
X-500616Y-838392D01*
X-502284Y-834392D01*
G54D15*
X-488950Y-801059D02*
X-488950Y-817059D01*
X-490616Y-817059D01*
X-493950Y-815059D01*
X-503950Y-803059D01*
X-507284Y-801059D01*
X-510616Y-801059D01*
X-513950Y-803059D01*
X-515616Y-807059D01*
X-515616Y-811059D01*
X-513950Y-815059D01*
X-510616Y-817059D01*
G54D15*
X-515616Y-777726D02*
X-515616Y-793726D01*
X-503950Y-793726D01*
X-503950Y-791726D01*
X-505616Y-787726D01*
X-505616Y-783726D01*
X-503950Y-779726D01*
X-500616Y-777726D01*
X-493950Y-777726D01*
X-490616Y-779726D01*
X-488950Y-783726D01*
X-488950Y-787726D01*
X-490616Y-791726D01*
X-493950Y-793726D01*
G54D15*
X-510616Y-770393D02*
X-513950Y-768393D01*
X-515616Y-764393D01*
X-515616Y-760393D01*
X-513950Y-756393D01*
X-510616Y-754393D01*
X-507284Y-754393D01*
X-503950Y-756393D01*
X-502284Y-760393D01*
X-500616Y-756393D01*
X-497284Y-754393D01*
X-493950Y-754393D01*
X-490616Y-756393D01*
X-488950Y-760393D01*
X-488950Y-764393D01*
X-490616Y-768393D01*
X-493950Y-770393D01*
G54D15*
X-466725Y-1181100D02*
X-481725Y-1181100D01*
G54D15*
X-486725Y-1181100D02*
X-486725Y-1181100D01*
G54D15*
X-480058Y-1163767D02*
X-480058Y-1167767D01*
X-481725Y-1171767D01*
X-485058Y-1173767D01*
X-488392Y-1173767D01*
X-491725Y-1171767D01*
X-493392Y-1167767D01*
X-493392Y-1163767D01*
X-491725Y-1159767D01*
X-488392Y-1157767D01*
X-485058Y-1157767D01*
X-481725Y-1159767D01*
X-480058Y-1163767D01*
X-478392Y-1159767D01*
X-475058Y-1157767D01*
X-471725Y-1157767D01*
X-468392Y-1159767D01*
X-466725Y-1163767D01*
X-466725Y-1167767D01*
X-468392Y-1171767D01*
X-471725Y-1173767D01*
X-475058Y-1173767D01*
X-478392Y-1171767D01*
X-480058Y-1167767D01*
G54D15*
X-466725Y-1134434D02*
X-466725Y-1150434D01*
X-468392Y-1150434D01*
X-471725Y-1148434D01*
X-481725Y-1136434D01*
X-485058Y-1134434D01*
X-488392Y-1134434D01*
X-491725Y-1136434D01*
X-493392Y-1140434D01*
X-493392Y-1144434D01*
X-491725Y-1148434D01*
X-488392Y-1150434D01*
G54D15*
X-493392Y-1111101D02*
X-493392Y-1127101D01*
X-481725Y-1127101D01*
X-481725Y-1125101D01*
X-483392Y-1121101D01*
X-483392Y-1117101D01*
X-481725Y-1113101D01*
X-478392Y-1111101D01*
X-471725Y-1111101D01*
X-468392Y-1113101D01*
X-466725Y-1117101D01*
X-466725Y-1121101D01*
X-468392Y-1125101D01*
X-471725Y-1127101D01*
G54D15*
X-488392Y-1103768D02*
X-491725Y-1101768D01*
X-493392Y-1097768D01*
X-493392Y-1093768D01*
X-491725Y-1089768D01*
X-488392Y-1087768D01*
X-485058Y-1087768D01*
X-481725Y-1089768D01*
X-480058Y-1093768D01*
X-478392Y-1089768D01*
X-475058Y-1087768D01*
X-471725Y-1087768D01*
X-468392Y-1089768D01*
X-466725Y-1093768D01*
X-466725Y-1097768D01*
X-468392Y-1101768D01*
X-471725Y-1103768D01*
G54D15*
X-466725Y-495175D02*
X-466725Y-511175D01*
X-468392Y-511175D01*
X-471725Y-509175D01*
X-481725Y-497175D01*
X-485058Y-495175D01*
X-488392Y-495175D01*
X-491725Y-497175D01*
X-493392Y-501175D01*
X-493392Y-505175D01*
X-491725Y-509175D01*
X-488392Y-511175D01*
G54D15*
X-493392Y-487842D02*
X-493392Y-471842D01*
X-490058Y-473842D01*
X-485058Y-477842D01*
X-478392Y-481842D01*
X-473392Y-483842D01*
X-466725Y-483842D01*
G54D15*
X-483392Y-464509D02*
X-493392Y-454509D01*
X-466725Y-454509D01*
G54D15*
X-488392Y-431176D02*
X-491725Y-433176D01*
X-493392Y-437176D01*
X-493392Y-441176D01*
X-491725Y-445176D01*
X-488392Y-447176D01*
X-480058Y-447176D01*
X-478392Y-447176D01*
X-481725Y-441176D01*
X-481725Y-437176D01*
X-480058Y-433176D01*
X-476725Y-431176D01*
X-471725Y-431176D01*
X-468392Y-433176D01*
X-466725Y-437176D01*
X-466725Y-441176D01*
X-468392Y-445176D01*
X-471725Y-447176D01*
X-480058Y-447176D01*
G54D10*
X-152350Y-123800D02*
X-152350Y-104800D01*
X-114350Y-104800D01*
X-114350Y-123800D01*
X-152350Y-123800D01*
G54D10*
X-152450Y-114300D02*
X-160350Y-114300D01*
G54D10*
X-114350Y-114300D02*
X-106450Y-114300D01*
G54D16*
X-22225Y-1154400D02*
X-53336Y-1154400D01*
X-33892Y-1168400D01*
X-30003Y-1168400D01*
X-30003Y-1149733D01*
G54D16*
X-35836Y-1141177D02*
X-35836Y-1122510D01*
G54D16*
X-38558Y-1102287D02*
X-39725Y-1106954D01*
X-38558Y-1111621D01*
X-34670Y-1113954D01*
X-26892Y-1113954D01*
X-23003Y-1111621D01*
X-22225Y-1106954D01*
X-23003Y-1102287D01*
G54D16*
X-22225Y-1093731D02*
X-53336Y-1093731D01*
G54D16*
X-34670Y-1093731D02*
X-38558Y-1091398D01*
X-39725Y-1086731D01*
X-38558Y-1082064D01*
X-34670Y-1079731D01*
X-22225Y-1079731D01*
G54D16*
X-37780Y-1071175D02*
X-39725Y-1066508D01*
X-39725Y-1060908D01*
X-35836Y-1057175D01*
X-22225Y-1057175D01*
G54D16*
X-28058Y-1057175D02*
X-31947Y-1059508D01*
X-32725Y-1064175D01*
X-31947Y-1068842D01*
X-28058Y-1071175D01*
X-24170Y-1070242D01*
X-22225Y-1066508D01*
X-22225Y-1064175D01*
X-22225Y-1063242D01*
X-24170Y-1059508D01*
X-28058Y-1057175D01*
G54D16*
X-22225Y-1048619D02*
X-39725Y-1048619D01*
G54D16*
X-35836Y-1048619D02*
X-38558Y-1046286D01*
X-39725Y-1041619D01*
X-38558Y-1036952D01*
X-35836Y-1034619D01*
X-22225Y-1034619D01*
G54D16*
X-22225Y-1026063D02*
X-39725Y-1026063D01*
G54D16*
X-35836Y-1026063D02*
X-38558Y-1023730D01*
X-39725Y-1019063D01*
X-38558Y-1014396D01*
X-35836Y-1012063D01*
X-22225Y-1012063D01*
G54D16*
X-24170Y-989507D02*
X-22225Y-993240D01*
X-22225Y-997907D01*
X-24170Y-1002574D01*
X-28058Y-1003507D01*
X-34670Y-1003507D01*
X-38558Y-1001174D01*
X-39725Y-996507D01*
X-38558Y-991840D01*
X-35836Y-989507D01*
X-31947Y-989507D01*
X-31947Y-1003507D01*
G54D16*
X-22225Y-980951D02*
X-53336Y-980951D01*
G54D16*
X-22225Y-958705D02*
X-51392Y-958705D01*
X-53336Y-956372D01*
X-52170Y-954039D01*
G54D16*
X-39725Y-963372D02*
X-39725Y-954039D01*
G54D16*
X-39725Y-931483D02*
X-22225Y-931483D01*
G54D16*
X-26114Y-931483D02*
X-23003Y-933816D01*
X-22225Y-938483D01*
X-23003Y-943150D01*
X-26114Y-945483D01*
X-39725Y-945483D01*
G54D16*
X-24170Y-908927D02*
X-22225Y-912660D01*
X-22225Y-917327D01*
X-24170Y-921994D01*
X-28058Y-922927D01*
X-34670Y-922927D01*
X-38558Y-920594D01*
X-39725Y-915927D01*
X-38558Y-911260D01*
X-35836Y-908927D01*
X-31947Y-908927D01*
X-31947Y-922927D01*
G54D16*
X-22225Y-900371D02*
X-53336Y-900371D01*
G54D16*
X-26114Y-859458D02*
X-41670Y-878126D01*
X-45558Y-880458D01*
X-49447Y-880458D01*
X-53336Y-875792D01*
X-53336Y-871126D01*
X-49447Y-866458D01*
X-45558Y-866458D01*
X-41670Y-868792D01*
X-35836Y-880458D01*
X-31947Y-882792D01*
X-28058Y-882792D01*
X-24170Y-880458D01*
X-22225Y-875792D01*
X-22225Y-871126D01*
X-24170Y-866458D01*
X-31947Y-861792D01*
G54D16*
X-22225Y-841880D02*
X-39725Y-841880D01*
G54D16*
X-45558Y-841880D02*
X-45558Y-841880D01*
G54D16*
X-16392Y-833324D02*
X-14447Y-828658D01*
X-14447Y-825390D01*
X-16392Y-820724D01*
X-20280Y-819324D01*
X-39725Y-819324D01*
G54D16*
X-34670Y-819324D02*
X-38558Y-821658D01*
X-39725Y-826324D01*
X-38558Y-830990D01*
X-34670Y-833324D01*
X-26892Y-833324D01*
X-23003Y-830990D01*
X-22225Y-826324D01*
X-23003Y-821658D01*
X-26892Y-819324D01*
G54D16*
X-22225Y-810768D02*
X-39725Y-810768D01*
G54D16*
X-35836Y-810768D02*
X-38558Y-808434D01*
X-39725Y-803768D01*
X-38558Y-799102D01*
X-35836Y-796768D01*
X-22225Y-796768D01*
G54D16*
X-22225Y-788212D02*
X-39725Y-788212D01*
G54D16*
X-45558Y-788212D02*
X-45558Y-788212D01*
G54D16*
X-53336Y-774990D02*
X-24170Y-774990D01*
X-22225Y-772656D01*
X-23003Y-770322D01*
G54D16*
X-39725Y-779656D02*
X-39725Y-770322D01*
G54D16*
X-22225Y-761767D02*
X-39725Y-761767D01*
G54D16*
X-45558Y-761767D02*
X-45558Y-761767D01*
G54D16*
X-26892Y-739211D02*
X-34670Y-739211D01*
X-38558Y-741544D01*
X-39725Y-746211D01*
X-38558Y-750878D01*
X-34670Y-753211D01*
X-26892Y-753211D01*
X-23003Y-750878D01*
X-22225Y-746211D01*
X-23003Y-741544D01*
X-26892Y-739211D01*
G54D16*
X-22225Y-730655D02*
X-39725Y-730655D01*
G54D16*
X-35836Y-730655D02*
X-38558Y-728322D01*
X-39725Y-723655D01*
X-38558Y-718988D01*
X-35836Y-716655D01*
X-22225Y-716655D01*
G54D16*
X-38558Y-687410D02*
X-39725Y-692076D01*
X-38558Y-696742D01*
X-34670Y-699076D01*
X-26892Y-699076D01*
X-23003Y-696742D01*
X-22225Y-692076D01*
X-23003Y-687410D01*
G54D16*
X-26892Y-664853D02*
X-34670Y-664853D01*
X-38558Y-667186D01*
X-39725Y-671853D01*
X-38558Y-676520D01*
X-34670Y-678853D01*
X-26892Y-678853D01*
X-23003Y-676520D01*
X-22225Y-671853D01*
X-23003Y-667186D01*
X-26892Y-664853D01*
G54D16*
X-22225Y-656297D02*
X-39725Y-656297D01*
G54D16*
X-35836Y-656297D02*
X-38558Y-653964D01*
X-39725Y-649297D01*
X-38558Y-644630D01*
X-35836Y-642297D01*
X-22225Y-642297D01*
G54D16*
X-53336Y-629074D02*
X-24170Y-629074D01*
X-22225Y-626741D01*
X-23003Y-624408D01*
G54D16*
X-39725Y-633741D02*
X-39725Y-624408D01*
G54D16*
X-22225Y-615852D02*
X-39725Y-615852D01*
G54D16*
X-35836Y-615852D02*
X-39725Y-611185D01*
X-39725Y-606519D01*
G54D16*
X-26892Y-583963D02*
X-34670Y-583963D01*
X-38558Y-586296D01*
X-39725Y-590963D01*
X-38558Y-595630D01*
X-34670Y-597963D01*
X-26892Y-597963D01*
X-23003Y-595630D01*
X-22225Y-590963D01*
X-23003Y-586296D01*
X-26892Y-583963D01*
G54D16*
X-22225Y-575407D02*
X-53336Y-575407D01*
G54D16*
X-22225Y-557828D02*
X-53336Y-557828D01*
G54D16*
X-34670Y-557828D02*
X-38558Y-555495D01*
X-39725Y-550828D01*
X-38558Y-546161D01*
X-34670Y-543828D01*
X-26892Y-543828D01*
X-23003Y-546161D01*
X-22225Y-550828D01*
X-23003Y-555495D01*
X-26892Y-557828D01*
G54D16*
X-26892Y-521272D02*
X-34670Y-521272D01*
X-38558Y-523605D01*
X-39725Y-528272D01*
X-38558Y-532939D01*
X-34670Y-535272D01*
X-26892Y-535272D01*
X-23003Y-532939D01*
X-22225Y-528272D01*
X-23003Y-523605D01*
X-26892Y-521272D01*
G54D16*
X-37780Y-512716D02*
X-39725Y-508049D01*
X-39725Y-502449D01*
X-35836Y-498716D01*
X-22225Y-498716D01*
G54D16*
X-28058Y-498716D02*
X-31947Y-501049D01*
X-32725Y-505716D01*
X-31947Y-510383D01*
X-28058Y-512716D01*
X-24170Y-511783D01*
X-22225Y-508049D01*
X-22225Y-505716D01*
X-22225Y-504783D01*
X-24170Y-501049D01*
X-28058Y-498716D01*
G54D16*
X-22225Y-490160D02*
X-39725Y-490160D01*
G54D16*
X-35836Y-490160D02*
X-39725Y-485493D01*
X-39725Y-480827D01*
G54D16*
X-22225Y-458271D02*
X-53336Y-458271D01*
G54D16*
X-34670Y-458271D02*
X-38558Y-460604D01*
X-39725Y-465271D01*
X-38558Y-469938D01*
X-34670Y-472271D01*
X-26892Y-472271D01*
X-23003Y-469938D01*
X-22225Y-465271D01*
X-23003Y-460604D01*
X-26892Y-458271D01*
G54D14*
X-30003Y-425450D02*
X-30003Y-414784D01*
G54D14*
X-34447Y-420116D02*
X-25558Y-420116D01*
G54D14*
X-33336Y-424116D02*
X-26670Y-416116D01*
G54D14*
X-26670Y-424116D02*
X-33336Y-416116D01*
G54D14*
X-32225Y-409894D02*
X-22225Y-404560D01*
X-32225Y-399228D01*
G54D14*
X-33336Y-389182D02*
X-40003Y-382516D01*
X-22225Y-382516D01*
G54D14*
X-22225Y-377626D02*
X-22225Y-377626D01*
G54D14*
X-33336Y-372737D02*
X-40003Y-366070D01*
X-22225Y-366070D01*
G54D14*
X-30003Y-361181D02*
X-30003Y-350514D01*
G54D14*
X-34447Y-355848D02*
X-25558Y-355848D01*
G54D14*
X-33336Y-359848D02*
X-26670Y-351848D01*
G54D14*
X-26670Y-359848D02*
X-33336Y-351848D01*
G54D14*
X-698500Y-434975D02*
X-716278Y-434975D01*
X-716278Y-428308D01*
X-715166Y-425642D01*
X-712944Y-424308D01*
X-701834Y-424308D01*
X-699611Y-425642D01*
X-698500Y-428308D01*
X-698500Y-434975D01*
G54D14*
X-699611Y-411419D02*
X-698500Y-413552D01*
X-698500Y-416219D01*
X-699611Y-418886D01*
X-701834Y-419419D01*
X-705611Y-419419D01*
X-707834Y-418086D01*
X-708500Y-415419D01*
X-707834Y-412752D01*
X-706278Y-411419D01*
X-704056Y-411419D01*
X-704056Y-419419D01*
G54D14*
X-699611Y-406530D02*
X-698500Y-403863D01*
X-698500Y-401197D01*
X-699611Y-398530D01*
X-701834Y-398530D01*
X-702944Y-399863D01*
X-704056Y-405197D01*
X-705166Y-406530D01*
X-707389Y-406530D01*
X-708500Y-403863D01*
X-708500Y-401197D01*
X-707389Y-398530D01*
G54D14*
X-698500Y-393641D02*
X-708500Y-393641D01*
G54D14*
X-711834Y-393641D02*
X-711834Y-393641D01*
G54D14*
X-695166Y-388752D02*
X-694056Y-386085D01*
X-694056Y-384219D01*
X-695166Y-381552D01*
X-697389Y-380752D01*
X-708500Y-380752D01*
G54D14*
X-705611Y-380752D02*
X-707834Y-382085D01*
X-708500Y-384752D01*
X-707834Y-387419D01*
X-705611Y-388752D01*
X-701166Y-388752D01*
X-698944Y-387419D01*
X-698500Y-384752D01*
X-698944Y-382085D01*
X-701166Y-380752D01*
G54D14*
X-698500Y-375863D02*
X-708500Y-375863D01*
G54D14*
X-706278Y-375863D02*
X-707834Y-374530D01*
X-708500Y-371863D01*
X-707834Y-369196D01*
X-706278Y-367863D01*
X-698500Y-367863D01*
G54D14*
X-699611Y-354974D02*
X-698500Y-357107D01*
X-698500Y-359774D01*
X-699611Y-362441D01*
X-701834Y-362974D01*
X-705611Y-362974D01*
X-707834Y-361641D01*
X-708500Y-358974D01*
X-707834Y-356307D01*
X-706278Y-354974D01*
X-704056Y-354974D01*
X-704056Y-362974D01*
G54D14*
X-698500Y-342085D02*
X-716278Y-342085D01*
G54D14*
X-705611Y-342085D02*
X-707834Y-343418D01*
X-708500Y-346085D01*
X-707834Y-348752D01*
X-705611Y-350085D01*
X-701166Y-350085D01*
X-698944Y-348752D01*
X-698500Y-346085D01*
X-698944Y-343418D01*
X-701166Y-342085D01*
G54D14*
X-698500Y-332040D02*
X-716278Y-332040D01*
G54D14*
X-705611Y-332040D02*
X-707834Y-330707D01*
X-708500Y-328040D01*
X-707834Y-325373D01*
X-705611Y-324040D01*
X-701166Y-324040D01*
X-698944Y-325373D01*
X-698500Y-328040D01*
X-698944Y-330707D01*
X-701166Y-332040D01*
G54D14*
X-708500Y-319151D02*
X-698500Y-313818D01*
X-708500Y-308484D01*
G54D14*
X-698500Y-313818D02*
X-695166Y-315151D01*
X-694056Y-316484D01*
X-694056Y-317818D01*
G54D14*
X-701834Y-287772D02*
X-699611Y-289106D01*
X-698500Y-291772D01*
X-698500Y-294439D01*
X-699611Y-297106D01*
X-701834Y-298439D01*
X-712944Y-298439D01*
X-715166Y-297106D01*
X-716278Y-294439D01*
X-716278Y-291772D01*
X-715166Y-289106D01*
X-712944Y-287772D01*
G54D14*
X-712944Y-272216D02*
X-701834Y-272216D01*
X-699611Y-273550D01*
X-698500Y-276216D01*
X-698500Y-278883D01*
X-699611Y-281550D01*
X-701834Y-282883D01*
X-712944Y-282883D01*
X-715166Y-281550D01*
X-716278Y-278883D01*
X-716278Y-276216D01*
X-715166Y-273550D01*
X-712944Y-272216D01*
G54D14*
X-698500Y-267327D02*
X-716278Y-267327D01*
X-716278Y-260660D01*
X-715166Y-257994D01*
X-712944Y-256660D01*
X-701834Y-256660D01*
X-699611Y-257994D01*
X-698500Y-260660D01*
X-698500Y-267327D01*
G54D14*
X-698500Y-242438D02*
X-698500Y-251771D01*
X-716278Y-251771D01*
X-716278Y-242438D01*
G54D14*
X-707389Y-251771D02*
X-707389Y-242438D01*
G54D14*
X-698500Y-237549D02*
X-698500Y-224216D01*
G54D14*
X-698500Y-219327D02*
X-716278Y-219327D01*
X-705166Y-212660D01*
X-716278Y-205994D01*
X-698500Y-205994D01*
G54D14*
X-698500Y-201105D02*
X-716278Y-194438D01*
X-698500Y-187772D01*
G54D14*
X-705166Y-198438D02*
X-705166Y-190438D01*
G54D14*
X-701834Y-182883D02*
X-699611Y-181550D01*
X-698500Y-178883D01*
X-698500Y-176216D01*
X-699611Y-173550D01*
X-701834Y-172216D01*
X-704056Y-172216D01*
X-706278Y-173550D01*
X-707389Y-176216D01*
X-707389Y-178883D01*
X-708500Y-181550D01*
X-710722Y-182883D01*
X-712944Y-182883D01*
X-715166Y-181550D01*
X-716278Y-178883D01*
X-716278Y-176216D01*
X-715166Y-173550D01*
X-712944Y-172216D01*
G54D14*
X-698500Y-161994D02*
X-716278Y-161994D01*
G54D14*
X-716278Y-167327D02*
X-716278Y-156660D01*
G54D14*
X-698500Y-142438D02*
X-698500Y-151771D01*
X-716278Y-151771D01*
X-716278Y-142438D01*
G54D14*
X-707389Y-151771D02*
X-707389Y-142438D01*
G54D14*
X-707389Y-132216D02*
X-705166Y-128216D01*
X-702944Y-126882D01*
X-698500Y-126882D01*
G54D14*
X-698500Y-137549D02*
X-716278Y-137549D01*
X-716278Y-130882D01*
X-715166Y-128216D01*
X-712944Y-126882D01*
X-710722Y-126882D01*
X-708500Y-128216D01*
X-707389Y-130882D01*
X-707389Y-137549D01*
M02*
