%FSLAX34Y34*%
%MOMM*%
%LNSOLDERMASK_TOP*%
G71*
G01*
%ADD10C, 2.00*%
%ADD11C, 2.20*%
%ADD12C, 1.20*%
%ADD13C, 1.20*%
%ADD14C, 2.20*%
%LPD*%
X-666750Y-508000D02*
G54D10*
D03*
X-558800Y-533400D02*
G54D10*
D03*
X-558800Y-558800D02*
G54D10*
D03*
X-558800Y-584200D02*
G54D10*
D03*
X-82550Y-323850D02*
G54D11*
D03*
X-406400Y-482600D02*
G54D10*
D03*
X-374650Y-431800D02*
G54D10*
D03*
X-666750Y-698500D02*
G54D10*
D03*
X-558800Y-1193800D02*
G54D10*
D03*
X-558800Y-609600D02*
G54D10*
D03*
X-558800Y-990600D02*
G54D10*
D03*
X-558800Y-1016000D02*
G54D10*
D03*
X-558800Y-1041400D02*
G54D10*
D03*
X-558800Y-1066800D02*
G54D10*
D03*
X-558800Y-1092200D02*
G54D10*
D03*
X-558800Y-1117600D02*
G54D10*
D03*
X-558800Y-1143000D02*
G54D10*
D03*
X-558800Y-1168400D02*
G54D10*
D03*
X-454025Y-803275D02*
G54D12*
D03*
X-444500Y-793750D02*
G54D12*
D03*
X-406400Y-1016000D02*
G54D10*
D03*
X-406400Y-1092200D02*
G54D10*
D03*
X-406400Y-1117600D02*
G54D10*
D03*
X-190500Y-330200D02*
G54D10*
D03*
X-406400Y-685800D02*
G54D10*
D03*
X-530225Y-666750D02*
G54D12*
D03*
X-520700Y-676275D02*
G54D12*
D03*
X-511175Y-685800D02*
G54D12*
D03*
X-501650Y-695325D02*
G54D12*
D03*
X-492125Y-704850D02*
G54D12*
D03*
X-482600Y-714375D02*
G54D12*
D03*
X-473075Y-723900D02*
G54D12*
D03*
X-463550Y-733425D02*
G54D12*
D03*
X-558800Y-508000D02*
G54D10*
D03*
X-558800Y-482600D02*
G54D10*
D03*
X-666750Y-431800D02*
G54D10*
D03*
X-666750Y-406400D02*
G54D10*
D03*
X-666750Y-381000D02*
G54D10*
D03*
X-666750Y-355600D02*
G54D10*
D03*
X-666750Y-330200D02*
G54D10*
D03*
X-406400Y-609600D02*
G54D10*
D03*
X-406400Y-584200D02*
G54D10*
D03*
X-406400Y-558800D02*
G54D10*
D03*
X-406400Y-533400D02*
G54D10*
D03*
X-406400Y-508000D02*
G54D10*
D03*
X-641350Y-482600D02*
G54D12*
D03*
X-631825Y-473075D02*
G54D12*
D03*
X-476250Y-596900D02*
G54D12*
D03*
X-406400Y-1066800D02*
G54D10*
D03*
X-558800Y-457200D02*
G54D10*
D03*
X-558800Y-431800D02*
G54D10*
D03*
X-406400Y-736600D02*
G54D10*
D03*
X-406400Y-1143000D02*
G54D10*
D03*
X-406400Y-1219200D02*
G54D10*
D03*
X-463550Y-889000D02*
G54D12*
D03*
X-590550Y-565150D02*
G54D10*
D03*
X-666750Y-533400D02*
G54D10*
D03*
X-590550Y-596900D02*
G54D10*
D03*
X-552450Y-625475D02*
G54D12*
D03*
X-457200Y-577850D02*
G54D12*
D03*
X-574675Y-635000D02*
G54D12*
D03*
X-666750Y-723900D02*
G54D10*
D03*
X-666750Y-673100D02*
G54D10*
D03*
X-590550Y-622300D02*
G54D10*
D03*
X-590550Y-698500D02*
G54D10*
D03*
X-590550Y-863600D02*
G54D10*
D03*
X-558800Y-914400D02*
G54D10*
D03*
X-666750Y-787400D02*
G54D10*
D03*
X-666750Y-838200D02*
G54D10*
D03*
X-666750Y-914400D02*
G54D10*
D03*
X-666750Y-622300D02*
G54D10*
D03*
X-457200Y-552450D02*
G54D12*
D03*
X-457200Y-542925D02*
G54D12*
D03*
X-406400Y-660400D02*
G54D10*
D03*
X-558800Y-292100D02*
G54D10*
D03*
X-463550Y-812800D02*
G54D12*
D03*
X-463550Y-850900D02*
G54D12*
D03*
X-508000Y-177800D02*
G54D10*
D03*
X-457200Y-254000D02*
G54D10*
D03*
X-558800Y-889000D02*
G54D10*
D03*
X-482600Y-254000D02*
G54D10*
D03*
X-508000Y-146050D02*
G54D10*
D03*
X-482600Y-177800D02*
G54D10*
D03*
X-508000Y-254000D02*
G54D10*
D03*
X-441325Y-460375D02*
G54D12*
D03*
X-441325Y-469900D02*
G54D12*
D03*
X-533400Y-146050D02*
G54D10*
D03*
X-457200Y-146050D02*
G54D10*
D03*
X-222250Y-406400D02*
G54D10*
D03*
X-222250Y-381000D02*
G54D10*
D03*
X-238125Y-596900D02*
G54D12*
D03*
X-82550Y-381000D02*
G54D10*
D03*
X-190500Y-457200D02*
G54D10*
D03*
X-222250Y-139700D02*
G54D11*
D03*
X-355600Y-69850D02*
G54D12*
D03*
X-158750Y-457200D02*
G54D10*
D03*
X-158750Y-431800D02*
G54D10*
D03*
X-158750Y-406400D02*
G54D10*
D03*
X-222250Y-330200D02*
G54D10*
D03*
X-82550Y-355600D02*
G54D10*
D03*
X-133350Y-273050D02*
G54D10*
D03*
X-82550Y-508000D02*
G54D10*
D03*
X-222250Y-254000D02*
G54D10*
D03*
X-222250Y-228600D02*
G54D10*
D03*
X-196850Y-127000D02*
G54D10*
D03*
X-368300Y-69850D02*
G54D12*
D03*
X-355600Y-57150D02*
G54D12*
D03*
X-368300Y-57150D02*
G54D12*
D03*
X-355600Y-82550D02*
G54D12*
D03*
X-368300Y-82550D02*
G54D12*
D03*
X-342900Y-82550D02*
G54D12*
D03*
X-342900Y-69850D02*
G54D12*
D03*
X-342900Y-57150D02*
G54D12*
D03*
G36*
X-368300Y-82550D02*
X-368300Y-57150D01*
X-342900Y-57150D01*
X-342900Y-82550D01*
X-368300Y-82550D01*
G37*
G54D13*
X-368300Y-82550D02*
X-368300Y-57150D01*
X-342900Y-57150D01*
X-342900Y-82550D01*
X-368300Y-82550D01*
X-247650Y-457200D02*
G54D12*
D03*
X-222250Y-482600D02*
G54D10*
D03*
X-238125Y-292100D02*
G54D12*
D03*
X-107950Y-215900D02*
G54D10*
D03*
X-222250Y-558800D02*
G54D10*
D03*
X-114300Y-723900D02*
G54D10*
D03*
X-82550Y-215900D02*
G54D10*
D03*
X-107950Y-139700D02*
G54D10*
D03*
X-82550Y-406400D02*
G54D10*
D03*
X-406400Y-381000D02*
G54D10*
D03*
X-374650Y-228600D02*
G54D10*
D03*
X-406400Y-355600D02*
G54D10*
D03*
X-374650Y-203200D02*
G54D10*
D03*
X-114300Y-622300D02*
G54D10*
D03*
X-171450Y-863600D02*
G54D10*
D03*
X-196850Y-762000D02*
G54D10*
D03*
X-222250Y-863600D02*
G54D10*
D03*
X-247650Y-939800D02*
G54D10*
D03*
X-171450Y-1168400D02*
G54D10*
D03*
X-196850Y-1066800D02*
G54D10*
D03*
X-222250Y-1168400D02*
G54D10*
D03*
X-247650Y-1244600D02*
G54D10*
D03*
X-171450Y-762000D02*
G54D10*
D03*
X-171450Y-965200D02*
G54D10*
D03*
X-171450Y-1066800D02*
G54D10*
D03*
X-171450Y-1270000D02*
G54D10*
D03*
X-114300Y-647700D02*
G54D10*
D03*
X-273050Y-863600D02*
G54D10*
D03*
X-298450Y-939800D02*
G54D10*
D03*
X-222250Y-660400D02*
G54D10*
D03*
X-222250Y-685800D02*
G54D10*
D03*
X-298450Y-1244600D02*
G54D10*
D03*
X-273050Y-1168400D02*
G54D10*
D03*
X-222250Y-635000D02*
G54D10*
D03*
X-406400Y-838200D02*
G54D10*
D03*
X-406400Y-939800D02*
G54D10*
D03*
X-527050Y-1333500D02*
G54D10*
D03*
X-406400Y-1168400D02*
G54D10*
D03*
X-247650Y-863600D02*
G54D10*
D03*
X-273050Y-939800D02*
G54D10*
D03*
X-247650Y-1168400D02*
G54D10*
D03*
X-273050Y-1244600D02*
G54D10*
D03*
X-222250Y-609600D02*
G54D10*
D03*
X-358775Y-673100D02*
G54D12*
D03*
X-307975Y-730250D02*
G54D12*
D03*
X-196850Y-863600D02*
G54D10*
D03*
X-222250Y-939800D02*
G54D10*
D03*
X-177800Y-904875D02*
G54D12*
D03*
X-155575Y-927100D02*
G54D12*
D03*
X-196850Y-1168400D02*
G54D10*
D03*
X-222250Y-1244600D02*
G54D10*
D03*
X-133350Y-215900D02*
G54D10*
D03*
X-666750Y-177800D02*
G54D10*
D03*
X-590550Y-203200D02*
G54D10*
D03*
X-666750Y-203200D02*
G54D10*
D03*
X-666750Y-304800D02*
G54D10*
D03*
X-615950Y-266700D02*
G54D10*
D03*
X-482600Y-146050D02*
G54D10*
D03*
X-457200Y-177800D02*
G54D10*
D03*
X-406400Y-69850D02*
G54D10*
D03*
X-406400Y-177800D02*
G54D10*
D03*
X-431800Y-177800D02*
G54D10*
D03*
X-533400Y-254000D02*
G54D10*
D03*
X-406400Y-292100D02*
G54D10*
D03*
X-158750Y-298450D02*
G54D11*
D03*
X-82550Y-298450D02*
G54D11*
D03*
X-82550Y-241300D02*
G54D10*
D03*
X-666750Y-647700D02*
G54D10*
D03*
X-625475Y-920750D02*
G54D12*
D03*
X-625475Y-911225D02*
G54D12*
D03*
X-584200Y-971550D02*
G54D10*
D03*
X-146050Y-88900D02*
G54D10*
D03*
X-590550Y-749300D02*
G54D10*
D03*
X-615950Y-882650D02*
G54D12*
D03*
X-631825Y-898525D02*
G54D12*
D03*
X-590550Y-1422400D02*
G54D10*
D03*
X-422275Y-1155700D02*
G54D12*
D03*
X-428625Y-1168400D02*
G54D12*
D03*
X-590550Y-1320800D02*
G54D10*
D03*
X-590550Y-1397000D02*
G54D10*
D03*
X-425450Y-1409700D02*
G54D10*
D03*
X-476250Y-1333500D02*
G54D10*
D03*
X-450850Y-1333500D02*
G54D10*
D03*
X-450850Y-1409700D02*
G54D10*
D03*
X-425450Y-1333500D02*
G54D10*
D03*
X-158750Y-1603375D02*
G54D12*
D03*
X-539750Y-1600200D02*
G54D12*
D03*
X-146050Y-1603375D02*
G54D12*
D03*
X-501650Y-1409700D02*
G54D10*
D03*
X-298450Y-1384300D02*
G54D10*
D03*
X-171450Y-1384300D02*
G54D10*
D03*
X-298450Y-1460500D02*
G54D10*
D03*
X-171450Y-1460500D02*
G54D10*
D03*
X-323850Y-1460500D02*
G54D10*
D03*
X-146050Y-1384300D02*
G54D10*
D03*
X-273050Y-1384300D02*
G54D10*
D03*
X-196850Y-1384300D02*
G54D10*
D03*
X-139700Y-1244600D02*
G54D10*
D03*
X-400050Y-1517650D02*
G54D10*
D03*
X-527050Y-1517650D02*
G54D10*
D03*
X-501650Y-1441450D02*
G54D10*
D03*
X-425450Y-1441450D02*
G54D10*
D03*
X-501650Y-1517650D02*
G54D10*
D03*
X-425450Y-1517650D02*
G54D10*
D03*
X-273050Y-1460500D02*
G54D10*
D03*
X-196850Y-1460500D02*
G54D10*
D03*
X-476250Y-1619250D02*
G54D14*
D03*
X-476250Y-1644650D02*
G54D14*
D03*
X-501650Y-1644650D02*
G54D14*
D03*
X-501650Y-1619250D02*
G54D14*
D03*
X-527050Y-1619250D02*
G54D14*
D03*
X-527050Y-1644650D02*
G54D14*
D03*
X-552450Y-1644650D02*
G54D14*
D03*
X-552450Y-1619250D02*
G54D14*
D03*
X-577850Y-1619250D02*
G54D14*
D03*
G36*
X-573285Y-1633650D02*
X-566850Y-1640085D01*
X-566850Y-1649215D01*
X-573285Y-1655650D01*
X-582415Y-1655650D01*
X-588850Y-1649215D01*
X-588850Y-1640085D01*
X-582415Y-1633650D01*
X-573285Y-1633650D01*
G37*
X-374650Y-1619250D02*
G54D14*
D03*
X-374650Y-1644650D02*
G54D14*
D03*
X-400050Y-1644650D02*
G54D14*
D03*
X-400050Y-1619250D02*
G54D14*
D03*
X-425450Y-1619250D02*
G54D14*
D03*
X-425450Y-1644650D02*
G54D14*
D03*
X-450850Y-1644650D02*
G54D14*
D03*
X-450850Y-1619250D02*
G54D14*
D03*
X-273050Y-1619250D02*
G54D14*
D03*
X-273050Y-1644650D02*
G54D14*
D03*
X-298450Y-1644650D02*
G54D14*
D03*
X-298450Y-1619250D02*
G54D14*
D03*
X-323850Y-1619250D02*
G54D14*
D03*
X-323850Y-1644650D02*
G54D14*
D03*
X-349250Y-1644650D02*
G54D14*
D03*
X-349250Y-1619250D02*
G54D14*
D03*
X-171450Y-1619250D02*
G54D14*
D03*
X-171450Y-1644650D02*
G54D14*
D03*
X-196850Y-1644650D02*
G54D14*
D03*
X-196850Y-1619250D02*
G54D14*
D03*
X-222250Y-1619250D02*
G54D14*
D03*
X-222250Y-1644650D02*
G54D14*
D03*
X-247650Y-1644650D02*
G54D14*
D03*
X-247650Y-1619250D02*
G54D14*
D03*
X-165100Y-1485900D02*
G54D10*
D03*
X-609600Y-1454150D02*
G54D10*
D03*
X-584200Y-1504950D02*
G54D10*
D03*
X-666750Y-1206500D02*
G54D10*
D03*
X-666750Y-1181100D02*
G54D10*
D03*
X-666750Y-1155700D02*
G54D10*
D03*
X-666750Y-1130300D02*
G54D10*
D03*
X-666750Y-1104900D02*
G54D10*
D03*
X-666750Y-1079500D02*
G54D10*
D03*
X-355600Y-1270000D02*
G54D10*
D03*
X-323850Y-1384300D02*
G54D10*
D03*
X-666750Y-1028700D02*
G54D10*
D03*
X-635000Y-971550D02*
G54D10*
D03*
X-590550Y-1003300D02*
G54D10*
D03*
X-114300Y-1409700D02*
G54D10*
D03*
X-222250Y-431800D02*
G54D10*
D03*
X-406400Y-431800D02*
G54D10*
D03*
X-374650Y-406400D02*
G54D10*
D03*
X-450850Y-565150D02*
G54D12*
D03*
X-222250Y-584200D02*
G54D10*
D03*
X-190500Y-698500D02*
G54D10*
D03*
X-247650Y-301625D02*
G54D12*
D03*
X-260350Y-301625D02*
G54D12*
D03*
X-508000Y-69850D02*
G54D10*
D03*
X-457200Y-69850D02*
G54D10*
D03*
X-241300Y-708025D02*
G54D12*
D03*
X-266700Y-482600D02*
G54D12*
D03*
X-190500Y-723900D02*
G54D10*
D03*
X-323850Y-1346200D02*
G54D10*
D03*
X-323850Y-1244600D02*
G54D10*
D03*
X-323850Y-1041400D02*
G54D10*
D03*
X-323850Y-939800D02*
G54D10*
D03*
X-542925Y-1260475D02*
G54D12*
D03*
X-558800Y-1219200D02*
G54D10*
D03*
M02*
