%FSLAX34Y34*%
%MOMM*%
%LNSOLDERMASK_TOP*%
G71*
G01*
%ADD10C, 2.00*%
%ADD11C, 2.20*%
%ADD12C, 1.40*%
%ADD13C, 2.20*%
%ADD14C, 1.20*%
%ADD15C, 0.70*%
%LPD*%
X-330200Y-165100D02*
G54D10*
D03*
X-254000Y-165100D02*
G54D10*
D03*
X-215900Y-215900D02*
G54D10*
D03*
X-215900Y-241300D02*
G54D10*
D03*
X-330200Y-723900D02*
G54D10*
D03*
X-254000Y-723900D02*
G54D10*
D03*
X-215900Y-774700D02*
G54D10*
D03*
X-215900Y-800100D02*
G54D10*
D03*
X-330200Y-622300D02*
G54D10*
D03*
X-215900Y-622300D02*
G54D10*
D03*
X-330200Y-63500D02*
G54D10*
D03*
X-215900Y-63500D02*
G54D10*
D03*
X-304800Y-438150D02*
G54D10*
D03*
X-406400Y-361950D02*
G54D10*
D03*
X-419100Y-546100D02*
G54D10*
D03*
X-215900Y-406400D02*
G54D10*
D03*
X-539750Y-361950D02*
G54D10*
D03*
X-279400Y-361950D02*
G54D10*
D03*
X-215900Y-431800D02*
G54D10*
D03*
X-215900Y-565150D02*
G54D10*
D03*
X-254000Y-622300D02*
G54D10*
D03*
X-368300Y-609600D02*
G54D10*
D03*
X-266700Y-469900D02*
G54D10*
D03*
X-444500Y-546100D02*
G54D10*
D03*
X-419100Y-469900D02*
G54D10*
D03*
X-254000Y-361950D02*
G54D10*
D03*
X-444500Y-635000D02*
G54D10*
D03*
X-444500Y-660400D02*
G54D10*
D03*
X-368300Y-787400D02*
G54D10*
D03*
X-368300Y-876300D02*
G54D10*
D03*
X-444500Y-927100D02*
G54D10*
D03*
X-444500Y-876300D02*
G54D10*
D03*
X-368300Y-901700D02*
G54D10*
D03*
X-355600Y-438150D02*
G54D10*
D03*
X-444500Y-977900D02*
G54D10*
D03*
X-330200Y-673100D02*
G54D10*
D03*
X-330200Y-114300D02*
G54D10*
D03*
X-444500Y-1003300D02*
G54D10*
D03*
X-330200Y-965200D02*
G54D10*
D03*
X-215900Y-901700D02*
G54D10*
D03*
X-330200Y-863600D02*
G54D10*
D03*
X-330200Y-889000D02*
G54D10*
D03*
X-215900Y-596900D02*
G54D10*
D03*
X-215900Y-304800D02*
G54D10*
D03*
X-215900Y-38100D02*
G54D10*
D03*
X-330200Y-914400D02*
G54D10*
D03*
X-139700Y-825500D02*
G54D10*
D03*
X-292100Y-571500D02*
G54D10*
D03*
X-419100Y-571500D02*
G54D10*
D03*
X-330200Y-800100D02*
G54D10*
D03*
X-279400Y-831850D02*
G54D10*
D03*
X-254000Y-990600D02*
G54D10*
D03*
X-215900Y-927100D02*
G54D10*
D03*
X-368300Y-1035050D02*
G54D11*
D03*
X-444500Y-469900D02*
G54D10*
D03*
X-330200Y-273050D02*
G54D10*
D03*
X-123825Y-508000D02*
G54D12*
D03*
X-111125Y-495300D02*
G54D12*
D03*
X-98425Y-482600D02*
G54D12*
D03*
X-85725Y-469900D02*
G54D12*
D03*
X-73025Y-457200D02*
G54D12*
D03*
X-60325Y-444500D02*
G54D12*
D03*
X-47625Y-431800D02*
G54D12*
D03*
X-34925Y-419100D02*
G54D12*
D03*
X-139700Y-63500D02*
G54D10*
D03*
X-139700Y-88900D02*
G54D10*
D03*
X-139700Y-114300D02*
G54D10*
D03*
X-139700Y-139700D02*
G54D10*
D03*
X-139700Y-165100D02*
G54D10*
D03*
X-139700Y-190500D02*
G54D10*
D03*
X-139700Y-215900D02*
G54D10*
D03*
X-139700Y-241300D02*
G54D10*
D03*
X-123825Y-800100D02*
G54D12*
D03*
X-111125Y-787400D02*
G54D12*
D03*
X-98425Y-774700D02*
G54D12*
D03*
X-85725Y-762000D02*
G54D12*
D03*
X-73025Y-749300D02*
G54D12*
D03*
X-60325Y-736600D02*
G54D12*
D03*
X-47625Y-723900D02*
G54D12*
D03*
X-34925Y-711200D02*
G54D12*
D03*
X-123825Y-1079500D02*
G54D12*
D03*
X-111125Y-1066800D02*
G54D12*
D03*
X-98425Y-1054100D02*
G54D12*
D03*
X-85725Y-1041400D02*
G54D12*
D03*
X-73025Y-1028700D02*
G54D12*
D03*
X-60325Y-1016000D02*
G54D12*
D03*
X-47625Y-1003300D02*
G54D12*
D03*
X-34925Y-990600D02*
G54D12*
D03*
X-139700Y-266700D02*
G54D10*
D03*
X-139700Y-533400D02*
G54D10*
D03*
X-139700Y-304800D02*
G54D10*
D03*
X-139700Y-38100D02*
G54D10*
D03*
X-165100Y-565150D02*
G54D10*
D03*
X-139700Y-596900D02*
G54D10*
D03*
X-361950Y-1473200D02*
G54D10*
D03*
X-254000Y-1473200D02*
G54D10*
D03*
X-254000Y-1498600D02*
G54D10*
D03*
X-361950Y-1498600D02*
G54D10*
D03*
X-469900Y-1473200D02*
G54D10*
D03*
X-469900Y-1498600D02*
G54D10*
D03*
X-546100Y-1435100D02*
G54D10*
D03*
X-546100Y-1409700D02*
G54D10*
D03*
X-438150Y-1435100D02*
G54D10*
D03*
X-438150Y-1409700D02*
G54D10*
D03*
X-330200Y-1435100D02*
G54D10*
D03*
X-330200Y-1409700D02*
G54D10*
D03*
X-438150Y-1657350D02*
G54D10*
D03*
X-368300Y-1066800D02*
G54D10*
D03*
X-520700Y-1117600D02*
G54D10*
D03*
X-355600Y-1143000D02*
G54D10*
D03*
X-304800Y-1219200D02*
G54D10*
D03*
X-520700Y-1143000D02*
G54D10*
D03*
X-279400Y-1219200D02*
G54D10*
D03*
X-406400Y-1219200D02*
G54D10*
D03*
X-330200Y-88900D02*
G54D10*
D03*
X-254000Y-1333500D02*
G54D10*
D03*
X-215900Y-1244600D02*
G54D10*
D03*
X-279400Y-1143000D02*
G54D10*
D03*
X-215900Y-1168400D02*
G54D10*
D03*
X-304800Y-1143000D02*
G54D10*
D03*
X-254000Y-1435100D02*
G54D10*
D03*
X-254000Y-1409700D02*
G54D10*
D03*
X-330200Y-1098550D02*
G54D11*
D03*
X-254000Y-1073150D02*
G54D11*
D03*
X-254000Y-1384300D02*
G54D10*
D03*
X-444500Y-1168400D02*
G54D10*
D03*
X-609600Y-1435100D02*
G54D10*
D03*
X-330200Y-1073150D02*
G54D11*
D03*
X-469900Y-1282700D02*
G54D10*
D03*
X-520700Y-1219200D02*
G54D10*
D03*
X-190500Y-1136650D02*
G54D10*
D03*
X-215900Y-1397000D02*
G54D10*
D03*
X-215900Y-1104900D02*
G54D10*
D03*
X-139700Y-1136650D02*
G54D10*
D03*
X-558800Y-1066800D02*
G54D10*
D03*
X-368300Y-977900D02*
G54D10*
D03*
X-76200Y-1174750D02*
G54D13*
D03*
X-50800Y-1174750D02*
G54D13*
D03*
X-50800Y-1200150D02*
G54D13*
D03*
X-76200Y-1200150D02*
G54D13*
D03*
X-76200Y-1225550D02*
G54D13*
D03*
X-50800Y-1225550D02*
G54D13*
D03*
X-50800Y-1250950D02*
G54D13*
D03*
X-76200Y-1250950D02*
G54D13*
D03*
X-76200Y-1276350D02*
G54D13*
D03*
G36*
X-61800Y-1271785D02*
X-55365Y-1265350D01*
X-46235Y-1265350D01*
X-39800Y-1271785D01*
X-39800Y-1280915D01*
X-46235Y-1287350D01*
X-55365Y-1287350D01*
X-61800Y-1280915D01*
X-61800Y-1271785D01*
G37*
X-76200Y-1397000D02*
G54D13*
D03*
X-50800Y-1397000D02*
G54D13*
D03*
X-50800Y-1422400D02*
G54D13*
D03*
X-76200Y-1422400D02*
G54D13*
D03*
X-76200Y-1447800D02*
G54D13*
D03*
X-50800Y-1447800D02*
G54D13*
D03*
X-50800Y-1473200D02*
G54D13*
D03*
X-76200Y-1473200D02*
G54D13*
D03*
X-76200Y-1498600D02*
G54D13*
D03*
G36*
X-61800Y-1494035D02*
X-55365Y-1487600D01*
X-46235Y-1487600D01*
X-39800Y-1494035D01*
X-39800Y-1503165D01*
X-46235Y-1509600D01*
X-55365Y-1509600D01*
X-61800Y-1503165D01*
X-61800Y-1494035D01*
G37*
X-190500Y-1485900D02*
G54D13*
D03*
X-165100Y-1485900D02*
G54D13*
D03*
X-165100Y-1511300D02*
G54D13*
D03*
X-190500Y-1511300D02*
G54D13*
D03*
X-190500Y-1536700D02*
G54D13*
D03*
X-165100Y-1536700D02*
G54D13*
D03*
X-165100Y-1562100D02*
G54D13*
D03*
X-190500Y-1562100D02*
G54D13*
D03*
X-190500Y-1587500D02*
G54D13*
D03*
G36*
X-176100Y-1582935D02*
X-169665Y-1576500D01*
X-160535Y-1576500D01*
X-154100Y-1582935D01*
X-154100Y-1592065D01*
X-160535Y-1598500D01*
X-169665Y-1598500D01*
X-176100Y-1592065D01*
X-176100Y-1582935D01*
G37*
X-139700Y-1219200D02*
G54D10*
D03*
X-139700Y-1270000D02*
G54D10*
D03*
X-139700Y-1320800D02*
G54D10*
D03*
X-139700Y-1371600D02*
G54D10*
D03*
X-444500Y-1092200D02*
G54D10*
D03*
X-330200Y-1625600D02*
G54D10*
D03*
X-590550Y-508000D02*
G54D10*
D03*
X-215900Y-266700D02*
G54D10*
D03*
X-361950Y-1250950D02*
G54D10*
D03*
X-469900Y-1250950D02*
G54D10*
D03*
X-546100Y-1657350D02*
G54D10*
D03*
X-635000Y-1143000D02*
G54D10*
D03*
X-558800Y-1143000D02*
G54D10*
D03*
X-558800Y-1244600D02*
G54D10*
D03*
X-558800Y-1193800D02*
G54D10*
D03*
X-558800Y-1117600D02*
G54D10*
D03*
X-304800Y-25400D02*
G54D10*
D03*
X-520700Y-1092200D02*
G54D10*
D03*
X-520700Y-1066800D02*
G54D10*
D03*
X-609600Y-952500D02*
G54D10*
D03*
X-558800Y-768350D02*
G54D10*
D03*
X-508000Y-1009650D02*
G54D11*
D03*
X-577850Y-927100D02*
G54D10*
D03*
X-577850Y-952500D02*
G54D10*
D03*
X-577850Y-977900D02*
G54D10*
D03*
X-488950Y-844550D02*
G54D10*
D03*
X-581025Y-844550D02*
G54D10*
D03*
X-571500Y-793750D02*
G54D10*
D03*
X-606425Y-654050D02*
G54D10*
D03*
X-647700Y-844550D02*
G54D10*
D03*
X-533400Y-717550D02*
G54D10*
D03*
X-533400Y-742950D02*
G54D10*
D03*
X-488950Y-793750D02*
G54D10*
D03*
X-488950Y-717550D02*
G54D10*
D03*
X-488950Y-742950D02*
G54D10*
D03*
X-615950Y-508000D02*
G54D10*
D03*
X-615950Y-584200D02*
G54D10*
D03*
X-590550Y-584200D02*
G54D10*
D03*
X-539750Y-584200D02*
G54D10*
D03*
X-565150Y-584200D02*
G54D10*
D03*
X-565150Y-508000D02*
G54D10*
D03*
X-539750Y-508000D02*
G54D10*
D03*
X-565150Y-469900D02*
G54D11*
D03*
X-660400Y-793750D02*
G54D10*
D03*
X-685800Y-869950D02*
G54D10*
D03*
X-387350Y-279400D02*
G54D13*
D03*
X-412750Y-279400D02*
G54D13*
D03*
X-412750Y-254000D02*
G54D13*
D03*
X-387350Y-254000D02*
G54D13*
D03*
X-387350Y-228600D02*
G54D13*
D03*
X-412750Y-228600D02*
G54D13*
D03*
X-412750Y-203200D02*
G54D13*
D03*
X-387350Y-203200D02*
G54D13*
D03*
X-387350Y-177800D02*
G54D13*
D03*
G36*
X-401750Y-182365D02*
X-408185Y-188800D01*
X-417315Y-188800D01*
X-423750Y-182365D01*
X-423750Y-173235D01*
X-417315Y-166800D01*
X-408185Y-166800D01*
X-401750Y-173235D01*
X-401750Y-182365D01*
G37*
X-565150Y-444500D02*
G54D11*
D03*
X-514350Y-412750D02*
G54D11*
D03*
X-488950Y-412750D02*
G54D11*
D03*
X-666750Y-444500D02*
G54D11*
D03*
X-666750Y-469900D02*
G54D11*
D03*
X-666750Y-412750D02*
G54D11*
D03*
X-641350Y-412750D02*
G54D11*
D03*
X-615950Y-228600D02*
G54D10*
D03*
X-463550Y-260350D02*
G54D10*
D03*
X-514350Y-260350D02*
G54D10*
D03*
X-488950Y-152400D02*
G54D10*
D03*
X-304800Y-361950D02*
G54D10*
D03*
X-279400Y-273050D02*
G54D10*
D03*
X-215900Y-533400D02*
G54D10*
D03*
X-266700Y-546100D02*
G54D10*
D03*
X-609600Y-1409700D02*
G54D10*
D03*
X-609600Y-1511300D02*
G54D10*
D03*
X-546100Y-1384300D02*
G54D10*
D03*
X-546100Y-1524000D02*
G54D10*
D03*
X-609600Y-1460500D02*
G54D10*
D03*
X-330200Y-1657350D02*
G54D10*
D03*
X-682625Y-1339850D02*
G54D14*
D03*
X-682625Y-1327150D02*
G54D14*
D03*
X-682625Y-1352550D02*
G54D14*
D03*
X-695325Y-1327150D02*
G54D14*
D03*
X-695325Y-1339850D02*
G54D14*
D03*
X-695325Y-1352550D02*
G54D14*
D03*
G36*
X-698500Y-1327150D02*
X-695325Y-1323975D01*
X-682625Y-1323975D01*
X-679450Y-1327150D01*
X-679450Y-1352550D01*
X-682625Y-1355725D01*
X-695325Y-1355725D01*
X-698500Y-1352550D01*
X-698500Y-1327150D01*
G37*
G54D15*
X-698500Y-1327150D02*
X-695325Y-1323975D01*
X-682625Y-1323975D01*
X-679450Y-1327150D01*
X-679450Y-1352550D01*
X-682625Y-1355725D01*
X-695325Y-1355725D01*
X-698500Y-1352550D01*
X-698500Y-1327150D01*
X-368300Y-469900D02*
G54D10*
D03*
X-666750Y-609600D02*
G54D10*
D03*
X-539750Y-679450D02*
G54D10*
D03*
X-501650Y-977900D02*
G54D10*
D03*
X-501650Y-952500D02*
G54D10*
D03*
X-685800Y-1536700D02*
G54D10*
D03*
X-685800Y-1377950D02*
G54D11*
D03*
M02*
