%FSLAX34Y34*%
%MOMM*%
%LNCOPPER_TOP*%
G71*
G01*
%ADD10C, 0.50*%
%ADD11C, 1.80*%
%ADD12C, 1.00*%
%ADD13C, 2.00*%
%ADD14C, 1.20*%
%ADD15C, 2.00*%
%ADD16C, 1.00*%
%LPD*%
G54D10*
X-254000Y-165100D02*
X-234950Y-184150D01*
X-234950Y-196850D01*
X-215900Y-215900D01*
X-330200Y-165100D02*
G54D11*
D03*
X-254000Y-165100D02*
G54D11*
D03*
X-215900Y-215900D02*
G54D11*
D03*
X-215900Y-241300D02*
G54D11*
D03*
G54D10*
X-254000Y-723900D02*
X-234950Y-742950D01*
X-234950Y-755650D01*
X-215900Y-774700D01*
X-330200Y-723900D02*
G54D11*
D03*
X-254000Y-723900D02*
G54D11*
D03*
X-215900Y-774700D02*
G54D11*
D03*
X-215900Y-800100D02*
G54D11*
D03*
X-330200Y-622300D02*
G54D11*
D03*
X-215900Y-622300D02*
G54D11*
D03*
G54D10*
X-330200Y-622300D02*
X-317500Y-622300D01*
X-279400Y-660400D01*
X-241300Y-660400D01*
X-234950Y-654050D01*
X-234950Y-628650D01*
X-228600Y-622300D01*
X-215900Y-622300D01*
X-330200Y-63500D02*
G54D11*
D03*
X-215900Y-63500D02*
G54D11*
D03*
G54D10*
X-330200Y-63500D02*
X-276225Y-63500D01*
X-263525Y-76200D01*
X-244475Y-76200D01*
X-231775Y-63500D01*
X-215900Y-63500D01*
X-304800Y-438150D02*
G54D11*
D03*
X-406400Y-361950D02*
G54D11*
D03*
X-419100Y-546100D02*
G54D11*
D03*
G54D10*
X-304800Y-438150D02*
X-304800Y-425450D01*
X-301625Y-422275D01*
X-247650Y-422275D01*
X-238125Y-431800D01*
X-215900Y-431800D01*
X-215900Y-406400D02*
G54D11*
D03*
X-539750Y-361950D02*
G54D11*
D03*
G54D10*
X-279400Y-361950D02*
X-279400Y-374650D01*
X-247650Y-406400D01*
X-215900Y-406400D01*
X-279400Y-361950D02*
G54D11*
D03*
X-215900Y-431800D02*
G54D11*
D03*
X-215900Y-565150D02*
G54D11*
D03*
G54D12*
X-266700Y-571500D02*
X-266700Y-596900D01*
X-254000Y-609600D01*
X-254000Y-622300D01*
X-254000Y-622300D02*
G54D11*
D03*
G54D10*
X-139700Y-266700D02*
X-139700Y-279400D01*
X-123825Y-295275D01*
X-123825Y-333375D01*
X-133350Y-342900D01*
X-146050Y-342900D01*
X-155575Y-352425D01*
X-155575Y-533400D01*
X-180975Y-558800D01*
X-180975Y-584200D01*
X-171450Y-593725D01*
X-171450Y-838200D01*
G54D10*
X-139700Y-533400D02*
X-155575Y-533400D01*
G54D12*
X-368300Y-609600D02*
X-355600Y-596900D01*
X-266700Y-596900D01*
X-368300Y-609600D02*
G54D11*
D03*
X-266700Y-469900D02*
G54D11*
D03*
X-444500Y-546100D02*
G54D11*
D03*
X-419100Y-469900D02*
G54D11*
D03*
X-254000Y-361950D02*
G54D11*
D03*
X-444500Y-635000D02*
G54D11*
D03*
X-444500Y-660400D02*
G54D11*
D03*
X-368300Y-787400D02*
G54D11*
D03*
X-368300Y-876300D02*
G54D11*
D03*
X-444500Y-927100D02*
G54D11*
D03*
X-444500Y-876300D02*
G54D11*
D03*
G54D10*
X-349250Y-901700D02*
X-349250Y-806450D01*
X-368300Y-787400D01*
G54D10*
X-444500Y-660400D02*
X-431800Y-660400D01*
X-428625Y-663575D01*
X-428625Y-873125D01*
X-431800Y-876300D01*
X-444500Y-876300D01*
G54D10*
X-266700Y-469900D02*
X-282575Y-485775D01*
X-323850Y-485775D01*
X-333375Y-495300D01*
X-406400Y-495300D01*
X-444500Y-533400D01*
X-444500Y-546100D01*
G54D12*
X-330200Y-1098550D02*
X-304800Y-1098550D01*
X-279400Y-1073150D01*
X-254000Y-1073150D01*
X-368300Y-901700D02*
G54D11*
D03*
G54D10*
X-419100Y-546100D02*
X-419100Y-533400D01*
X-390525Y-504825D01*
X-330200Y-504825D01*
X-320675Y-495300D01*
X-250825Y-495300D01*
X-225425Y-469900D01*
X-206375Y-469900D01*
X-200025Y-463550D01*
X-200025Y-422275D01*
X-215900Y-406400D01*
X-355600Y-438150D02*
G54D11*
D03*
X-444500Y-977900D02*
G54D11*
D03*
G54D10*
X-444500Y-977900D02*
X-431800Y-977900D01*
X-419100Y-965200D01*
X-419100Y-673100D01*
X-330200Y-673100D01*
X-330200Y-673100D02*
G54D11*
D03*
X-330200Y-114300D02*
G54D11*
D03*
X-444500Y-1003300D02*
G54D11*
D03*
G54D10*
X-330200Y-965200D02*
X-266700Y-901700D01*
X-215900Y-901700D01*
G54D10*
X-254000Y-990600D02*
X-241300Y-990600D01*
X-234950Y-984250D01*
X-234950Y-933450D01*
X-228600Y-927100D01*
X-215900Y-927100D01*
X-330200Y-965200D02*
G54D11*
D03*
X-215900Y-901700D02*
G54D11*
D03*
G54D10*
X-330200Y-863600D02*
X-288925Y-863600D01*
X-263525Y-838200D01*
X-234950Y-838200D01*
X-231775Y-841375D01*
X-212725Y-841375D01*
G54D10*
X-190500Y-831850D02*
X-209550Y-850900D01*
X-234950Y-850900D01*
X-238125Y-847725D01*
X-260350Y-847725D01*
X-301625Y-889000D01*
X-330200Y-889000D01*
X-330200Y-863600D02*
G54D11*
D03*
X-330200Y-889000D02*
G54D11*
D03*
G54D10*
X-215900Y-596900D02*
X-206375Y-596900D01*
X-200025Y-603250D01*
X-200025Y-828675D01*
X-212725Y-841375D01*
X-215900Y-596900D02*
G54D11*
D03*
X-215900Y-304800D02*
G54D11*
D03*
X-215900Y-38100D02*
G54D11*
D03*
G54D10*
X-330200Y-914400D02*
X-304800Y-914400D01*
X-266700Y-876300D01*
X-241300Y-876300D01*
X-225425Y-860425D01*
X-206375Y-860425D01*
X-180975Y-835025D01*
G54D10*
X-190500Y-831850D02*
X-190500Y-600075D01*
X-200025Y-590550D01*
G54D10*
X-200025Y-590550D02*
X-200025Y-476250D01*
X-190500Y-466725D01*
X-190500Y-419100D01*
X-200025Y-409575D01*
X-200025Y-311150D01*
X-206375Y-304800D01*
X-215900Y-304800D01*
G54D10*
X-180975Y-835025D02*
X-180975Y-596900D01*
X-190500Y-587375D01*
X-190500Y-479425D01*
X-180975Y-469900D01*
X-180975Y-415925D01*
X-190500Y-406400D01*
X-190500Y-149225D01*
X-200025Y-139700D01*
X-200025Y-44450D01*
X-206375Y-38100D01*
X-215900Y-38100D01*
X-330200Y-914400D02*
G54D11*
D03*
G54D10*
X-330200Y-114300D02*
X-342900Y-114300D01*
X-346075Y-117475D01*
X-346075Y-196850D01*
X-339725Y-203200D01*
X-320675Y-203200D01*
X-314325Y-209550D01*
X-314325Y-222250D01*
X-304800Y-231775D01*
X-304800Y-282575D01*
X-342900Y-320675D01*
X-342900Y-409575D01*
X-355600Y-422275D01*
X-355600Y-438150D01*
G54D10*
X-355600Y-438150D02*
X-355600Y-450850D01*
X-352425Y-454025D01*
X-336550Y-454025D01*
X-330200Y-460375D01*
X-330200Y-479425D01*
X-336550Y-485775D01*
X-409575Y-485775D01*
X-460375Y-536575D01*
X-460375Y-565150D01*
X-419100Y-606425D01*
X-419100Y-673100D01*
G54D10*
X-368300Y-901700D02*
X-349250Y-901700D01*
X-349250Y-993775D01*
X-339725Y-1003300D01*
X-304800Y-1003300D01*
X-279400Y-1028700D01*
X-244475Y-1028700D01*
X-234950Y-1019175D01*
X-234950Y-1000125D01*
X-225425Y-990600D01*
X-206375Y-990600D01*
X-200025Y-984250D01*
X-200025Y-866775D01*
X-171450Y-838200D01*
X-139700Y-825500D02*
G54D11*
D03*
X-292100Y-571500D02*
G54D11*
D03*
X-419100Y-571500D02*
G54D11*
D03*
X-330200Y-800100D02*
G54D11*
D03*
X-279400Y-831850D02*
G54D11*
D03*
G54D12*
X-330200Y-800100D02*
X-320675Y-800100D01*
X-288925Y-831850D01*
X-279400Y-831850D01*
X-254000Y-990600D02*
G54D11*
D03*
X-215900Y-927100D02*
G54D11*
D03*
X-368300Y-1035050D02*
G54D13*
D03*
X-444500Y-469900D02*
G54D11*
D03*
X-330200Y-273050D02*
G54D11*
D03*
G54D12*
X-406400Y-361950D02*
X-406400Y-349250D01*
X-330200Y-273050D01*
G54D12*
X-266700Y-571500D02*
X-244475Y-571500D01*
X-238125Y-565150D01*
X-215900Y-565150D01*
X-123825Y-508000D02*
G54D14*
D03*
X-111125Y-495300D02*
G54D14*
D03*
X-98425Y-482600D02*
G54D14*
D03*
X-85725Y-469900D02*
G54D14*
D03*
X-73025Y-457200D02*
G54D14*
D03*
X-60325Y-444500D02*
G54D14*
D03*
X-47625Y-431800D02*
G54D14*
D03*
X-34925Y-419100D02*
G54D14*
D03*
G54D10*
X-139700Y-241300D02*
X-127000Y-241300D01*
X-114300Y-254000D01*
X-114300Y-336550D01*
X-123825Y-346075D01*
X-123825Y-508000D01*
X-123825Y-1079500D01*
G54D10*
X-111125Y-1066800D02*
X-111125Y-495300D01*
X-111125Y-346075D01*
X-104775Y-339725D01*
X-104775Y-238125D01*
X-127000Y-215900D01*
X-139700Y-215900D01*
G54D10*
X-139700Y-190500D02*
X-127000Y-190500D01*
X-95250Y-222250D01*
X-95250Y-346075D01*
X-98425Y-349250D01*
X-98425Y-482600D01*
X-98425Y-1054100D01*
G54D10*
X-139700Y-165100D02*
X-127000Y-165100D01*
X-85725Y-206375D01*
X-85725Y-1041400D01*
G54D10*
X-139700Y-139700D02*
X-127000Y-139700D01*
X-73025Y-193675D01*
X-73025Y-1028700D01*
G54D10*
X-60325Y-1016000D02*
X-60325Y-180975D01*
X-127000Y-114300D01*
X-139700Y-114300D01*
G54D10*
X-139700Y-88900D02*
X-127000Y-88900D01*
X-47625Y-168275D01*
X-47625Y-1003300D01*
G54D10*
X-139700Y-63500D02*
X-127000Y-63500D01*
X-34925Y-155575D01*
X-34925Y-990600D01*
X-139700Y-63500D02*
G54D11*
D03*
X-139700Y-88900D02*
G54D11*
D03*
X-139700Y-114300D02*
G54D11*
D03*
X-139700Y-139700D02*
G54D11*
D03*
X-139700Y-165100D02*
G54D11*
D03*
X-139700Y-190500D02*
G54D11*
D03*
X-139700Y-215900D02*
G54D11*
D03*
X-139700Y-241300D02*
G54D11*
D03*
X-123825Y-800100D02*
G54D14*
D03*
X-111125Y-787400D02*
G54D14*
D03*
X-98425Y-774700D02*
G54D14*
D03*
X-85725Y-762000D02*
G54D14*
D03*
X-73025Y-749300D02*
G54D14*
D03*
X-60325Y-736600D02*
G54D14*
D03*
X-47625Y-723900D02*
G54D14*
D03*
X-34925Y-711200D02*
G54D14*
D03*
X-123825Y-1079500D02*
G54D14*
D03*
X-111125Y-1066800D02*
G54D14*
D03*
X-98425Y-1054100D02*
G54D14*
D03*
X-85725Y-1041400D02*
G54D14*
D03*
X-73025Y-1028700D02*
G54D14*
D03*
X-60325Y-1016000D02*
G54D14*
D03*
X-47625Y-1003300D02*
G54D14*
D03*
X-34925Y-990600D02*
G54D14*
D03*
X-139700Y-266700D02*
G54D11*
D03*
X-139700Y-533400D02*
G54D11*
D03*
G54D10*
X-139700Y-825500D02*
X-171450Y-825500D01*
X-139700Y-304800D02*
G54D11*
D03*
G54D12*
X-139700Y-304800D02*
X-161925Y-282575D01*
X-161925Y-38100D01*
X-139700Y-38100D01*
X-139700Y-38100D02*
G54D11*
D03*
X-165100Y-565150D02*
G54D11*
D03*
X-139700Y-596900D02*
G54D11*
D03*
G54D12*
X-165100Y-565150D02*
X-152400Y-577850D01*
X-152400Y-584200D01*
X-139700Y-596900D01*
X-361950Y-1473200D02*
G54D11*
D03*
X-254000Y-1473200D02*
G54D11*
D03*
X-254000Y-1498600D02*
G54D11*
D03*
X-361950Y-1498600D02*
G54D11*
D03*
X-469900Y-1473200D02*
G54D11*
D03*
X-469900Y-1498600D02*
G54D11*
D03*
X-546100Y-1435100D02*
G54D11*
D03*
X-546100Y-1409700D02*
G54D11*
D03*
X-438150Y-1435100D02*
G54D11*
D03*
X-438150Y-1409700D02*
G54D11*
D03*
G54D10*
X-546100Y-1409700D02*
X-488950Y-1409700D01*
X-476250Y-1422400D01*
X-463550Y-1422400D01*
X-450850Y-1409700D01*
X-438150Y-1409700D01*
X-330200Y-1435100D02*
G54D11*
D03*
X-330200Y-1409700D02*
G54D11*
D03*
G54D10*
X-438150Y-1409700D02*
X-381000Y-1409700D01*
X-368300Y-1422400D01*
X-355600Y-1422400D01*
X-342900Y-1409700D01*
X-330200Y-1409700D01*
G36*
X-546100Y-1438275D02*
X-546100Y-1431925D01*
X-501650Y-1431925D01*
X-479425Y-1454150D01*
X-460375Y-1454150D01*
X-438150Y-1431925D01*
X-393700Y-1431925D01*
X-371475Y-1454150D01*
X-352425Y-1454150D01*
X-330200Y-1431925D01*
X-298450Y-1431925D01*
X-260350Y-1470025D01*
X-254000Y-1470025D01*
X-254000Y-1476375D01*
X-298450Y-1476375D01*
X-320675Y-1454150D01*
X-339725Y-1454150D01*
X-358775Y-1473200D01*
X-409575Y-1473200D01*
X-428625Y-1454150D01*
X-447675Y-1454150D01*
X-466725Y-1473200D01*
X-504825Y-1473200D01*
X-539750Y-1438275D01*
X-546100Y-1438275D01*
G37*
G54D12*
X-546100Y-1438275D02*
X-546100Y-1431925D01*
X-501650Y-1431925D01*
X-479425Y-1454150D01*
X-460375Y-1454150D01*
X-438150Y-1431925D01*
X-393700Y-1431925D01*
X-371475Y-1454150D01*
X-352425Y-1454150D01*
X-330200Y-1431925D01*
X-298450Y-1431925D01*
X-260350Y-1470025D01*
X-254000Y-1470025D01*
X-254000Y-1476375D01*
X-298450Y-1476375D01*
X-320675Y-1454150D01*
X-339725Y-1454150D01*
X-358775Y-1473200D01*
X-409575Y-1473200D01*
X-428625Y-1454150D01*
X-447675Y-1454150D01*
X-466725Y-1473200D01*
X-504825Y-1473200D01*
X-539750Y-1438275D01*
X-546100Y-1438275D01*
X-438150Y-1657350D02*
G54D11*
D03*
G54D10*
X-254000Y-1498600D02*
X-311150Y-1498600D01*
X-323850Y-1485900D01*
X-336550Y-1485900D01*
X-349250Y-1498600D01*
X-361950Y-1498600D01*
G54D10*
X-368300Y-876300D02*
X-381000Y-876300D01*
X-384175Y-879475D01*
X-384175Y-981075D01*
X-393700Y-990600D01*
X-393700Y-1022350D01*
X-381000Y-1035050D01*
X-368300Y-1035050D01*
X-368300Y-1066800D02*
G54D11*
D03*
G54D12*
X-444500Y-1003300D02*
X-431800Y-1003300D01*
X-368300Y-1066800D01*
X-520700Y-1117600D02*
G54D11*
D03*
X-355600Y-1143000D02*
G54D11*
D03*
X-304800Y-1219200D02*
G54D11*
D03*
X-520700Y-1143000D02*
G54D11*
D03*
X-279400Y-1219200D02*
G54D11*
D03*
X-406400Y-1219200D02*
G54D11*
D03*
X-330200Y-88900D02*
G54D11*
D03*
X-254000Y-1333500D02*
G54D11*
D03*
X-215900Y-1244600D02*
G54D11*
D03*
G54D10*
X-254000Y-1333500D02*
X-228600Y-1308100D01*
X-206375Y-1308100D01*
X-200025Y-1301750D01*
X-200025Y-1260475D01*
X-215900Y-1244600D01*
X-279400Y-1143000D02*
G54D11*
D03*
X-215900Y-1168400D02*
G54D11*
D03*
X-304800Y-1143000D02*
G54D11*
D03*
G54D10*
X-279400Y-1143000D02*
X-254000Y-1168400D01*
X-215900Y-1168400D01*
X-254000Y-1435100D02*
G54D11*
D03*
G54D10*
X-254000Y-1435100D02*
X-269875Y-1419225D01*
X-269875Y-1276350D01*
X-260350Y-1266825D01*
X-247650Y-1266825D01*
X-231775Y-1250950D01*
X-231775Y-1203325D01*
X-276225Y-1158875D01*
X-288925Y-1158875D01*
X-304800Y-1143000D01*
X-254000Y-1409700D02*
G54D11*
D03*
X-330200Y-1098550D02*
G54D13*
D03*
X-254000Y-1073150D02*
G54D13*
D03*
X-254000Y-1384300D02*
G54D11*
D03*
G54D10*
X-469900Y-1498600D02*
X-498475Y-1498600D01*
X-542925Y-1454150D01*
X-552450Y-1454150D01*
X-561975Y-1444625D01*
X-561975Y-1425575D01*
X-546100Y-1409700D01*
X-444500Y-1168400D02*
G54D11*
D03*
X-609600Y-1435100D02*
G54D11*
D03*
X-330200Y-1073150D02*
G54D13*
D03*
G54D10*
X-50800Y-1447800D02*
X-31750Y-1428750D01*
X-31750Y-1390650D01*
X-44450Y-1377950D01*
X-82550Y-1377950D01*
X-117475Y-1412875D01*
X-146050Y-1412875D01*
X-155575Y-1403350D01*
X-155575Y-1158875D01*
X-149225Y-1152525D01*
X-133350Y-1152525D01*
X-123825Y-1143000D01*
X-123825Y-1098550D01*
X-130175Y-1092200D01*
X-161925Y-1092200D01*
X-187325Y-1066800D01*
X-228600Y-1066800D01*
X-238125Y-1057275D01*
X-314325Y-1057275D01*
X-330200Y-1073150D01*
X-469900Y-1282700D02*
G54D11*
D03*
X-520700Y-1219200D02*
G54D11*
D03*
X-190500Y-1136650D02*
G54D11*
D03*
X-215900Y-1397000D02*
G54D11*
D03*
G54D12*
X-215900Y-1397000D02*
X-187325Y-1397000D01*
X-187325Y-1139825D01*
X-190500Y-1136650D01*
G54D12*
X-215900Y-1104900D02*
X-209550Y-1098550D01*
X-177800Y-1098550D01*
X-139700Y-1136650D01*
X-215900Y-1104900D02*
G54D11*
D03*
X-139700Y-1136650D02*
G54D11*
D03*
X-558800Y-1066800D02*
G54D11*
D03*
G54D10*
X-361950Y-1498600D02*
X-419100Y-1498600D01*
X-431800Y-1485900D01*
X-444500Y-1485900D01*
X-457200Y-1498600D01*
X-469900Y-1498600D01*
G54D12*
X-520700Y-1219200D02*
X-539750Y-1219200D01*
X-539750Y-1117600D01*
X-520700Y-1117600D01*
G54D10*
X-355600Y-1143000D02*
X-336550Y-1123950D01*
X-250825Y-1123950D01*
X-244475Y-1130300D01*
X-206375Y-1130300D01*
X-196850Y-1120775D01*
X-184150Y-1120775D01*
X-174625Y-1130300D01*
X-174625Y-1409700D01*
X-152400Y-1431925D01*
X-111125Y-1431925D01*
X-101600Y-1422400D01*
X-76200Y-1422400D01*
X-368300Y-977900D02*
G54D11*
D03*
G54D10*
X-368300Y-977900D02*
X-384175Y-993775D01*
X-384175Y-1012825D01*
X-377825Y-1019175D01*
X-358775Y-1019175D01*
X-349250Y-1028700D01*
X-349250Y-1104900D01*
X-339725Y-1114425D01*
X-247650Y-1114425D01*
X-241300Y-1120775D01*
X-209550Y-1120775D01*
X-200025Y-1111250D01*
X-180975Y-1111250D01*
X-165100Y-1127125D01*
X-165100Y-1406525D01*
X-149225Y-1422400D01*
X-114300Y-1422400D01*
X-88900Y-1397000D01*
X-76200Y-1397000D01*
G54D10*
X-520700Y-1092200D02*
X-504825Y-1108075D01*
X-504825Y-1133475D01*
X-495300Y-1143000D01*
X-495300Y-1203325D01*
X-454025Y-1244600D01*
X-434975Y-1244600D01*
X-425450Y-1235075D01*
X-307975Y-1235075D01*
X-304800Y-1231900D01*
X-304800Y-1219200D01*
G54D10*
X-279400Y-1219200D02*
X-279400Y-1241425D01*
X-288925Y-1250950D01*
X-288925Y-1260475D01*
X-295275Y-1266825D01*
X-371475Y-1266825D01*
X-400050Y-1295400D01*
X-454025Y-1295400D01*
X-454025Y-1276350D01*
X-463550Y-1266825D01*
X-476250Y-1266825D01*
X-485775Y-1257300D01*
X-485775Y-1225550D01*
X-504825Y-1206500D01*
X-504825Y-1146175D01*
X-508000Y-1143000D01*
X-520700Y-1143000D01*
G54D10*
X-406400Y-1219200D02*
X-422275Y-1219200D01*
X-438150Y-1235075D01*
X-450850Y-1235075D01*
X-485775Y-1200150D01*
X-485775Y-1000125D01*
X-469900Y-984250D01*
X-469900Y-581025D01*
X-479425Y-571500D01*
X-479425Y-530225D01*
X-460375Y-511175D01*
X-460375Y-463550D01*
X-368300Y-371475D01*
X-368300Y-333375D01*
X-314325Y-279400D01*
X-314325Y-234950D01*
X-320675Y-228600D01*
X-339725Y-228600D01*
X-346075Y-222250D01*
X-346075Y-209550D01*
X-355600Y-200025D01*
X-355600Y-114300D01*
X-330200Y-88900D01*
X-76200Y-1174750D02*
G54D15*
D03*
X-50800Y-1174750D02*
G54D15*
D03*
X-50800Y-1200150D02*
G54D15*
D03*
X-76200Y-1200150D02*
G54D15*
D03*
X-76200Y-1225550D02*
G54D15*
D03*
X-50800Y-1225550D02*
G54D15*
D03*
X-50800Y-1250950D02*
G54D15*
D03*
X-76200Y-1250950D02*
G54D15*
D03*
X-76200Y-1276350D02*
G54D15*
D03*
G36*
X-60800Y-1272200D02*
X-54950Y-1266350D01*
X-46650Y-1266350D01*
X-40800Y-1272200D01*
X-40800Y-1280500D01*
X-46650Y-1286350D01*
X-54950Y-1286350D01*
X-60800Y-1280500D01*
X-60800Y-1272200D01*
G37*
X-76200Y-1397000D02*
G54D15*
D03*
X-50800Y-1397000D02*
G54D15*
D03*
X-50800Y-1422400D02*
G54D15*
D03*
X-76200Y-1422400D02*
G54D15*
D03*
X-76200Y-1447800D02*
G54D15*
D03*
X-50800Y-1447800D02*
G54D15*
D03*
X-50800Y-1473200D02*
G54D15*
D03*
X-76200Y-1473200D02*
G54D15*
D03*
X-76200Y-1498600D02*
G54D15*
D03*
G36*
X-60800Y-1494450D02*
X-54950Y-1488600D01*
X-46650Y-1488600D01*
X-40800Y-1494450D01*
X-40800Y-1502750D01*
X-46650Y-1508600D01*
X-54950Y-1508600D01*
X-60800Y-1502750D01*
X-60800Y-1494450D01*
G37*
G54D10*
X-139700Y-1371600D02*
X-123825Y-1355725D01*
X-123825Y-1317625D01*
X-114300Y-1308100D01*
X-114300Y-1270000D01*
X-104775Y-1260475D01*
X-104775Y-1222375D01*
X-95250Y-1212850D01*
X-95250Y-1168400D01*
X-85725Y-1158875D01*
X-85725Y-1041400D01*
G54D10*
X-139700Y-1320800D02*
X-123825Y-1304925D01*
X-123825Y-1266825D01*
X-114300Y-1257300D01*
X-114300Y-1219200D01*
X-104775Y-1209675D01*
X-104775Y-1165225D01*
X-95250Y-1155700D01*
X-95250Y-1057275D01*
X-98425Y-1054100D01*
G54D10*
X-139700Y-1270000D02*
X-123825Y-1254125D01*
X-123825Y-1216025D01*
X-114300Y-1206500D01*
X-114300Y-1158875D01*
X-104775Y-1149350D01*
X-104775Y-1073150D01*
X-111125Y-1066800D01*
G54D10*
X-123825Y-1079500D02*
X-114300Y-1089025D01*
X-114300Y-1146175D01*
X-123825Y-1155700D01*
X-123825Y-1203325D01*
X-139700Y-1219200D01*
G54D10*
X-73025Y-1028700D02*
X-73025Y-1152525D01*
X-57150Y-1168400D01*
G54D10*
X-60325Y-1016000D02*
X-60325Y-1139825D01*
X-34925Y-1165225D01*
X-34925Y-1184275D01*
X-50800Y-1200150D01*
G54D10*
X-47625Y-1003300D02*
X-47625Y-1139825D01*
X-25400Y-1162050D01*
X-25400Y-1196975D01*
X-50800Y-1225550D01*
G54D10*
X-50800Y-1250950D02*
X-15875Y-1216025D01*
X-15875Y-1158875D01*
X-34925Y-1139825D01*
X-34925Y-990600D01*
X-190500Y-1485900D02*
G54D15*
D03*
X-165100Y-1485900D02*
G54D15*
D03*
X-165100Y-1511300D02*
G54D15*
D03*
X-190500Y-1511300D02*
G54D15*
D03*
X-190500Y-1536700D02*
G54D15*
D03*
X-165100Y-1536700D02*
G54D15*
D03*
X-165100Y-1562100D02*
G54D15*
D03*
X-190500Y-1562100D02*
G54D15*
D03*
X-190500Y-1587500D02*
G54D15*
D03*
G36*
X-175100Y-1583350D02*
X-169250Y-1577500D01*
X-160950Y-1577500D01*
X-155100Y-1583350D01*
X-155100Y-1591650D01*
X-160950Y-1597500D01*
X-169250Y-1597500D01*
X-175100Y-1591650D01*
X-175100Y-1583350D01*
G37*
X-139700Y-1219200D02*
G54D11*
D03*
X-139700Y-1270000D02*
G54D11*
D03*
X-139700Y-1320800D02*
G54D11*
D03*
X-139700Y-1371600D02*
G54D11*
D03*
G54D10*
X-254000Y-1409700D02*
X-241300Y-1409700D01*
X-228600Y-1422400D01*
X-212725Y-1422400D01*
X-168275Y-1466850D01*
X-155575Y-1466850D01*
X-146050Y-1476375D01*
X-146050Y-1492250D01*
X-165100Y-1511300D01*
G54D10*
X-254000Y-1384300D02*
X-225425Y-1412875D01*
X-209550Y-1412875D01*
X-165100Y-1457325D01*
X-152400Y-1457325D01*
X-136525Y-1473200D01*
X-136525Y-1508125D01*
X-165100Y-1536700D01*
G54D10*
X-254000Y-1498600D02*
X-228600Y-1498600D01*
X-215900Y-1485900D01*
X-190500Y-1485900D01*
G54D10*
X-558800Y-1244600D02*
X-577850Y-1244600D01*
X-600075Y-1266825D01*
X-600075Y-1285875D01*
X-593725Y-1292225D01*
X-593725Y-1349375D01*
X-603250Y-1358900D01*
X-615950Y-1358900D01*
X-641350Y-1384300D01*
X-641350Y-1511300D01*
X-625475Y-1527175D01*
X-625475Y-1543050D01*
X-619125Y-1549400D01*
X-568325Y-1549400D01*
X-555625Y-1562100D01*
X-533400Y-1562100D01*
X-508000Y-1536700D01*
X-190500Y-1536700D01*
X-444500Y-1092200D02*
G54D11*
D03*
X-330200Y-1625600D02*
G54D11*
D03*
G54D12*
X-190500Y-1562100D02*
X-203200Y-1562100D01*
X-234950Y-1593850D01*
X-234950Y-1635125D01*
X-244475Y-1644650D01*
X-263525Y-1644650D01*
X-282575Y-1625600D01*
X-330200Y-1625600D01*
G54D12*
X-546100Y-1657350D02*
X-523875Y-1657350D01*
X-504825Y-1638300D01*
X-485775Y-1638300D01*
X-466725Y-1657350D01*
X-438150Y-1657350D01*
G54D12*
X-187325Y-1397000D02*
X-187325Y-1416050D01*
X-158750Y-1444625D01*
X-146050Y-1444625D01*
X-92075Y-1498600D01*
X-76200Y-1498600D01*
X-590550Y-508000D02*
G54D11*
D03*
X-215900Y-266700D02*
G54D11*
D03*
G54D12*
X-444500Y-1003300D02*
X-457200Y-1003300D01*
X-463550Y-1009650D01*
X-463550Y-1162050D01*
X-457200Y-1168400D01*
X-447675Y-1168400D01*
X-361950Y-1250950D02*
G54D11*
D03*
G54D12*
X-469900Y-1250950D02*
X-463550Y-1250950D01*
X-447675Y-1266825D01*
X-403225Y-1266825D01*
X-387350Y-1250950D01*
X-361950Y-1250950D01*
X-469900Y-1250950D02*
G54D11*
D03*
G54D10*
X-165100Y-1485900D02*
X-196850Y-1454150D01*
X-257175Y-1454150D01*
X-279400Y-1431925D01*
G54D10*
X-279400Y-1431925D02*
X-279400Y-1254125D01*
X-260350Y-1235075D01*
X-247650Y-1235075D01*
X-241300Y-1228725D01*
X-241300Y-1206500D01*
X-279400Y-1168400D01*
X-377825Y-1168400D01*
X-393700Y-1152525D01*
X-393700Y-1130300D01*
X-406400Y-1117600D01*
X-406400Y-1095375D01*
X-412750Y-1089025D01*
X-425450Y-1089025D01*
X-428625Y-1092200D01*
X-444500Y-1092200D01*
X-546100Y-1657350D02*
G54D11*
D03*
G54D12*
X-438150Y-1657350D02*
X-415925Y-1657350D01*
X-396875Y-1638300D01*
X-377825Y-1638300D01*
X-358775Y-1657350D01*
X-330200Y-1657350D01*
G54D10*
X-50800Y-1473200D02*
X-31750Y-1492250D01*
X-31750Y-1508125D01*
X-41275Y-1517650D01*
X-130175Y-1517650D01*
X-146050Y-1533525D01*
X-146050Y-1597025D01*
X-155575Y-1606550D01*
X-215900Y-1606550D01*
X-222250Y-1612900D01*
X-222250Y-1638300D01*
X-241300Y-1657350D01*
X-254000Y-1657350D01*
X-269875Y-1673225D01*
X-288925Y-1673225D01*
X-320675Y-1641475D01*
X-339725Y-1641475D01*
X-346075Y-1635125D01*
X-346075Y-1593850D01*
X-352425Y-1587500D01*
X-555625Y-1587500D01*
X-565150Y-1577975D01*
X-615950Y-1577975D01*
X-635000Y-1558925D01*
X-635000Y-1530350D01*
X-650875Y-1514475D01*
X-650875Y-1381125D01*
X-625475Y-1355725D01*
X-625475Y-1292225D01*
X-609600Y-1276350D01*
X-609600Y-1263650D01*
X-574675Y-1228725D01*
X-574675Y-1209675D01*
X-558800Y-1193800D01*
X-635000Y-1143000D02*
G54D11*
D03*
X-558800Y-1143000D02*
G54D11*
D03*
G54D10*
X-635000Y-1143000D02*
X-558800Y-1143000D01*
X-558800Y-1244600D02*
G54D11*
D03*
X-558800Y-1193800D02*
G54D11*
D03*
G54D12*
X-558800Y-1066800D02*
X-546100Y-1066800D01*
X-539750Y-1073150D01*
X-539750Y-1117600D01*
X-558800Y-1117600D02*
G54D11*
D03*
G54D12*
X-304800Y-25400D02*
X-282575Y-25400D01*
X-263525Y-44450D01*
X-244475Y-44450D01*
X-234950Y-34925D01*
X-234950Y-25400D01*
X-225425Y-15875D01*
X-206375Y-15875D01*
X-184150Y-38100D01*
X-161925Y-38100D01*
X-304800Y-25400D02*
G54D11*
D03*
X-520700Y-1092200D02*
G54D11*
D03*
X-520700Y-1066800D02*
G54D11*
D03*
X-609600Y-952500D02*
G54D11*
D03*
X-558800Y-768350D02*
G54D11*
D03*
X-508000Y-1009650D02*
G54D13*
D03*
G54D10*
X-501650Y-977900D02*
X-533400Y-977900D01*
X-565150Y-1009650D01*
X-565150Y-1044575D01*
X-577850Y-1057275D01*
X-577850Y-1111250D01*
X-571500Y-1117600D01*
X-558800Y-1117600D01*
G54D10*
X-520700Y-1066800D02*
X-520700Y-1047750D01*
X-523875Y-1044575D01*
X-523875Y-1025525D01*
X-508000Y-1009650D01*
X-577850Y-927100D02*
G54D11*
D03*
G54D10*
X-577850Y-927100D02*
X-587375Y-927100D01*
X-600075Y-914400D01*
X-619125Y-914400D01*
X-625475Y-920750D01*
X-625475Y-1047750D01*
X-615950Y-1057275D01*
X-615950Y-1143000D01*
X-577850Y-952500D02*
G54D11*
D03*
X-577850Y-977900D02*
G54D11*
D03*
X-488950Y-844550D02*
G54D11*
D03*
G54D12*
X-577850Y-977900D02*
X-565150Y-977900D01*
X-549275Y-962025D01*
X-549275Y-889000D01*
X-581025Y-857250D01*
X-581025Y-844550D01*
X-581025Y-844550D02*
G54D11*
D03*
G54D10*
X-577850Y-952500D02*
X-565150Y-952500D01*
X-561975Y-949325D01*
X-561975Y-895350D01*
X-571500Y-885825D01*
X-695325Y-885825D01*
G36*
X-574675Y-822325D02*
X-498475Y-822325D01*
X-492125Y-828675D01*
X-492125Y-844550D01*
X-485775Y-844550D01*
X-485775Y-793750D01*
X-492125Y-793750D01*
X-492125Y-809625D01*
X-498475Y-815975D01*
X-561975Y-815975D01*
X-568325Y-809625D01*
X-568325Y-793750D01*
X-574675Y-793750D01*
X-574675Y-822325D01*
G37*
G54D12*
X-574675Y-822325D02*
X-498475Y-822325D01*
X-492125Y-828675D01*
X-492125Y-844550D01*
X-485775Y-844550D01*
X-485775Y-793750D01*
X-492125Y-793750D01*
X-492125Y-809625D01*
X-498475Y-815975D01*
X-561975Y-815975D01*
X-568325Y-809625D01*
X-568325Y-793750D01*
X-574675Y-793750D01*
X-574675Y-822325D01*
X-571500Y-793750D02*
G54D11*
D03*
X-606425Y-654050D02*
G54D11*
D03*
X-647700Y-844550D02*
G54D11*
D03*
X-533400Y-717550D02*
G54D11*
D03*
X-533400Y-742950D02*
G54D11*
D03*
X-488950Y-793750D02*
G54D11*
D03*
X-488950Y-717550D02*
G54D11*
D03*
X-488950Y-742950D02*
G54D11*
D03*
X-615950Y-508000D02*
G54D11*
D03*
X-615950Y-584200D02*
G54D11*
D03*
X-590550Y-584200D02*
G54D11*
D03*
X-539750Y-584200D02*
G54D11*
D03*
X-565150Y-584200D02*
G54D11*
D03*
X-565150Y-508000D02*
G54D11*
D03*
X-539750Y-508000D02*
G54D11*
D03*
X-565150Y-469900D02*
G54D13*
D03*
G54D12*
X-533400Y-717550D02*
X-488950Y-717550D01*
G54D12*
X-533400Y-742950D02*
X-488950Y-742950D01*
G36*
X-638175Y-819150D02*
X-622300Y-819150D01*
X-596900Y-793750D01*
X-596900Y-777875D01*
X-584200Y-765175D01*
X-558800Y-765175D01*
X-558800Y-771525D01*
X-581025Y-771525D01*
X-590550Y-781050D01*
X-590550Y-796925D01*
X-619125Y-825500D01*
X-635000Y-825500D01*
X-644525Y-835025D01*
X-644525Y-844550D01*
X-650875Y-844550D01*
X-650875Y-831850D01*
X-638175Y-819150D01*
G37*
G54D12*
X-638175Y-819150D02*
X-622300Y-819150D01*
X-596900Y-793750D01*
X-596900Y-777875D01*
X-584200Y-765175D01*
X-558800Y-765175D01*
X-558800Y-771525D01*
X-581025Y-771525D01*
X-590550Y-781050D01*
X-590550Y-796925D01*
X-619125Y-825500D01*
X-635000Y-825500D01*
X-644525Y-835025D01*
X-644525Y-844550D01*
X-650875Y-844550D01*
X-650875Y-831850D01*
X-638175Y-819150D01*
G54D12*
X-606425Y-654050D02*
X-593725Y-654050D01*
X-587375Y-660400D01*
X-587375Y-692150D01*
X-581025Y-698500D01*
X-552450Y-698500D01*
X-533400Y-717550D01*
X-660400Y-793750D02*
G54D11*
D03*
X-685800Y-869950D02*
G54D11*
D03*
G36*
X-612775Y-866775D02*
X-606425Y-860425D01*
X-606425Y-835025D01*
X-574675Y-803275D01*
X-568325Y-803275D01*
X-568325Y-822325D01*
X-584200Y-822325D01*
X-600075Y-838200D01*
X-600075Y-863600D01*
X-609600Y-873125D01*
X-685800Y-873125D01*
X-685800Y-866775D01*
X-612775Y-866775D01*
G37*
G54D12*
X-612775Y-866775D02*
X-606425Y-860425D01*
X-606425Y-835025D01*
X-574675Y-803275D01*
X-568325Y-803275D01*
X-568325Y-822325D01*
X-584200Y-822325D01*
X-600075Y-838200D01*
X-600075Y-863600D01*
X-609600Y-873125D01*
X-685800Y-873125D01*
X-685800Y-866775D01*
X-612775Y-866775D01*
X-387350Y-279400D02*
G54D15*
D03*
X-412750Y-279400D02*
G54D15*
D03*
X-412750Y-254000D02*
G54D15*
D03*
X-387350Y-254000D02*
G54D15*
D03*
X-387350Y-228600D02*
G54D15*
D03*
X-412750Y-228600D02*
G54D15*
D03*
X-412750Y-203200D02*
G54D15*
D03*
X-387350Y-203200D02*
G54D15*
D03*
X-387350Y-177800D02*
G54D15*
D03*
G36*
X-402750Y-181950D02*
X-408600Y-187800D01*
X-416900Y-187800D01*
X-422750Y-181950D01*
X-422750Y-173650D01*
X-416900Y-167800D01*
X-408600Y-167800D01*
X-402750Y-173650D01*
X-402750Y-181950D01*
G37*
X-565150Y-444500D02*
G54D13*
D03*
X-514350Y-412750D02*
G54D13*
D03*
X-488950Y-412750D02*
G54D13*
D03*
G54D10*
X-565150Y-508000D02*
X-565150Y-469900D01*
G54D10*
X-590550Y-508000D02*
X-590550Y-495300D01*
X-606425Y-479425D01*
X-606425Y-438150D01*
X-596900Y-428625D01*
X-581025Y-428625D01*
X-565150Y-444500D01*
X-666750Y-444500D02*
G54D13*
D03*
X-666750Y-469900D02*
G54D13*
D03*
G54D10*
X-539750Y-584200D02*
X-539750Y-571500D01*
X-561975Y-549275D01*
X-600075Y-549275D01*
X-625475Y-523875D01*
X-673100Y-523875D01*
X-682625Y-514350D01*
X-682625Y-498475D01*
X-673100Y-488950D01*
X-660400Y-488950D01*
G54D10*
X-565150Y-584200D02*
X-565150Y-571500D01*
X-577850Y-558800D01*
X-603250Y-558800D01*
X-628650Y-533400D01*
X-676275Y-533400D01*
X-692150Y-517525D01*
X-692150Y-495300D01*
X-666750Y-469900D01*
G54D10*
X-590550Y-584200D02*
X-590550Y-571500D01*
X-593725Y-568325D01*
X-606425Y-568325D01*
X-631825Y-542925D01*
X-679450Y-542925D01*
X-701675Y-520700D01*
X-701675Y-492125D01*
X-685800Y-476250D01*
X-685800Y-463550D01*
X-666750Y-444500D01*
G54D10*
X-660400Y-488950D02*
X-641350Y-469900D01*
X-641350Y-412750D01*
G54D10*
X-615950Y-587375D02*
X-615950Y-571500D01*
X-635000Y-552450D01*
X-682625Y-552450D01*
X-711200Y-523875D01*
X-711200Y-488950D01*
X-695325Y-473075D01*
X-695325Y-441325D01*
X-666750Y-412750D01*
X-666750Y-412750D02*
G54D13*
D03*
X-641350Y-412750D02*
G54D13*
D03*
G54D10*
X-615950Y-508000D02*
X-615950Y-434975D01*
X-600075Y-419100D01*
X-561975Y-419100D01*
X-549275Y-431800D01*
X-533400Y-431800D01*
X-514350Y-412750D01*
G54D10*
X-539750Y-508000D02*
X-539750Y-450850D01*
X-520700Y-431800D01*
X-508000Y-431800D01*
X-488950Y-412750D01*
X-615950Y-228600D02*
G54D11*
D03*
X-463550Y-260350D02*
G54D11*
D03*
G54D10*
X-660400Y-793750D02*
X-660400Y-765175D01*
X-701675Y-723900D01*
X-701675Y-711200D01*
X-688975Y-698500D01*
X-688975Y-558800D01*
X-720725Y-527050D01*
X-720725Y-485775D01*
X-704850Y-469900D01*
X-704850Y-425450D01*
X-654050Y-374650D01*
X-565150Y-374650D01*
X-552450Y-361950D01*
X-539750Y-361950D01*
G54D10*
X-695325Y-885825D02*
X-701675Y-879475D01*
X-701675Y-736600D01*
X-711200Y-727075D01*
X-711200Y-708025D01*
X-698500Y-695325D01*
X-698500Y-561975D01*
X-730250Y-530225D01*
X-730250Y-482600D01*
X-714375Y-466725D01*
X-714375Y-422275D01*
X-657225Y-365125D01*
X-641350Y-365125D01*
X-625475Y-349250D01*
X-603250Y-349250D01*
X-552450Y-298450D01*
X-527050Y-298450D01*
X-514350Y-285750D01*
X-476250Y-285750D01*
X-463550Y-273050D01*
X-463550Y-260350D01*
X-514350Y-260350D02*
G54D11*
D03*
G54D12*
X-514350Y-260350D02*
X-530225Y-244475D01*
X-600075Y-244475D01*
X-615950Y-228600D01*
X-488950Y-152400D02*
G54D11*
D03*
G54D12*
X-488950Y-152400D02*
X-488950Y-165100D01*
X-482600Y-171450D01*
X-438150Y-171450D01*
X-349250Y-82550D01*
X-349250Y-53975D01*
X-339725Y-44450D01*
X-323850Y-44450D01*
X-304800Y-25400D01*
X-304800Y-361950D02*
G54D11*
D03*
X-279400Y-273050D02*
G54D11*
D03*
G36*
X-307975Y-361950D02*
X-307975Y-304800D01*
X-282575Y-279400D01*
X-282575Y-273050D01*
X-273050Y-263525D01*
X-215900Y-263525D01*
X-215900Y-269875D01*
X-250825Y-304800D01*
X-250825Y-361950D01*
X-257175Y-361950D01*
X-257175Y-352425D01*
X-266700Y-342900D01*
X-292100Y-342900D01*
X-301625Y-352425D01*
X-301625Y-361950D01*
X-307975Y-361950D01*
G37*
G54D12*
X-307975Y-361950D02*
X-307975Y-304800D01*
X-282575Y-279400D01*
X-282575Y-273050D01*
X-273050Y-263525D01*
X-215900Y-263525D01*
X-215900Y-269875D01*
X-250825Y-304800D01*
X-250825Y-361950D01*
X-257175Y-361950D01*
X-257175Y-352425D01*
X-266700Y-342900D01*
X-292100Y-342900D01*
X-301625Y-352425D01*
X-301625Y-361950D01*
X-307975Y-361950D01*
G36*
X-368300Y-612775D02*
X-349250Y-612775D01*
X-339725Y-603250D01*
X-317500Y-603250D01*
X-295275Y-625475D01*
X-250825Y-625475D01*
X-234950Y-609600D01*
X-234950Y-587375D01*
X-212725Y-565150D01*
X-212725Y-533400D01*
X-215900Y-530225D01*
X-260350Y-530225D01*
X-273050Y-542925D01*
X-273050Y-555625D01*
X-285750Y-568325D01*
X-317500Y-568325D01*
X-336550Y-587375D01*
X-374650Y-587375D01*
X-393700Y-568325D01*
X-419100Y-568325D01*
X-422275Y-574675D01*
X-384175Y-612775D01*
X-368300Y-612775D01*
G37*
G54D12*
X-368300Y-612775D02*
X-349250Y-612775D01*
X-339725Y-603250D01*
X-317500Y-603250D01*
X-295275Y-625475D01*
X-250825Y-625475D01*
X-234950Y-609600D01*
X-234950Y-587375D01*
X-212725Y-565150D01*
X-212725Y-533400D01*
X-215900Y-530225D01*
X-260350Y-530225D01*
X-273050Y-542925D01*
X-273050Y-555625D01*
X-285750Y-568325D01*
X-317500Y-568325D01*
X-336550Y-587375D01*
X-374650Y-587375D01*
X-393700Y-568325D01*
X-419100Y-568325D01*
X-422275Y-574675D01*
X-384175Y-612775D01*
X-368300Y-612775D01*
X-215900Y-533400D02*
G54D11*
D03*
X-266700Y-546100D02*
G54D11*
D03*
G54D10*
X-215900Y-800100D02*
X-228600Y-787400D01*
X-266700Y-787400D01*
X-330200Y-723900D01*
G54D10*
X-215900Y-241300D02*
X-228600Y-228600D01*
X-266700Y-228600D01*
X-330200Y-165100D01*
X-609600Y-1409700D02*
G54D11*
D03*
X-609600Y-1511300D02*
G54D11*
D03*
G54D12*
X-609600Y-1511300D02*
X-622300Y-1511300D01*
X-628650Y-1504950D01*
X-628650Y-1441450D01*
X-622300Y-1435100D01*
X-609600Y-1435100D01*
X-609600Y-1409700D01*
X-546100Y-1384300D02*
G54D11*
D03*
X-546100Y-1524000D02*
G54D11*
D03*
G54D10*
X-546100Y-1524000D02*
X-561975Y-1508125D01*
X-561975Y-1457325D01*
X-571500Y-1447800D01*
X-571500Y-1422400D01*
X-561975Y-1412875D01*
X-561975Y-1400175D01*
X-546100Y-1384300D01*
G54D10*
X-454025Y-1295400D02*
X-454025Y-1311275D01*
X-463550Y-1320800D01*
X-552450Y-1320800D01*
X-561975Y-1330325D01*
X-561975Y-1387475D01*
X-571500Y-1397000D01*
X-571500Y-1409700D01*
X-581025Y-1419225D01*
X-581025Y-1444625D01*
X-596900Y-1460500D01*
X-609600Y-1460500D01*
X-609600Y-1460500D02*
G54D11*
D03*
X-330200Y-1657350D02*
G54D11*
D03*
X-682625Y-1339850D02*
G54D16*
D03*
X-682625Y-1327150D02*
G54D16*
D03*
X-682625Y-1352550D02*
G54D16*
D03*
X-695325Y-1327150D02*
G54D16*
D03*
X-695325Y-1339850D02*
G54D16*
D03*
X-695325Y-1352550D02*
G54D16*
D03*
G36*
X-698500Y-1327150D02*
X-695325Y-1323975D01*
X-682625Y-1323975D01*
X-679450Y-1327150D01*
X-679450Y-1352550D01*
X-682625Y-1355725D01*
X-695325Y-1355725D01*
X-698500Y-1352550D01*
X-698500Y-1327150D01*
G37*
G54D10*
X-698500Y-1327150D02*
X-695325Y-1323975D01*
X-682625Y-1323975D01*
X-679450Y-1327150D01*
X-679450Y-1352550D01*
X-682625Y-1355725D01*
X-695325Y-1355725D01*
X-698500Y-1352550D01*
X-698500Y-1327150D01*
G36*
X-628650Y-1450975D02*
X-628650Y-1422400D01*
X-581025Y-1374775D01*
X-581025Y-1301750D01*
X-565150Y-1285875D01*
X-565150Y-1314450D01*
X-574675Y-1323975D01*
X-574675Y-1381125D01*
X-584200Y-1390650D01*
X-584200Y-1403350D01*
X-593725Y-1412875D01*
X-593725Y-1438275D01*
X-596900Y-1441450D01*
X-619125Y-1441450D01*
X-628650Y-1450975D01*
G37*
G54D12*
X-628650Y-1450975D02*
X-628650Y-1422400D01*
X-581025Y-1374775D01*
X-581025Y-1301750D01*
X-565150Y-1285875D01*
X-565150Y-1314450D01*
X-574675Y-1323975D01*
X-574675Y-1381125D01*
X-584200Y-1390650D01*
X-584200Y-1403350D01*
X-593725Y-1412875D01*
X-593725Y-1438275D01*
X-596900Y-1441450D01*
X-619125Y-1441450D01*
X-628650Y-1450975D01*
G36*
X-469900Y-1285875D02*
X-514350Y-1285875D01*
X-536575Y-1263650D01*
X-536575Y-1257300D01*
X-527050Y-1266825D01*
X-514350Y-1266825D01*
X-504825Y-1257300D01*
X-482600Y-1279525D01*
X-469900Y-1279525D01*
X-469900Y-1285875D01*
G37*
G54D12*
X-469900Y-1285875D02*
X-514350Y-1285875D01*
X-536575Y-1263650D01*
X-536575Y-1257300D01*
X-527050Y-1266825D01*
X-514350Y-1266825D01*
X-504825Y-1257300D01*
X-482600Y-1279525D01*
X-469900Y-1279525D01*
X-469900Y-1285875D01*
G36*
X-539750Y-1254125D02*
X-549275Y-1263650D01*
X-536575Y-1263650D01*
X-536575Y-1244600D01*
X-527050Y-1235075D01*
X-498475Y-1235075D01*
X-498475Y-1231900D01*
X-514350Y-1216025D01*
X-530225Y-1216025D01*
X-539750Y-1206500D01*
X-539750Y-1254125D01*
G37*
G54D12*
X-539750Y-1254125D02*
X-549275Y-1263650D01*
X-536575Y-1263650D01*
X-536575Y-1244600D01*
X-527050Y-1235075D01*
X-498475Y-1235075D01*
X-498475Y-1231900D01*
X-514350Y-1216025D01*
X-530225Y-1216025D01*
X-539750Y-1206500D01*
X-539750Y-1254125D01*
G36*
X-498475Y-1263650D02*
X-498475Y-1235075D01*
X-514350Y-1235075D01*
X-504825Y-1244600D01*
X-504825Y-1257300D01*
X-498475Y-1263650D01*
G37*
G54D12*
X-498475Y-1263650D02*
X-498475Y-1235075D01*
X-514350Y-1235075D01*
X-504825Y-1244600D01*
X-504825Y-1257300D01*
X-498475Y-1263650D01*
G54D12*
X-565150Y-1285875D02*
X-565150Y-1273175D01*
X-555625Y-1263650D01*
X-549275Y-1263650D01*
X-368300Y-469900D02*
G54D11*
D03*
G54D10*
X-444500Y-469900D02*
X-428625Y-454025D01*
X-384175Y-454025D01*
X-368300Y-469900D01*
G54D10*
X-419100Y-469900D02*
X-419100Y-482600D01*
X-469900Y-533400D01*
X-469900Y-568325D01*
X-460375Y-577850D01*
X-460375Y-987425D01*
X-476250Y-1003300D01*
X-476250Y-1184275D01*
X-454025Y-1206500D01*
X-434975Y-1206500D01*
X-428625Y-1200150D01*
X-285750Y-1200150D01*
X-279400Y-1206500D01*
X-279400Y-1219200D01*
X-666750Y-609600D02*
G54D11*
D03*
X-539750Y-679450D02*
G54D11*
D03*
G54D12*
X-666750Y-609600D02*
X-644525Y-631825D01*
X-587375Y-631825D01*
X-539750Y-679450D01*
G54D10*
X-444500Y-635000D02*
X-460375Y-635000D01*
G54D10*
X-444500Y-927100D02*
X-460375Y-927100D01*
X-501650Y-977900D02*
G54D11*
D03*
X-501650Y-952500D02*
G54D11*
D03*
G54D10*
X-609600Y-952500D02*
X-596900Y-952500D01*
X-593725Y-955675D01*
X-593725Y-987425D01*
X-587375Y-993775D01*
X-561975Y-993775D01*
X-520700Y-952500D01*
X-501650Y-952500D01*
X-685800Y-1536700D02*
G54D11*
D03*
X-685800Y-1377950D02*
G54D13*
D03*
G54D10*
X-685800Y-1536700D02*
X-673100Y-1536700D01*
X-669925Y-1533525D01*
X-669925Y-1393825D01*
X-685800Y-1377950D01*
G36*
X-533400Y-1117600D02*
X-539750Y-1111250D01*
X-539750Y-1123950D01*
X-533400Y-1117600D01*
G37*
G54D12*
X-533400Y-1117600D02*
X-539750Y-1111250D01*
X-539750Y-1123950D01*
X-533400Y-1117600D01*
M02*
