; Drill file
; Format: 2.4 (00.0000)
M48
INCH
T01C0.0197
T02C0.0236
T03C0.0315
T04C0.0394
T05C0.1299
%
G05
G90
T01
X-027370Y-053250
X-026880Y-053250
X-026880Y-052750
X-026880Y-052250
X-027370Y-052250
X-027370Y-052750
X-004870Y-042500
X-004380Y-042000
X-003880Y-041500
X-003380Y-041000
X-002870Y-040500
X-002370Y-040000
X-001880Y-039500
X-001380Y-039000
X-004870Y-031500
X-004380Y-031000
X-003880Y-030500
X-003380Y-030000
X-002870Y-029500
X-002370Y-029000
X-001880Y-028500
X-001380Y-028000
X-004870Y-020000
X-004380Y-019500
X-003880Y-019000
X-003380Y-018500
X-002870Y-018000
X-002370Y-017500
X-001880Y-017000
X-001380Y-016500
T02
X-027000Y-061500
X-027000Y-060500
X-027000Y-059500
X-027000Y-058500
X-027000Y-057500
X-027000Y-056500
X-027000Y-055500
X-027000Y-054250
X-027000Y-051250
X-027000Y-050000
X-026000Y-050000
X-025000Y-050250
X-025000Y-049000
X-025000Y-048000
X-025000Y-047000
X-025000Y-046000
X-025000Y-045000
X-025000Y-044000
X-025000Y-043000
X-025000Y-042000
X-026000Y-042000
X-027000Y-042000
X-026000Y-040750
X-026000Y-039750
X-027000Y-038500
X-027000Y-037500
X-027000Y-036500
X-027000Y-035500
X-027000Y-034250
X-025500Y-033250
X-024500Y-033250
X-022880Y-033250
X-021880Y-033250
X-020250Y-033250
X-019250Y-033250
X-017500Y-033500
X-017500Y-034500
X-017500Y-035500
X-017500Y-036500
X-017500Y-037500
X-017500Y-038500
X-017500Y-039500
X-017500Y-040750
X-017500Y-042000
X-016500Y-042000
X-017500Y-043000
X-017500Y-044000
X-017500Y-045000
X-017500Y-046000
X-017500Y-047000
X-017500Y-048000
X-016000Y-048000
X-015000Y-048000
X-014000Y-048000
X-013000Y-048000
X-012000Y-048000
X-011000Y-048000
X-010000Y-048000
X-010000Y-049250
X-010000Y-050500
X-010000Y-051500
X-010000Y-052500
X-010000Y-053500
X-010000Y-054500
X-010000Y-055500
X-010000Y-056500
X-010000Y-058000
X-010000Y-059000
X-010000Y-060000
X-010000Y-061000
X-010000Y-062000
X-010000Y-063000
X-010000Y-064000
X-011000Y-065250
X-013000Y-065250
X-013000Y-064000
X-013000Y-063000
X-013000Y-062000
X-013000Y-061000
X-013000Y-060000
X-013000Y-059000
X-013000Y-058000
X-014250Y-058000
X-014250Y-059000
X-014250Y-060000
X-014250Y-061000
X-014250Y-062000
X-014250Y-063000
X-014250Y-064000
X-015250Y-065250
X-017250Y-065250
X-017250Y-064000
X-017250Y-063000
X-017250Y-062000
X-017250Y-061000
X-017250Y-060000
X-017250Y-059000
X-017250Y-058000
X-018500Y-058000
X-018500Y-059000
X-018500Y-060000
X-018500Y-061000
X-018500Y-062000
X-018500Y-063000
X-018500Y-064000
X-019500Y-065250
X-021500Y-065250
X-021500Y-064000
X-021500Y-063000
X-021500Y-062000
X-021500Y-061000
X-021500Y-060000
X-021500Y-059000
X-021500Y-058000
X-021500Y-056500
X-021500Y-055500
X-021500Y-054500
X-021500Y-053500
X-021500Y-052500
X-021500Y-051500
X-021500Y-050500
X-023000Y-050250
X-024000Y-051250
X-024000Y-054250
X-024000Y-055500
X-024000Y-056500
X-024000Y-057500
X-024000Y-058500
X-024000Y-059500
X-024000Y-060500
X-024000Y-061500
X-024000Y-062750
X-026000Y-062750
X-018500Y-056500
X-018500Y-055500
X-018500Y-054500
X-018500Y-053500
X-018500Y-052500
X-018500Y-051500
X-018500Y-050500
X-017250Y-050500
X-017250Y-051500
X-017250Y-052500
X-017250Y-053500
X-017250Y-054500
X-017250Y-055500
X-017250Y-056500
X-014250Y-056500
X-014250Y-055500
X-014250Y-054500
X-014250Y-053500
X-014250Y-052500
X-014250Y-051500
X-014250Y-050500
X-013000Y-050500
X-013000Y-051500
X-013000Y-052500
X-013000Y-053500
X-013000Y-054500
X-013000Y-055500
X-013000Y-056500
X-008500Y-055000
X-008500Y-054000
X-008500Y-053000
X-008500Y-052000
X-008500Y-051000
X-008500Y-050000
X-008500Y-049000
X-008500Y-048000
X-008500Y-047000
X-008500Y-046000
X-007500Y-044750
X-008500Y-043500
X-008500Y-042500
X-008500Y-041500
X-008500Y-040500
X-008500Y-039500
X-008500Y-038500
X-008500Y-037500
X-008500Y-036500
X-008500Y-035500
X-008500Y-034500
X-010000Y-035000
X-010000Y-036000
X-010000Y-037000
X-010000Y-038000
X-010000Y-039000
X-010000Y-040000
X-010000Y-041000
X-010000Y-042250
X-010000Y-043250
X-010000Y-045000
X-011000Y-045000
X-012000Y-045000
X-013000Y-045000
X-014000Y-045000
X-015000Y-045000
X-016000Y-045000
X-015500Y-043500
X-014500Y-043500
X-014500Y-042000
X-014500Y-040750
X-014500Y-039500
X-014500Y-038500
X-014500Y-037500
X-014500Y-036500
X-014500Y-035500
X-014500Y-034500
X-014500Y-033500
X-013000Y-034000
X-013000Y-035000
X-013000Y-036000
X-013000Y-037000
X-013000Y-038000
X-013000Y-039000
X-013000Y-040000
X-013000Y-041000
X-013000Y-042250
X-013000Y-043250
X-016500Y-043500
X-020500Y-044000
X-020500Y-045000
X-020500Y-046000
X-020500Y-047000
X-020500Y-048000
X-020500Y-049250
X-022000Y-049000
X-022000Y-048000
X-022000Y-047000
X-022000Y-046000
X-022000Y-045000
X-022000Y-044000
X-022000Y-043000
X-022000Y-042000
X-020500Y-042000
X-020500Y-043000
X-020000Y-040750
X-020000Y-039750
X-019750Y-038500
X-019750Y-037500
X-019750Y-036500
X-019750Y-035500
X-022750Y-035500
X-022750Y-036500
X-022750Y-037500
X-022750Y-038500
X-024000Y-038500
X-024000Y-037500
X-024000Y-036500
X-024000Y-035500
X-024000Y-039750
X-024000Y-040750
X-023000Y-040750
X-023000Y-039750
X-026000Y-044000
X-027000Y-044000
X-027000Y-045000
X-026000Y-045000
X-026000Y-047000
X-027000Y-047000
X-027000Y-048000
X-026000Y-048000
X-018500Y-049250
X-016250Y-049250
X-014250Y-049250
X-012000Y-049250
X-005500Y-049000
X-005500Y-048000
X-005500Y-047000
X-005500Y-046000
X-005500Y-044750
X-005500Y-043500
X-005500Y-042500
X-005500Y-041500
X-005500Y-040500
X-005500Y-039500
X-005500Y-038500
X-005500Y-037500
X-005500Y-036500
X-005500Y-035500
X-005500Y-034500
X-005500Y-032500
X-005500Y-031500
X-005500Y-030500
X-005500Y-029500
X-005500Y-028500
X-005500Y-027500
X-005500Y-026500
X-005500Y-025500
X-005500Y-024500
X-005500Y-023500
X-006500Y-022250
X-005500Y-021000
X-005500Y-020000
X-005500Y-019000
X-005500Y-018000
X-005500Y-017000
X-005500Y-016000
X-005500Y-015000
X-005500Y-014000
X-005500Y-013000
X-005500Y-012000
X-005500Y-010500
X-005500Y-009500
X-005500Y-008500
X-005500Y-007500
X-005500Y-006500
X-005500Y-005500
X-005500Y-004500
X-005500Y-003500
X-005500Y-002500
X-005500Y-001500
X-008500Y-001500
X-008500Y-002500
X-008500Y-003500
X-008500Y-004500
X-008500Y-005500
X-008500Y-006500
X-008500Y-007500
X-008500Y-008500
X-008500Y-009500
X-008500Y-010500
X-008500Y-012000
X-008500Y-013000
X-008500Y-014000
X-008500Y-015000
X-008500Y-016000
X-008500Y-017000
X-008500Y-018000
X-008500Y-019000
X-008500Y-020000
X-008500Y-021000
X-008500Y-022250
X-008500Y-023500
X-008500Y-024500
X-008500Y-025500
X-008500Y-026500
X-008500Y-027500
X-008500Y-028500
X-008500Y-029500
X-008500Y-030500
X-008500Y-031500
X-008500Y-032500
X-010000Y-031500
X-010000Y-030500
X-010000Y-029500
X-010000Y-028500
X-010000Y-027500
X-010000Y-026500
X-010000Y-025500
X-010000Y-024500
X-011500Y-022500
X-011500Y-021500
X-012500Y-021500
X-013500Y-021500
X-014500Y-021500
X-015500Y-021500
X-016500Y-021500
X-017500Y-021500
X-016500Y-022500
X-017500Y-024000
X-017500Y-025000
X-017500Y-026000
X-017500Y-027000
X-017500Y-028000
X-017500Y-029000
X-017500Y-030000
X-017500Y-031000
X-017500Y-032250
X-015500Y-032250
X-014500Y-031000
X-014500Y-030000
X-014500Y-029000
X-014500Y-028000
X-014500Y-027000
X-014500Y-026000
X-014500Y-025000
X-014500Y-024000
X-014500Y-022500
X-013500Y-022500
X-013000Y-024500
X-013000Y-025500
X-013000Y-026500
X-013000Y-027500
X-013000Y-028500
X-013000Y-029500
X-013000Y-030500
X-013000Y-031500
X-013000Y-032750
X-011000Y-032750
X-010000Y-034000
X-019250Y-031250
X-019250Y-030250
X-019250Y-029250
X-019250Y-028250
X-019250Y-027250
X-019250Y-025250
X-021250Y-025750
X-021250Y-026750
X-021000Y-028250
X-021000Y-029250
X-022000Y-029250
X-022000Y-030250
X-021000Y-030250
X-021250Y-031250
X-022500Y-031250
X-024500Y-031250
X-025000Y-030250
X-025000Y-029250
X-025000Y-028250
X-026000Y-028250
X-027000Y-028250
X-026500Y-026750
X-026500Y-025750
X-026250Y-024000
X-026250Y-023000
X-025250Y-023000
X-024250Y-023000
X-023250Y-023000
X-022250Y-023000
X-021250Y-023000
X-020250Y-023000
X-019250Y-023000
X-019250Y-020000
X-020250Y-020000
X-021250Y-020000
X-022250Y-020000
X-023250Y-020000
X-024250Y-020000
X-025250Y-020000
X-026250Y-020000
X-026250Y-018500
X-026250Y-017500
X-026250Y-016250
X-025250Y-016250
X-024250Y-016250
X-024250Y-015250
X-024250Y-014250
X-024250Y-013250
X-025250Y-013250
X-026250Y-013250
X-026250Y-012250
X-025250Y-012250
X-024250Y-012250
X-024250Y-011250
X-024250Y-010250
X-025250Y-010250
X-026250Y-010250
X-024250Y-009000
X-024250Y-008000
X-024250Y-007000
X-024250Y-006000
X-022250Y-006000
X-021250Y-006000
X-020250Y-006000
X-019250Y-006000
X-018250Y-006000
X-018250Y-009000
X-019250Y-009000
X-020250Y-009000
X-021250Y-009000
X-022250Y-009000
X-022250Y-008000
X-022250Y-007000
X-021250Y-010250
X-021250Y-011250
X-021250Y-012250
X-020250Y-012250
X-020250Y-013250
X-019250Y-013250
X-019250Y-012250
X-018250Y-013250
X-018250Y-014250
X-017250Y-014250
X-016000Y-014250
X-015000Y-014250
X-014000Y-014250
X-013000Y-014250
X-012000Y-014250
X-011000Y-014250
X-010000Y-014250
X-010000Y-017250
X-011000Y-017250
X-012000Y-017250
X-013000Y-017250
X-014000Y-017250
X-015000Y-017250
X-016000Y-017250
X-015500Y-018500
X-016500Y-018500
X-017500Y-018500
X-019250Y-018500
X-019250Y-017500
X-019250Y-016250
X-018250Y-016250
X-017250Y-016250
X-020250Y-016250
X-021250Y-016250
X-021250Y-015250
X-021250Y-014250
X-021250Y-013250
X-020250Y-010250
X-019250Y-010250
X-018250Y-010250
X-013000Y-010750
X-013000Y-009500
X-013000Y-008500
X-013000Y-007500
X-013000Y-006500
X-013000Y-005500
X-013000Y-004500
X-013000Y-003500
X-013000Y-002500
X-012000Y-001000
X-010000Y-001000
X-010000Y-002500
X-010000Y-003500
X-010000Y-004500
X-010000Y-005500
X-010000Y-006500
X-010000Y-007500
X-010000Y-008500
X-010000Y-009500
X-011000Y-010750
X-011500Y-018500
X-012500Y-018500
X-013500Y-018500
X-014500Y-018500
X-010500Y-018500
X-010500Y-021500
X-022250Y-018500
X-023250Y-018500
X-023250Y-017500
X-022250Y-017500
X-024250Y-024000
X-023880Y-025750
X-023880Y-026750
X-023000Y-028250
X-026000Y-031250
X-027000Y-031250
X-027000Y-032250
X-005500Y-050000
X-005500Y-051000
X-005500Y-052000
X-005500Y-053000
X-005500Y-054000
X-005500Y-055000
T03
X-007500Y-062500
X-007500Y-061500
X-007500Y-060500
X-007500Y-059500
X-007500Y-058500
X-006500Y-058500
X-006500Y-059500
X-006500Y-060500
X-006500Y-061500
X-006500Y-062500
X-003000Y-059000
X-003000Y-058000
X-003000Y-057000
X-003000Y-056000
X-003000Y-055000
X-002000Y-055000
X-002000Y-056000
X-002000Y-057000
X-002000Y-058000
X-002000Y-059000
X-002000Y-050250
X-002000Y-049250
X-002000Y-048250
X-002000Y-047250
X-002000Y-046250
X-003000Y-046250
X-003000Y-047250
X-003000Y-048250
X-003000Y-049250
X-003000Y-050250
X-015250Y-011000
X-016250Y-011000
X-016250Y-010000
X-015250Y-010000
X-015250Y-009000
X-016250Y-009000
X-016250Y-008000
X-015250Y-008000
X-015250Y-007000
X-016250Y-007000
T04
X-025910Y-052750
X-024000Y-052750
T05
X-027500Y-064750
X-002000Y-064750
X-002000Y-002000
X-027500Y-002000
M30
