%FSLAX34Y34*%
%MOMM*%
%LNSILK_TOP*%
G71*
G01*
%ADD10C, 1.80*%
%ADD11C, 0.50*%
%ADD12C, 1.00*%
%ADD13C, 2.00*%
%ADD14C, 1.20*%
%ADD15C, 2.00*%
%ADD16C, 6.00*%
%ADD17C, 2.50*%
%ADD18C, 1.00*%
%LPD*%
X-215900Y-304800D02*
G54D10*
D03*
X-215900Y-330200D02*
G54D10*
D03*
X-215900Y-355600D02*
G54D10*
D03*
X-215900Y-381000D02*
G54D10*
D03*
X-139700Y-304800D02*
G54D10*
D03*
X-139700Y-330200D02*
G54D10*
D03*
X-139700Y-355600D02*
G54D10*
D03*
X-139700Y-381000D02*
G54D10*
D03*
X-215900Y-406400D02*
G54D10*
D03*
X-139700Y-406400D02*
G54D10*
D03*
X-215900Y-431800D02*
G54D10*
D03*
X-215900Y-457200D02*
G54D10*
D03*
X-139700Y-431800D02*
G54D10*
D03*
X-139700Y-457200D02*
G54D10*
D03*
X-215900Y-482600D02*
G54D10*
D03*
X-139700Y-482600D02*
G54D10*
D03*
X-215900Y-508000D02*
G54D10*
D03*
X-139700Y-508000D02*
G54D10*
D03*
X-215900Y-533400D02*
G54D10*
D03*
X-139700Y-533400D02*
G54D10*
D03*
X-254000Y-241300D02*
G54D10*
D03*
X-254000Y-215900D02*
G54D10*
D03*
X-254000Y-190500D02*
G54D10*
D03*
X-254000Y-165100D02*
G54D10*
D03*
X-330200Y-241300D02*
G54D10*
D03*
X-330200Y-215900D02*
G54D10*
D03*
X-330200Y-190500D02*
G54D10*
D03*
X-330200Y-165100D02*
G54D10*
D03*
X-254000Y-139700D02*
G54D10*
D03*
X-330200Y-139700D02*
G54D10*
D03*
X-254000Y-114300D02*
G54D10*
D03*
X-254000Y-88900D02*
G54D10*
D03*
X-330200Y-114300D02*
G54D10*
D03*
X-330200Y-88900D02*
G54D10*
D03*
X-254000Y-63500D02*
G54D10*
D03*
X-330200Y-63500D02*
G54D10*
D03*
X-215900Y-38100D02*
G54D10*
D03*
X-215900Y-63500D02*
G54D10*
D03*
X-215900Y-88900D02*
G54D10*
D03*
X-215900Y-114300D02*
G54D10*
D03*
X-139700Y-38100D02*
G54D10*
D03*
X-139700Y-63500D02*
G54D10*
D03*
X-139700Y-88900D02*
G54D10*
D03*
X-139700Y-114300D02*
G54D10*
D03*
X-215900Y-139700D02*
G54D10*
D03*
X-139700Y-139700D02*
G54D10*
D03*
X-215900Y-165100D02*
G54D10*
D03*
X-215900Y-190500D02*
G54D10*
D03*
X-139700Y-165100D02*
G54D10*
D03*
X-139700Y-190500D02*
G54D10*
D03*
X-215900Y-215900D02*
G54D10*
D03*
X-139700Y-215900D02*
G54D10*
D03*
X-215900Y-241300D02*
G54D10*
D03*
X-139700Y-241300D02*
G54D10*
D03*
X-215900Y-266700D02*
G54D10*
D03*
X-139700Y-266700D02*
G54D10*
D03*
G54D11*
X-254000Y-215900D02*
X-247650Y-215900D01*
X-222250Y-190500D01*
X-215900Y-190500D01*
G54D11*
X-254000Y-190500D02*
X-247650Y-190500D01*
X-222250Y-165100D01*
X-215900Y-165100D01*
G54D11*
X-254000Y-139700D02*
X-215900Y-139700D01*
G54D11*
X-254000Y-114300D02*
X-215900Y-114300D01*
G54D11*
X-254000Y-88900D02*
X-215900Y-88900D01*
X-330200Y-165100D02*
G54D10*
D03*
X-254000Y-165100D02*
G54D10*
D03*
X-215900Y-215900D02*
G54D10*
D03*
X-215900Y-241300D02*
G54D10*
D03*
X-254000Y-800100D02*
G54D10*
D03*
X-254000Y-774700D02*
G54D10*
D03*
X-254000Y-749300D02*
G54D10*
D03*
X-254000Y-723900D02*
G54D10*
D03*
X-330200Y-800100D02*
G54D10*
D03*
X-330200Y-774700D02*
G54D10*
D03*
X-330200Y-749300D02*
G54D10*
D03*
X-330200Y-723900D02*
G54D10*
D03*
X-254000Y-698500D02*
G54D10*
D03*
X-330200Y-698500D02*
G54D10*
D03*
X-254000Y-673100D02*
G54D10*
D03*
X-254000Y-647700D02*
G54D10*
D03*
X-330200Y-673100D02*
G54D10*
D03*
X-330200Y-647700D02*
G54D10*
D03*
X-254000Y-622300D02*
G54D10*
D03*
X-330200Y-622300D02*
G54D10*
D03*
X-215900Y-596900D02*
G54D10*
D03*
X-215900Y-622300D02*
G54D10*
D03*
X-215900Y-647700D02*
G54D10*
D03*
X-215900Y-673100D02*
G54D10*
D03*
X-139700Y-596900D02*
G54D10*
D03*
X-139700Y-622300D02*
G54D10*
D03*
X-139700Y-647700D02*
G54D10*
D03*
X-139700Y-673100D02*
G54D10*
D03*
X-215900Y-698500D02*
G54D10*
D03*
X-139700Y-698500D02*
G54D10*
D03*
X-215900Y-723900D02*
G54D10*
D03*
X-215900Y-749300D02*
G54D10*
D03*
X-139700Y-723900D02*
G54D10*
D03*
X-139700Y-749300D02*
G54D10*
D03*
X-215900Y-774700D02*
G54D10*
D03*
X-139700Y-774700D02*
G54D10*
D03*
X-215900Y-800100D02*
G54D10*
D03*
X-139700Y-800100D02*
G54D10*
D03*
X-215900Y-825500D02*
G54D10*
D03*
X-139700Y-825500D02*
G54D10*
D03*
G54D11*
X-254000Y-774700D02*
X-247650Y-774700D01*
X-222250Y-749300D01*
X-215900Y-749300D01*
G54D11*
X-254000Y-749300D02*
X-247650Y-749300D01*
X-222250Y-723900D01*
X-215900Y-723900D01*
G54D11*
X-254000Y-698500D02*
X-215900Y-698500D01*
G54D11*
X-254000Y-673100D02*
X-215900Y-673100D01*
G54D11*
X-254000Y-647700D02*
X-215900Y-647700D01*
X-330200Y-723900D02*
G54D10*
D03*
X-254000Y-723900D02*
G54D10*
D03*
X-215900Y-774700D02*
G54D10*
D03*
X-215900Y-800100D02*
G54D10*
D03*
G54D12*
X-254000Y-63500D02*
X-266700Y-63500D01*
X-279400Y-76200D01*
X-279400Y-273050D01*
X-215900Y-266700D01*
G54D11*
X-330200Y-139700D02*
X-317500Y-139700D01*
X-314325Y-142875D01*
X-314325Y-180975D01*
X-295275Y-200025D01*
X-295275Y-279400D01*
X-285750Y-288925D01*
X-269875Y-288925D01*
X-228600Y-330200D01*
X-215900Y-330200D01*
G54D11*
X-215900Y-355600D02*
X-273050Y-298450D01*
X-288925Y-298450D01*
X-304800Y-282575D01*
X-304800Y-203200D01*
X-317500Y-190500D01*
X-330200Y-190500D01*
G54D11*
X-330200Y-215900D02*
X-317500Y-215900D01*
X-314325Y-219075D01*
X-314325Y-285750D01*
X-292100Y-307975D01*
X-276225Y-307975D01*
X-231775Y-352425D01*
X-231775Y-365125D01*
X-215900Y-381000D01*
G54D12*
X-254000Y-622300D02*
X-266700Y-622300D01*
X-273050Y-628650D01*
X-273050Y-774700D01*
X-330200Y-831850D01*
G54D11*
X-330200Y-774700D02*
X-317500Y-774700D01*
X-304800Y-762000D01*
X-304800Y-711200D01*
X-285750Y-692150D01*
X-285750Y-619125D01*
X-231775Y-565150D01*
X-231775Y-523875D01*
X-215900Y-508000D01*
G54D11*
X-330200Y-749300D02*
X-317500Y-749300D01*
X-314325Y-746125D01*
X-314325Y-708025D01*
X-295275Y-688975D01*
X-295275Y-615950D01*
X-241300Y-561975D01*
X-241300Y-508000D01*
X-215900Y-482600D01*
G54D11*
X-330200Y-698500D02*
X-317500Y-698500D01*
X-304800Y-685800D01*
X-304800Y-612775D01*
X-250825Y-558800D01*
X-250825Y-504825D01*
X-231775Y-485775D01*
X-231775Y-473075D01*
X-215900Y-457200D01*
X-330200Y-622300D02*
G54D10*
D03*
X-215900Y-622300D02*
G54D10*
D03*
X-330200Y-63500D02*
G54D10*
D03*
X-215900Y-63500D02*
G54D10*
D03*
X-406400Y-438150D02*
G54D10*
D03*
X-381000Y-438150D02*
G54D10*
D03*
X-355600Y-438150D02*
G54D10*
D03*
X-330200Y-438150D02*
G54D10*
D03*
X-406400Y-361950D02*
G54D10*
D03*
X-381000Y-361950D02*
G54D10*
D03*
X-355600Y-361950D02*
G54D10*
D03*
X-330200Y-361950D02*
G54D10*
D03*
X-304800Y-438150D02*
G54D10*
D03*
X-304800Y-361950D02*
G54D10*
D03*
X-279400Y-438150D02*
G54D10*
D03*
X-254000Y-438150D02*
G54D10*
D03*
X-279400Y-361950D02*
G54D10*
D03*
X-254000Y-361950D02*
G54D10*
D03*
G54D12*
X-304800Y-361950D02*
X-304800Y-374650D01*
X-298450Y-381000D01*
X-260350Y-381000D01*
X-254000Y-374650D01*
X-254000Y-361950D01*
G54D12*
X-279400Y-438150D02*
X-254000Y-438150D01*
X-304800Y-438150D02*
G54D10*
D03*
X-406400Y-361950D02*
G54D10*
D03*
G54D12*
X-330200Y-438150D02*
X-330200Y-425450D01*
X-323850Y-419100D01*
X-279400Y-419100D01*
X-279400Y-438150D01*
X-419100Y-546100D02*
G54D10*
D03*
X-444500Y-546100D02*
G54D10*
D03*
X-419100Y-546100D02*
G54D10*
D03*
X-393700Y-546100D02*
G54D10*
D03*
X-368300Y-546100D02*
G54D10*
D03*
X-444500Y-469900D02*
G54D10*
D03*
X-419100Y-469900D02*
G54D10*
D03*
X-393700Y-469900D02*
G54D10*
D03*
X-368300Y-469900D02*
G54D10*
D03*
X-342900Y-546100D02*
G54D10*
D03*
X-342900Y-469900D02*
G54D10*
D03*
X-317500Y-546100D02*
G54D10*
D03*
X-292100Y-546100D02*
G54D10*
D03*
X-317500Y-469900D02*
G54D10*
D03*
X-292100Y-469900D02*
G54D10*
D03*
X-266700Y-546100D02*
G54D10*
D03*
X-266700Y-469900D02*
G54D10*
D03*
G54D12*
X-292100Y-469900D02*
X-368300Y-469900D01*
X-215900Y-406400D02*
G54D10*
D03*
X-539750Y-361950D02*
G54D10*
D03*
G54D11*
X-393700Y-469900D02*
X-393700Y-457200D01*
X-390525Y-454025D01*
X-381000Y-454025D01*
X-381000Y-438150D01*
G54D12*
X-279400Y-419100D02*
X-279400Y-381000D01*
X-279400Y-361950D02*
G54D10*
D03*
G54D12*
X-444500Y-469900D02*
X-444500Y-457200D01*
X-438150Y-450850D01*
X-438150Y-412750D01*
X-406400Y-381000D01*
X-406400Y-361950D01*
G54D11*
X-330200Y-647700D02*
X-317500Y-647700D01*
X-314325Y-644525D01*
X-314325Y-568325D01*
X-292100Y-546100D01*
X-215900Y-431800D02*
G54D10*
D03*
X-215900Y-565150D02*
G54D10*
D03*
X-254000Y-622300D02*
G54D10*
D03*
X-368300Y-787400D02*
G54D10*
D03*
X-368300Y-762000D02*
G54D10*
D03*
X-368300Y-736600D02*
G54D10*
D03*
X-368300Y-711200D02*
G54D10*
D03*
X-444500Y-787400D02*
G54D10*
D03*
X-444500Y-762000D02*
G54D10*
D03*
X-444500Y-736600D02*
G54D10*
D03*
X-444500Y-711200D02*
G54D10*
D03*
X-368300Y-685800D02*
G54D10*
D03*
X-444500Y-685800D02*
G54D10*
D03*
X-368300Y-660400D02*
G54D10*
D03*
X-368300Y-635000D02*
G54D10*
D03*
X-444500Y-660400D02*
G54D10*
D03*
X-444500Y-635000D02*
G54D10*
D03*
X-368300Y-609600D02*
G54D10*
D03*
X-444500Y-609600D02*
G54D10*
D03*
G54D12*
X-266700Y-546100D02*
X-266700Y-501650D01*
X-244475Y-479425D01*
X-244475Y-447675D01*
X-254000Y-438150D01*
X-368300Y-609600D02*
G54D10*
D03*
X-266700Y-469900D02*
G54D10*
D03*
X-444500Y-546100D02*
G54D10*
D03*
X-419100Y-469900D02*
G54D10*
D03*
X-254000Y-361950D02*
G54D10*
D03*
X-444500Y-635000D02*
G54D10*
D03*
X-444500Y-660400D02*
G54D10*
D03*
X-368300Y-787400D02*
G54D10*
D03*
X-368300Y-1003300D02*
G54D10*
D03*
X-368300Y-977900D02*
G54D10*
D03*
X-368300Y-952500D02*
G54D10*
D03*
X-368300Y-927100D02*
G54D10*
D03*
X-444500Y-1003300D02*
G54D10*
D03*
X-444500Y-977900D02*
G54D10*
D03*
X-444500Y-952500D02*
G54D10*
D03*
X-444500Y-927100D02*
G54D10*
D03*
X-368300Y-901700D02*
G54D10*
D03*
X-444500Y-901700D02*
G54D10*
D03*
X-368300Y-876300D02*
G54D10*
D03*
X-368300Y-850900D02*
G54D10*
D03*
X-444500Y-876300D02*
G54D10*
D03*
X-444500Y-850900D02*
G54D10*
D03*
G54D12*
X-368300Y-927100D02*
X-381000Y-927100D01*
X-387350Y-920750D01*
X-387350Y-850900D01*
X-368300Y-850900D01*
G54D11*
X-444500Y-927100D02*
X-419100Y-927100D01*
X-393700Y-952500D01*
X-368300Y-952500D01*
X-368300Y-876300D02*
G54D10*
D03*
G54D12*
X-444500Y-901700D02*
X-425450Y-901700D01*
X-425450Y-850900D01*
G54D12*
X-444500Y-850900D02*
X-368300Y-850900D01*
X-444500Y-927100D02*
G54D10*
D03*
X-444500Y-876300D02*
G54D10*
D03*
G54D12*
X-390525Y-768350D02*
X-390525Y-615950D01*
X-384175Y-609600D01*
X-368300Y-609600D01*
X-254000Y-1041400D02*
G54D10*
D03*
X-254000Y-1016000D02*
G54D10*
D03*
X-254000Y-990600D02*
G54D10*
D03*
X-254000Y-965200D02*
G54D10*
D03*
X-330200Y-1041400D02*
G54D10*
D03*
X-330200Y-1016000D02*
G54D10*
D03*
X-330200Y-990600D02*
G54D10*
D03*
X-330200Y-965200D02*
G54D10*
D03*
X-254000Y-939800D02*
G54D10*
D03*
X-330200Y-939800D02*
G54D10*
D03*
X-254000Y-914400D02*
G54D10*
D03*
X-254000Y-889000D02*
G54D10*
D03*
X-330200Y-914400D02*
G54D10*
D03*
X-330200Y-889000D02*
G54D10*
D03*
X-254000Y-863600D02*
G54D10*
D03*
X-330200Y-863600D02*
G54D10*
D03*
X-368300Y-901700D02*
G54D10*
D03*
G54D12*
X-365125Y-850900D02*
X-349250Y-850900D01*
X-330200Y-831850D01*
G54D11*
X-381000Y-438150D02*
X-381000Y-425450D01*
X-330200Y-374650D01*
X-330200Y-361950D01*
G54D11*
X-381000Y-454025D02*
X-307975Y-454025D01*
X-304800Y-450850D01*
X-304800Y-438150D01*
G54D11*
X-279400Y-361950D02*
X-279400Y-349250D01*
X-282575Y-346075D01*
X-339725Y-346075D01*
X-355600Y-361950D01*
X-355600Y-438150D02*
G54D10*
D03*
X-444500Y-977900D02*
G54D10*
D03*
X-330200Y-673100D02*
G54D10*
D03*
G54D12*
X-368300Y-927100D02*
X-355600Y-927100D01*
X-349250Y-933450D01*
X-349250Y-1009650D01*
X-342900Y-1016000D01*
X-330200Y-1016000D01*
X-330200Y-114300D02*
G54D10*
D03*
G54D12*
X-215900Y-533400D02*
X-196850Y-533400D01*
X-196850Y-266700D01*
X-215900Y-266700D01*
X-444500Y-1003300D02*
G54D10*
D03*
G54D12*
X-215900Y-825500D02*
X-196850Y-825500D01*
X-196850Y-533400D01*
X-139700Y-1104900D02*
G54D10*
D03*
X-139700Y-1079500D02*
G54D10*
D03*
X-139700Y-1054100D02*
G54D10*
D03*
X-139700Y-1028700D02*
G54D10*
D03*
X-215900Y-1104900D02*
G54D10*
D03*
X-215900Y-1079500D02*
G54D10*
D03*
X-215900Y-1054100D02*
G54D10*
D03*
X-215900Y-1028700D02*
G54D10*
D03*
X-139700Y-1003300D02*
G54D10*
D03*
X-215900Y-1003300D02*
G54D10*
D03*
X-139700Y-977900D02*
G54D10*
D03*
X-139700Y-952500D02*
G54D10*
D03*
X-215900Y-977900D02*
G54D10*
D03*
X-215900Y-952500D02*
G54D10*
D03*
X-139700Y-927100D02*
G54D10*
D03*
X-215900Y-927100D02*
G54D10*
D03*
X-139700Y-901700D02*
G54D10*
D03*
X-215900Y-901700D02*
G54D10*
D03*
X-139700Y-876300D02*
G54D10*
D03*
X-215900Y-876300D02*
G54D10*
D03*
G54D12*
X-139700Y-1104900D02*
X-158750Y-1104900D01*
X-158750Y-876300D01*
X-139700Y-876300D01*
G54D12*
X-196850Y-825500D02*
X-177800Y-844550D01*
X-177800Y-857250D01*
X-158750Y-876300D01*
X-330200Y-965200D02*
G54D10*
D03*
X-215900Y-901700D02*
G54D10*
D03*
X-330200Y-863600D02*
G54D10*
D03*
X-330200Y-889000D02*
G54D10*
D03*
X-215900Y-596900D02*
G54D10*
D03*
X-215900Y-304800D02*
G54D10*
D03*
X-215900Y-38100D02*
G54D10*
D03*
X-330200Y-914400D02*
G54D10*
D03*
G54D11*
X-393700Y-546100D02*
X-393700Y-533400D01*
X-396875Y-530225D01*
X-450850Y-530225D01*
G54D11*
X-454025Y-520700D02*
X-381000Y-520700D01*
X-368300Y-533400D01*
X-368300Y-546100D01*
G54D11*
X-342900Y-546100D02*
X-342900Y-533400D01*
X-365125Y-511175D01*
X-457200Y-511175D01*
G54D11*
X-460375Y-501650D02*
X-349250Y-501650D01*
X-317500Y-533400D01*
X-317500Y-546100D01*
G54D12*
X-330200Y-800100D02*
X-342900Y-800100D01*
X-349250Y-793750D01*
X-349250Y-612775D01*
X-139700Y-825500D02*
G54D10*
D03*
X-342900Y-571500D02*
G54D10*
D03*
X-292100Y-571500D02*
G54D10*
D03*
X-419100Y-571500D02*
G54D10*
D03*
X-368300Y-571500D02*
G54D10*
D03*
X-215900Y-565150D02*
G54D10*
D03*
X-165100Y-565150D02*
G54D10*
D03*
X-292100Y-571500D02*
G54D10*
D03*
G54D12*
X-342900Y-571500D02*
X-342900Y-584200D01*
X-349250Y-590550D01*
X-419100Y-571500D02*
G54D10*
D03*
G36*
X-215900Y-530225D02*
X-206375Y-530225D01*
X-196850Y-520700D01*
X-196850Y-295275D01*
X-168275Y-295275D01*
X-180975Y-307975D01*
X-180975Y-552450D01*
X-184150Y-555625D01*
X-184150Y-574675D01*
X-174625Y-584200D01*
X-174625Y-587375D01*
X-196850Y-587375D01*
X-206375Y-577850D01*
X-219075Y-577850D01*
X-219075Y-565150D01*
X-219075Y-533400D01*
X-215900Y-530225D01*
G37*
G54D12*
X-215900Y-530225D02*
X-206375Y-530225D01*
X-196850Y-520700D01*
X-196850Y-295275D01*
X-168275Y-295275D01*
X-180975Y-307975D01*
X-180975Y-552450D01*
X-184150Y-555625D01*
X-184150Y-574675D01*
X-174625Y-584200D01*
X-174625Y-587375D01*
X-196850Y-587375D01*
X-206375Y-577850D01*
X-219075Y-577850D01*
X-219075Y-565150D01*
X-219075Y-533400D01*
X-215900Y-530225D01*
X-444500Y-819150D02*
G54D10*
D03*
X-393700Y-819150D02*
G54D10*
D03*
X-330200Y-831850D02*
G54D10*
D03*
X-279400Y-831850D02*
G54D10*
D03*
G54D12*
X-215900Y-825500D02*
X-257175Y-825500D01*
X-273050Y-809625D01*
G36*
X-273050Y-812800D02*
X-288925Y-812800D01*
X-298450Y-822325D01*
X-298450Y-841375D01*
X-330200Y-841375D01*
X-330200Y-819150D01*
X-320675Y-819150D01*
X-311150Y-809625D01*
X-311150Y-787400D01*
X-292100Y-768350D01*
X-292100Y-717550D01*
X-273050Y-698500D01*
X-273050Y-812800D01*
G37*
G54D12*
X-273050Y-812800D02*
X-288925Y-812800D01*
X-298450Y-822325D01*
X-298450Y-841375D01*
X-330200Y-841375D01*
X-330200Y-819150D01*
X-320675Y-819150D01*
X-311150Y-809625D01*
X-311150Y-787400D01*
X-292100Y-768350D01*
X-292100Y-717550D01*
X-273050Y-698500D01*
X-273050Y-812800D01*
X-330200Y-800100D02*
G54D10*
D03*
X-279400Y-831850D02*
G54D10*
D03*
G54D12*
X-254000Y-863600D02*
X-276225Y-863600D01*
X-298450Y-841375D01*
X-298450Y-831850D01*
G54D12*
X-279400Y-831850D02*
X-266700Y-844550D01*
X-244475Y-844550D01*
X-234950Y-854075D01*
X-234950Y-1041400D01*
X-254000Y-1041400D01*
X-254000Y-990600D02*
G54D10*
D03*
X-215900Y-927100D02*
G54D10*
D03*
G54D11*
X-444500Y-876300D02*
X-457200Y-876300D01*
X-460375Y-879475D01*
X-460375Y-1019175D01*
X-444500Y-1035050D01*
X-412750Y-1003300D01*
X-368300Y-1003300D01*
X-419100Y-1066800D02*
G54D10*
D03*
X-368300Y-1066800D02*
G54D10*
D03*
X-368300Y-1035050D02*
G54D13*
D03*
G54D12*
X-444500Y-850900D02*
X-457200Y-850900D01*
X-473075Y-866775D01*
X-473075Y-1066800D01*
X-444500Y-1066800D01*
X-419100Y-1066800D01*
G54D12*
X-234950Y-1041400D02*
X-234950Y-1098550D01*
X-228600Y-1104900D01*
X-215900Y-1104900D01*
G36*
X-349250Y-850900D02*
X-368300Y-850900D01*
X-381000Y-850900D01*
X-387350Y-857250D01*
X-387350Y-920750D01*
X-381000Y-927100D01*
X-396875Y-927100D01*
X-422275Y-901700D01*
X-431800Y-901700D01*
X-425450Y-895350D01*
X-425450Y-863600D01*
X-434975Y-854075D01*
X-444500Y-854075D01*
X-444500Y-838200D01*
X-425450Y-838200D01*
X-400050Y-812800D01*
X-400050Y-609600D01*
X-396875Y-606425D01*
X-368300Y-606425D01*
X-368300Y-612775D01*
X-377825Y-612775D01*
X-387350Y-622300D01*
X-387350Y-796925D01*
X-377825Y-806450D01*
X-358775Y-806450D01*
X-346075Y-819150D01*
X-330200Y-819150D01*
X-330200Y-841375D01*
X-339725Y-841375D01*
X-349250Y-850900D01*
G37*
G54D12*
X-349250Y-850900D02*
X-368300Y-850900D01*
X-381000Y-850900D01*
X-387350Y-857250D01*
X-387350Y-920750D01*
X-381000Y-927100D01*
X-396875Y-927100D01*
X-422275Y-901700D01*
X-431800Y-901700D01*
X-425450Y-895350D01*
X-425450Y-863600D01*
X-434975Y-854075D01*
X-444500Y-854075D01*
X-444500Y-838200D01*
X-425450Y-838200D01*
X-400050Y-812800D01*
X-400050Y-609600D01*
X-396875Y-606425D01*
X-368300Y-606425D01*
X-368300Y-612775D01*
X-377825Y-612775D01*
X-387350Y-622300D01*
X-387350Y-796925D01*
X-377825Y-806450D01*
X-358775Y-806450D01*
X-346075Y-819150D01*
X-330200Y-819150D01*
X-330200Y-841375D01*
X-339725Y-841375D01*
X-349250Y-850900D01*
X-444500Y-469900D02*
G54D10*
D03*
X-438150Y-361950D02*
G54D10*
D03*
X-438150Y-412750D02*
G54D10*
D03*
G54D12*
X-463550Y-361950D02*
X-438150Y-361950D01*
X-438150Y-361950D01*
X-419100Y-342900D01*
X-355600Y-342900D01*
X-346075Y-333375D01*
X-269875Y-333375D01*
X-254000Y-349250D01*
X-254000Y-361950D01*
X-330200Y-273050D02*
G54D10*
D03*
X-279400Y-273050D02*
G54D10*
D03*
G54D12*
X-330200Y-241300D02*
X-330200Y-273050D01*
X-330200Y-273050D02*
G54D10*
D03*
X-123825Y-508000D02*
G54D14*
D03*
X-111125Y-495300D02*
G54D14*
D03*
X-98425Y-482600D02*
G54D14*
D03*
X-85725Y-469900D02*
G54D14*
D03*
X-73025Y-457200D02*
G54D14*
D03*
X-60325Y-444500D02*
G54D14*
D03*
X-47625Y-431800D02*
G54D14*
D03*
X-34925Y-419100D02*
G54D14*
D03*
G54D11*
X-139700Y-508000D02*
X-123825Y-508000D01*
G54D11*
X-111125Y-495300D02*
X-123825Y-482600D01*
X-139700Y-482600D01*
G54D11*
X-98425Y-482600D02*
X-123825Y-457200D01*
X-139700Y-457200D01*
G54D11*
X-85725Y-469900D02*
X-123825Y-431800D01*
X-139700Y-431800D01*
G54D11*
X-73025Y-457200D02*
X-123825Y-406400D01*
X-139700Y-406400D01*
G54D11*
X-60325Y-444500D02*
X-123825Y-381000D01*
X-139700Y-381000D01*
G54D11*
X-47625Y-431800D02*
X-123825Y-355600D01*
X-139700Y-355600D01*
G54D11*
X-34924Y-419101D02*
X-123824Y-330201D01*
X-139699Y-330201D01*
X-139700Y-63500D02*
G54D10*
D03*
X-139700Y-88900D02*
G54D10*
D03*
X-139700Y-114300D02*
G54D10*
D03*
X-139700Y-139700D02*
G54D10*
D03*
X-139700Y-165100D02*
G54D10*
D03*
X-139700Y-190500D02*
G54D10*
D03*
X-139700Y-215900D02*
G54D10*
D03*
X-139700Y-241300D02*
G54D10*
D03*
X-123825Y-800100D02*
G54D14*
D03*
X-111125Y-787400D02*
G54D14*
D03*
X-98425Y-774700D02*
G54D14*
D03*
X-85725Y-762000D02*
G54D14*
D03*
X-73025Y-749300D02*
G54D14*
D03*
X-60325Y-736600D02*
G54D14*
D03*
X-47625Y-723900D02*
G54D14*
D03*
X-34925Y-711200D02*
G54D14*
D03*
G54D11*
X-139700Y-800100D02*
X-123825Y-800100D01*
G54D11*
X-111125Y-787400D02*
X-123825Y-774700D01*
X-139700Y-774700D01*
G54D11*
X-98425Y-774700D02*
X-123825Y-749300D01*
X-139700Y-749300D01*
G54D11*
X-85725Y-762000D02*
X-123825Y-723900D01*
X-139700Y-723900D01*
G54D11*
X-73025Y-749300D02*
X-123825Y-698500D01*
X-139700Y-698500D01*
G54D11*
X-60325Y-736600D02*
X-123825Y-673100D01*
X-139700Y-673100D01*
G54D11*
X-47625Y-723900D02*
X-123825Y-647700D01*
X-139700Y-647700D01*
G54D11*
X-34924Y-711201D02*
X-123824Y-622301D01*
X-139699Y-622301D01*
X-123825Y-1079500D02*
G54D14*
D03*
X-111125Y-1066800D02*
G54D14*
D03*
X-98425Y-1054100D02*
G54D14*
D03*
X-85725Y-1041400D02*
G54D14*
D03*
X-73025Y-1028700D02*
G54D14*
D03*
X-60325Y-1016000D02*
G54D14*
D03*
X-47625Y-1003300D02*
G54D14*
D03*
X-34925Y-990600D02*
G54D14*
D03*
G54D11*
X-139700Y-1079500D02*
X-123825Y-1079500D01*
G54D11*
X-111125Y-1066800D02*
X-123825Y-1054100D01*
X-139700Y-1054100D01*
G54D11*
X-98425Y-1054100D02*
X-123825Y-1028700D01*
X-139700Y-1028700D01*
G54D11*
X-85725Y-1041400D02*
X-123825Y-1003300D01*
X-139700Y-1003300D01*
G54D11*
X-73025Y-1028700D02*
X-123825Y-977900D01*
X-139700Y-977900D01*
G54D11*
X-60325Y-1016000D02*
X-123825Y-952500D01*
X-139700Y-952500D01*
G54D11*
X-47625Y-1003300D02*
X-123825Y-927100D01*
X-139700Y-927100D01*
G54D11*
X-34924Y-990601D02*
X-123824Y-901701D01*
X-139699Y-901701D01*
X-139700Y-266700D02*
G54D10*
D03*
X-139700Y-533400D02*
G54D10*
D03*
G54D12*
X-165100Y-565150D02*
X-165100Y-314325D01*
X-155575Y-304800D01*
X-139700Y-304800D01*
X-139700Y-304800D02*
G54D10*
D03*
X-139700Y-38100D02*
G54D10*
D03*
X-165100Y-565150D02*
G54D10*
D03*
X-139700Y-596900D02*
G54D10*
D03*
G54D12*
X-120650Y-533400D02*
X-120650Y-527050D01*
X-19050Y-425450D01*
X-19050Y-704850D01*
X-120650Y-603250D01*
X-120650Y-587375D01*
X-130175Y-577850D01*
X-146050Y-577850D01*
X-146050Y-558800D01*
X-139700Y-552450D01*
X-130175Y-552450D01*
X-120650Y-542925D01*
X-120650Y-533400D01*
G54D12*
X-196850Y-584200D02*
X-155575Y-584200D01*
X-146050Y-574675D01*
G36*
X-146050Y-577850D02*
X-146050Y-555625D01*
X-142875Y-552450D01*
X-130175Y-552450D01*
X-120650Y-542925D01*
X-120650Y-527050D01*
X-19050Y-425450D01*
X-19050Y-704850D01*
X-120650Y-603250D01*
X-120650Y-587375D01*
X-130175Y-577850D01*
X-146050Y-577850D01*
G37*
G54D12*
X-146050Y-577850D02*
X-146050Y-555625D01*
X-142875Y-552450D01*
X-130175Y-552450D01*
X-120650Y-542925D01*
X-120650Y-527050D01*
X-19050Y-425450D01*
X-19050Y-704850D01*
X-120650Y-603250D01*
X-120650Y-587375D01*
X-130175Y-577850D01*
X-146050Y-577850D01*
G36*
X-19050Y-717550D02*
X-120650Y-819150D01*
X-120650Y-882650D01*
X-19050Y-984250D01*
X-19050Y-717550D01*
G37*
G54D12*
X-19050Y-717550D02*
X-120650Y-819150D01*
X-120650Y-882650D01*
X-19050Y-984250D01*
X-19050Y-717550D01*
G54D12*
X-19050Y-704850D02*
X-19050Y-717550D01*
G36*
X-120650Y-882650D02*
X-120650Y-835025D01*
X-130175Y-844550D01*
X-149225Y-844550D01*
X-158750Y-835025D01*
X-158750Y-587375D01*
X-155575Y-584200D01*
X-196850Y-584200D01*
X-196850Y-809625D01*
X-206375Y-819150D01*
X-263525Y-819150D01*
X-254000Y-828675D01*
X-238125Y-828675D01*
X-209550Y-857250D01*
X-200025Y-857250D01*
X-187325Y-869950D01*
X-187325Y-1143000D01*
X-177800Y-1152525D01*
X-177800Y-1212850D01*
X-161925Y-1228725D01*
X-158750Y-1228725D01*
X-158750Y-1127125D01*
X-149225Y-1117600D01*
X-139700Y-1117600D01*
X-139700Y-1101725D01*
X-149225Y-1101725D01*
X-158750Y-1092200D01*
X-158750Y-892175D01*
X-149225Y-882650D01*
X-120650Y-882650D01*
G37*
G54D12*
X-120650Y-882650D02*
X-120650Y-835025D01*
X-130175Y-844550D01*
X-149225Y-844550D01*
X-158750Y-835025D01*
X-158750Y-587375D01*
X-155575Y-584200D01*
X-196850Y-584200D01*
X-196850Y-809625D01*
X-206375Y-819150D01*
X-263525Y-819150D01*
X-254000Y-828675D01*
X-238125Y-828675D01*
X-209550Y-857250D01*
X-200025Y-857250D01*
X-187325Y-869950D01*
X-187325Y-1143000D01*
X-177800Y-1152525D01*
X-177800Y-1212850D01*
X-161925Y-1228725D01*
X-158750Y-1228725D01*
X-158750Y-1127125D01*
X-149225Y-1117600D01*
X-139700Y-1117600D01*
X-139700Y-1101725D01*
X-149225Y-1101725D01*
X-158750Y-1092200D01*
X-158750Y-892175D01*
X-149225Y-882650D01*
X-120650Y-882650D01*
G36*
X-19050Y-28575D02*
X-120650Y-28575D01*
X-120650Y-276225D01*
X-130175Y-285750D01*
X-120650Y-295275D01*
X-120650Y-311150D01*
X-19050Y-412750D01*
X-19050Y-28575D01*
G37*
G54D12*
X-19050Y-28575D02*
X-120650Y-28575D01*
X-120650Y-276225D01*
X-130175Y-285750D01*
X-120650Y-295275D01*
X-120650Y-311150D01*
X-19050Y-412750D01*
X-19050Y-28575D01*
G54D12*
X-19050Y-425450D02*
X-19050Y-412750D01*
G54D12*
X-196850Y-285750D02*
X-130175Y-285750D01*
G54D12*
X-139700Y-1104900D02*
X-127000Y-1104900D01*
X-19050Y-996950D01*
X-19050Y-984250D01*
X-361950Y-1625600D02*
G54D10*
D03*
X-361950Y-1600200D02*
G54D10*
D03*
X-361950Y-1574800D02*
G54D10*
D03*
X-361950Y-1549400D02*
G54D10*
D03*
X-438150Y-1625600D02*
G54D10*
D03*
X-438150Y-1600200D02*
G54D10*
D03*
X-438150Y-1574800D02*
G54D10*
D03*
X-438150Y-1549400D02*
G54D10*
D03*
X-361950Y-1524000D02*
G54D10*
D03*
X-438150Y-1524000D02*
G54D10*
D03*
X-361950Y-1498600D02*
G54D10*
D03*
X-361950Y-1473200D02*
G54D10*
D03*
X-438150Y-1498600D02*
G54D10*
D03*
X-438150Y-1473200D02*
G54D10*
D03*
X-254000Y-1625600D02*
G54D10*
D03*
X-254000Y-1600200D02*
G54D10*
D03*
X-254000Y-1574800D02*
G54D10*
D03*
X-254000Y-1549400D02*
G54D10*
D03*
X-330200Y-1625600D02*
G54D10*
D03*
X-330200Y-1600200D02*
G54D10*
D03*
X-330200Y-1574800D02*
G54D10*
D03*
X-330200Y-1549400D02*
G54D10*
D03*
X-254000Y-1524000D02*
G54D10*
D03*
X-330200Y-1524000D02*
G54D10*
D03*
X-254000Y-1498600D02*
G54D10*
D03*
X-254000Y-1473200D02*
G54D10*
D03*
X-330200Y-1498600D02*
G54D10*
D03*
X-330200Y-1473200D02*
G54D10*
D03*
G54D11*
X-330200Y-1600200D02*
X-361950Y-1600200D01*
G54D11*
X-330200Y-1574800D02*
X-361950Y-1574800D01*
G54D11*
X-330200Y-1549400D02*
X-361950Y-1549400D01*
G54D11*
X-330200Y-1524000D02*
X-361950Y-1524000D01*
X-279400Y-1657350D02*
G54D10*
D03*
X-330200Y-1657350D02*
G54D10*
D03*
X-387350Y-1657350D02*
G54D10*
D03*
X-438150Y-1657350D02*
G54D10*
D03*
X-361950Y-1473200D02*
G54D10*
D03*
X-254000Y-1473200D02*
G54D10*
D03*
X-254000Y-1498600D02*
G54D10*
D03*
X-361950Y-1498600D02*
G54D10*
D03*
X-469900Y-1625600D02*
G54D10*
D03*
X-469900Y-1600200D02*
G54D10*
D03*
X-469900Y-1574800D02*
G54D10*
D03*
X-469900Y-1549400D02*
G54D10*
D03*
X-546100Y-1625600D02*
G54D10*
D03*
X-546100Y-1600200D02*
G54D10*
D03*
X-546100Y-1574800D02*
G54D10*
D03*
X-546100Y-1549400D02*
G54D10*
D03*
X-469900Y-1524000D02*
G54D10*
D03*
X-546100Y-1524000D02*
G54D10*
D03*
X-469900Y-1498600D02*
G54D10*
D03*
X-469900Y-1473200D02*
G54D10*
D03*
X-546100Y-1498600D02*
G54D10*
D03*
X-546100Y-1473200D02*
G54D10*
D03*
X-495300Y-1657350D02*
G54D10*
D03*
X-546100Y-1657350D02*
G54D10*
D03*
X-469900Y-1473200D02*
G54D10*
D03*
X-469900Y-1498600D02*
G54D10*
D03*
X-546100Y-1282700D02*
G54D10*
D03*
X-546100Y-1308100D02*
G54D10*
D03*
X-546100Y-1333500D02*
G54D10*
D03*
X-546100Y-1358900D02*
G54D10*
D03*
X-469900Y-1282700D02*
G54D10*
D03*
X-469900Y-1308100D02*
G54D10*
D03*
X-469900Y-1333500D02*
G54D10*
D03*
X-469900Y-1358900D02*
G54D10*
D03*
X-546100Y-1384300D02*
G54D10*
D03*
X-469900Y-1384300D02*
G54D10*
D03*
X-546100Y-1409700D02*
G54D10*
D03*
X-546100Y-1435100D02*
G54D10*
D03*
X-469900Y-1409700D02*
G54D10*
D03*
X-469900Y-1435100D02*
G54D10*
D03*
X-520700Y-1250950D02*
G54D10*
D03*
X-469900Y-1250950D02*
G54D10*
D03*
X-546100Y-1435100D02*
G54D10*
D03*
X-546100Y-1409700D02*
G54D10*
D03*
X-438150Y-1282700D02*
G54D10*
D03*
X-438150Y-1308100D02*
G54D10*
D03*
X-438150Y-1333500D02*
G54D10*
D03*
X-438150Y-1358900D02*
G54D10*
D03*
X-361950Y-1282700D02*
G54D10*
D03*
X-361950Y-1308100D02*
G54D10*
D03*
X-361950Y-1333500D02*
G54D10*
D03*
X-361950Y-1358900D02*
G54D10*
D03*
X-438150Y-1384300D02*
G54D10*
D03*
X-361950Y-1384300D02*
G54D10*
D03*
X-438150Y-1409700D02*
G54D10*
D03*
X-438150Y-1435100D02*
G54D10*
D03*
X-361950Y-1409700D02*
G54D10*
D03*
X-361950Y-1435100D02*
G54D10*
D03*
X-412750Y-1250950D02*
G54D10*
D03*
X-361950Y-1250950D02*
G54D10*
D03*
G54D11*
X-469900Y-1409700D02*
X-454025Y-1425575D01*
X-454025Y-1441450D01*
X-444500Y-1450975D01*
X-409575Y-1450975D01*
X-368300Y-1409700D01*
X-361950Y-1409700D01*
X-438150Y-1435100D02*
G54D10*
D03*
X-438150Y-1409700D02*
G54D10*
D03*
X-330200Y-1282700D02*
G54D10*
D03*
X-330200Y-1308100D02*
G54D10*
D03*
X-330200Y-1333500D02*
G54D10*
D03*
X-330200Y-1358900D02*
G54D10*
D03*
X-254000Y-1282700D02*
G54D10*
D03*
X-254000Y-1308100D02*
G54D10*
D03*
X-254000Y-1333500D02*
G54D10*
D03*
X-254000Y-1358900D02*
G54D10*
D03*
X-330200Y-1384300D02*
G54D10*
D03*
X-254000Y-1384300D02*
G54D10*
D03*
X-330200Y-1409700D02*
G54D10*
D03*
X-330200Y-1435100D02*
G54D10*
D03*
X-254000Y-1409700D02*
G54D10*
D03*
X-254000Y-1435100D02*
G54D10*
D03*
X-304800Y-1250950D02*
G54D10*
D03*
X-254000Y-1250950D02*
G54D10*
D03*
X-330200Y-1435100D02*
G54D10*
D03*
X-330200Y-1409700D02*
G54D10*
D03*
G54D11*
X-361950Y-1625600D02*
X-374650Y-1625600D01*
X-381000Y-1619250D01*
X-381000Y-1530350D01*
X-374650Y-1524000D01*
X-361950Y-1524000D01*
G54D11*
X-469900Y-1625600D02*
X-482600Y-1625600D01*
X-488950Y-1619250D01*
X-488950Y-1530350D01*
X-482600Y-1524000D01*
X-469900Y-1524000D01*
G54D11*
X-546100Y-1282700D02*
X-533400Y-1282700D01*
X-527050Y-1289050D01*
X-527050Y-1377950D01*
X-533400Y-1384300D01*
X-546100Y-1384300D01*
G54D11*
X-438150Y-1282700D02*
X-425450Y-1282700D01*
X-419100Y-1289050D01*
X-419100Y-1377950D01*
X-425450Y-1384300D01*
X-438150Y-1384300D01*
G54D11*
X-330200Y-1282700D02*
X-317500Y-1282700D01*
X-311150Y-1289050D01*
X-311150Y-1377950D01*
X-317500Y-1384300D01*
X-330200Y-1384300D01*
G54D12*
X-361950Y-1473200D02*
X-368300Y-1473200D01*
X-393700Y-1498600D01*
X-393700Y-1625600D01*
X-387350Y-1631950D01*
X-387350Y-1657350D01*
G54D12*
X-438150Y-1657350D02*
X-438150Y-1625600D01*
G54D11*
X-438150Y-1600200D02*
X-469900Y-1600200D01*
G54D11*
X-438150Y-1574800D02*
X-469900Y-1574800D01*
G54D11*
X-438150Y-1549400D02*
X-469900Y-1549400D01*
G54D11*
X-438150Y-1524000D02*
X-469900Y-1524000D01*
G54D11*
X-469900Y-1308100D02*
X-438150Y-1308100D01*
G54D11*
X-469900Y-1333500D02*
X-438150Y-1333500D01*
G54D11*
X-469900Y-1358900D02*
X-438150Y-1358900D01*
G54D11*
X-469900Y-1384300D02*
X-438150Y-1384300D01*
G54D11*
X-361950Y-1308100D02*
X-330200Y-1308100D01*
G54D11*
X-361950Y-1333500D02*
X-330200Y-1333500D01*
G54D11*
X-361950Y-1358900D02*
X-330200Y-1358900D01*
G54D11*
X-361950Y-1384300D02*
X-330200Y-1384300D01*
G54D11*
X-546100Y-1358900D02*
X-561975Y-1374775D01*
X-561975Y-1533525D01*
X-546100Y-1549400D01*
G54D11*
X-546100Y-1574800D02*
X-571500Y-1549400D01*
X-571500Y-1358900D01*
X-546100Y-1333500D01*
G54D11*
X-546100Y-1308100D02*
X-581025Y-1343025D01*
X-581025Y-1565275D01*
X-546100Y-1600200D01*
G54D11*
X-469900Y-1435100D02*
X-469900Y-1438275D01*
G54D11*
X-469900Y-1438275D02*
X-438150Y-1470025D01*
X-434975Y-1473200D01*
X-419100Y-1473200D01*
X-381000Y-1435100D01*
X-365125Y-1435100D01*
X-330200Y-1470025D01*
X-327025Y-1473200D01*
X-311150Y-1473200D01*
X-273050Y-1435100D01*
X-254000Y-1435100D01*
X-215900Y-1168400D02*
G54D10*
D03*
X-215900Y-1193800D02*
G54D10*
D03*
X-215900Y-1219200D02*
G54D10*
D03*
X-215900Y-1244600D02*
G54D10*
D03*
X-139700Y-1168400D02*
G54D10*
D03*
X-139700Y-1193800D02*
G54D10*
D03*
X-139700Y-1219200D02*
G54D10*
D03*
X-139700Y-1244600D02*
G54D10*
D03*
X-215900Y-1270000D02*
G54D10*
D03*
X-139700Y-1270000D02*
G54D10*
D03*
X-215900Y-1295400D02*
G54D10*
D03*
X-215900Y-1320800D02*
G54D10*
D03*
X-139700Y-1295400D02*
G54D10*
D03*
X-139700Y-1320800D02*
G54D10*
D03*
X-215900Y-1346200D02*
G54D10*
D03*
X-139700Y-1346200D02*
G54D10*
D03*
X-215900Y-1371600D02*
G54D10*
D03*
X-139700Y-1371600D02*
G54D10*
D03*
X-215900Y-1397000D02*
G54D10*
D03*
X-139700Y-1397000D02*
G54D10*
D03*
G54D11*
X-139700Y-1397000D02*
X-139700Y-1371600D01*
G54D11*
X-139700Y-1346200D02*
X-139700Y-1320800D01*
G54D11*
X-139700Y-1295400D02*
X-139700Y-1270000D01*
G54D11*
X-139700Y-1244600D02*
X-139700Y-1219200D01*
X-190500Y-1136650D02*
G54D10*
D03*
X-139700Y-1136650D02*
G54D10*
D03*
G54D11*
X-254000Y-1308100D02*
X-231775Y-1285875D01*
X-231775Y-1196975D01*
X-228600Y-1193800D01*
X-215900Y-1193800D01*
X-438150Y-1657350D02*
G54D10*
D03*
G54D12*
X-469900Y-1250950D02*
X-469900Y-1282700D01*
G54D12*
X-361950Y-1250950D02*
X-361950Y-1282700D01*
G54D12*
X-254000Y-1219200D02*
X-254000Y-1282700D01*
G36*
X-349250Y-1666875D02*
X-349250Y-1651000D01*
X-355600Y-1644650D01*
X-374650Y-1644650D01*
X-393700Y-1625600D01*
X-393700Y-1524000D01*
X-381000Y-1511300D01*
X-381000Y-1485900D01*
X-365125Y-1470025D01*
X-384175Y-1470025D01*
X-419100Y-1504950D01*
X-419100Y-1666875D01*
X-349250Y-1666875D01*
G37*
G54D12*
X-349250Y-1666875D02*
X-349250Y-1651000D01*
X-355600Y-1644650D01*
X-374650Y-1644650D01*
X-393700Y-1625600D01*
X-393700Y-1524000D01*
X-381000Y-1511300D01*
X-381000Y-1485900D01*
X-365125Y-1470025D01*
X-384175Y-1470025D01*
X-419100Y-1504950D01*
X-419100Y-1666875D01*
X-349250Y-1666875D01*
G36*
X-457200Y-1666875D02*
X-457200Y-1647825D01*
X-460375Y-1644650D01*
X-482600Y-1644650D01*
X-501650Y-1625600D01*
X-501650Y-1524000D01*
X-488950Y-1511300D01*
X-488950Y-1485900D01*
X-473075Y-1470025D01*
X-492125Y-1470025D01*
X-527050Y-1504950D01*
X-527050Y-1666875D01*
X-457200Y-1666875D01*
G37*
G54D12*
X-457200Y-1666875D02*
X-457200Y-1647825D01*
X-460375Y-1644650D01*
X-482600Y-1644650D01*
X-501650Y-1625600D01*
X-501650Y-1524000D01*
X-488950Y-1511300D01*
X-488950Y-1485900D01*
X-473075Y-1470025D01*
X-492125Y-1470025D01*
X-527050Y-1504950D01*
X-527050Y-1666875D01*
X-457200Y-1666875D01*
G36*
X-273050Y-1666875D02*
X-273050Y-1489075D01*
X-254000Y-1470025D01*
X-276225Y-1470025D01*
X-311150Y-1504950D01*
X-311150Y-1666875D01*
X-273050Y-1666875D01*
G37*
G54D12*
X-273050Y-1666875D02*
X-273050Y-1489075D01*
X-254000Y-1470025D01*
X-276225Y-1470025D01*
X-311150Y-1504950D01*
X-311150Y-1666875D01*
X-273050Y-1666875D01*
G36*
X-412750Y-1250950D02*
X-412750Y-1263650D01*
X-396875Y-1279525D01*
X-396875Y-1387475D01*
X-419100Y-1409700D01*
X-419100Y-1422400D01*
X-434975Y-1438275D01*
X-415925Y-1438275D01*
X-381000Y-1403350D01*
X-381000Y-1257300D01*
X-387350Y-1250950D01*
X-412750Y-1250950D01*
G37*
G54D12*
X-412750Y-1250950D02*
X-412750Y-1263650D01*
X-396875Y-1279525D01*
X-396875Y-1387475D01*
X-419100Y-1409700D01*
X-419100Y-1422400D01*
X-434975Y-1438275D01*
X-415925Y-1438275D01*
X-381000Y-1403350D01*
X-381000Y-1257300D01*
X-387350Y-1250950D01*
X-412750Y-1250950D01*
G36*
X-304800Y-1250950D02*
X-304800Y-1276350D01*
X-298450Y-1282700D01*
X-298450Y-1384300D01*
X-311150Y-1397000D01*
X-311150Y-1422400D01*
X-327025Y-1438275D01*
X-307975Y-1438275D01*
X-273050Y-1403350D01*
X-273050Y-1257300D01*
X-279400Y-1250950D01*
X-304800Y-1250950D01*
G37*
G54D12*
X-304800Y-1250950D02*
X-304800Y-1276350D01*
X-298450Y-1282700D01*
X-298450Y-1384300D01*
X-311150Y-1397000D01*
X-311150Y-1422400D01*
X-327025Y-1438275D01*
X-307975Y-1438275D01*
X-273050Y-1403350D01*
X-273050Y-1257300D01*
X-279400Y-1250950D01*
X-304800Y-1250950D01*
G36*
X-520700Y-1250950D02*
X-536575Y-1250950D01*
X-549275Y-1263650D01*
X-533400Y-1263650D01*
X-514350Y-1282700D01*
X-514350Y-1384300D01*
X-527050Y-1397000D01*
X-527050Y-1419225D01*
X-539750Y-1431925D01*
X-546100Y-1431925D01*
X-546100Y-1438275D01*
X-511175Y-1438275D01*
X-488950Y-1416050D01*
X-488950Y-1250950D01*
X-520700Y-1250950D01*
G37*
G54D12*
X-520700Y-1250950D02*
X-536575Y-1250950D01*
X-549275Y-1263650D01*
X-533400Y-1263650D01*
X-514350Y-1282700D01*
X-514350Y-1384300D01*
X-527050Y-1397000D01*
X-527050Y-1419225D01*
X-539750Y-1431925D01*
X-546100Y-1431925D01*
X-546100Y-1438275D01*
X-511175Y-1438275D01*
X-488950Y-1416050D01*
X-488950Y-1250950D01*
X-520700Y-1250950D01*
G54D12*
X-546100Y-1657350D02*
X-546100Y-1625600D01*
G54D12*
X-330200Y-1657350D02*
X-330200Y-1625600D01*
X-330200Y-1073150D02*
G54D13*
D03*
X-254000Y-1073150D02*
G54D13*
D03*
X-330200Y-1098550D02*
G54D13*
D03*
X-254000Y-1098550D02*
G54D13*
D03*
G54D11*
X-469900Y-1435100D02*
X-488950Y-1435100D01*
X-527050Y-1473200D01*
X-546100Y-1473200D01*
X-254000Y-1143000D02*
G54D10*
D03*
X-279400Y-1143000D02*
G54D10*
D03*
X-304800Y-1143000D02*
G54D10*
D03*
X-330200Y-1143000D02*
G54D10*
D03*
X-254000Y-1219200D02*
G54D10*
D03*
X-279400Y-1219200D02*
G54D10*
D03*
X-304800Y-1219200D02*
G54D10*
D03*
X-330200Y-1219200D02*
G54D10*
D03*
X-355600Y-1143000D02*
G54D10*
D03*
X-355600Y-1219200D02*
G54D10*
D03*
X-381000Y-1143000D02*
G54D10*
D03*
X-406400Y-1143000D02*
G54D10*
D03*
X-381000Y-1219200D02*
G54D10*
D03*
X-406400Y-1219200D02*
G54D10*
D03*
X-444500Y-1219200D02*
G54D10*
D03*
X-444500Y-1193800D02*
G54D10*
D03*
X-444500Y-1168400D02*
G54D10*
D03*
X-444500Y-1143000D02*
G54D10*
D03*
X-520700Y-1219200D02*
G54D10*
D03*
X-520700Y-1193800D02*
G54D10*
D03*
X-520700Y-1168400D02*
G54D10*
D03*
X-520700Y-1143000D02*
G54D10*
D03*
X-444500Y-1117600D02*
G54D10*
D03*
X-520700Y-1117600D02*
G54D10*
D03*
X-444500Y-1092200D02*
G54D10*
D03*
X-444500Y-1066800D02*
G54D10*
D03*
X-520700Y-1092200D02*
G54D10*
D03*
X-520700Y-1066800D02*
G54D10*
D03*
G54D11*
X-330200Y-990600D02*
X-317500Y-990600D01*
X-314325Y-993775D01*
X-314325Y-1057275D01*
X-330200Y-1073150D01*
G54D11*
X-254000Y-1098550D02*
X-266700Y-1098550D01*
X-269875Y-1095375D01*
X-269875Y-1019175D01*
X-266700Y-1016000D01*
X-254000Y-1016000D01*
G54D12*
X-254000Y-1073150D02*
X-234950Y-1073150D01*
G54D11*
X-330200Y-939800D02*
X-317500Y-939800D01*
X-298450Y-958850D01*
X-298450Y-1111250D01*
X-279400Y-1130300D01*
X-279400Y-1143000D01*
G54D11*
X-254000Y-1143000D02*
X-288925Y-1108075D01*
X-288925Y-974725D01*
X-254000Y-939800D01*
X-368300Y-1104900D02*
G54D10*
D03*
X-393700Y-1104900D02*
G54D10*
D03*
X-419100Y-1104900D02*
G54D10*
D03*
X-368300Y-1066800D02*
G54D10*
D03*
G54D12*
X-419100Y-1066800D02*
X-419100Y-1089025D01*
X-444500Y-1035050D02*
G54D13*
D03*
X-368300Y-1035050D02*
G54D13*
D03*
G54D11*
X-368300Y-1104900D02*
X-368300Y-1092200D01*
X-384175Y-1076325D01*
X-384175Y-1050925D01*
X-368300Y-1035050D01*
G54D12*
X-368300Y-1066800D02*
X-349250Y-1066800D01*
X-349250Y-1047750D01*
X-342900Y-1041400D01*
X-330200Y-1041400D01*
G54D12*
X-349250Y-1066800D02*
X-349250Y-1092200D01*
X-342900Y-1098550D01*
X-330200Y-1098550D01*
G54D11*
X-254000Y-965200D02*
X-279400Y-990600D01*
X-279400Y-1104900D01*
X-257175Y-1127125D01*
X-244475Y-1127125D01*
X-238125Y-1133475D01*
G54D11*
X-444500Y-1143000D02*
X-431800Y-1143000D01*
X-415925Y-1158875D01*
X-244475Y-1158875D01*
X-238125Y-1152525D01*
X-238125Y-1133475D01*
G54D12*
X-444500Y-1193800D02*
X-444500Y-1168400D01*
X-520700Y-1117600D02*
G54D10*
D03*
X-355600Y-1143000D02*
G54D10*
D03*
X-304800Y-1219200D02*
G54D10*
D03*
X-520700Y-1143000D02*
G54D10*
D03*
X-279400Y-1219200D02*
G54D10*
D03*
X-406400Y-1219200D02*
G54D10*
D03*
X-330200Y-88900D02*
G54D10*
D03*
X-254000Y-1333500D02*
G54D10*
D03*
X-215900Y-1244600D02*
G54D10*
D03*
G54D11*
X-254000Y-1358900D02*
X-234950Y-1339850D01*
X-234950Y-1314450D01*
X-215900Y-1295400D01*
G54D11*
X-254000Y-1384300D02*
X-215900Y-1346200D01*
G54D11*
X-254000Y-1524000D02*
X-238125Y-1508125D01*
X-238125Y-1457325D01*
X-228600Y-1447800D01*
X-228600Y-1422400D01*
X-234950Y-1416050D01*
X-234950Y-1390650D01*
X-215900Y-1371600D01*
G54D11*
X-254000Y-1549400D02*
X-238125Y-1533525D01*
X-238125Y-1520825D01*
X-228600Y-1511300D01*
X-228600Y-1460500D01*
X-200025Y-1431925D01*
X-200025Y-1336675D01*
X-215900Y-1320800D01*
G54D11*
X-254000Y-1574800D02*
X-228600Y-1549400D01*
X-228600Y-1524000D01*
X-219075Y-1514475D01*
X-219075Y-1463675D01*
X-190500Y-1435100D01*
X-190500Y-1295400D01*
X-215900Y-1270000D01*
G54D11*
X-254000Y-1600200D02*
X-238125Y-1584325D01*
X-219075Y-1562100D01*
X-219075Y-1527175D01*
X-209550Y-1517650D01*
X-209550Y-1466850D01*
X-180975Y-1438275D01*
X-180975Y-1254125D01*
X-215900Y-1219200D01*
X-279400Y-1143000D02*
G54D10*
D03*
X-215900Y-1168400D02*
G54D10*
D03*
X-304800Y-1143000D02*
G54D10*
D03*
X-254000Y-1435100D02*
G54D10*
D03*
X-254000Y-1409700D02*
G54D10*
D03*
X-330200Y-1098550D02*
G54D13*
D03*
X-254000Y-1073150D02*
G54D13*
D03*
X-254000Y-1384300D02*
G54D10*
D03*
X-444500Y-1168400D02*
G54D10*
D03*
X-609600Y-1435100D02*
G54D10*
D03*
G54D11*
X-254000Y-1098550D02*
X-215900Y-1136650D01*
X-215900Y-1146175D01*
X-200025Y-1162050D01*
X-200025Y-1222375D01*
X-171450Y-1250950D01*
X-171450Y-1403350D01*
X-152400Y-1422400D01*
X-127000Y-1422400D01*
X-82550Y-1377950D01*
X-69850Y-1377950D01*
X-50800Y-1397000D01*
X-330200Y-1073150D02*
G54D13*
D03*
X-469900Y-1282700D02*
G54D10*
D03*
G54D12*
X-469900Y-1250950D02*
X-469900Y-1206500D01*
X-457200Y-1193800D01*
X-444500Y-1193800D01*
X-520700Y-1219200D02*
G54D10*
D03*
X-190500Y-1136650D02*
G54D10*
D03*
X-215900Y-1397000D02*
G54D10*
D03*
G54D12*
X-190500Y-1136650D02*
X-158750Y-1104900D01*
G54D12*
X-139700Y-1136650D02*
X-139700Y-1168400D01*
X-215900Y-1104900D02*
G54D10*
D03*
X-139700Y-1136650D02*
G54D10*
D03*
G54D11*
X-215900Y-876300D02*
X-203200Y-876300D01*
X-200025Y-879475D01*
X-200025Y-1117600D01*
X-206375Y-1123950D01*
X-206375Y-1143000D01*
X-190500Y-1158875D01*
X-190500Y-1219200D01*
X-161925Y-1247775D01*
X-161925Y-1400175D01*
X-149225Y-1412875D01*
X-130175Y-1412875D01*
X-85725Y-1368425D01*
X-66675Y-1368425D01*
X-57150Y-1377950D01*
X-44450Y-1377950D01*
X-31750Y-1390650D01*
X-31750Y-1403350D01*
X-50800Y-1422400D01*
X-558800Y-1066800D02*
G54D10*
D03*
G54D11*
X-438150Y-1409700D02*
X-409575Y-1381125D01*
X-409575Y-1285875D01*
X-444500Y-1250950D01*
X-444500Y-1219200D01*
G54D12*
X-520700Y-1219200D02*
X-520700Y-1193800D01*
G54D11*
X-393700Y-1104900D02*
X-393700Y-1117600D01*
X-381000Y-1130300D01*
X-381000Y-1143000D01*
G54D12*
X-419100Y-1089025D02*
X-419100Y-1130300D01*
X-406400Y-1143000D01*
X-368300Y-977900D02*
G54D10*
D03*
G54D12*
X-330200Y-1098550D02*
X-330200Y-1143000D01*
G54D12*
X-444500Y-1193800D02*
X-266700Y-1193800D01*
X-254000Y-1206500D01*
X-254000Y-1219200D01*
X-76200Y-1174750D02*
G54D15*
D03*
X-50800Y-1174750D02*
G54D15*
D03*
X-50800Y-1200150D02*
G54D15*
D03*
X-76200Y-1200150D02*
G54D15*
D03*
X-76200Y-1225550D02*
G54D15*
D03*
X-50800Y-1225550D02*
G54D15*
D03*
X-50800Y-1250950D02*
G54D15*
D03*
X-76200Y-1250950D02*
G54D15*
D03*
X-76200Y-1276350D02*
G54D15*
D03*
G36*
X-60800Y-1272200D02*
X-54950Y-1266350D01*
X-46650Y-1266350D01*
X-40800Y-1272200D01*
X-40800Y-1280500D01*
X-46650Y-1286350D01*
X-54950Y-1286350D01*
X-60800Y-1280500D01*
X-60800Y-1272200D01*
G37*
X-76200Y-1397000D02*
G54D15*
D03*
X-50800Y-1397000D02*
G54D15*
D03*
X-50800Y-1422400D02*
G54D15*
D03*
X-76200Y-1422400D02*
G54D15*
D03*
X-76200Y-1447800D02*
G54D15*
D03*
X-50800Y-1447800D02*
G54D15*
D03*
X-50800Y-1473200D02*
G54D15*
D03*
X-76200Y-1473200D02*
G54D15*
D03*
X-76200Y-1498600D02*
G54D15*
D03*
G36*
X-60800Y-1494450D02*
X-54950Y-1488600D01*
X-46650Y-1488600D01*
X-40800Y-1494450D01*
X-40800Y-1502750D01*
X-46650Y-1508600D01*
X-54950Y-1508600D01*
X-60800Y-1502750D01*
X-60800Y-1494450D01*
G37*
X-190500Y-1485900D02*
G54D15*
D03*
X-165100Y-1485900D02*
G54D15*
D03*
X-165100Y-1511300D02*
G54D15*
D03*
X-190500Y-1511300D02*
G54D15*
D03*
X-190500Y-1536700D02*
G54D15*
D03*
X-165100Y-1536700D02*
G54D15*
D03*
X-165100Y-1562100D02*
G54D15*
D03*
X-190500Y-1562100D02*
G54D15*
D03*
X-190500Y-1587500D02*
G54D15*
D03*
G36*
X-175100Y-1583350D02*
X-169250Y-1577500D01*
X-160950Y-1577500D01*
X-155100Y-1583350D01*
X-155100Y-1591650D01*
X-160950Y-1597500D01*
X-169250Y-1597500D01*
X-175100Y-1591650D01*
X-175100Y-1583350D01*
G37*
X-139700Y-1219200D02*
G54D10*
D03*
X-139700Y-1270000D02*
G54D10*
D03*
X-139700Y-1320800D02*
G54D10*
D03*
X-139700Y-1371600D02*
G54D10*
D03*
G54D11*
X-139700Y-1219200D02*
X-120650Y-1219200D01*
X-76200Y-1174750D01*
G54D11*
X-139700Y-1270000D02*
X-95250Y-1225550D01*
X-95250Y-1219200D01*
X-76200Y-1200150D01*
G54D11*
X-139700Y-1320800D02*
X-123825Y-1304925D01*
X-123825Y-1273175D01*
X-76200Y-1225550D01*
G54D11*
X-139700Y-1371600D02*
X-114300Y-1346200D01*
X-114300Y-1276350D01*
X-88900Y-1250950D01*
X-76200Y-1250950D01*
G54D12*
X-76200Y-1276350D02*
X-50800Y-1276350D01*
G54D12*
X-76200Y-1498600D02*
X-50800Y-1498600D01*
G54D12*
X-165100Y-1587500D02*
X-190500Y-1587500D01*
G54D11*
X-254000Y-1625600D02*
X-209550Y-1581150D01*
X-209550Y-1530350D01*
X-190500Y-1511300D01*
G54D12*
X-165100Y-1562100D02*
X-190500Y-1562100D01*
X-444500Y-1092200D02*
G54D10*
D03*
G54D11*
X-190500Y-1485900D02*
X-152400Y-1447800D01*
X-76200Y-1447800D01*
X-330200Y-1625600D02*
G54D10*
D03*
G54D11*
X-381000Y-1219200D02*
X-330200Y-1219200D01*
G54D12*
X-473075Y-1066800D02*
X-473075Y-1187450D01*
X-488950Y-1203325D01*
X-488950Y-1250950D01*
G36*
X-139700Y-1101725D02*
X-139700Y-1117600D01*
X-130175Y-1117600D01*
X-120650Y-1127125D01*
X-120650Y-1146175D01*
X-114300Y-1152525D01*
X-41275Y-1152525D01*
X-31750Y-1162050D01*
X-19050Y-1162050D01*
X-19050Y-996950D01*
X-123825Y-1101725D01*
X-139700Y-1101725D01*
G37*
G54D12*
X-139700Y-1101725D02*
X-139700Y-1117600D01*
X-130175Y-1117600D01*
X-120650Y-1127125D01*
X-120650Y-1146175D01*
X-114300Y-1152525D01*
X-41275Y-1152525D01*
X-31750Y-1162050D01*
X-19050Y-1162050D01*
X-19050Y-996950D01*
X-123825Y-1101725D01*
X-139700Y-1101725D01*
G36*
X-101600Y-1349375D02*
X-101600Y-1282700D01*
X-95250Y-1276350D01*
X-38100Y-1276350D01*
X-28575Y-1266825D01*
X-31750Y-1162050D01*
X-19050Y-1162050D01*
X-19050Y-1384300D01*
X-38100Y-1365250D01*
X-50800Y-1365250D01*
X-60325Y-1355725D01*
X-95250Y-1355725D01*
X-101600Y-1349375D01*
G37*
G54D12*
X-101600Y-1349375D02*
X-101600Y-1282700D01*
X-95250Y-1276350D01*
X-38100Y-1276350D01*
X-28575Y-1266825D01*
X-31750Y-1162050D01*
X-19050Y-1162050D01*
X-19050Y-1384300D01*
X-38100Y-1365250D01*
X-50800Y-1365250D01*
X-60325Y-1355725D01*
X-95250Y-1355725D01*
X-101600Y-1349375D01*
G36*
X-165100Y-1587500D02*
X-155575Y-1587500D01*
X-130175Y-1562100D01*
X-130175Y-1504950D01*
X-123825Y-1498600D01*
X-76200Y-1498600D01*
X-38100Y-1498600D01*
X-28575Y-1489075D01*
X-28575Y-1419225D01*
X-19050Y-1409700D01*
X-19050Y-1384300D01*
X-19050Y-1666875D01*
X-273050Y-1666875D01*
X-273050Y-1635125D01*
X-263525Y-1644650D01*
X-244475Y-1644650D01*
X-234950Y-1635125D01*
X-234950Y-1625600D01*
X-196850Y-1587500D01*
X-165100Y-1587500D01*
G37*
G54D12*
X-165100Y-1587500D02*
X-155575Y-1587500D01*
X-130175Y-1562100D01*
X-130175Y-1504950D01*
X-123825Y-1498600D01*
X-76200Y-1498600D01*
X-38100Y-1498600D01*
X-28575Y-1489075D01*
X-28575Y-1419225D01*
X-19050Y-1409700D01*
X-19050Y-1384300D01*
X-19050Y-1666875D01*
X-273050Y-1666875D01*
X-273050Y-1635125D01*
X-263525Y-1644650D01*
X-244475Y-1644650D01*
X-234950Y-1635125D01*
X-234950Y-1625600D01*
X-196850Y-1587500D01*
X-165100Y-1587500D01*
G54D12*
X-165100Y-1562100D02*
X-152400Y-1562100D01*
X-146050Y-1555750D01*
X-146050Y-1498600D01*
X-120650Y-1473200D01*
X-76200Y-1473200D01*
G36*
X-457200Y-1666875D02*
X-447675Y-1676400D01*
X-428625Y-1676400D01*
X-419100Y-1666875D01*
X-349250Y-1666875D01*
X-339725Y-1676400D01*
X-320675Y-1676400D01*
X-311150Y-1666875D01*
X-19050Y-1666875D01*
X-19050Y-1692275D01*
X-565150Y-1692275D01*
X-565150Y-1666875D01*
X-555625Y-1676400D01*
X-536575Y-1676400D01*
X-527050Y-1666875D01*
X-457200Y-1666875D01*
G37*
G54D12*
X-457200Y-1666875D02*
X-447675Y-1676400D01*
X-428625Y-1676400D01*
X-419100Y-1666875D01*
X-349250Y-1666875D01*
X-339725Y-1676400D01*
X-320675Y-1676400D01*
X-311150Y-1666875D01*
X-19050Y-1666875D01*
X-19050Y-1692275D01*
X-565150Y-1692275D01*
X-565150Y-1666875D01*
X-555625Y-1676400D01*
X-536575Y-1676400D01*
X-527050Y-1666875D01*
X-457200Y-1666875D01*
G36*
X-254000Y-3175D02*
X-19050Y-3175D01*
X-19050Y-28575D01*
X-120650Y-28575D01*
X-130175Y-19050D01*
X-225425Y-19050D01*
X-234950Y-28575D01*
X-234950Y-60325D01*
X-241300Y-66675D01*
X-254000Y-66675D01*
X-254000Y-3175D01*
G37*
G54D12*
X-254000Y-3175D02*
X-19050Y-3175D01*
X-19050Y-28575D01*
X-120650Y-28575D01*
X-130175Y-19050D01*
X-225425Y-19050D01*
X-234950Y-28575D01*
X-234950Y-60325D01*
X-241300Y-66675D01*
X-254000Y-66675D01*
X-254000Y-3175D01*
G36*
X-19050Y-3175D02*
X-3175Y-3175D01*
X-3175Y-1692275D01*
X-19050Y-1692275D01*
X-19050Y-3175D01*
G37*
G54D12*
X-19050Y-3175D02*
X-3175Y-3175D01*
X-3175Y-1692275D01*
X-19050Y-1692275D01*
X-19050Y-3175D01*
X-50800Y-1644650D02*
G54D16*
D03*
X-50800Y-50800D02*
G54D16*
D03*
X-698500Y-1644650D02*
G54D16*
D03*
X-698500Y-50800D02*
G54D16*
D03*
G36*
X-282575Y-250825D02*
X-273050Y-250825D01*
X-263525Y-260350D01*
X-206375Y-260350D01*
X-196850Y-250825D01*
X-196850Y-28575D01*
X-206375Y-19050D01*
X-149225Y-19050D01*
X-158750Y-28575D01*
X-158750Y-276225D01*
X-149225Y-285750D01*
X-158750Y-285750D01*
X-168275Y-295275D01*
X-196850Y-295275D01*
X-206375Y-285750D01*
X-254000Y-285750D01*
X-263525Y-276225D01*
X-279400Y-276225D01*
X-282575Y-273050D01*
X-282575Y-250825D01*
G37*
G54D12*
X-282575Y-250825D02*
X-273050Y-250825D01*
X-263525Y-260350D01*
X-206375Y-260350D01*
X-196850Y-250825D01*
X-196850Y-28575D01*
X-206375Y-19050D01*
X-149225Y-19050D01*
X-158750Y-28575D01*
X-158750Y-276225D01*
X-149225Y-285750D01*
X-158750Y-285750D01*
X-168275Y-295275D01*
X-196850Y-295275D01*
X-206375Y-285750D01*
X-254000Y-285750D01*
X-263525Y-276225D01*
X-279400Y-276225D01*
X-282575Y-273050D01*
X-282575Y-250825D01*
X-304800Y-25400D02*
G54D10*
D03*
X-254000Y-25400D02*
G54D10*
D03*
X-590550Y-508000D02*
G54D10*
D03*
G54D12*
X-444500Y-787400D02*
X-444500Y-819150D01*
X-215900Y-266700D02*
G54D10*
D03*
X-361950Y-1250950D02*
G54D10*
D03*
X-469900Y-1250950D02*
G54D10*
D03*
X-546100Y-1657350D02*
G54D10*
D03*
X-635000Y-1066800D02*
G54D10*
D03*
X-635000Y-1092200D02*
G54D10*
D03*
X-635000Y-1117600D02*
G54D10*
D03*
X-635000Y-1143000D02*
G54D10*
D03*
X-558800Y-1066800D02*
G54D10*
D03*
X-558800Y-1092200D02*
G54D10*
D03*
X-558800Y-1117600D02*
G54D10*
D03*
X-558800Y-1143000D02*
G54D10*
D03*
X-635000Y-1168400D02*
G54D10*
D03*
X-558800Y-1168400D02*
G54D10*
D03*
X-635000Y-1193800D02*
G54D10*
D03*
X-635000Y-1219200D02*
G54D10*
D03*
X-558800Y-1193800D02*
G54D10*
D03*
X-558800Y-1219200D02*
G54D10*
D03*
X-635000Y-1244600D02*
G54D10*
D03*
X-558800Y-1244600D02*
G54D10*
D03*
G54D11*
X-635000Y-1092200D02*
X-635000Y-1117600D01*
G54D11*
X-635000Y-1066800D02*
X-622300Y-1066800D01*
X-615950Y-1073150D01*
X-615950Y-1162050D01*
X-622300Y-1168400D01*
X-635000Y-1168400D01*
X-635000Y-1143000D02*
G54D10*
D03*
X-558800Y-1143000D02*
G54D10*
D03*
G54D11*
X-558800Y-1168400D02*
X-571500Y-1168400D01*
X-577850Y-1162050D01*
X-577850Y-1098550D01*
X-571500Y-1092200D01*
X-558800Y-1092200D01*
G54D12*
X-660400Y-1193800D02*
X-635000Y-1193800D01*
G54D11*
X-558800Y-1219200D02*
X-558800Y-1244600D01*
X-558800Y-1244600D02*
G54D10*
D03*
X-558800Y-1193800D02*
G54D10*
D03*
X-685800Y-1143000D02*
G54D10*
D03*
X-685800Y-1193800D02*
G54D10*
D03*
X-685800Y-1066800D02*
G54D10*
D03*
X-685800Y-1117600D02*
G54D10*
D03*
G54D11*
X-685800Y-1117600D02*
X-635000Y-1117600D01*
G54D11*
X-685800Y-1143000D02*
X-660400Y-1143000D01*
X-660400Y-1155700D01*
X-647700Y-1168400D01*
X-635000Y-1168400D01*
X-609600Y-1035050D02*
G54D10*
D03*
X-660400Y-1035050D02*
G54D10*
D03*
G54D12*
X-609600Y-1035050D02*
X-584200Y-1035050D01*
G54D12*
X-660400Y-1066800D02*
X-660400Y-1035050D01*
G54D12*
X-685800Y-1193800D02*
X-685800Y-1171575D01*
X-704850Y-1152525D01*
X-704850Y-1108075D01*
X-685800Y-1089025D01*
X-685800Y-1066800D01*
G54D12*
X-635000Y-1244600D02*
X-587375Y-1244600D01*
X-568325Y-1263650D01*
X-549275Y-1263650D01*
X-536575Y-1250950D01*
X-520700Y-1250950D01*
X-558800Y-1117600D02*
G54D10*
D03*
G54D12*
X-330200Y-241300D02*
X-342900Y-241300D01*
X-349250Y-234950D01*
X-349250Y-53975D01*
X-339725Y-44450D01*
X-323850Y-44450D01*
X-304800Y-25400D01*
X-304800Y-25400D02*
G54D10*
D03*
X-577850Y-901700D02*
G54D10*
D03*
X-577850Y-927100D02*
G54D10*
D03*
X-577850Y-952500D02*
G54D10*
D03*
X-577850Y-977900D02*
G54D10*
D03*
X-501650Y-901700D02*
G54D10*
D03*
X-501650Y-927100D02*
G54D10*
D03*
X-501650Y-952500D02*
G54D10*
D03*
X-501650Y-977900D02*
G54D10*
D03*
X-685800Y-901700D02*
G54D10*
D03*
X-685800Y-927100D02*
G54D10*
D03*
X-685800Y-952500D02*
G54D10*
D03*
X-685800Y-977900D02*
G54D10*
D03*
X-609600Y-901700D02*
G54D10*
D03*
X-609600Y-927100D02*
G54D10*
D03*
X-609600Y-952500D02*
G54D10*
D03*
X-609600Y-977900D02*
G54D10*
D03*
X-584200Y-1035050D02*
G54D13*
D03*
X-508000Y-1035050D02*
G54D13*
D03*
G54D11*
X-523875Y-1168400D02*
X-533400Y-1168400D01*
X-539750Y-1162050D01*
X-539750Y-1060450D01*
X-523875Y-1044575D01*
X-523875Y-1035050D01*
X-508000Y-1035050D01*
X-520700Y-1092200D02*
G54D10*
D03*
X-520700Y-1066800D02*
G54D10*
D03*
X-609600Y-952500D02*
G54D10*
D03*
X-558800Y-768350D02*
G54D10*
D03*
X-609600Y-1009650D02*
G54D10*
D03*
X-660400Y-1009650D02*
G54D10*
D03*
G54D12*
X-660400Y-1035050D02*
X-660400Y-1009650D01*
X-685800Y-869950D02*
G54D10*
D03*
X-685800Y-819150D02*
G54D10*
D03*
X-660400Y-1219200D02*
G54D10*
D03*
X-660400Y-1270000D02*
G54D10*
D03*
X-584200Y-1009650D02*
G54D13*
D03*
X-508000Y-1009650D02*
G54D13*
D03*
X-508000Y-1009650D02*
G54D13*
D03*
G54D11*
X-609600Y-1009650D02*
X-584200Y-1009650D01*
G54D11*
X-609600Y-1009650D02*
X-609600Y-977900D01*
G54D12*
X-584200Y-1035050D02*
X-571500Y-1035050D01*
X-558800Y-1047750D01*
X-558800Y-1066800D01*
X-577850Y-927100D02*
G54D10*
D03*
X-539750Y-793750D02*
G54D10*
D03*
X-488950Y-793750D02*
G54D10*
D03*
G36*
X-495300Y-879475D02*
X-495300Y-841375D01*
X-492125Y-838200D01*
X-444500Y-838200D01*
X-444500Y-854075D01*
X-460375Y-854075D01*
X-473075Y-866775D01*
X-473075Y-901700D01*
X-495300Y-879475D01*
G37*
G54D12*
X-495300Y-879475D02*
X-495300Y-841375D01*
X-492125Y-838200D01*
X-444500Y-838200D01*
X-444500Y-854075D01*
X-460375Y-854075D01*
X-473075Y-866775D01*
X-473075Y-901700D01*
X-495300Y-879475D01*
X-577850Y-952500D02*
G54D10*
D03*
X-577850Y-977900D02*
G54D10*
D03*
X-660400Y-793750D02*
G54D10*
D03*
X-660400Y-717550D02*
G54D10*
D03*
X-558800Y-742950D02*
G54D10*
D03*
X-635000Y-742950D02*
G54D10*
D03*
X-488950Y-152400D02*
G54D10*
D03*
X-488950Y-228600D02*
G54D10*
D03*
X-488950Y-844550D02*
G54D10*
D03*
X-488950Y-692150D02*
G54D10*
D03*
X-488950Y-641350D02*
G54D10*
D03*
X-488950Y-844550D02*
G54D10*
D03*
X-514350Y-844550D02*
G54D10*
D03*
X-581025Y-844550D02*
G54D10*
D03*
X-555625Y-844550D02*
G54D10*
D03*
G36*
X-523875Y-1250950D02*
X-501650Y-1228725D01*
X-501650Y-1057275D01*
X-488950Y-1044575D01*
X-488950Y-993775D01*
X-482600Y-987425D01*
X-482600Y-892175D01*
X-473075Y-901700D01*
X-473075Y-1038225D01*
X-444500Y-1066800D01*
X-457200Y-1066800D01*
X-463550Y-1073150D01*
X-463550Y-1177925D01*
X-488950Y-1203325D01*
X-488950Y-1250950D01*
X-523875Y-1250950D01*
G37*
G54D12*
X-523875Y-1250950D02*
X-501650Y-1228725D01*
X-501650Y-1057275D01*
X-488950Y-1044575D01*
X-488950Y-993775D01*
X-482600Y-987425D01*
X-482600Y-892175D01*
X-473075Y-901700D01*
X-473075Y-1038225D01*
X-444500Y-1066800D01*
X-457200Y-1066800D01*
X-463550Y-1073150D01*
X-463550Y-1177925D01*
X-488950Y-1203325D01*
X-488950Y-1250950D01*
X-523875Y-1250950D01*
X-622300Y-844550D02*
G54D10*
D03*
X-647700Y-844550D02*
G54D10*
D03*
X-622300Y-793750D02*
G54D10*
D03*
X-571500Y-793750D02*
G54D10*
D03*
X-581025Y-844550D02*
G54D10*
D03*
X-685800Y-717550D02*
G54D10*
D03*
X-685800Y-793750D02*
G54D10*
D03*
X-635000Y-768350D02*
G54D10*
D03*
X-558800Y-768350D02*
G54D10*
D03*
G54D12*
X-622300Y-844550D02*
X-584200Y-844550D01*
G36*
X-606425Y-901700D02*
X-612775Y-901700D01*
X-612775Y-869950D01*
X-606425Y-863600D01*
X-571500Y-863600D01*
X-561975Y-854075D01*
X-561975Y-844550D01*
X-546100Y-828675D01*
X-517525Y-828675D01*
X-511175Y-835025D01*
X-511175Y-885825D01*
X-501650Y-895350D01*
X-501650Y-904875D01*
X-511175Y-904875D01*
X-520700Y-914400D01*
X-520700Y-981075D01*
X-523875Y-984250D01*
X-555625Y-984250D01*
X-558800Y-981075D01*
X-558800Y-892175D01*
X-568325Y-882650D01*
X-587375Y-882650D01*
X-606425Y-901700D01*
G37*
G54D12*
X-606425Y-901700D02*
X-612775Y-901700D01*
X-612775Y-869950D01*
X-606425Y-863600D01*
X-571500Y-863600D01*
X-561975Y-854075D01*
X-561975Y-844550D01*
X-546100Y-828675D01*
X-517525Y-828675D01*
X-511175Y-835025D01*
X-511175Y-885825D01*
X-501650Y-895350D01*
X-501650Y-904875D01*
X-511175Y-904875D01*
X-520700Y-914400D01*
X-520700Y-981075D01*
X-523875Y-984250D01*
X-555625Y-984250D01*
X-558800Y-981075D01*
X-558800Y-892175D01*
X-568325Y-882650D01*
X-587375Y-882650D01*
X-606425Y-901700D01*
G36*
X-692150Y-815975D02*
X-688975Y-812800D01*
X-625475Y-812800D01*
X-596900Y-841375D01*
X-584200Y-841375D01*
X-584200Y-847725D01*
X-622300Y-847725D01*
X-625475Y-844550D01*
X-625475Y-835025D01*
X-635000Y-825500D01*
X-688975Y-825500D01*
X-692150Y-822325D01*
X-692150Y-815975D01*
G37*
G54D12*
X-692150Y-815975D02*
X-688975Y-812800D01*
X-625475Y-812800D01*
X-596900Y-841375D01*
X-584200Y-841375D01*
X-584200Y-847725D01*
X-622300Y-847725D01*
X-625475Y-844550D01*
X-625475Y-835025D01*
X-635000Y-825500D01*
X-688975Y-825500D01*
X-692150Y-822325D01*
X-692150Y-815975D01*
G36*
X-622300Y-793750D02*
X-606425Y-793750D01*
X-584200Y-815975D01*
X-555625Y-815975D01*
X-542925Y-828675D01*
X-542925Y-844550D01*
X-561975Y-844550D01*
X-561975Y-835025D01*
X-571500Y-825500D01*
X-590550Y-825500D01*
X-622300Y-793750D01*
G37*
G54D12*
X-622300Y-793750D02*
X-606425Y-793750D01*
X-584200Y-815975D01*
X-555625Y-815975D01*
X-542925Y-828675D01*
X-542925Y-844550D01*
X-561975Y-844550D01*
X-561975Y-835025D01*
X-571500Y-825500D01*
X-590550Y-825500D01*
X-622300Y-793750D01*
X-571500Y-793750D02*
G54D10*
D03*
X-606425Y-654050D02*
G54D10*
D03*
G54D11*
X-609600Y-927100D02*
X-596900Y-927100D01*
X-593725Y-930275D01*
X-593725Y-987425D01*
X-587375Y-993775D01*
X-565150Y-993775D01*
X-523875Y-1035050D01*
G54D12*
X-609600Y-1035050D02*
X-622300Y-1035050D01*
X-628650Y-1028700D01*
X-628650Y-869950D01*
X-644525Y-854075D01*
X-644525Y-844550D01*
G54D12*
X-501650Y-952500D02*
X-501650Y-927100D01*
X-647700Y-844550D02*
G54D10*
D03*
X-533400Y-717550D02*
G54D10*
D03*
X-635000Y-717550D02*
G54D10*
D03*
X-584200Y-717550D02*
G54D10*
D03*
X-533400Y-742950D02*
G54D10*
D03*
X-488950Y-793750D02*
G54D10*
D03*
X-488950Y-717550D02*
G54D10*
D03*
X-666750Y-311150D02*
G54D10*
D03*
X-666750Y-260350D02*
G54D10*
D03*
G54D12*
X-685800Y-977900D02*
X-685800Y-869950D01*
X-488950Y-742950D02*
G54D10*
D03*
X-615950Y-508000D02*
G54D10*
D03*
X-615950Y-584200D02*
G54D10*
D03*
X-590550Y-584200D02*
G54D10*
D03*
X-539750Y-584200D02*
G54D10*
D03*
X-565150Y-584200D02*
G54D10*
D03*
X-565150Y-508000D02*
G54D10*
D03*
X-539750Y-508000D02*
G54D10*
D03*
X-641350Y-412750D02*
G54D13*
D03*
X-641350Y-336550D02*
G54D13*
D03*
X-666750Y-412750D02*
G54D13*
D03*
X-666750Y-336550D02*
G54D13*
D03*
X-488950Y-412750D02*
G54D13*
D03*
X-488950Y-336550D02*
G54D13*
D03*
X-514350Y-412750D02*
G54D13*
D03*
X-514350Y-336550D02*
G54D13*
D03*
X-641350Y-311150D02*
G54D10*
D03*
X-641350Y-260350D02*
G54D10*
D03*
X-514350Y-311150D02*
G54D10*
D03*
X-514350Y-260350D02*
G54D10*
D03*
X-488950Y-311150D02*
G54D10*
D03*
X-488950Y-260350D02*
G54D10*
D03*
X-565150Y-469900D02*
G54D13*
D03*
X-666750Y-584200D02*
G54D10*
D03*
X-641350Y-584200D02*
G54D10*
D03*
X-615950Y-584200D02*
G54D10*
D03*
X-590550Y-584200D02*
G54D10*
D03*
X-666750Y-508000D02*
G54D10*
D03*
X-641350Y-508000D02*
G54D10*
D03*
X-615950Y-508000D02*
G54D10*
D03*
X-590550Y-508000D02*
G54D10*
D03*
X-565150Y-584200D02*
G54D10*
D03*
X-565150Y-508000D02*
G54D10*
D03*
X-539750Y-584200D02*
G54D10*
D03*
X-514350Y-584200D02*
G54D10*
D03*
X-539750Y-508000D02*
G54D10*
D03*
X-514350Y-508000D02*
G54D10*
D03*
X-488950Y-584200D02*
G54D10*
D03*
X-488950Y-508000D02*
G54D10*
D03*
G54D12*
X-666750Y-609600D02*
X-666750Y-495300D01*
X-660400Y-488950D01*
X-552450Y-488950D01*
X-615950Y-228600D02*
G54D10*
D03*
X-565150Y-228600D02*
G54D10*
D03*
G54D12*
X-660400Y-793750D02*
X-622300Y-793750D01*
G54D12*
X-685800Y-793750D02*
X-685800Y-819150D01*
X-539750Y-654050D02*
G54D10*
D03*
X-539750Y-679450D02*
G54D10*
D03*
X-488950Y-717550D02*
G54D10*
D03*
X-488950Y-742950D02*
G54D10*
D03*
X-488950Y-768350D02*
G54D10*
D03*
X-533400Y-717550D02*
G54D10*
D03*
X-533400Y-742950D02*
G54D10*
D03*
X-533400Y-768350D02*
G54D10*
D03*
G54D12*
X-488950Y-742950D02*
X-473075Y-742950D01*
X-466725Y-736600D01*
X-466725Y-717550D01*
X-460375Y-711200D01*
X-444500Y-711200D01*
G54D12*
X-635000Y-768350D02*
X-650875Y-768350D01*
X-660400Y-758825D01*
X-660400Y-717550D01*
G54D12*
X-558800Y-768350D02*
X-533400Y-768350D01*
G36*
X-549275Y-800100D02*
X-549275Y-784225D01*
X-561975Y-771525D01*
X-561975Y-768350D01*
X-558800Y-765175D01*
X-508000Y-765175D01*
X-508000Y-803275D01*
X-498475Y-812800D01*
X-479425Y-812800D01*
X-454025Y-787400D01*
X-444500Y-787400D01*
X-444500Y-822325D01*
X-501650Y-822325D01*
X-511175Y-812800D01*
X-536575Y-812800D01*
X-549275Y-800100D01*
G37*
G54D12*
X-549275Y-800100D02*
X-549275Y-784225D01*
X-561975Y-771525D01*
X-561975Y-768350D01*
X-558800Y-765175D01*
X-508000Y-765175D01*
X-508000Y-803275D01*
X-498475Y-812800D01*
X-479425Y-812800D01*
X-454025Y-787400D01*
X-444500Y-787400D01*
X-444500Y-822325D01*
X-501650Y-822325D01*
X-511175Y-812800D01*
X-536575Y-812800D01*
X-549275Y-800100D01*
G54D12*
X-498475Y-812800D02*
X-479425Y-812800D01*
X-454025Y-787400D01*
X-444500Y-787400D01*
X-606425Y-654050D02*
G54D10*
D03*
X-606425Y-679450D02*
G54D10*
D03*
X-673100Y-679450D02*
G54D10*
D03*
X-673100Y-654050D02*
G54D10*
D03*
G54D11*
X-514350Y-584200D02*
X-514350Y-571500D01*
X-495300Y-552450D01*
X-473075Y-552450D01*
X-450850Y-530225D01*
G54D11*
X-641350Y-584200D02*
X-641350Y-571500D01*
X-638175Y-568325D01*
X-523875Y-568325D01*
X-498475Y-542925D01*
X-476250Y-542925D01*
X-454025Y-520700D01*
G54D11*
X-460375Y-501650D02*
X-482600Y-523875D01*
X-511175Y-523875D01*
X-514350Y-520700D01*
X-514350Y-508000D01*
G54D11*
X-457200Y-511175D02*
X-479425Y-533400D01*
X-514350Y-533400D01*
X-523875Y-523875D01*
X-638175Y-523875D01*
X-641350Y-520700D01*
X-641350Y-508000D01*
G36*
X-565150Y-790575D02*
X-565150Y-796925D01*
X-568325Y-800100D01*
X-577850Y-800100D01*
X-590550Y-787400D01*
X-590550Y-739775D01*
X-587375Y-736600D01*
X-574675Y-736600D01*
X-565150Y-727075D01*
X-552450Y-727075D01*
X-552450Y-742950D01*
X-558800Y-749300D01*
X-568325Y-749300D01*
X-577850Y-758825D01*
X-577850Y-777875D01*
X-565150Y-790575D01*
G37*
G54D12*
X-565150Y-790575D02*
X-565150Y-796925D01*
X-568325Y-800100D01*
X-577850Y-800100D01*
X-590550Y-787400D01*
X-590550Y-739775D01*
X-587375Y-736600D01*
X-574675Y-736600D01*
X-565150Y-727075D01*
X-552450Y-727075D01*
X-552450Y-742950D01*
X-558800Y-749300D01*
X-568325Y-749300D01*
X-577850Y-758825D01*
X-577850Y-777875D01*
X-565150Y-790575D01*
G54D12*
X-635000Y-768350D02*
X-619125Y-768350D01*
X-606425Y-755650D01*
X-606425Y-717550D01*
X-584200Y-717550D01*
G54D12*
X-635000Y-742950D02*
X-635000Y-704850D01*
X-641350Y-698500D01*
X-679450Y-698500D01*
X-685800Y-704850D01*
X-685800Y-717550D01*
G54D12*
X-673100Y-654050D02*
X-606425Y-654050D01*
G36*
X-492125Y-768350D02*
X-485775Y-768350D01*
X-485775Y-793750D01*
X-492125Y-793750D01*
X-492125Y-768350D01*
G37*
G54D12*
X-492125Y-768350D02*
X-485775Y-768350D01*
X-485775Y-793750D01*
X-492125Y-793750D01*
X-492125Y-768350D01*
G54D12*
X-673100Y-679450D02*
X-673100Y-698500D01*
G54D12*
X-606425Y-679450D02*
X-606425Y-717550D01*
G36*
X-523875Y-765175D02*
X-514350Y-755650D01*
X-514350Y-708025D01*
X-523875Y-698500D01*
X-536575Y-698500D01*
X-542925Y-692150D01*
X-542925Y-679450D01*
X-539750Y-676275D01*
X-479425Y-676275D01*
X-463550Y-660400D01*
X-463550Y-692150D01*
X-469900Y-698500D01*
X-498475Y-698500D01*
X-508000Y-708025D01*
X-508000Y-765175D01*
X-523875Y-765175D01*
G37*
G54D12*
X-523875Y-765175D02*
X-514350Y-755650D01*
X-514350Y-708025D01*
X-523875Y-698500D01*
X-536575Y-698500D01*
X-542925Y-692150D01*
X-542925Y-679450D01*
X-539750Y-676275D01*
X-479425Y-676275D01*
X-463550Y-660400D01*
X-463550Y-692150D01*
X-469900Y-698500D01*
X-498475Y-698500D01*
X-508000Y-708025D01*
X-508000Y-765175D01*
X-523875Y-765175D01*
G36*
X-565150Y-708025D02*
X-574675Y-698500D01*
X-584200Y-698500D01*
X-587375Y-695325D01*
X-587375Y-603250D01*
X-479425Y-603250D01*
X-479425Y-654050D01*
X-485775Y-660400D01*
X-549275Y-660400D01*
X-558800Y-669925D01*
X-558800Y-698500D01*
X-552450Y-704850D01*
X-552450Y-727075D01*
X-565150Y-727075D01*
X-565150Y-708025D01*
G37*
G54D12*
X-565150Y-708025D02*
X-574675Y-698500D01*
X-584200Y-698500D01*
X-587375Y-695325D01*
X-587375Y-603250D01*
X-479425Y-603250D01*
X-479425Y-654050D01*
X-485775Y-660400D01*
X-549275Y-660400D01*
X-558800Y-669925D01*
X-558800Y-698500D01*
X-552450Y-704850D01*
X-552450Y-727075D01*
X-565150Y-727075D01*
X-565150Y-708025D01*
G54D11*
X-663575Y-828675D02*
X-663575Y-854075D01*
X-641350Y-876300D01*
X-641350Y-1035050D01*
X-606425Y-1069975D01*
X-606425Y-1203325D01*
X-622300Y-1219200D01*
X-635000Y-1219200D01*
G54D12*
X-660400Y-1219200D02*
X-635000Y-1219200D01*
G36*
X-663575Y-835025D02*
X-657225Y-828675D01*
X-669925Y-828675D01*
X-663575Y-835025D01*
G37*
G54D11*
X-663575Y-835025D02*
X-657225Y-828675D01*
X-669925Y-828675D01*
X-663575Y-835025D01*
G36*
X-587375Y-603250D02*
X-631825Y-603250D01*
X-657225Y-628650D01*
X-676275Y-628650D01*
X-685800Y-619125D01*
X-685800Y-298450D01*
X-660400Y-273050D01*
X-641350Y-273050D01*
X-635000Y-266700D01*
X-635000Y-260350D01*
X-746125Y-260350D01*
X-746125Y-793750D01*
X-704850Y-793750D01*
X-704850Y-701675D01*
X-692150Y-688975D01*
X-692150Y-644525D01*
X-682625Y-635000D01*
X-596900Y-635000D01*
X-587375Y-644525D01*
X-587375Y-603250D01*
G37*
G54D12*
X-587375Y-603250D02*
X-631825Y-603250D01*
X-657225Y-628650D01*
X-676275Y-628650D01*
X-685800Y-619125D01*
X-685800Y-298450D01*
X-660400Y-273050D01*
X-641350Y-273050D01*
X-635000Y-266700D01*
X-635000Y-260350D01*
X-746125Y-260350D01*
X-746125Y-793750D01*
X-704850Y-793750D01*
X-704850Y-701675D01*
X-692150Y-688975D01*
X-692150Y-644525D01*
X-682625Y-635000D01*
X-596900Y-635000D01*
X-587375Y-644525D01*
X-587375Y-603250D01*
G36*
X-704850Y-793750D02*
X-704850Y-806450D01*
X-708025Y-809625D01*
X-708025Y-828675D01*
X-654050Y-882650D01*
X-654050Y-1066800D01*
X-746125Y-1066800D01*
X-746125Y-793750D01*
X-704850Y-793750D01*
G37*
G54D12*
X-704850Y-793750D02*
X-704850Y-806450D01*
X-708025Y-809625D01*
X-708025Y-828675D01*
X-654050Y-882650D01*
X-654050Y-1066800D01*
X-746125Y-1066800D01*
X-746125Y-793750D01*
X-704850Y-793750D01*
X-660400Y-793750D02*
G54D10*
D03*
X-685800Y-869950D02*
G54D10*
D03*
X-660400Y-1143000D02*
G54D10*
D03*
X-660400Y-1193800D02*
G54D10*
D03*
X-660400Y-1066800D02*
G54D10*
D03*
X-660400Y-1117600D02*
G54D10*
D03*
G36*
X-746125Y-1066800D02*
X-654050Y-1066800D01*
X-654050Y-1092200D01*
X-660400Y-1098550D01*
X-695325Y-1098550D01*
X-704850Y-1108075D01*
X-704850Y-1152525D01*
X-666750Y-1190625D01*
X-660400Y-1190625D01*
X-660400Y-1196975D01*
X-669925Y-1196975D01*
X-679450Y-1206500D01*
X-679450Y-1231900D01*
X-669925Y-1241425D01*
X-590550Y-1241425D01*
X-568325Y-1263650D01*
X-555625Y-1263650D01*
X-574675Y-1282700D01*
X-600075Y-1282700D01*
X-625475Y-1257300D01*
X-644525Y-1257300D01*
X-654050Y-1266825D01*
X-654050Y-1285875D01*
X-666750Y-1285875D01*
X-666750Y-1260475D01*
X-676275Y-1250950D01*
X-695325Y-1250950D01*
X-704850Y-1260475D01*
X-704850Y-1301750D01*
X-746125Y-1301750D01*
X-746125Y-1066800D01*
G37*
G54D12*
X-746125Y-1066800D02*
X-654050Y-1066800D01*
X-654050Y-1092200D01*
X-660400Y-1098550D01*
X-695325Y-1098550D01*
X-704850Y-1108075D01*
X-704850Y-1152525D01*
X-666750Y-1190625D01*
X-660400Y-1190625D01*
X-660400Y-1196975D01*
X-669925Y-1196975D01*
X-679450Y-1206500D01*
X-679450Y-1231900D01*
X-669925Y-1241425D01*
X-590550Y-1241425D01*
X-568325Y-1263650D01*
X-555625Y-1263650D01*
X-574675Y-1282700D01*
X-600075Y-1282700D01*
X-625475Y-1257300D01*
X-644525Y-1257300D01*
X-654050Y-1266825D01*
X-654050Y-1285875D01*
X-666750Y-1285875D01*
X-666750Y-1260475D01*
X-676275Y-1250950D01*
X-695325Y-1250950D01*
X-704850Y-1260475D01*
X-704850Y-1301750D01*
X-746125Y-1301750D01*
X-746125Y-1066800D01*
X-539750Y-412750D02*
G54D10*
D03*
X-539750Y-387350D02*
G54D10*
D03*
X-539750Y-361950D02*
G54D10*
D03*
X-539750Y-336550D02*
G54D10*
D03*
X-615950Y-412750D02*
G54D10*
D03*
X-615950Y-387350D02*
G54D10*
D03*
X-615950Y-361950D02*
G54D10*
D03*
X-615950Y-336550D02*
G54D10*
D03*
X-539750Y-311150D02*
G54D10*
D03*
X-615950Y-311150D02*
G54D10*
D03*
X-539750Y-285750D02*
G54D10*
D03*
X-539750Y-260350D02*
G54D10*
D03*
X-615950Y-285750D02*
G54D10*
D03*
X-615950Y-260350D02*
G54D10*
D03*
X-666750Y-444500D02*
G54D13*
D03*
X-590550Y-444500D02*
G54D13*
D03*
X-565150Y-444500D02*
G54D13*
D03*
X-488950Y-444500D02*
G54D13*
D03*
X-666750Y-469900D02*
G54D13*
D03*
X-590550Y-469900D02*
G54D13*
D03*
X-565150Y-469900D02*
G54D13*
D03*
X-488950Y-469900D02*
G54D13*
D03*
G54D12*
X-590550Y-444500D02*
X-590550Y-488950D01*
G54D12*
X-488950Y-444500D02*
X-488950Y-469900D01*
G54D11*
X-565150Y-444500D02*
X-565150Y-400050D01*
X-552450Y-387350D01*
X-539750Y-387350D01*
G54D11*
X-565150Y-469900D02*
X-552450Y-469900D01*
X-539750Y-457200D01*
X-539750Y-412750D01*
X-387350Y-279400D02*
G54D15*
D03*
X-412750Y-279400D02*
G54D15*
D03*
X-412750Y-254000D02*
G54D15*
D03*
X-387350Y-254000D02*
G54D15*
D03*
X-387350Y-228600D02*
G54D15*
D03*
X-412750Y-228600D02*
G54D15*
D03*
X-412750Y-203200D02*
G54D15*
D03*
X-387350Y-203200D02*
G54D15*
D03*
X-387350Y-177800D02*
G54D15*
D03*
G36*
X-402750Y-181950D02*
X-408600Y-187800D01*
X-416900Y-187800D01*
X-422750Y-181950D01*
X-422750Y-173650D01*
X-416900Y-167800D01*
X-408600Y-167800D01*
X-402750Y-173650D01*
X-402750Y-181950D01*
G37*
X-463550Y-361950D02*
G54D10*
D03*
X-463550Y-412750D02*
G54D10*
D03*
G54D11*
X-641350Y-336550D02*
X-641350Y-311150D01*
G54D11*
X-666750Y-336550D02*
X-666750Y-311150D01*
G54D11*
X-514350Y-336550D02*
X-514350Y-311150D01*
G54D11*
X-488950Y-311150D02*
X-488950Y-336550D01*
X-565150Y-444500D02*
G54D13*
D03*
X-514350Y-412750D02*
G54D13*
D03*
X-488950Y-412750D02*
G54D13*
D03*
G54D12*
X-539750Y-361950D02*
X-501650Y-361950D01*
X-463550Y-400050D01*
X-463550Y-412750D01*
X-666750Y-444500D02*
G54D13*
D03*
X-666750Y-469900D02*
G54D13*
D03*
X-666750Y-412750D02*
G54D13*
D03*
X-641350Y-412750D02*
G54D13*
D03*
G54D11*
X-666750Y-444500D02*
X-635000Y-444500D01*
X-615950Y-425450D01*
X-615950Y-412750D01*
G54D11*
X-666750Y-469900D02*
X-647700Y-469900D01*
X-596900Y-419100D01*
X-596900Y-393700D01*
X-603250Y-387350D01*
X-615950Y-387350D01*
G54D11*
X-539750Y-311150D02*
X-514350Y-311150D01*
G54D11*
X-539750Y-260350D02*
X-488950Y-311150D01*
G54D11*
X-615950Y-336550D02*
X-641350Y-336550D01*
G54D11*
X-666750Y-311150D02*
X-666750Y-298450D01*
X-654050Y-285750D01*
X-615950Y-285750D01*
X-615950Y-203200D02*
G54D10*
D03*
X-565150Y-203200D02*
G54D10*
D03*
X-463550Y-260350D02*
G54D10*
D03*
X-463550Y-336550D02*
G54D10*
D03*
X-514350Y-152400D02*
G54D13*
D03*
X-514350Y-228600D02*
G54D13*
D03*
X-539750Y-228600D02*
G54D13*
D03*
X-539750Y-152400D02*
G54D13*
D03*
X-565150Y-152400D02*
G54D10*
D03*
X-615950Y-152400D02*
G54D10*
D03*
G54D12*
X-514350Y-260350D02*
X-488950Y-260350D01*
X-488950Y-273050D01*
X-463550Y-298450D01*
X-463550Y-361950D01*
X-615950Y-228600D02*
G54D10*
D03*
X-463550Y-260350D02*
G54D10*
D03*
G54D11*
X-463550Y-260350D02*
X-463550Y-228600D01*
X-488950Y-228600D01*
X-615950Y-177800D02*
G54D10*
D03*
X-565150Y-177800D02*
G54D10*
D03*
X-514350Y-260350D02*
G54D10*
D03*
X-463550Y-228600D02*
G54D13*
D03*
X-463550Y-152400D02*
G54D13*
D03*
G54D12*
X-539750Y-152400D02*
X-488950Y-152400D01*
G54D11*
X-565150Y-244475D02*
X-517525Y-244475D01*
X-514350Y-241300D01*
X-514350Y-228600D01*
G54D11*
X-565150Y-177800D02*
X-577850Y-177800D01*
X-590550Y-190500D01*
X-590550Y-298450D01*
X-603250Y-311150D01*
X-615950Y-311150D01*
G54D11*
X-565150Y-203200D02*
X-539750Y-203200D01*
X-539750Y-228600D01*
G54D11*
X-514350Y-228600D02*
X-514350Y-215900D01*
X-511175Y-212725D01*
X-454025Y-212725D01*
X-441325Y-225425D01*
X-441325Y-250825D01*
X-412750Y-279400D01*
G54D11*
X-412750Y-254000D02*
X-431800Y-234950D01*
X-431800Y-222250D01*
X-450850Y-203200D01*
X-539750Y-203200D01*
G54D11*
X-565150Y-177800D02*
X-552450Y-177800D01*
X-536575Y-193675D01*
X-447675Y-193675D01*
X-412750Y-228600D01*
G54D11*
X-615950Y-260350D02*
X-600075Y-244475D01*
X-600075Y-174625D01*
X-577850Y-152400D01*
X-565150Y-152400D01*
G54D11*
X-565150Y-228600D02*
X-565150Y-273050D01*
X-552450Y-285750D01*
X-539750Y-285750D01*
G54D11*
X-565150Y-203200D02*
X-577850Y-203200D01*
X-581025Y-206375D01*
X-581025Y-307975D01*
X-552450Y-336550D01*
X-539750Y-336550D01*
G54D11*
X-565150Y-152400D02*
X-533400Y-184150D01*
X-444500Y-184150D01*
X-425450Y-203200D01*
X-412750Y-203200D01*
G54D11*
X-463550Y-152400D02*
X-438150Y-177800D01*
X-412750Y-177800D01*
G36*
X-685800Y-349250D02*
X-676275Y-358775D01*
X-615950Y-358775D01*
X-615950Y-365125D01*
X-628650Y-365125D01*
X-635000Y-371475D01*
X-635000Y-387350D01*
X-638175Y-390525D01*
X-676275Y-390525D01*
X-685800Y-400050D01*
X-685800Y-349250D01*
G37*
G54D12*
X-685800Y-349250D02*
X-676275Y-358775D01*
X-615950Y-358775D01*
X-615950Y-365125D01*
X-628650Y-365125D01*
X-635000Y-371475D01*
X-635000Y-387350D01*
X-638175Y-390525D01*
X-676275Y-390525D01*
X-685800Y-400050D01*
X-685800Y-349250D01*
G54D12*
X-387350Y-177800D02*
X-365125Y-177800D01*
X-365125Y-241300D01*
X-349250Y-257175D01*
X-349250Y-282575D01*
X-339725Y-292100D01*
X-323850Y-292100D01*
X-295275Y-320675D01*
X-282575Y-320675D01*
X-269875Y-333375D01*
X-346075Y-333375D01*
X-355600Y-342900D01*
X-387350Y-342900D01*
X-387350Y-177800D01*
G36*
X-466725Y-301625D02*
X-479425Y-288925D01*
X-492125Y-288925D01*
X-514350Y-266700D01*
X-514350Y-257175D01*
X-488950Y-257175D01*
X-485775Y-260350D01*
X-485775Y-269875D01*
X-476250Y-279400D01*
X-438150Y-279400D01*
X-434975Y-282575D01*
X-434975Y-292100D01*
X-425450Y-301625D01*
X-400050Y-301625D01*
X-390525Y-292100D01*
X-390525Y-177800D01*
X-365125Y-177800D01*
X-365125Y-241300D01*
X-349250Y-257175D01*
X-349250Y-282575D01*
X-339725Y-292100D01*
X-323850Y-292100D01*
X-295275Y-320675D01*
X-282575Y-320675D01*
X-269875Y-333375D01*
X-346075Y-333375D01*
X-355600Y-342900D01*
X-415925Y-342900D01*
X-438150Y-365125D01*
X-463550Y-365125D01*
X-466725Y-361950D01*
X-466725Y-301625D01*
G37*
G54D12*
X-466725Y-301625D02*
X-479425Y-288925D01*
X-492125Y-288925D01*
X-514350Y-266700D01*
X-514350Y-257175D01*
X-488950Y-257175D01*
X-485775Y-260350D01*
X-485775Y-269875D01*
X-476250Y-279400D01*
X-438150Y-279400D01*
X-434975Y-282575D01*
X-434975Y-292100D01*
X-425450Y-301625D01*
X-400050Y-301625D01*
X-390525Y-292100D01*
X-390525Y-177800D01*
X-365125Y-177800D01*
X-365125Y-241300D01*
X-349250Y-257175D01*
X-349250Y-282575D01*
X-339725Y-292100D01*
X-323850Y-292100D01*
X-295275Y-320675D01*
X-282575Y-320675D01*
X-269875Y-333375D01*
X-346075Y-333375D01*
X-355600Y-342900D01*
X-415925Y-342900D01*
X-438150Y-365125D01*
X-463550Y-365125D01*
X-466725Y-361950D01*
X-466725Y-301625D01*
X-488950Y-152400D02*
G54D10*
D03*
X-304800Y-361950D02*
G54D10*
D03*
X-279400Y-273050D02*
G54D10*
D03*
G54D12*
X-273050Y-250825D02*
X-273050Y-76200D01*
X-263525Y-66675D01*
X-254000Y-66675D01*
X-254000Y-6350D01*
X-285750Y-6350D01*
X-285750Y-34925D01*
X-311150Y-60325D01*
X-311150Y-123825D01*
X-307975Y-127000D01*
X-298450Y-127000D01*
X-279400Y-146050D01*
X-279400Y-250825D01*
G36*
X-282575Y-250825D02*
X-282575Y-193675D01*
X-301625Y-174625D01*
X-301625Y-136525D01*
X-311150Y-127000D01*
X-311150Y-53975D01*
X-301625Y-44450D01*
X-295275Y-44450D01*
X-285750Y-34925D01*
X-285750Y-3175D01*
X-254000Y-3175D01*
X-254000Y-66675D01*
X-263525Y-66675D01*
X-273050Y-76200D01*
X-273050Y-250825D01*
X-282575Y-250825D01*
G37*
G54D12*
X-282575Y-250825D02*
X-282575Y-193675D01*
X-301625Y-174625D01*
X-301625Y-136525D01*
X-311150Y-127000D01*
X-311150Y-53975D01*
X-301625Y-44450D01*
X-295275Y-44450D01*
X-285750Y-34925D01*
X-285750Y-3175D01*
X-254000Y-3175D01*
X-254000Y-66675D01*
X-263525Y-66675D01*
X-273050Y-76200D01*
X-273050Y-250825D01*
X-282575Y-250825D01*
G36*
X-285750Y-15875D02*
X-295275Y-6350D01*
X-314325Y-6350D01*
X-323850Y-15875D01*
X-323850Y-22225D01*
X-330200Y-28575D01*
X-346075Y-28575D01*
X-365125Y-47625D01*
X-365125Y-177800D01*
X-390525Y-177800D01*
X-390525Y-165100D01*
X-400050Y-155575D01*
X-428625Y-155575D01*
X-454025Y-130175D01*
X-574675Y-130175D01*
X-612775Y-168275D01*
X-612775Y-238125D01*
X-615950Y-241300D01*
X-625475Y-241300D01*
X-635000Y-250825D01*
X-635000Y-260350D01*
X-746125Y-260350D01*
X-746125Y-3175D01*
X-285750Y-3175D01*
X-285750Y-15875D01*
G37*
G54D12*
X-285750Y-15875D02*
X-295275Y-6350D01*
X-314325Y-6350D01*
X-323850Y-15875D01*
X-323850Y-22225D01*
X-330200Y-28575D01*
X-346075Y-28575D01*
X-365125Y-47625D01*
X-365125Y-177800D01*
X-390525Y-177800D01*
X-390525Y-165100D01*
X-400050Y-155575D01*
X-428625Y-155575D01*
X-454025Y-130175D01*
X-574675Y-130175D01*
X-612775Y-168275D01*
X-612775Y-238125D01*
X-615950Y-241300D01*
X-625475Y-241300D01*
X-635000Y-250825D01*
X-635000Y-260350D01*
X-746125Y-260350D01*
X-746125Y-3175D01*
X-285750Y-3175D01*
X-285750Y-15875D01*
G54D12*
X-139700Y-1190625D02*
X-152400Y-1190625D01*
X-158750Y-1184275D01*
X-158750Y-1203325D01*
X-152400Y-1196975D01*
X-139700Y-1196975D01*
X-139700Y-1190625D01*
G36*
X-444500Y-1165225D02*
X-428625Y-1165225D01*
X-422275Y-1171575D01*
X-247650Y-1171575D01*
X-244475Y-1174750D01*
X-244475Y-1276350D01*
X-250825Y-1282700D01*
X-257175Y-1282700D01*
X-257175Y-1250950D01*
X-257175Y-1216025D01*
X-257175Y-1206500D01*
X-266700Y-1196975D01*
X-444500Y-1196975D01*
X-444500Y-1165225D01*
G37*
G54D12*
X-444500Y-1165225D02*
X-428625Y-1165225D01*
X-422275Y-1171575D01*
X-247650Y-1171575D01*
X-244475Y-1174750D01*
X-244475Y-1276350D01*
X-250825Y-1282700D01*
X-257175Y-1282700D01*
X-257175Y-1250950D01*
X-257175Y-1216025D01*
X-257175Y-1206500D01*
X-266700Y-1196975D01*
X-444500Y-1196975D01*
X-444500Y-1165225D01*
G36*
X-276225Y-333375D02*
X-260350Y-349250D01*
X-260350Y-371475D01*
X-269875Y-381000D01*
X-292100Y-381000D01*
X-301625Y-371475D01*
X-301625Y-361950D01*
X-307975Y-361950D01*
X-307975Y-371475D01*
X-342900Y-406400D01*
X-342900Y-415925D01*
X-333375Y-425450D01*
X-333375Y-438150D01*
X-327025Y-438150D01*
X-327025Y-428625D01*
X-317500Y-419100D01*
X-292100Y-419100D01*
X-282575Y-428625D01*
X-282575Y-438150D01*
X-279400Y-441325D01*
X-266700Y-441325D01*
X-247650Y-460375D01*
X-247650Y-479425D01*
X-244475Y-479425D01*
X-244475Y-469900D01*
X-234950Y-457200D01*
X-234950Y-381000D01*
X-244475Y-371475D01*
X-244475Y-358775D01*
X-269875Y-333375D01*
X-276225Y-333375D01*
G37*
G54D12*
X-276225Y-333375D02*
X-260350Y-349250D01*
X-260350Y-371475D01*
X-269875Y-381000D01*
X-292100Y-381000D01*
X-301625Y-371475D01*
X-301625Y-361950D01*
X-307975Y-361950D01*
X-307975Y-371475D01*
X-342900Y-406400D01*
X-342900Y-415925D01*
X-333375Y-425450D01*
X-333375Y-438150D01*
X-327025Y-438150D01*
X-327025Y-428625D01*
X-317500Y-419100D01*
X-292100Y-419100D01*
X-282575Y-428625D01*
X-282575Y-438150D01*
X-279400Y-441325D01*
X-266700Y-441325D01*
X-247650Y-460375D01*
X-247650Y-479425D01*
X-244475Y-479425D01*
X-244475Y-469900D01*
X-234950Y-457200D01*
X-234950Y-381000D01*
X-244475Y-371475D01*
X-244475Y-358775D01*
X-269875Y-333375D01*
X-276225Y-333375D01*
G36*
X-263525Y-498475D02*
X-263525Y-555625D01*
X-282575Y-574675D01*
X-292100Y-574675D01*
X-292100Y-568325D01*
X-285750Y-568325D01*
X-273050Y-555625D01*
X-273050Y-536575D01*
X-282575Y-527050D01*
X-304800Y-527050D01*
X-323850Y-508000D01*
X-323850Y-501650D01*
X-320675Y-498475D01*
X-266700Y-498475D01*
X-247650Y-479425D01*
X-244475Y-479425D01*
X-263525Y-498475D01*
G37*
G54D12*
X-263525Y-498475D02*
X-263525Y-555625D01*
X-282575Y-574675D01*
X-292100Y-574675D01*
X-292100Y-568325D01*
X-285750Y-568325D01*
X-273050Y-555625D01*
X-273050Y-536575D01*
X-282575Y-527050D01*
X-304800Y-527050D01*
X-323850Y-508000D01*
X-323850Y-501650D01*
X-320675Y-498475D01*
X-266700Y-498475D01*
X-247650Y-479425D01*
X-244475Y-479425D01*
X-263525Y-498475D01*
X-215900Y-533400D02*
G54D10*
D03*
X-266700Y-546100D02*
G54D10*
D03*
G36*
X-600075Y-441325D02*
X-647700Y-488950D01*
X-577850Y-488950D01*
X-587375Y-479425D01*
X-587375Y-444500D01*
X-590550Y-441325D01*
X-600075Y-441325D01*
G37*
G54D12*
X-600075Y-441325D02*
X-647700Y-488950D01*
X-577850Y-488950D01*
X-587375Y-479425D01*
X-587375Y-444500D01*
X-590550Y-441325D01*
X-600075Y-441325D01*
G36*
X-552450Y-488950D02*
X-527050Y-463550D01*
X-527050Y-438150D01*
X-520700Y-431800D01*
X-450850Y-431800D01*
X-441325Y-422275D01*
X-441325Y-393700D01*
X-409575Y-361950D01*
X-403225Y-361950D01*
X-403225Y-406400D01*
X-425450Y-428625D01*
X-425450Y-447675D01*
X-438150Y-460375D01*
X-438150Y-473075D01*
X-444500Y-479425D01*
X-479425Y-479425D01*
X-488950Y-488950D01*
X-552450Y-488950D01*
G37*
G54D12*
X-552450Y-488950D02*
X-527050Y-463550D01*
X-527050Y-438150D01*
X-520700Y-431800D01*
X-450850Y-431800D01*
X-441325Y-422275D01*
X-441325Y-393700D01*
X-409575Y-361950D01*
X-403225Y-361950D01*
X-403225Y-406400D01*
X-425450Y-428625D01*
X-425450Y-447675D01*
X-438150Y-460375D01*
X-438150Y-473075D01*
X-444500Y-479425D01*
X-479425Y-479425D01*
X-488950Y-488950D01*
X-552450Y-488950D01*
X-685800Y-1409700D02*
G54D10*
D03*
X-685800Y-1435100D02*
G54D10*
D03*
X-685800Y-1460500D02*
G54D10*
D03*
X-685800Y-1485900D02*
G54D10*
D03*
X-609600Y-1409700D02*
G54D10*
D03*
X-609600Y-1435100D02*
G54D10*
D03*
X-609600Y-1460500D02*
G54D10*
D03*
X-609600Y-1485900D02*
G54D10*
D03*
X-685800Y-1511300D02*
G54D10*
D03*
X-609600Y-1511300D02*
G54D10*
D03*
X-685800Y-1536700D02*
G54D10*
D03*
X-685800Y-1562100D02*
G54D10*
D03*
X-609600Y-1536700D02*
G54D10*
D03*
X-609600Y-1562100D02*
G54D10*
D03*
G54D11*
X-330200Y-1498600D02*
X-323850Y-1498600D01*
X-279400Y-1454150D01*
X-247650Y-1454150D01*
X-238125Y-1444625D01*
X-238125Y-1425575D01*
X-254000Y-1409700D01*
G54D11*
X-361950Y-1409700D02*
X-346075Y-1425575D01*
X-346075Y-1441450D01*
X-336550Y-1450975D01*
X-301625Y-1450975D01*
X-260350Y-1409700D01*
X-254000Y-1409700D01*
G54D11*
X-438150Y-1498600D02*
X-454025Y-1482725D01*
X-454025Y-1466850D01*
X-463550Y-1457325D01*
X-498475Y-1457325D01*
X-539750Y-1498600D01*
X-546100Y-1498600D01*
G54D11*
X-330200Y-1498600D02*
X-346075Y-1482725D01*
X-346075Y-1466850D01*
X-355600Y-1457325D01*
X-390525Y-1457325D01*
X-431800Y-1498600D01*
X-438150Y-1498600D01*
X-584200Y-1276350D02*
G54D10*
D03*
X-635000Y-1276350D02*
G54D10*
D03*
X-685800Y-1301750D02*
G54D13*
D03*
X-609600Y-1301750D02*
G54D13*
D03*
X-685800Y-1270000D02*
G54D10*
D03*
X-685800Y-1219200D02*
G54D10*
D03*
X-609600Y-1593850D02*
G54D10*
D03*
X-660400Y-1593850D02*
G54D10*
D03*
X-609600Y-1339850D02*
G54D17*
D03*
X-658000Y-1339850D02*
G54D17*
D03*
G54D11*
X-685800Y-1270000D02*
X-685800Y-1301750D01*
X-609600Y-1409700D02*
G54D10*
D03*
G54D12*
X-609600Y-1593850D02*
X-590550Y-1593850D01*
X-558800Y-1625600D01*
X-546100Y-1625600D01*
G54D11*
X-609600Y-1562100D02*
X-596900Y-1562100D01*
X-593725Y-1558925D01*
X-593725Y-1463675D01*
X-596900Y-1460500D01*
X-609600Y-1460500D01*
X-609600Y-1511300D02*
G54D10*
D03*
G54D11*
X-685800Y-1536700D02*
X-673100Y-1536700D01*
X-622300Y-1485900D01*
X-609600Y-1485900D01*
X-546100Y-1384300D02*
G54D10*
D03*
X-546100Y-1524000D02*
G54D10*
D03*
X-609600Y-1460500D02*
G54D10*
D03*
G54D11*
X-635000Y-1276350D02*
X-609600Y-1301750D01*
G54D11*
X-609600Y-1377950D02*
X-609600Y-1301750D01*
G54D11*
X-685800Y-1301750D02*
X-663575Y-1323975D01*
X-330200Y-1657350D02*
G54D10*
D03*
G54D12*
X-609600Y-1511300D02*
X-622300Y-1511300D01*
X-628650Y-1517650D01*
X-628650Y-1574800D01*
X-609600Y-1593850D01*
G54D11*
X-663575Y-1323975D02*
X-663575Y-1387475D01*
X-685800Y-1409700D01*
X-682625Y-1339850D02*
G54D18*
D03*
X-682625Y-1327150D02*
G54D18*
D03*
X-682625Y-1352550D02*
G54D18*
D03*
X-695325Y-1327150D02*
G54D18*
D03*
X-695325Y-1339850D02*
G54D18*
D03*
X-695325Y-1352550D02*
G54D18*
D03*
G36*
X-704850Y-1301750D02*
X-704850Y-1311275D01*
X-695325Y-1320800D01*
X-685800Y-1320800D01*
X-682625Y-1323975D01*
X-682625Y-1355725D01*
X-685800Y-1358900D01*
X-695325Y-1358900D01*
X-704850Y-1368425D01*
X-704850Y-1419225D01*
X-695325Y-1428750D01*
X-685800Y-1428750D01*
X-685800Y-1492250D01*
X-695325Y-1492250D01*
X-704850Y-1501775D01*
X-704850Y-1546225D01*
X-695325Y-1555750D01*
X-647700Y-1555750D01*
X-644525Y-1558925D01*
X-644525Y-1587500D01*
X-619125Y-1612900D01*
X-593725Y-1612900D01*
X-565150Y-1641475D01*
X-565150Y-1692275D01*
X-746125Y-1692275D01*
X-746125Y-1301750D01*
X-704850Y-1301750D01*
G37*
G54D12*
X-704850Y-1301750D02*
X-704850Y-1311275D01*
X-695325Y-1320800D01*
X-685800Y-1320800D01*
X-682625Y-1323975D01*
X-682625Y-1355725D01*
X-685800Y-1358900D01*
X-695325Y-1358900D01*
X-704850Y-1368425D01*
X-704850Y-1419225D01*
X-695325Y-1428750D01*
X-685800Y-1428750D01*
X-685800Y-1492250D01*
X-695325Y-1492250D01*
X-704850Y-1501775D01*
X-704850Y-1546225D01*
X-695325Y-1555750D01*
X-647700Y-1555750D01*
X-644525Y-1558925D01*
X-644525Y-1587500D01*
X-619125Y-1612900D01*
X-593725Y-1612900D01*
X-565150Y-1641475D01*
X-565150Y-1692275D01*
X-746125Y-1692275D01*
X-746125Y-1301750D01*
X-704850Y-1301750D01*
G36*
X-650875Y-1368425D02*
X-650875Y-1393825D01*
X-666750Y-1409700D01*
X-666750Y-1419225D01*
X-676275Y-1428750D01*
X-685800Y-1428750D01*
X-685800Y-1492250D01*
X-647700Y-1492250D01*
X-628650Y-1473200D01*
X-628650Y-1390650D01*
X-631825Y-1387475D01*
X-631825Y-1352550D01*
X-635000Y-1352550D01*
X-650875Y-1368425D01*
G37*
G54D12*
X-650875Y-1368425D02*
X-650875Y-1393825D01*
X-666750Y-1409700D01*
X-666750Y-1419225D01*
X-676275Y-1428750D01*
X-685800Y-1428750D01*
X-685800Y-1492250D01*
X-647700Y-1492250D01*
X-628650Y-1473200D01*
X-628650Y-1390650D01*
X-631825Y-1387475D01*
X-631825Y-1352550D01*
X-635000Y-1352550D01*
X-650875Y-1368425D01*
G36*
X-504825Y-603250D02*
X-495300Y-593725D01*
X-495300Y-574675D01*
X-488950Y-568325D01*
X-419100Y-568325D01*
X-419100Y-574675D01*
X-460375Y-574675D01*
X-479425Y-593725D01*
X-479425Y-603250D01*
X-504825Y-603250D01*
G37*
G54D12*
X-504825Y-603250D02*
X-495300Y-593725D01*
X-495300Y-574675D01*
X-488950Y-568325D01*
X-419100Y-568325D01*
X-419100Y-574675D01*
X-460375Y-574675D01*
X-479425Y-593725D01*
X-479425Y-603250D01*
X-504825Y-603250D01*
X-368300Y-469900D02*
G54D10*
D03*
G54D11*
X-488950Y-508000D02*
X-473075Y-492125D01*
X-333375Y-492125D01*
X-327025Y-485775D01*
X-282575Y-485775D01*
X-266700Y-469900D01*
G36*
X-444500Y-787400D02*
X-431800Y-787400D01*
X-425450Y-781050D01*
X-425450Y-600075D01*
X-434975Y-590550D01*
X-409575Y-590550D01*
X-387350Y-568325D01*
X-368300Y-568325D01*
X-368300Y-590550D01*
X-403225Y-590550D01*
X-415925Y-603250D01*
X-415925Y-806450D01*
X-431800Y-822325D01*
X-444500Y-822325D01*
X-444500Y-787400D01*
G37*
G54D12*
X-444500Y-787400D02*
X-431800Y-787400D01*
X-425450Y-781050D01*
X-425450Y-600075D01*
X-434975Y-590550D01*
X-409575Y-590550D01*
X-387350Y-568325D01*
X-368300Y-568325D01*
X-368300Y-590550D01*
X-403225Y-590550D01*
X-415925Y-603250D01*
X-415925Y-806450D01*
X-431800Y-822325D01*
X-444500Y-822325D01*
X-444500Y-787400D01*
X-666750Y-609600D02*
G54D10*
D03*
X-615950Y-609600D02*
G54D10*
D03*
X-666750Y-609600D02*
G54D10*
D03*
X-539750Y-679450D02*
G54D10*
D03*
G54D12*
X-215900Y-565150D02*
X-254000Y-603250D01*
X-254000Y-622300D01*
G36*
X-219075Y-568325D02*
X-273050Y-622300D01*
X-273050Y-638175D01*
X-263525Y-628650D01*
X-241300Y-628650D01*
X-234950Y-622300D01*
X-234950Y-587375D01*
X-225425Y-577850D01*
X-219075Y-577850D01*
X-219075Y-568325D01*
G37*
G54D12*
X-219075Y-568325D02*
X-273050Y-622300D01*
X-273050Y-638175D01*
X-263525Y-628650D01*
X-241300Y-628650D01*
X-234950Y-622300D01*
X-234950Y-587375D01*
X-225425Y-577850D01*
X-219075Y-577850D01*
X-219075Y-568325D01*
G36*
X-358775Y-590550D02*
X-368300Y-590550D01*
X-368300Y-568325D01*
X-330200Y-568325D01*
X-327025Y-571500D01*
X-327025Y-600075D01*
X-330200Y-603250D01*
X-339725Y-603250D01*
X-349250Y-612775D01*
X-349250Y-600075D01*
X-358775Y-590550D01*
G37*
G54D12*
X-358775Y-590550D02*
X-368300Y-590550D01*
X-368300Y-568325D01*
X-330200Y-568325D01*
X-327025Y-571500D01*
X-327025Y-600075D01*
X-330200Y-603250D01*
X-339725Y-603250D01*
X-349250Y-612775D01*
X-349250Y-600075D01*
X-358775Y-590550D01*
X-501650Y-977900D02*
G54D10*
D03*
X-501650Y-952500D02*
G54D10*
D03*
G54D12*
X-577850Y-927100D02*
X-577850Y-901700D01*
X-685800Y-1377950D02*
G54D13*
D03*
X-609600Y-1377950D02*
G54D13*
D03*
G36*
X-654050Y-1285875D02*
X-666750Y-1285875D01*
X-666750Y-1298575D01*
X-635000Y-1330325D01*
X-635000Y-1352550D01*
X-631825Y-1352550D01*
X-631825Y-1308100D01*
X-654050Y-1285875D01*
G37*
G54D12*
X-654050Y-1285875D02*
X-666750Y-1285875D01*
X-666750Y-1298575D01*
X-635000Y-1330325D01*
X-635000Y-1352550D01*
X-631825Y-1352550D01*
X-631825Y-1308100D01*
X-654050Y-1285875D01*
X-685800Y-1536700D02*
G54D10*
D03*
X-685800Y-1377950D02*
G54D13*
D03*
G54D12*
X-463550Y-660400D02*
X-463550Y-600075D01*
X-454025Y-590550D01*
X-434975Y-590550D01*
M02*
