%FSLAX34Y34*%
%MOMM*%
%LNSOLDERMASK_BOTTOM*%
G71*
G01*
%ADD10C, 2.00*%
%ADD11C, 2.20*%
%ADD12C, 1.40*%
%ADD13C, 2.20*%
%ADD14C, 6.20*%
%ADD15C, 2.70*%
%ADD16C, 1.20*%
%LPD*%
X-215900Y-304800D02*
G54D10*
D03*
X-215900Y-330200D02*
G54D10*
D03*
X-215900Y-355600D02*
G54D10*
D03*
X-215900Y-381000D02*
G54D10*
D03*
X-139700Y-304800D02*
G54D10*
D03*
X-139700Y-330200D02*
G54D10*
D03*
X-139700Y-355600D02*
G54D10*
D03*
X-139700Y-381000D02*
G54D10*
D03*
X-215900Y-406400D02*
G54D10*
D03*
X-139700Y-406400D02*
G54D10*
D03*
X-215900Y-431800D02*
G54D10*
D03*
X-215900Y-457200D02*
G54D10*
D03*
X-139700Y-431800D02*
G54D10*
D03*
X-139700Y-457200D02*
G54D10*
D03*
X-215900Y-482600D02*
G54D10*
D03*
X-139700Y-482600D02*
G54D10*
D03*
X-215900Y-508000D02*
G54D10*
D03*
X-139700Y-508000D02*
G54D10*
D03*
X-215900Y-533400D02*
G54D10*
D03*
X-139700Y-533400D02*
G54D10*
D03*
X-254000Y-241300D02*
G54D10*
D03*
X-254000Y-215900D02*
G54D10*
D03*
X-254000Y-190500D02*
G54D10*
D03*
X-254000Y-165100D02*
G54D10*
D03*
X-330200Y-241300D02*
G54D10*
D03*
X-330200Y-215900D02*
G54D10*
D03*
X-330200Y-190500D02*
G54D10*
D03*
X-330200Y-165100D02*
G54D10*
D03*
X-254000Y-139700D02*
G54D10*
D03*
X-330200Y-139700D02*
G54D10*
D03*
X-254000Y-114300D02*
G54D10*
D03*
X-254000Y-88900D02*
G54D10*
D03*
X-330200Y-114300D02*
G54D10*
D03*
X-330200Y-88900D02*
G54D10*
D03*
X-254000Y-63500D02*
G54D10*
D03*
X-330200Y-63500D02*
G54D10*
D03*
X-215900Y-38100D02*
G54D10*
D03*
X-215900Y-63500D02*
G54D10*
D03*
X-215900Y-88900D02*
G54D10*
D03*
X-215900Y-114300D02*
G54D10*
D03*
X-139700Y-38100D02*
G54D10*
D03*
X-139700Y-63500D02*
G54D10*
D03*
X-139700Y-88900D02*
G54D10*
D03*
X-139700Y-114300D02*
G54D10*
D03*
X-215900Y-139700D02*
G54D10*
D03*
X-139700Y-139700D02*
G54D10*
D03*
X-215900Y-165100D02*
G54D10*
D03*
X-215900Y-190500D02*
G54D10*
D03*
X-139700Y-165100D02*
G54D10*
D03*
X-139700Y-190500D02*
G54D10*
D03*
X-215900Y-215900D02*
G54D10*
D03*
X-139700Y-215900D02*
G54D10*
D03*
X-215900Y-241300D02*
G54D10*
D03*
X-139700Y-241300D02*
G54D10*
D03*
X-215900Y-266700D02*
G54D10*
D03*
X-139700Y-266700D02*
G54D10*
D03*
X-330200Y-165100D02*
G54D10*
D03*
X-254000Y-165100D02*
G54D10*
D03*
X-215900Y-215900D02*
G54D10*
D03*
X-215900Y-241300D02*
G54D10*
D03*
X-254000Y-800100D02*
G54D10*
D03*
X-254000Y-774700D02*
G54D10*
D03*
X-254000Y-749300D02*
G54D10*
D03*
X-254000Y-723900D02*
G54D10*
D03*
X-330200Y-800100D02*
G54D10*
D03*
X-330200Y-774700D02*
G54D10*
D03*
X-330200Y-749300D02*
G54D10*
D03*
X-330200Y-723900D02*
G54D10*
D03*
X-254000Y-698500D02*
G54D10*
D03*
X-330200Y-698500D02*
G54D10*
D03*
X-254000Y-673100D02*
G54D10*
D03*
X-254000Y-647700D02*
G54D10*
D03*
X-330200Y-673100D02*
G54D10*
D03*
X-330200Y-647700D02*
G54D10*
D03*
X-254000Y-622300D02*
G54D10*
D03*
X-330200Y-622300D02*
G54D10*
D03*
X-215900Y-596900D02*
G54D10*
D03*
X-215900Y-622300D02*
G54D10*
D03*
X-215900Y-647700D02*
G54D10*
D03*
X-215900Y-673100D02*
G54D10*
D03*
X-139700Y-596900D02*
G54D10*
D03*
X-139700Y-622300D02*
G54D10*
D03*
X-139700Y-647700D02*
G54D10*
D03*
X-139700Y-673100D02*
G54D10*
D03*
X-215900Y-698500D02*
G54D10*
D03*
X-139700Y-698500D02*
G54D10*
D03*
X-215900Y-723900D02*
G54D10*
D03*
X-215900Y-749300D02*
G54D10*
D03*
X-139700Y-723900D02*
G54D10*
D03*
X-139700Y-749300D02*
G54D10*
D03*
X-215900Y-774700D02*
G54D10*
D03*
X-139700Y-774700D02*
G54D10*
D03*
X-215900Y-800100D02*
G54D10*
D03*
X-139700Y-800100D02*
G54D10*
D03*
X-215900Y-825500D02*
G54D10*
D03*
X-139700Y-825500D02*
G54D10*
D03*
X-330200Y-723900D02*
G54D10*
D03*
X-254000Y-723900D02*
G54D10*
D03*
X-215900Y-774700D02*
G54D10*
D03*
X-215900Y-800100D02*
G54D10*
D03*
X-330200Y-622300D02*
G54D10*
D03*
X-215900Y-622300D02*
G54D10*
D03*
X-330200Y-63500D02*
G54D10*
D03*
X-215900Y-63500D02*
G54D10*
D03*
X-406400Y-438150D02*
G54D10*
D03*
X-381000Y-438150D02*
G54D10*
D03*
X-355600Y-438150D02*
G54D10*
D03*
X-330200Y-438150D02*
G54D10*
D03*
X-406400Y-361950D02*
G54D10*
D03*
X-381000Y-361950D02*
G54D10*
D03*
X-355600Y-361950D02*
G54D10*
D03*
X-330200Y-361950D02*
G54D10*
D03*
X-304800Y-438150D02*
G54D10*
D03*
X-304800Y-361950D02*
G54D10*
D03*
X-279400Y-438150D02*
G54D10*
D03*
X-254000Y-438150D02*
G54D10*
D03*
X-279400Y-361950D02*
G54D10*
D03*
X-254000Y-361950D02*
G54D10*
D03*
X-304800Y-438150D02*
G54D10*
D03*
X-406400Y-361950D02*
G54D10*
D03*
X-419100Y-546100D02*
G54D10*
D03*
X-444500Y-546100D02*
G54D10*
D03*
X-419100Y-546100D02*
G54D10*
D03*
X-393700Y-546100D02*
G54D10*
D03*
X-368300Y-546100D02*
G54D10*
D03*
X-444500Y-469900D02*
G54D10*
D03*
X-419100Y-469900D02*
G54D10*
D03*
X-393700Y-469900D02*
G54D10*
D03*
X-368300Y-469900D02*
G54D10*
D03*
X-342900Y-546100D02*
G54D10*
D03*
X-342900Y-469900D02*
G54D10*
D03*
X-317500Y-546100D02*
G54D10*
D03*
X-292100Y-546100D02*
G54D10*
D03*
X-317500Y-469900D02*
G54D10*
D03*
X-292100Y-469900D02*
G54D10*
D03*
X-266700Y-546100D02*
G54D10*
D03*
X-266700Y-469900D02*
G54D10*
D03*
X-215900Y-406400D02*
G54D10*
D03*
X-539750Y-361950D02*
G54D10*
D03*
X-279400Y-361950D02*
G54D10*
D03*
X-215900Y-431800D02*
G54D10*
D03*
X-215900Y-565150D02*
G54D10*
D03*
X-254000Y-622300D02*
G54D10*
D03*
X-368300Y-787400D02*
G54D10*
D03*
X-368300Y-762000D02*
G54D10*
D03*
X-368300Y-736600D02*
G54D10*
D03*
X-368300Y-711200D02*
G54D10*
D03*
X-444500Y-787400D02*
G54D10*
D03*
X-444500Y-762000D02*
G54D10*
D03*
X-444500Y-736600D02*
G54D10*
D03*
X-444500Y-711200D02*
G54D10*
D03*
X-368300Y-685800D02*
G54D10*
D03*
X-444500Y-685800D02*
G54D10*
D03*
X-368300Y-660400D02*
G54D10*
D03*
X-368300Y-635000D02*
G54D10*
D03*
X-444500Y-660400D02*
G54D10*
D03*
X-444500Y-635000D02*
G54D10*
D03*
X-368300Y-609600D02*
G54D10*
D03*
X-444500Y-609600D02*
G54D10*
D03*
X-368300Y-609600D02*
G54D10*
D03*
X-266700Y-469900D02*
G54D10*
D03*
X-444500Y-546100D02*
G54D10*
D03*
X-419100Y-469900D02*
G54D10*
D03*
X-254000Y-361950D02*
G54D10*
D03*
X-444500Y-635000D02*
G54D10*
D03*
X-444500Y-660400D02*
G54D10*
D03*
X-368300Y-787400D02*
G54D10*
D03*
X-368300Y-1003300D02*
G54D10*
D03*
X-368300Y-977900D02*
G54D10*
D03*
X-368300Y-952500D02*
G54D10*
D03*
X-368300Y-927100D02*
G54D10*
D03*
X-444500Y-1003300D02*
G54D10*
D03*
X-444500Y-977900D02*
G54D10*
D03*
X-444500Y-952500D02*
G54D10*
D03*
X-444500Y-927100D02*
G54D10*
D03*
X-368300Y-901700D02*
G54D10*
D03*
X-444500Y-901700D02*
G54D10*
D03*
X-368300Y-876300D02*
G54D10*
D03*
X-368300Y-850900D02*
G54D10*
D03*
X-444500Y-876300D02*
G54D10*
D03*
X-444500Y-850900D02*
G54D10*
D03*
X-368300Y-876300D02*
G54D10*
D03*
X-444500Y-927100D02*
G54D10*
D03*
X-444500Y-876300D02*
G54D10*
D03*
X-254000Y-1041400D02*
G54D10*
D03*
X-254000Y-1016000D02*
G54D10*
D03*
X-254000Y-990600D02*
G54D10*
D03*
X-254000Y-965200D02*
G54D10*
D03*
X-330200Y-1041400D02*
G54D10*
D03*
X-330200Y-1016000D02*
G54D10*
D03*
X-330200Y-990600D02*
G54D10*
D03*
X-330200Y-965200D02*
G54D10*
D03*
X-254000Y-939800D02*
G54D10*
D03*
X-330200Y-939800D02*
G54D10*
D03*
X-254000Y-914400D02*
G54D10*
D03*
X-254000Y-889000D02*
G54D10*
D03*
X-330200Y-914400D02*
G54D10*
D03*
X-330200Y-889000D02*
G54D10*
D03*
X-254000Y-863600D02*
G54D10*
D03*
X-330200Y-863600D02*
G54D10*
D03*
X-368300Y-901700D02*
G54D10*
D03*
X-355600Y-438150D02*
G54D10*
D03*
X-444500Y-977900D02*
G54D10*
D03*
X-330200Y-673100D02*
G54D10*
D03*
X-330200Y-114300D02*
G54D10*
D03*
X-444500Y-1003300D02*
G54D10*
D03*
X-139700Y-1104900D02*
G54D10*
D03*
X-139700Y-1079500D02*
G54D10*
D03*
X-139700Y-1054100D02*
G54D10*
D03*
X-139700Y-1028700D02*
G54D10*
D03*
X-215900Y-1104900D02*
G54D10*
D03*
X-215900Y-1079500D02*
G54D10*
D03*
X-215900Y-1054100D02*
G54D10*
D03*
X-215900Y-1028700D02*
G54D10*
D03*
X-139700Y-1003300D02*
G54D10*
D03*
X-215900Y-1003300D02*
G54D10*
D03*
X-139700Y-977900D02*
G54D10*
D03*
X-139700Y-952500D02*
G54D10*
D03*
X-215900Y-977900D02*
G54D10*
D03*
X-215900Y-952500D02*
G54D10*
D03*
X-139700Y-927100D02*
G54D10*
D03*
X-215900Y-927100D02*
G54D10*
D03*
X-139700Y-901700D02*
G54D10*
D03*
X-215900Y-901700D02*
G54D10*
D03*
X-139700Y-876300D02*
G54D10*
D03*
X-215900Y-876300D02*
G54D10*
D03*
X-330200Y-965200D02*
G54D10*
D03*
X-215900Y-901700D02*
G54D10*
D03*
X-330200Y-863600D02*
G54D10*
D03*
X-330200Y-889000D02*
G54D10*
D03*
X-215900Y-596900D02*
G54D10*
D03*
X-215900Y-304800D02*
G54D10*
D03*
X-215900Y-38100D02*
G54D10*
D03*
X-330200Y-914400D02*
G54D10*
D03*
X-139700Y-825500D02*
G54D10*
D03*
X-342900Y-571500D02*
G54D10*
D03*
X-292100Y-571500D02*
G54D10*
D03*
X-419100Y-571500D02*
G54D10*
D03*
X-368300Y-571500D02*
G54D10*
D03*
X-215900Y-565150D02*
G54D10*
D03*
X-165100Y-565150D02*
G54D10*
D03*
X-292100Y-571500D02*
G54D10*
D03*
X-419100Y-571500D02*
G54D10*
D03*
X-444500Y-819150D02*
G54D10*
D03*
X-393700Y-819150D02*
G54D10*
D03*
X-330200Y-831850D02*
G54D10*
D03*
X-279400Y-831850D02*
G54D10*
D03*
X-330200Y-800100D02*
G54D10*
D03*
X-279400Y-831850D02*
G54D10*
D03*
X-254000Y-990600D02*
G54D10*
D03*
X-215900Y-927100D02*
G54D10*
D03*
X-419100Y-1066800D02*
G54D10*
D03*
X-368300Y-1066800D02*
G54D10*
D03*
X-368300Y-1035050D02*
G54D11*
D03*
X-444500Y-469900D02*
G54D10*
D03*
X-438150Y-361950D02*
G54D10*
D03*
X-438150Y-412750D02*
G54D10*
D03*
X-330200Y-273050D02*
G54D10*
D03*
X-279400Y-273050D02*
G54D10*
D03*
X-330200Y-273050D02*
G54D10*
D03*
X-123825Y-508000D02*
G54D12*
D03*
X-111125Y-495300D02*
G54D12*
D03*
X-98425Y-482600D02*
G54D12*
D03*
X-85725Y-469900D02*
G54D12*
D03*
X-73025Y-457200D02*
G54D12*
D03*
X-60325Y-444500D02*
G54D12*
D03*
X-47625Y-431800D02*
G54D12*
D03*
X-34925Y-419100D02*
G54D12*
D03*
X-139700Y-63500D02*
G54D10*
D03*
X-139700Y-88900D02*
G54D10*
D03*
X-139700Y-114300D02*
G54D10*
D03*
X-139700Y-139700D02*
G54D10*
D03*
X-139700Y-165100D02*
G54D10*
D03*
X-139700Y-190500D02*
G54D10*
D03*
X-139700Y-215900D02*
G54D10*
D03*
X-139700Y-241300D02*
G54D10*
D03*
X-123825Y-800100D02*
G54D12*
D03*
X-111125Y-787400D02*
G54D12*
D03*
X-98425Y-774700D02*
G54D12*
D03*
X-85725Y-762000D02*
G54D12*
D03*
X-73025Y-749300D02*
G54D12*
D03*
X-60325Y-736600D02*
G54D12*
D03*
X-47625Y-723900D02*
G54D12*
D03*
X-34925Y-711200D02*
G54D12*
D03*
X-123825Y-1079500D02*
G54D12*
D03*
X-111125Y-1066800D02*
G54D12*
D03*
X-98425Y-1054100D02*
G54D12*
D03*
X-85725Y-1041400D02*
G54D12*
D03*
X-73025Y-1028700D02*
G54D12*
D03*
X-60325Y-1016000D02*
G54D12*
D03*
X-47625Y-1003300D02*
G54D12*
D03*
X-34925Y-990600D02*
G54D12*
D03*
X-139700Y-266700D02*
G54D10*
D03*
X-139700Y-533400D02*
G54D10*
D03*
X-139700Y-304800D02*
G54D10*
D03*
X-139700Y-38100D02*
G54D10*
D03*
X-165100Y-565150D02*
G54D10*
D03*
X-139700Y-596900D02*
G54D10*
D03*
X-361950Y-1625600D02*
G54D10*
D03*
X-361950Y-1600200D02*
G54D10*
D03*
X-361950Y-1574800D02*
G54D10*
D03*
X-361950Y-1549400D02*
G54D10*
D03*
X-438150Y-1625600D02*
G54D10*
D03*
X-438150Y-1600200D02*
G54D10*
D03*
X-438150Y-1574800D02*
G54D10*
D03*
X-438150Y-1549400D02*
G54D10*
D03*
X-361950Y-1524000D02*
G54D10*
D03*
X-438150Y-1524000D02*
G54D10*
D03*
X-361950Y-1498600D02*
G54D10*
D03*
X-361950Y-1473200D02*
G54D10*
D03*
X-438150Y-1498600D02*
G54D10*
D03*
X-438150Y-1473200D02*
G54D10*
D03*
X-254000Y-1625600D02*
G54D10*
D03*
X-254000Y-1600200D02*
G54D10*
D03*
X-254000Y-1574800D02*
G54D10*
D03*
X-254000Y-1549400D02*
G54D10*
D03*
X-330200Y-1625600D02*
G54D10*
D03*
X-330200Y-1600200D02*
G54D10*
D03*
X-330200Y-1574800D02*
G54D10*
D03*
X-330200Y-1549400D02*
G54D10*
D03*
X-254000Y-1524000D02*
G54D10*
D03*
X-330200Y-1524000D02*
G54D10*
D03*
X-254000Y-1498600D02*
G54D10*
D03*
X-254000Y-1473200D02*
G54D10*
D03*
X-330200Y-1498600D02*
G54D10*
D03*
X-330200Y-1473200D02*
G54D10*
D03*
X-279400Y-1657350D02*
G54D10*
D03*
X-330200Y-1657350D02*
G54D10*
D03*
X-387350Y-1657350D02*
G54D10*
D03*
X-438150Y-1657350D02*
G54D10*
D03*
X-361950Y-1473200D02*
G54D10*
D03*
X-254000Y-1473200D02*
G54D10*
D03*
X-254000Y-1498600D02*
G54D10*
D03*
X-361950Y-1498600D02*
G54D10*
D03*
X-469900Y-1625600D02*
G54D10*
D03*
X-469900Y-1600200D02*
G54D10*
D03*
X-469900Y-1574800D02*
G54D10*
D03*
X-469900Y-1549400D02*
G54D10*
D03*
X-546100Y-1625600D02*
G54D10*
D03*
X-546100Y-1600200D02*
G54D10*
D03*
X-546100Y-1574800D02*
G54D10*
D03*
X-546100Y-1549400D02*
G54D10*
D03*
X-469900Y-1524000D02*
G54D10*
D03*
X-546100Y-1524000D02*
G54D10*
D03*
X-469900Y-1498600D02*
G54D10*
D03*
X-469900Y-1473200D02*
G54D10*
D03*
X-546100Y-1498600D02*
G54D10*
D03*
X-546100Y-1473200D02*
G54D10*
D03*
X-495300Y-1657350D02*
G54D10*
D03*
X-546100Y-1657350D02*
G54D10*
D03*
X-469900Y-1473200D02*
G54D10*
D03*
X-469900Y-1498600D02*
G54D10*
D03*
X-546100Y-1282700D02*
G54D10*
D03*
X-546100Y-1308100D02*
G54D10*
D03*
X-546100Y-1333500D02*
G54D10*
D03*
X-546100Y-1358900D02*
G54D10*
D03*
X-469900Y-1282700D02*
G54D10*
D03*
X-469900Y-1308100D02*
G54D10*
D03*
X-469900Y-1333500D02*
G54D10*
D03*
X-469900Y-1358900D02*
G54D10*
D03*
X-546100Y-1384300D02*
G54D10*
D03*
X-469900Y-1384300D02*
G54D10*
D03*
X-546100Y-1409700D02*
G54D10*
D03*
X-546100Y-1435100D02*
G54D10*
D03*
X-469900Y-1409700D02*
G54D10*
D03*
X-469900Y-1435100D02*
G54D10*
D03*
X-520700Y-1250950D02*
G54D10*
D03*
X-469900Y-1250950D02*
G54D10*
D03*
X-546100Y-1435100D02*
G54D10*
D03*
X-546100Y-1409700D02*
G54D10*
D03*
X-438150Y-1282700D02*
G54D10*
D03*
X-438150Y-1308100D02*
G54D10*
D03*
X-438150Y-1333500D02*
G54D10*
D03*
X-438150Y-1358900D02*
G54D10*
D03*
X-361950Y-1282700D02*
G54D10*
D03*
X-361950Y-1308100D02*
G54D10*
D03*
X-361950Y-1333500D02*
G54D10*
D03*
X-361950Y-1358900D02*
G54D10*
D03*
X-438150Y-1384300D02*
G54D10*
D03*
X-361950Y-1384300D02*
G54D10*
D03*
X-438150Y-1409700D02*
G54D10*
D03*
X-438150Y-1435100D02*
G54D10*
D03*
X-361950Y-1409700D02*
G54D10*
D03*
X-361950Y-1435100D02*
G54D10*
D03*
X-412750Y-1250950D02*
G54D10*
D03*
X-361950Y-1250950D02*
G54D10*
D03*
X-438150Y-1435100D02*
G54D10*
D03*
X-438150Y-1409700D02*
G54D10*
D03*
X-330200Y-1282700D02*
G54D10*
D03*
X-330200Y-1308100D02*
G54D10*
D03*
X-330200Y-1333500D02*
G54D10*
D03*
X-330200Y-1358900D02*
G54D10*
D03*
X-254000Y-1282700D02*
G54D10*
D03*
X-254000Y-1308100D02*
G54D10*
D03*
X-254000Y-1333500D02*
G54D10*
D03*
X-254000Y-1358900D02*
G54D10*
D03*
X-330200Y-1384300D02*
G54D10*
D03*
X-254000Y-1384300D02*
G54D10*
D03*
X-330200Y-1409700D02*
G54D10*
D03*
X-330200Y-1435100D02*
G54D10*
D03*
X-254000Y-1409700D02*
G54D10*
D03*
X-254000Y-1435100D02*
G54D10*
D03*
X-304800Y-1250950D02*
G54D10*
D03*
X-254000Y-1250950D02*
G54D10*
D03*
X-330200Y-1435100D02*
G54D10*
D03*
X-330200Y-1409700D02*
G54D10*
D03*
X-215900Y-1168400D02*
G54D10*
D03*
X-215900Y-1193800D02*
G54D10*
D03*
X-215900Y-1219200D02*
G54D10*
D03*
X-215900Y-1244600D02*
G54D10*
D03*
X-139700Y-1168400D02*
G54D10*
D03*
X-139700Y-1193800D02*
G54D10*
D03*
X-139700Y-1219200D02*
G54D10*
D03*
X-139700Y-1244600D02*
G54D10*
D03*
X-215900Y-1270000D02*
G54D10*
D03*
X-139700Y-1270000D02*
G54D10*
D03*
X-215900Y-1295400D02*
G54D10*
D03*
X-215900Y-1320800D02*
G54D10*
D03*
X-139700Y-1295400D02*
G54D10*
D03*
X-139700Y-1320800D02*
G54D10*
D03*
X-215900Y-1346200D02*
G54D10*
D03*
X-139700Y-1346200D02*
G54D10*
D03*
X-215900Y-1371600D02*
G54D10*
D03*
X-139700Y-1371600D02*
G54D10*
D03*
X-215900Y-1397000D02*
G54D10*
D03*
X-139700Y-1397000D02*
G54D10*
D03*
X-190500Y-1136650D02*
G54D10*
D03*
X-139700Y-1136650D02*
G54D10*
D03*
X-438150Y-1657350D02*
G54D10*
D03*
X-330200Y-1073150D02*
G54D11*
D03*
X-254000Y-1073150D02*
G54D11*
D03*
X-330200Y-1098550D02*
G54D11*
D03*
X-254000Y-1098550D02*
G54D11*
D03*
X-254000Y-1143000D02*
G54D10*
D03*
X-279400Y-1143000D02*
G54D10*
D03*
X-304800Y-1143000D02*
G54D10*
D03*
X-330200Y-1143000D02*
G54D10*
D03*
X-254000Y-1219200D02*
G54D10*
D03*
X-279400Y-1219200D02*
G54D10*
D03*
X-304800Y-1219200D02*
G54D10*
D03*
X-330200Y-1219200D02*
G54D10*
D03*
X-355600Y-1143000D02*
G54D10*
D03*
X-355600Y-1219200D02*
G54D10*
D03*
X-381000Y-1143000D02*
G54D10*
D03*
X-406400Y-1143000D02*
G54D10*
D03*
X-381000Y-1219200D02*
G54D10*
D03*
X-406400Y-1219200D02*
G54D10*
D03*
X-444500Y-1219200D02*
G54D10*
D03*
X-444500Y-1193800D02*
G54D10*
D03*
X-444500Y-1168400D02*
G54D10*
D03*
X-444500Y-1143000D02*
G54D10*
D03*
X-520700Y-1219200D02*
G54D10*
D03*
X-520700Y-1193800D02*
G54D10*
D03*
X-520700Y-1168400D02*
G54D10*
D03*
X-520700Y-1143000D02*
G54D10*
D03*
X-444500Y-1117600D02*
G54D10*
D03*
X-520700Y-1117600D02*
G54D10*
D03*
X-444500Y-1092200D02*
G54D10*
D03*
X-444500Y-1066800D02*
G54D10*
D03*
X-520700Y-1092200D02*
G54D10*
D03*
X-520700Y-1066800D02*
G54D10*
D03*
X-368300Y-1104900D02*
G54D10*
D03*
X-393700Y-1104900D02*
G54D10*
D03*
X-419100Y-1104900D02*
G54D10*
D03*
X-368300Y-1066800D02*
G54D10*
D03*
X-444500Y-1035050D02*
G54D11*
D03*
X-368300Y-1035050D02*
G54D11*
D03*
X-520700Y-1117600D02*
G54D10*
D03*
X-355600Y-1143000D02*
G54D10*
D03*
X-304800Y-1219200D02*
G54D10*
D03*
X-520700Y-1143000D02*
G54D10*
D03*
X-279400Y-1219200D02*
G54D10*
D03*
X-406400Y-1219200D02*
G54D10*
D03*
X-330200Y-88900D02*
G54D10*
D03*
X-254000Y-1333500D02*
G54D10*
D03*
X-215900Y-1244600D02*
G54D10*
D03*
X-279400Y-1143000D02*
G54D10*
D03*
X-215900Y-1168400D02*
G54D10*
D03*
X-304800Y-1143000D02*
G54D10*
D03*
X-254000Y-1435100D02*
G54D10*
D03*
X-254000Y-1409700D02*
G54D10*
D03*
X-330200Y-1098550D02*
G54D11*
D03*
X-254000Y-1073150D02*
G54D11*
D03*
X-254000Y-1384300D02*
G54D10*
D03*
X-444500Y-1168400D02*
G54D10*
D03*
X-609600Y-1435100D02*
G54D10*
D03*
X-330200Y-1073150D02*
G54D11*
D03*
X-469900Y-1282700D02*
G54D10*
D03*
X-520700Y-1219200D02*
G54D10*
D03*
X-190500Y-1136650D02*
G54D10*
D03*
X-215900Y-1397000D02*
G54D10*
D03*
X-215900Y-1104900D02*
G54D10*
D03*
X-139700Y-1136650D02*
G54D10*
D03*
X-558800Y-1066800D02*
G54D10*
D03*
X-368300Y-977900D02*
G54D10*
D03*
X-76200Y-1174750D02*
G54D13*
D03*
X-50800Y-1174750D02*
G54D13*
D03*
X-50800Y-1200150D02*
G54D13*
D03*
X-76200Y-1200150D02*
G54D13*
D03*
X-76200Y-1225550D02*
G54D13*
D03*
X-50800Y-1225550D02*
G54D13*
D03*
X-50800Y-1250950D02*
G54D13*
D03*
X-76200Y-1250950D02*
G54D13*
D03*
X-76200Y-1276350D02*
G54D13*
D03*
G36*
X-61800Y-1271785D02*
X-55365Y-1265350D01*
X-46235Y-1265350D01*
X-39800Y-1271785D01*
X-39800Y-1280915D01*
X-46235Y-1287350D01*
X-55365Y-1287350D01*
X-61800Y-1280915D01*
X-61800Y-1271785D01*
G37*
X-76200Y-1397000D02*
G54D13*
D03*
X-50800Y-1397000D02*
G54D13*
D03*
X-50800Y-1422400D02*
G54D13*
D03*
X-76200Y-1422400D02*
G54D13*
D03*
X-76200Y-1447800D02*
G54D13*
D03*
X-50800Y-1447800D02*
G54D13*
D03*
X-50800Y-1473200D02*
G54D13*
D03*
X-76200Y-1473200D02*
G54D13*
D03*
X-76200Y-1498600D02*
G54D13*
D03*
G36*
X-61800Y-1494035D02*
X-55365Y-1487600D01*
X-46235Y-1487600D01*
X-39800Y-1494035D01*
X-39800Y-1503165D01*
X-46235Y-1509600D01*
X-55365Y-1509600D01*
X-61800Y-1503165D01*
X-61800Y-1494035D01*
G37*
X-190500Y-1485900D02*
G54D13*
D03*
X-165100Y-1485900D02*
G54D13*
D03*
X-165100Y-1511300D02*
G54D13*
D03*
X-190500Y-1511300D02*
G54D13*
D03*
X-190500Y-1536700D02*
G54D13*
D03*
X-165100Y-1536700D02*
G54D13*
D03*
X-165100Y-1562100D02*
G54D13*
D03*
X-190500Y-1562100D02*
G54D13*
D03*
X-190500Y-1587500D02*
G54D13*
D03*
G36*
X-176100Y-1582935D02*
X-169665Y-1576500D01*
X-160535Y-1576500D01*
X-154100Y-1582935D01*
X-154100Y-1592065D01*
X-160535Y-1598500D01*
X-169665Y-1598500D01*
X-176100Y-1592065D01*
X-176100Y-1582935D01*
G37*
X-139700Y-1219200D02*
G54D10*
D03*
X-139700Y-1270000D02*
G54D10*
D03*
X-139700Y-1320800D02*
G54D10*
D03*
X-139700Y-1371600D02*
G54D10*
D03*
X-444500Y-1092200D02*
G54D10*
D03*
X-330200Y-1625600D02*
G54D10*
D03*
X-50800Y-1644650D02*
G54D14*
D03*
X-50800Y-50800D02*
G54D14*
D03*
X-698500Y-1644650D02*
G54D14*
D03*
X-698500Y-50800D02*
G54D14*
D03*
X-304800Y-25400D02*
G54D10*
D03*
X-254000Y-25400D02*
G54D10*
D03*
X-590550Y-508000D02*
G54D10*
D03*
X-215900Y-266700D02*
G54D10*
D03*
X-361950Y-1250950D02*
G54D10*
D03*
X-469900Y-1250950D02*
G54D10*
D03*
X-546100Y-1657350D02*
G54D10*
D03*
X-635000Y-1066800D02*
G54D10*
D03*
X-635000Y-1092200D02*
G54D10*
D03*
X-635000Y-1117600D02*
G54D10*
D03*
X-635000Y-1143000D02*
G54D10*
D03*
X-558800Y-1066800D02*
G54D10*
D03*
X-558800Y-1092200D02*
G54D10*
D03*
X-558800Y-1117600D02*
G54D10*
D03*
X-558800Y-1143000D02*
G54D10*
D03*
X-635000Y-1168400D02*
G54D10*
D03*
X-558800Y-1168400D02*
G54D10*
D03*
X-635000Y-1193800D02*
G54D10*
D03*
X-635000Y-1219200D02*
G54D10*
D03*
X-558800Y-1193800D02*
G54D10*
D03*
X-558800Y-1219200D02*
G54D10*
D03*
X-635000Y-1244600D02*
G54D10*
D03*
X-558800Y-1244600D02*
G54D10*
D03*
X-635000Y-1143000D02*
G54D10*
D03*
X-558800Y-1143000D02*
G54D10*
D03*
X-558800Y-1244600D02*
G54D10*
D03*
X-558800Y-1193800D02*
G54D10*
D03*
X-685800Y-1143000D02*
G54D10*
D03*
X-685800Y-1193800D02*
G54D10*
D03*
X-685800Y-1066800D02*
G54D10*
D03*
X-685800Y-1117600D02*
G54D10*
D03*
X-609600Y-1035050D02*
G54D10*
D03*
X-660400Y-1035050D02*
G54D10*
D03*
X-558800Y-1117600D02*
G54D10*
D03*
X-304800Y-25400D02*
G54D10*
D03*
X-577850Y-901700D02*
G54D10*
D03*
X-577850Y-927100D02*
G54D10*
D03*
X-577850Y-952500D02*
G54D10*
D03*
X-577850Y-977900D02*
G54D10*
D03*
X-501650Y-901700D02*
G54D10*
D03*
X-501650Y-927100D02*
G54D10*
D03*
X-501650Y-952500D02*
G54D10*
D03*
X-501650Y-977900D02*
G54D10*
D03*
X-685800Y-901700D02*
G54D10*
D03*
X-685800Y-927100D02*
G54D10*
D03*
X-685800Y-952500D02*
G54D10*
D03*
X-685800Y-977900D02*
G54D10*
D03*
X-609600Y-901700D02*
G54D10*
D03*
X-609600Y-927100D02*
G54D10*
D03*
X-609600Y-952500D02*
G54D10*
D03*
X-609600Y-977900D02*
G54D10*
D03*
X-584200Y-1035050D02*
G54D11*
D03*
X-508000Y-1035050D02*
G54D11*
D03*
X-520700Y-1092200D02*
G54D10*
D03*
X-520700Y-1066800D02*
G54D10*
D03*
X-609600Y-952500D02*
G54D10*
D03*
X-558800Y-768350D02*
G54D10*
D03*
X-609600Y-1009650D02*
G54D10*
D03*
X-660400Y-1009650D02*
G54D10*
D03*
X-685800Y-869950D02*
G54D10*
D03*
X-685800Y-819150D02*
G54D10*
D03*
X-660400Y-1219200D02*
G54D10*
D03*
X-660400Y-1270000D02*
G54D10*
D03*
X-584200Y-1009650D02*
G54D11*
D03*
X-508000Y-1009650D02*
G54D11*
D03*
X-508000Y-1009650D02*
G54D11*
D03*
X-577850Y-927100D02*
G54D10*
D03*
X-539750Y-793750D02*
G54D10*
D03*
X-488950Y-793750D02*
G54D10*
D03*
X-577850Y-952500D02*
G54D10*
D03*
X-577850Y-977900D02*
G54D10*
D03*
X-660400Y-793750D02*
G54D10*
D03*
X-660400Y-717550D02*
G54D10*
D03*
X-558800Y-742950D02*
G54D10*
D03*
X-635000Y-742950D02*
G54D10*
D03*
X-488950Y-152400D02*
G54D10*
D03*
X-488950Y-228600D02*
G54D10*
D03*
X-488950Y-844550D02*
G54D10*
D03*
X-488950Y-692150D02*
G54D10*
D03*
X-488950Y-641350D02*
G54D10*
D03*
X-488950Y-844550D02*
G54D10*
D03*
X-514350Y-844550D02*
G54D10*
D03*
X-581025Y-844550D02*
G54D10*
D03*
X-555625Y-844550D02*
G54D10*
D03*
X-622300Y-844550D02*
G54D10*
D03*
X-647700Y-844550D02*
G54D10*
D03*
X-622300Y-793750D02*
G54D10*
D03*
X-571500Y-793750D02*
G54D10*
D03*
X-581025Y-844550D02*
G54D10*
D03*
X-685800Y-717550D02*
G54D10*
D03*
X-685800Y-793750D02*
G54D10*
D03*
X-635000Y-768350D02*
G54D10*
D03*
X-558800Y-768350D02*
G54D10*
D03*
X-571500Y-793750D02*
G54D10*
D03*
X-606425Y-654050D02*
G54D10*
D03*
X-647700Y-844550D02*
G54D10*
D03*
X-533400Y-717550D02*
G54D10*
D03*
X-635000Y-717550D02*
G54D10*
D03*
X-584200Y-717550D02*
G54D10*
D03*
X-533400Y-742950D02*
G54D10*
D03*
X-488950Y-793750D02*
G54D10*
D03*
X-488950Y-717550D02*
G54D10*
D03*
X-666750Y-311150D02*
G54D10*
D03*
X-666750Y-260350D02*
G54D10*
D03*
X-488950Y-742950D02*
G54D10*
D03*
X-615950Y-508000D02*
G54D10*
D03*
X-615950Y-584200D02*
G54D10*
D03*
X-590550Y-584200D02*
G54D10*
D03*
X-539750Y-584200D02*
G54D10*
D03*
X-565150Y-584200D02*
G54D10*
D03*
X-565150Y-508000D02*
G54D10*
D03*
X-539750Y-508000D02*
G54D10*
D03*
X-641350Y-412750D02*
G54D11*
D03*
X-641350Y-336550D02*
G54D11*
D03*
X-666750Y-412750D02*
G54D11*
D03*
X-666750Y-336550D02*
G54D11*
D03*
X-488950Y-412750D02*
G54D11*
D03*
X-488950Y-336550D02*
G54D11*
D03*
X-514350Y-412750D02*
G54D11*
D03*
X-514350Y-336550D02*
G54D11*
D03*
X-641350Y-311150D02*
G54D10*
D03*
X-641350Y-260350D02*
G54D10*
D03*
X-514350Y-311150D02*
G54D10*
D03*
X-514350Y-260350D02*
G54D10*
D03*
X-488950Y-311150D02*
G54D10*
D03*
X-488950Y-260350D02*
G54D10*
D03*
X-565150Y-469900D02*
G54D11*
D03*
X-666750Y-584200D02*
G54D10*
D03*
X-641350Y-584200D02*
G54D10*
D03*
X-615950Y-584200D02*
G54D10*
D03*
X-590550Y-584200D02*
G54D10*
D03*
X-666750Y-508000D02*
G54D10*
D03*
X-641350Y-508000D02*
G54D10*
D03*
X-615950Y-508000D02*
G54D10*
D03*
X-590550Y-508000D02*
G54D10*
D03*
X-565150Y-584200D02*
G54D10*
D03*
X-565150Y-508000D02*
G54D10*
D03*
X-539750Y-584200D02*
G54D10*
D03*
X-514350Y-584200D02*
G54D10*
D03*
X-539750Y-508000D02*
G54D10*
D03*
X-514350Y-508000D02*
G54D10*
D03*
X-488950Y-584200D02*
G54D10*
D03*
X-488950Y-508000D02*
G54D10*
D03*
X-615950Y-228600D02*
G54D10*
D03*
X-565150Y-228600D02*
G54D10*
D03*
X-539750Y-654050D02*
G54D10*
D03*
X-539750Y-679450D02*
G54D10*
D03*
X-488950Y-717550D02*
G54D10*
D03*
X-488950Y-742950D02*
G54D10*
D03*
X-488950Y-768350D02*
G54D10*
D03*
X-533400Y-717550D02*
G54D10*
D03*
X-533400Y-742950D02*
G54D10*
D03*
X-533400Y-768350D02*
G54D10*
D03*
X-606425Y-654050D02*
G54D10*
D03*
X-606425Y-679450D02*
G54D10*
D03*
X-673100Y-679450D02*
G54D10*
D03*
X-673100Y-654050D02*
G54D10*
D03*
X-660400Y-793750D02*
G54D10*
D03*
X-685800Y-869950D02*
G54D10*
D03*
X-660400Y-1143000D02*
G54D10*
D03*
X-660400Y-1193800D02*
G54D10*
D03*
X-660400Y-1066800D02*
G54D10*
D03*
X-660400Y-1117600D02*
G54D10*
D03*
X-539750Y-412750D02*
G54D10*
D03*
X-539750Y-387350D02*
G54D10*
D03*
X-539750Y-361950D02*
G54D10*
D03*
X-539750Y-336550D02*
G54D10*
D03*
X-615950Y-412750D02*
G54D10*
D03*
X-615950Y-387350D02*
G54D10*
D03*
X-615950Y-361950D02*
G54D10*
D03*
X-615950Y-336550D02*
G54D10*
D03*
X-539750Y-311150D02*
G54D10*
D03*
X-615950Y-311150D02*
G54D10*
D03*
X-539750Y-285750D02*
G54D10*
D03*
X-539750Y-260350D02*
G54D10*
D03*
X-615950Y-285750D02*
G54D10*
D03*
X-615950Y-260350D02*
G54D10*
D03*
X-666750Y-444500D02*
G54D11*
D03*
X-590550Y-444500D02*
G54D11*
D03*
X-565150Y-444500D02*
G54D11*
D03*
X-488950Y-444500D02*
G54D11*
D03*
X-666750Y-469900D02*
G54D11*
D03*
X-590550Y-469900D02*
G54D11*
D03*
X-565150Y-469900D02*
G54D11*
D03*
X-488950Y-469900D02*
G54D11*
D03*
X-387350Y-279400D02*
G54D13*
D03*
X-412750Y-279400D02*
G54D13*
D03*
X-412750Y-254000D02*
G54D13*
D03*
X-387350Y-254000D02*
G54D13*
D03*
X-387350Y-228600D02*
G54D13*
D03*
X-412750Y-228600D02*
G54D13*
D03*
X-412750Y-203200D02*
G54D13*
D03*
X-387350Y-203200D02*
G54D13*
D03*
X-387350Y-177800D02*
G54D13*
D03*
G36*
X-401750Y-182365D02*
X-408185Y-188800D01*
X-417315Y-188800D01*
X-423750Y-182365D01*
X-423750Y-173235D01*
X-417315Y-166800D01*
X-408185Y-166800D01*
X-401750Y-173235D01*
X-401750Y-182365D01*
G37*
X-463550Y-361950D02*
G54D10*
D03*
X-463550Y-412750D02*
G54D10*
D03*
X-565150Y-444500D02*
G54D11*
D03*
X-514350Y-412750D02*
G54D11*
D03*
X-488950Y-412750D02*
G54D11*
D03*
X-666750Y-444500D02*
G54D11*
D03*
X-666750Y-469900D02*
G54D11*
D03*
X-666750Y-412750D02*
G54D11*
D03*
X-641350Y-412750D02*
G54D11*
D03*
X-615950Y-203200D02*
G54D10*
D03*
X-565150Y-203200D02*
G54D10*
D03*
X-463550Y-260350D02*
G54D10*
D03*
X-463550Y-336550D02*
G54D10*
D03*
X-514350Y-152400D02*
G54D11*
D03*
X-514350Y-228600D02*
G54D11*
D03*
X-539750Y-228600D02*
G54D11*
D03*
X-539750Y-152400D02*
G54D11*
D03*
X-565150Y-152400D02*
G54D10*
D03*
X-615950Y-152400D02*
G54D10*
D03*
X-615950Y-228600D02*
G54D10*
D03*
X-463550Y-260350D02*
G54D10*
D03*
X-615950Y-177800D02*
G54D10*
D03*
X-565150Y-177800D02*
G54D10*
D03*
X-514350Y-260350D02*
G54D10*
D03*
X-463550Y-228600D02*
G54D11*
D03*
X-463550Y-152400D02*
G54D11*
D03*
X-488950Y-152400D02*
G54D10*
D03*
X-304800Y-361950D02*
G54D10*
D03*
X-279400Y-273050D02*
G54D10*
D03*
X-215900Y-533400D02*
G54D10*
D03*
X-266700Y-546100D02*
G54D10*
D03*
X-685800Y-1409700D02*
G54D10*
D03*
X-685800Y-1435100D02*
G54D10*
D03*
X-685800Y-1460500D02*
G54D10*
D03*
X-685800Y-1485900D02*
G54D10*
D03*
X-609600Y-1409700D02*
G54D10*
D03*
X-609600Y-1435100D02*
G54D10*
D03*
X-609600Y-1460500D02*
G54D10*
D03*
X-609600Y-1485900D02*
G54D10*
D03*
X-685800Y-1511300D02*
G54D10*
D03*
X-609600Y-1511300D02*
G54D10*
D03*
X-685800Y-1536700D02*
G54D10*
D03*
X-685800Y-1562100D02*
G54D10*
D03*
X-609600Y-1536700D02*
G54D10*
D03*
X-609600Y-1562100D02*
G54D10*
D03*
X-584200Y-1276350D02*
G54D10*
D03*
X-635000Y-1276350D02*
G54D10*
D03*
X-685800Y-1301750D02*
G54D11*
D03*
X-609600Y-1301750D02*
G54D11*
D03*
X-685800Y-1270000D02*
G54D10*
D03*
X-685800Y-1219200D02*
G54D10*
D03*
X-609600Y-1593850D02*
G54D10*
D03*
X-660400Y-1593850D02*
G54D10*
D03*
X-609600Y-1339850D02*
G54D15*
D03*
X-658000Y-1339850D02*
G54D15*
D03*
X-609600Y-1409700D02*
G54D10*
D03*
X-609600Y-1511300D02*
G54D10*
D03*
X-546100Y-1384300D02*
G54D10*
D03*
X-546100Y-1524000D02*
G54D10*
D03*
X-609600Y-1460500D02*
G54D10*
D03*
X-330200Y-1657350D02*
G54D10*
D03*
X-682625Y-1339850D02*
G54D16*
D03*
X-682625Y-1327150D02*
G54D16*
D03*
X-682625Y-1352550D02*
G54D16*
D03*
X-695325Y-1327150D02*
G54D16*
D03*
X-695325Y-1339850D02*
G54D16*
D03*
X-695325Y-1352550D02*
G54D16*
D03*
X-368300Y-469900D02*
G54D10*
D03*
X-666750Y-609600D02*
G54D10*
D03*
X-615950Y-609600D02*
G54D10*
D03*
X-666750Y-609600D02*
G54D10*
D03*
X-539750Y-679450D02*
G54D10*
D03*
X-501650Y-977900D02*
G54D10*
D03*
X-501650Y-952500D02*
G54D10*
D03*
X-685800Y-1377950D02*
G54D11*
D03*
X-609600Y-1377950D02*
G54D11*
D03*
X-685800Y-1536700D02*
G54D10*
D03*
X-685800Y-1377950D02*
G54D11*
D03*
M02*
